  0
SECTION
  2
HEADER
  9
$ANGBASE
  50
0.0
  9
$ANGDIR
  70
1
  9
$MEASUREMENT
  70
0
  0
ENDSEC
  0
SECTION
  2
TABLES
  0
TABLE
  2
LTYPE
  70
4
  0
LTYPE
  5
40F
  2
CONTINUOUS
  70
0
  3
Solid line
  72
65
  73
0
  40
0.0
  0
LTYPE
  5
410
  2
DASHDOT
 70
0
  3
Dash Dot ____ _ ____ _
 72
65
 73
4
 40
2.0
 49
1.25
 49
-0.25
 49
0.25
 49
-0.25
  0
LTYPE
  5
411
  2
DASHED
 70
0
  3
Dashed __ __ __ __ __
 72
65
 73
2
 40
0.75
 49
0.5
 49
-0.25
  0
LTYPE
  5
43B
  2
DOTTED
 70
0
  3
Dotted .  .  .  .
 72
65
 73
2
 40
0.2
 49
0.0
 49
-0.2
  0
ENDTAB
  0
TABLE
  2
STYLE
  70
4
  0
STYLE
  2
KICAD
  70
0
  40
0
  41
1
  42
1
  50
0
  71
0
  3
isocp.shx
  0
STYLE
  2
KICADB
  70
0
  40
0
  41
1
  42
1
  50
0
  71
0
  3
isocp.shx
  0
STYLE
  2
KICADI
  70
0
  40
0
  41
1
  42
1
  50
15
  71
0
  3
isocp.shx
  0
STYLE
  2
KICADBI
  70
0
  40
0
  41
1
  42
1
  50
15
  71
0
  3
isocp.shx
  0
ENDTAB
  0
TABLE
  2
LAYER
  70
1
  0
LAYER
  2
BLACK
  70
0
  62
7
  6
CONTINUOUS
  0
ENDTAB
  0
ENDSEC
  0
SECTION
  2
ENTITIES
0
LINE
8
BLACK
6
CONTINUOUS
10
5.1879921259842519
20
-4.3267716535433074
11
5.1486220472440944
21
-4.3267716535433074
0
LINE
8
BLACK
6
CONTINUOUS
10
5.1486220472440944
20
-4.3267716535433074
11
5.1486220472440944
21
-4.2165354330708658
0
LINE
8
BLACK
6
CONTINUOUS
10
5.1486220472440944
20
-4.2165354330708658
11
5.1879921259842519
21
-4.2165354330708658
0
LINE
8
BLACK
6
CONTINUOUS
10
5.1879921259842519
20
-4.2165354330708658
11
5.1879921259842519
21
-4.3267716535433074
0
LINE
8
BLACK
6
CONTINUOUS
10
5.3828740157480315
20
-4.3267716535433074
11
5.3435039370078741
21
-4.3267716535433074
0
LINE
8
BLACK
6
CONTINUOUS
10
5.3435039370078741
20
-4.3267716535433074
11
5.3435039370078741
21
-4.2165354330708658
0
LINE
8
BLACK
6
CONTINUOUS
10
5.3435039370078741
20
-4.2165354330708658
11
5.3828740157480315
21
-4.2165354330708658
0
LINE
8
BLACK
6
CONTINUOUS
10
5.3828740157480315
20
-4.2165354330708658
11
5.3828740157480315
21
-4.3267716535433074
0
LINE
8
BLACK
6
CONTINUOUS
10
5.4537401574803148
20
-4.3267716535433074
11
5.4143700787401574
21
-4.3267716535433074
0
LINE
8
BLACK
6
CONTINUOUS
10
5.4143700787401574
20
-4.3267716535433074
11
5.4143700787401574
21
-4.2165354330708658
0
LINE
8
BLACK
6
CONTINUOUS
10
5.4143700787401574
20
-4.2165354330708658
11
5.4537401574803148
21
-4.2165354330708658
0
LINE
8
BLACK
6
CONTINUOUS
10
5.4537401574803148
20
-4.2165354330708658
11
5.4537401574803148
21
-4.3267716535433074
0
LINE
8
BLACK
6
CONTINUOUS
10
5.6486220472440944
20
-4.3267716535433074
11
5.609251968503937
21
-4.3267716535433074
0
LINE
8
BLACK
6
CONTINUOUS
10
5.609251968503937
20
-4.3267716535433074
11
5.609251968503937
21
-4.2165354330708658
0
LINE
8
BLACK
6
CONTINUOUS
10
5.609251968503937
20
-4.2165354330708658
11
5.6486220472440944
21
-4.2165354330708658
0
LINE
8
BLACK
6
CONTINUOUS
10
5.6486220472440944
20
-4.2165354330708658
11
5.6486220472440944
21
-4.3267716535433074
0
LINE
8
BLACK
6
CONTINUOUS
10
6.7372047244094491
20
-4.3267716535433074
11
6.6978346456692908
21
-4.3267716535433074
0
LINE
8
BLACK
6
CONTINUOUS
10
6.6978346456692908
20
-4.3267716535433074
11
6.6978346456692908
21
-4.2165354330708658
0
LINE
8
BLACK
6
CONTINUOUS
10
6.6978346456692908
20
-4.2165354330708658
11
6.7372047244094491
21
-4.2165354330708658
0
LINE
8
BLACK
6
CONTINUOUS
10
6.7372047244094491
20
-4.2165354330708658
11
6.7372047244094491
21
-4.3267716535433074
0
LINE
8
BLACK
6
CONTINUOUS
10
6.9320866141732278
20
-4.3267716535433074
11
6.8927165354330704
21
-4.3267716535433074
0
LINE
8
BLACK
6
CONTINUOUS
10
6.8927165354330704
20
-4.3267716535433074
11
6.8927165354330704
21
-4.2165354330708658
0
LINE
8
BLACK
6
CONTINUOUS
10
6.8927165354330704
20
-4.2165354330708658
11
6.9320866141732278
21
-4.2165354330708658
0
LINE
8
BLACK
6
CONTINUOUS
10
6.9320866141732278
20
-4.2165354330708658
11
6.9320866141732278
21
-4.3267716535433074
0
LINE
8
BLACK
6
CONTINUOUS
10
7.0088582677165352
20
-4.3267716535433074
11
6.9694881889763778
21
-4.3267716535433074
0
LINE
8
BLACK
6
CONTINUOUS
10
6.9694881889763778
20
-4.3267716535433074
11
6.9694881889763778
21
-4.2165354330708658
0
LINE
8
BLACK
6
CONTINUOUS
10
6.9694881889763778
20
-4.2165354330708658
11
7.0088582677165352
21
-4.2165354330708658
0
LINE
8
BLACK
6
CONTINUOUS
10
7.0088582677165352
20
-4.2165354330708658
11
7.0088582677165352
21
-4.3267716535433074
0
LINE
8
BLACK
6
CONTINUOUS
10
7.2037401574803148
20
-4.3267716535433074
11
7.1643700787401574
21
-4.3267716535433074
0
LINE
8
BLACK
6
CONTINUOUS
10
7.1643700787401574
20
-4.3267716535433074
11
7.1643700787401574
21
-4.2165354330708658
0
LINE
8
BLACK
6
CONTINUOUS
10
7.1643700787401574
20
-4.2165354330708658
11
7.2037401574803148
21
-4.2165354330708658
0
LINE
8
BLACK
6
CONTINUOUS
10
7.2037401574803148
20
-4.2165354330708658
11
7.2037401574803148
21
-4.3267716535433074
0
LINE
8
BLACK
6
CONTINUOUS
10
5.9513188976377949
20
-4.326338582677165
11
5.9119488188976375
21
-4.326338582677165
0
LINE
8
BLACK
6
CONTINUOUS
10
5.9119488188976375
20
-4.326338582677165
11
5.9119488188976375
21
-4.2161023622047242
0
LINE
8
BLACK
6
CONTINUOUS
10
5.9119488188976375
20
-4.2161023622047242
11
5.9513188976377949
21
-4.2161023622047242
0
LINE
8
BLACK
6
CONTINUOUS
10
5.9513188976377949
20
-4.2161023622047242
11
5.9513188976377949
21
-4.326338582677165
0
LINE
8
BLACK
6
CONTINUOUS
10
6.1462007874015745
20
-4.326338582677165
11
6.1068307086614171
21
-4.326338582677165
0
LINE
8
BLACK
6
CONTINUOUS
10
6.1068307086614171
20
-4.326338582677165
11
6.1068307086614171
21
-4.2161023622047242
0
LINE
8
BLACK
6
CONTINUOUS
10
6.1068307086614171
20
-4.2161023622047242
11
6.1462007874015745
21
-4.2161023622047242
0
LINE
8
BLACK
6
CONTINUOUS
10
6.1462007874015745
20
-4.2161023622047242
11
6.1462007874015745
21
-4.326338582677165
0
LINE
8
BLACK
6
CONTINUOUS
10
6.2170669291338578
20
-4.326338582677165
11
6.1776968503937004
21
-4.326338582677165
0
LINE
8
BLACK
6
CONTINUOUS
10
6.1776968503937004
20
-4.326338582677165
11
6.1776968503937004
21
-4.2161023622047242
0
LINE
8
BLACK
6
CONTINUOUS
10
6.1776968503937004
20
-4.2161023622047242
11
6.2170669291338578
21
-4.2161023622047242
0
LINE
8
BLACK
6
CONTINUOUS
10
6.2170669291338578
20
-4.2161023622047242
11
6.2170669291338578
21
-4.326338582677165
0
LINE
8
BLACK
6
CONTINUOUS
10
6.4119488188976375
20
-4.326338582677165
11
6.37257874015748
21
-4.326338582677165
0
LINE
8
BLACK
6
CONTINUOUS
10
6.37257874015748
20
-4.326338582677165
11
6.37257874015748
21
-4.2161023622047242
0
LINE
8
BLACK
6
CONTINUOUS
10
6.37257874015748
20
-4.2161023622047242
11
6.4119488188976375
21
-4.2161023622047242
0
LINE
8
BLACK
6
CONTINUOUS
10
6.4119488188976375
20
-4.2161023622047242
11
6.4119488188976375
21
-4.326338582677165
0
LINE
8
BLACK
6
CONTINUOUS
10
7.5438385826771652
20
-4.3243700787401576
11
7.5044685039370078
21
-4.3243700787401576
0
LINE
8
BLACK
6
CONTINUOUS
10
7.5044685039370078
20
-4.3243700787401576
11
7.5044685039370078
21
-4.2141338582677168
0
LINE
8
BLACK
6
CONTINUOUS
10
7.5044685039370078
20
-4.2141338582677168
11
7.5438385826771652
21
-4.2141338582677168
0
LINE
8
BLACK
6
CONTINUOUS
10
7.5438385826771652
20
-4.2141338582677168
11
7.5438385826771652
21
-4.3243700787401576
0
LINE
8
BLACK
6
CONTINUOUS
10
7.7387204724409449
20
-4.3243700787401576
11
7.6993503937007874
21
-4.3243700787401576
0
LINE
8
BLACK
6
CONTINUOUS
10
7.6993503937007874
20
-4.3243700787401576
11
7.6993503937007874
21
-4.2141338582677168
0
LINE
8
BLACK
6
CONTINUOUS
10
7.6993503937007874
20
-4.2141338582677168
11
7.7387204724409449
21
-4.2141338582677168
0
LINE
8
BLACK
6
CONTINUOUS
10
7.7387204724409449
20
-4.2141338582677168
11
7.7387204724409449
21
-4.3243700787401576
0
LINE
8
BLACK
6
CONTINUOUS
10
7.8115551181102356
20
-4.3243700787401576
11
7.7721850393700782
21
-4.3243700787401576
0
LINE
8
BLACK
6
CONTINUOUS
10
7.7721850393700782
20
-4.3243700787401576
11
7.7721850393700782
21
-4.2141338582677168
0
LINE
8
BLACK
6
CONTINUOUS
10
7.7721850393700782
20
-4.2141338582677168
11
7.8115551181102356
21
-4.2141338582677168
0
LINE
8
BLACK
6
CONTINUOUS
10
7.8115551181102356
20
-4.2141338582677168
11
7.8115551181102356
21
-4.3243700787401576
0
LINE
8
BLACK
6
CONTINUOUS
10
8.0064370078740161
20
-4.3243700787401576
11
7.9670669291338578
21
-4.3243700787401576
0
LINE
8
BLACK
6
CONTINUOUS
10
7.9670669291338578
20
-4.3243700787401576
11
7.9670669291338578
21
-4.2141338582677168
0
LINE
8
BLACK
6
CONTINUOUS
10
7.9670669291338578
20
-4.2141338582677168
11
8.0064370078740161
21
-4.2141338582677168
0
LINE
8
BLACK
6
CONTINUOUS
10
8.0064370078740161
20
-4.2141338582677168
11
8.0064370078740161
21
-4.3243700787401576
0
LINE
8
BLACK
6
CONTINUOUS
10
5.252952755905512
20
-4.1909448818897639
11
5.2293307086614176
21
-4.1909448818897639
0
LINE
8
BLACK
6
CONTINUOUS
10
5.2293307086614176
20
-4.1909448818897639
11
5.2293307086614176
21
-4.1240157480314963
0
LINE
8
BLACK
6
CONTINUOUS
10
5.2293307086614176
20
-4.1240157480314963
11
5.252952755905512
21
-4.1240157480314963
0
LINE
8
BLACK
6
CONTINUOUS
10
5.252952755905512
20
-4.1240157480314963
11
5.252952755905512
21
-4.1909448818897639
0
LINE
8
BLACK
6
CONTINUOUS
10
5.3021653543307083
20
-4.1909448818897639
11
5.2785433070866139
21
-4.1909448818897639
0
LINE
8
BLACK
6
CONTINUOUS
10
5.2785433070866139
20
-4.1909448818897639
11
5.2785433070866139
21
-4.1240157480314963
0
LINE
8
BLACK
6
CONTINUOUS
10
5.2785433070866139
20
-4.1240157480314963
11
5.3021653543307083
21
-4.1240157480314963
0
LINE
8
BLACK
6
CONTINUOUS
10
5.3021653543307083
20
-4.1240157480314963
11
5.3021653543307083
21
-4.1909448818897639
0
LINE
8
BLACK
6
CONTINUOUS
10
5.518700787401575
20
-4.1909448818897639
11
5.4950787401574805
21
-4.1909448818897639
0
LINE
8
BLACK
6
CONTINUOUS
10
5.4950787401574805
20
-4.1909448818897639
11
5.4950787401574805
21
-4.1240157480314963
0
LINE
8
BLACK
6
CONTINUOUS
10
5.4950787401574805
20
-4.1240157480314963
11
5.518700787401575
21
-4.1240157480314963
0
LINE
8
BLACK
6
CONTINUOUS
10
5.518700787401575
20
-4.1240157480314963
11
5.518700787401575
21
-4.1909448818897639
0
LINE
8
BLACK
6
CONTINUOUS
10
5.5679133858267713
20
-4.1909448818897639
11
5.5442913385826769
21
-4.1909448818897639
0
LINE
8
BLACK
6
CONTINUOUS
10
5.5442913385826769
20
-4.1909448818897639
11
5.5442913385826769
21
-4.1240157480314963
0
LINE
8
BLACK
6
CONTINUOUS
10
5.5442913385826769
20
-4.1240157480314963
11
5.5679133858267713
21
-4.1240157480314963
0
LINE
8
BLACK
6
CONTINUOUS
10
5.5679133858267713
20
-4.1240157480314963
11
5.5679133858267713
21
-4.1909448818897639
0
LINE
8
BLACK
6
CONTINUOUS
10
6.8021653543307083
20
-4.1909448818897639
11
6.7785433070866139
21
-4.1909448818897639
0
LINE
8
BLACK
6
CONTINUOUS
10
6.7785433070866139
20
-4.1909448818897639
11
6.7785433070866139
21
-4.1240157480314963
0
LINE
8
BLACK
6
CONTINUOUS
10
6.7785433070866139
20
-4.1240157480314963
11
6.8021653543307083
21
-4.1240157480314963
0
LINE
8
BLACK
6
CONTINUOUS
10
6.8021653543307083
20
-4.1240157480314963
11
6.8021653543307083
21
-4.1909448818897639
0
LINE
8
BLACK
6
CONTINUOUS
10
6.8513779527559056
20
-4.1909448818897639
11
6.8277559055118111
21
-4.1909448818897639
0
LINE
8
BLACK
6
CONTINUOUS
10
6.8277559055118111
20
-4.1909448818897639
11
6.8277559055118111
21
-4.1240157480314963
0
LINE
8
BLACK
6
CONTINUOUS
10
6.8277559055118111
20
-4.1240157480314963
11
6.8513779527559056
21
-4.1240157480314963
0
LINE
8
BLACK
6
CONTINUOUS
10
6.8513779527559056
20
-4.1240157480314963
11
6.8513779527559056
21
-4.1909448818897639
0
LINE
8
BLACK
6
CONTINUOUS
10
7.0738188976377954
20
-4.1909448818897639
11
7.0501968503937009
21
-4.1909448818897639
0
LINE
8
BLACK
6
CONTINUOUS
10
7.0501968503937009
20
-4.1909448818897639
11
7.0501968503937009
21
-4.1240157480314963
0
LINE
8
BLACK
6
CONTINUOUS
10
7.0501968503937009
20
-4.1240157480314963
11
7.0738188976377954
21
-4.1240157480314963
0
LINE
8
BLACK
6
CONTINUOUS
10
7.0738188976377954
20
-4.1240157480314963
11
7.0738188976377954
21
-4.1909448818897639
0
LINE
8
BLACK
6
CONTINUOUS
10
7.1230314960629917
20
-4.1909448818897639
11
7.0994094488188972
21
-4.1909448818897639
0
LINE
8
BLACK
6
CONTINUOUS
10
7.0994094488188972
20
-4.1909448818897639
11
7.0994094488188972
21
-4.1240157480314963
0
LINE
8
BLACK
6
CONTINUOUS
10
7.0994094488188972
20
-4.1240157480314963
11
7.1230314960629917
21
-4.1240157480314963
0
LINE
8
BLACK
6
CONTINUOUS
10
7.1230314960629917
20
-4.1240157480314963
11
7.1230314960629917
21
-4.1909448818897639
0
LINE
8
BLACK
6
CONTINUOUS
10
6.016279527559055
20
-4.1905118110236224
11
5.9926574803149606
21
-4.1905118110236224
0
LINE
8
BLACK
6
CONTINUOUS
10
5.9926574803149606
20
-4.1905118110236224
11
5.9926574803149606
21
-4.1235826771653539
0
LINE
8
BLACK
6
CONTINUOUS
10
5.9926574803149606
20
-4.1235826771653539
11
6.016279527559055
21
-4.1235826771653539
0
LINE
8
BLACK
6
CONTINUOUS
10
6.016279527559055
20
-4.1235826771653539
11
6.016279527559055
21
-4.1905118110236224
0
LINE
8
BLACK
6
CONTINUOUS
10
6.0654921259842522
20
-4.1905118110236224
11
6.0418700787401569
21
-4.1905118110236224
0
LINE
8
BLACK
6
CONTINUOUS
10
6.0418700787401569
20
-4.1905118110236224
11
6.0418700787401569
21
-4.1235826771653539
0
LINE
8
BLACK
6
CONTINUOUS
10
6.0418700787401569
20
-4.1235826771653539
11
6.0654921259842522
21
-4.1235826771653539
0
LINE
8
BLACK
6
CONTINUOUS
10
6.0654921259842522
20
-4.1235826771653539
11
6.0654921259842522
21
-4.1905118110236224
0
LINE
8
BLACK
6
CONTINUOUS
10
6.282027559055118
20
-4.1905118110236224
11
6.2584055118110236
21
-4.1905118110236224
0
LINE
8
BLACK
6
CONTINUOUS
10
6.2584055118110236
20
-4.1905118110236224
11
6.2584055118110236
21
-4.1235826771653539
0
LINE
8
BLACK
6
CONTINUOUS
10
6.2584055118110236
20
-4.1235826771653539
11
6.282027559055118
21
-4.1235826771653539
0
LINE
8
BLACK
6
CONTINUOUS
10
6.282027559055118
20
-4.1235826771653539
11
6.282027559055118
21
-4.1905118110236224
0
LINE
8
BLACK
6
CONTINUOUS
10
6.3312401574803152
20
-4.1905118110236224
11
6.3076181102362208
21
-4.1905118110236224
0
LINE
8
BLACK
6
CONTINUOUS
10
6.3076181102362208
20
-4.1905118110236224
11
6.3076181102362208
21
-4.1235826771653539
0
LINE
8
BLACK
6
CONTINUOUS
10
6.3076181102362208
20
-4.1235826771653539
11
6.3312401574803152
21
-4.1235826771653539
0
LINE
8
BLACK
6
CONTINUOUS
10
6.3312401574803152
20
-4.1235826771653539
11
6.3312401574803152
21
-4.1905118110236224
0
LINE
8
BLACK
6
CONTINUOUS
10
7.6087992125984254
20
-4.188543307086614
11
7.585177165354331
21
-4.188543307086614
0
LINE
8
BLACK
6
CONTINUOUS
10
7.585177165354331
20
-4.188543307086614
11
7.585177165354331
21
-4.1216141732283464
0
LINE
8
BLACK
6
CONTINUOUS
10
7.585177165354331
20
-4.1216141732283464
11
7.6087992125984254
21
-4.1216141732283464
0
LINE
8
BLACK
6
CONTINUOUS
10
7.6087992125984254
20
-4.1216141732283464
11
7.6087992125984254
21
-4.188543307086614
0
LINE
8
BLACK
6
CONTINUOUS
10
7.6580118110236217
20
-4.188543307086614
11
7.6343897637795273
21
-4.188543307086614
0
LINE
8
BLACK
6
CONTINUOUS
10
7.6343897637795273
20
-4.188543307086614
11
7.6343897637795273
21
-4.1216141732283464
0
LINE
8
BLACK
6
CONTINUOUS
10
7.6343897637795273
20
-4.1216141732283464
11
7.6580118110236217
21
-4.1216141732283464
0
LINE
8
BLACK
6
CONTINUOUS
10
7.6580118110236217
20
-4.1216141732283464
11
7.6580118110236217
21
-4.188543307086614
0
LINE
8
BLACK
6
CONTINUOUS
10
7.8765157480314958
20
-4.188543307086614
11
7.8528937007874013
21
-4.188543307086614
0
LINE
8
BLACK
6
CONTINUOUS
10
7.8528937007874013
20
-4.188543307086614
11
7.8528937007874013
21
-4.1216141732283464
0
LINE
8
BLACK
6
CONTINUOUS
10
7.8528937007874013
20
-4.1216141732283464
11
7.8765157480314958
21
-4.1216141732283464
0
LINE
8
BLACK
6
CONTINUOUS
10
7.8765157480314958
20
-4.1216141732283464
11
7.8765157480314958
21
-4.188543307086614
0
LINE
8
BLACK
6
CONTINUOUS
10
7.925728346456693
20
-4.188543307086614
11
7.9021062992125986
21
-4.188543307086614
0
LINE
8
BLACK
6
CONTINUOUS
10
7.9021062992125986
20
-4.188543307086614
11
7.9021062992125986
21
-4.1216141732283464
0
LINE
8
BLACK
6
CONTINUOUS
10
7.9021062992125986
20
-4.1216141732283464
11
7.925728346456693
21
-4.1216141732283464
0
LINE
8
BLACK
6
CONTINUOUS
10
7.925728346456693
20
-4.1216141732283464
11
7.925728346456693
21
-4.188543307086614
  0
ENDSEC
  0
EOF
