%TF.GenerationSoftware,KiCad,Pcbnew,8.0.8*%
%TF.CreationDate,2025-12-07T22:54:29+08:00*%
%TF.ProjectId,QuietLDO,51756965-744c-4444-9f2e-6b696361645f,rev?*%
%TF.SameCoordinates,Original*%
%TF.FileFunction,Legend,Bot*%
%TF.FilePolarity,Positive*%
%FSLAX46Y46*%
G04 Gerber Fmt 4.6, Leading zero omitted, Abs format (unit mm)*
G04 Created by KiCad (PCBNEW 8.0.8) date 2025-12-07 22:54:29*
%MOMM*%
%LPD*%
G01*
G04 APERTURE LIST*
%ADD10C,0.254000*%
%ADD11C,0.000000*%
G04 APERTURE END LIST*
D10*
X129400714Y-105468758D02*
X128433095Y-105468758D01*
X128916904Y-105952568D02*
X128916904Y-104984949D01*
D11*
%TO.C,G\u002A\u002A\u002A*%
G36*
X190853267Y-86664800D02*
G01*
X190810933Y-86707134D01*
X190768600Y-86664800D01*
X190810933Y-86622467D01*
X190853267Y-86664800D01*
G37*
G36*
X191022600Y-86918800D02*
G01*
X190980267Y-86961134D01*
X190937933Y-86918800D01*
X190980267Y-86876467D01*
X191022600Y-86918800D01*
G37*
G36*
X191276600Y-86749467D02*
G01*
X191234267Y-86791800D01*
X191191933Y-86749467D01*
X191234267Y-86707134D01*
X191276600Y-86749467D01*
G37*
G36*
X191361267Y-86918800D02*
G01*
X191318933Y-86961134D01*
X191276600Y-86918800D01*
X191318933Y-86876467D01*
X191361267Y-86918800D01*
G37*
G36*
X191615267Y-84886800D02*
G01*
X191572933Y-84929134D01*
X191530600Y-84886800D01*
X191572933Y-84844467D01*
X191615267Y-84886800D01*
G37*
G36*
X191784600Y-87172800D02*
G01*
X191742267Y-87215134D01*
X191699933Y-87172800D01*
X191742267Y-87130467D01*
X191784600Y-87172800D01*
G37*
G36*
X191869267Y-84886800D02*
G01*
X191826933Y-84929134D01*
X191784600Y-84886800D01*
X191826933Y-84844467D01*
X191869267Y-84886800D01*
G37*
G36*
X191953933Y-85056134D02*
G01*
X191911600Y-85098467D01*
X191869267Y-85056134D01*
X191911600Y-85013800D01*
X191953933Y-85056134D01*
G37*
G36*
X192123267Y-84971467D02*
G01*
X192080933Y-85013800D01*
X192038600Y-84971467D01*
X192080933Y-84929134D01*
X192123267Y-84971467D01*
G37*
G36*
X192377267Y-74726800D02*
G01*
X192334933Y-74769134D01*
X192292600Y-74726800D01*
X192334933Y-74684467D01*
X192377267Y-74726800D01*
G37*
G36*
X192377267Y-84971467D02*
G01*
X192334933Y-85013800D01*
X192292600Y-84971467D01*
X192334933Y-84929134D01*
X192377267Y-84971467D01*
G37*
G36*
X192546600Y-85140800D02*
G01*
X192504267Y-85183134D01*
X192461933Y-85140800D01*
X192504267Y-85098467D01*
X192546600Y-85140800D01*
G37*
G36*
X192969933Y-85056134D02*
G01*
X192927600Y-85098467D01*
X192885267Y-85056134D01*
X192927600Y-85013800D01*
X192969933Y-85056134D01*
G37*
G36*
X196864600Y-78790800D02*
G01*
X196822267Y-78833134D01*
X196779933Y-78790800D01*
X196822267Y-78748467D01*
X196864600Y-78790800D01*
G37*
G36*
X198303933Y-85733467D02*
G01*
X198261600Y-85775800D01*
X198219267Y-85733467D01*
X198261600Y-85691134D01*
X198303933Y-85733467D01*
G37*
G36*
X198727267Y-87342134D02*
G01*
X198684933Y-87384467D01*
X198642600Y-87342134D01*
X198684933Y-87299800D01*
X198727267Y-87342134D01*
G37*
G36*
X199150600Y-87342134D02*
G01*
X199108267Y-87384467D01*
X199065933Y-87342134D01*
X199108267Y-87299800D01*
X199150600Y-87342134D01*
G37*
G36*
X199404600Y-85564134D02*
G01*
X199362267Y-85606467D01*
X199319933Y-85564134D01*
X199362267Y-85521800D01*
X199404600Y-85564134D01*
G37*
G36*
X199404600Y-87765467D02*
G01*
X199362267Y-87807800D01*
X199319933Y-87765467D01*
X199362267Y-87723134D01*
X199404600Y-87765467D01*
G37*
G36*
X199658600Y-85902800D02*
G01*
X199616267Y-85945134D01*
X199573933Y-85902800D01*
X199616267Y-85860467D01*
X199658600Y-85902800D01*
G37*
G36*
X200081933Y-84802134D02*
G01*
X200039600Y-84844467D01*
X199997267Y-84802134D01*
X200039600Y-84759800D01*
X200081933Y-84802134D01*
G37*
G36*
X201182600Y-79214134D02*
G01*
X201140267Y-79256467D01*
X201097933Y-79214134D01*
X201140267Y-79171800D01*
X201182600Y-79214134D01*
G37*
G36*
X201267267Y-79637467D02*
G01*
X201224933Y-79679800D01*
X201182600Y-79637467D01*
X201224933Y-79595134D01*
X201267267Y-79637467D01*
G37*
G36*
X196582378Y-81147356D02*
G01*
X196592511Y-81247835D01*
X196582378Y-81260245D01*
X196532043Y-81248622D01*
X196525933Y-81203800D01*
X196556911Y-81134110D01*
X196582378Y-81147356D01*
G37*
G36*
X201071103Y-78732592D02*
G01*
X201081197Y-78864916D01*
X201064419Y-78894870D01*
X201025937Y-78869619D01*
X201019951Y-78783745D01*
X201040628Y-78693402D01*
X201071103Y-78732592D01*
G37*
G36*
X192461288Y-84726283D02*
G01*
X192472439Y-84737222D01*
X192539316Y-84848230D01*
X192530248Y-84889041D01*
X192467267Y-84863632D01*
X192425043Y-84784618D01*
X192399266Y-84685704D01*
X192461288Y-84726283D01*
G37*
G36*
X199167533Y-86774867D02*
G01*
X199233381Y-86887749D01*
X199170285Y-86920468D01*
X199065933Y-86876467D01*
X198991851Y-86782992D01*
X199006296Y-86738548D01*
X199109239Y-86733680D01*
X199167533Y-86774867D01*
G37*
G36*
X190657363Y-86751621D02*
G01*
X190610066Y-86812967D01*
X190486486Y-86944596D01*
X190431323Y-86944024D01*
X190429933Y-86929167D01*
X190487792Y-86858493D01*
X190578100Y-86781000D01*
X190678387Y-86707777D01*
X190657363Y-86751621D01*
G37*
G36*
X191338961Y-76006259D02*
G01*
X191276600Y-76123800D01*
X191210846Y-76203142D01*
X191193516Y-76126884D01*
X191193230Y-76107630D01*
X191236373Y-75954543D01*
X191276600Y-75912134D01*
X191351392Y-75905301D01*
X191338961Y-76006259D01*
G37*
G36*
X191751319Y-86844679D02*
G01*
X191657600Y-86961134D01*
X191530370Y-87086350D01*
X191462022Y-87130467D01*
X191479214Y-87077588D01*
X191572933Y-86961134D01*
X191700163Y-86835917D01*
X191768511Y-86791800D01*
X191751319Y-86844679D01*
G37*
G36*
X192012037Y-87015824D02*
G01*
X191996267Y-87045800D01*
X191916492Y-87126657D01*
X191901606Y-87130467D01*
X191895830Y-87075777D01*
X191911600Y-87045800D01*
X191991374Y-86964943D01*
X192006260Y-86961134D01*
X192012037Y-87015824D01*
G37*
G36*
X192193605Y-86075518D02*
G01*
X192207933Y-86114467D01*
X192139357Y-86189581D01*
X192080933Y-86199134D01*
X191968261Y-86153416D01*
X191953933Y-86114467D01*
X192022510Y-86039352D01*
X192080933Y-86029800D01*
X192193605Y-86075518D01*
G37*
G36*
X192266037Y-86846490D02*
G01*
X192250267Y-86876467D01*
X192170492Y-86957324D01*
X192155606Y-86961134D01*
X192149830Y-86906443D01*
X192165600Y-86876467D01*
X192245374Y-86795610D01*
X192260260Y-86791800D01*
X192266037Y-86846490D01*
G37*
G36*
X193195478Y-84164849D02*
G01*
X193193477Y-84214746D01*
X193157426Y-84383893D01*
X193091760Y-84410074D01*
X193031934Y-84314855D01*
X193050441Y-84172423D01*
X193098253Y-84108527D01*
X193175741Y-84066661D01*
X193195478Y-84164849D01*
G37*
G36*
X198277370Y-87608490D02*
G01*
X198261600Y-87638467D01*
X198181826Y-87719324D01*
X198166940Y-87723134D01*
X198161163Y-87668443D01*
X198176933Y-87638467D01*
X198256707Y-87557610D01*
X198271593Y-87553800D01*
X198277370Y-87608490D01*
G37*
G36*
X198531370Y-87439157D02*
G01*
X198515600Y-87469134D01*
X198435826Y-87549990D01*
X198420940Y-87553800D01*
X198415163Y-87499110D01*
X198430933Y-87469134D01*
X198510707Y-87388277D01*
X198525593Y-87384467D01*
X198531370Y-87439157D01*
G37*
G36*
X198795779Y-86666671D02*
G01*
X198811933Y-86707134D01*
X198751166Y-86789377D01*
X198732263Y-86791800D01*
X198617596Y-86730256D01*
X198600267Y-86707134D01*
X198619460Y-86634650D01*
X198679936Y-86622467D01*
X198795779Y-86666671D01*
G37*
G36*
X199706619Y-84303954D02*
G01*
X199730060Y-84376319D01*
X199609342Y-84454408D01*
X199468801Y-84499439D01*
X199408355Y-84461445D01*
X199378043Y-84389384D01*
X199402173Y-84296668D01*
X199538318Y-84272967D01*
X199706619Y-84303954D01*
G37*
G36*
X199716703Y-87523824D02*
G01*
X199700933Y-87553800D01*
X199621159Y-87634657D01*
X199606273Y-87638467D01*
X199600496Y-87583777D01*
X199616267Y-87553800D01*
X199696041Y-87472943D01*
X199710927Y-87469134D01*
X199716703Y-87523824D01*
G37*
G36*
X199954933Y-87682333D02*
G01*
X199751092Y-87826249D01*
X199616267Y-87903341D01*
X199446933Y-87986475D01*
X199616267Y-87848600D01*
X199820108Y-87704685D01*
X199954933Y-87627592D01*
X200124267Y-87544459D01*
X199954933Y-87682333D01*
G37*
G36*
X199402217Y-87473236D02*
G01*
X199387502Y-87500247D01*
X199284186Y-87573415D01*
X199065933Y-87715216D01*
X198769600Y-87906461D01*
X199023600Y-87688218D01*
X199204166Y-87548503D01*
X199335989Y-87473561D01*
X199355211Y-87469554D01*
X199402217Y-87473236D01*
G37*
G36*
X133554235Y-74869078D02*
G01*
X133721278Y-74940810D01*
X133778565Y-75055743D01*
X133721196Y-75157774D01*
X133582475Y-75192467D01*
X133414408Y-75156095D01*
X133364682Y-75025998D01*
X133364600Y-75017245D01*
X133405234Y-74885684D01*
X133553393Y-74868958D01*
X133554235Y-74869078D01*
G37*
G36*
X189019697Y-86276837D02*
G01*
X189142282Y-86401797D01*
X189249996Y-86550534D01*
X189308467Y-86669455D01*
X189295677Y-86707134D01*
X189226894Y-86644711D01*
X189104174Y-86489201D01*
X189063173Y-86431967D01*
X188960565Y-86273232D01*
X188964069Y-86238361D01*
X189019697Y-86276837D01*
G37*
G36*
X198299080Y-85391076D02*
G01*
X198303933Y-85432081D01*
X198364068Y-85501250D01*
X198435331Y-85489495D01*
X198522730Y-85483578D01*
X198515000Y-85522770D01*
X198393775Y-85603012D01*
X198267933Y-85530891D01*
X198258118Y-85516167D01*
X198238948Y-85398404D01*
X198253122Y-85375056D01*
X198299080Y-85391076D01*
G37*
G36*
X158920992Y-70241653D02*
G01*
X158933933Y-70259999D01*
X158857564Y-70409731D01*
X158657786Y-70509150D01*
X158445125Y-70535800D01*
X158250006Y-70517349D01*
X158184059Y-70447597D01*
X158187622Y-70387634D01*
X158263567Y-70281203D01*
X158461365Y-70224776D01*
X158574830Y-70213432D01*
X158793836Y-70212719D01*
X158920992Y-70241653D01*
G37*
G36*
X196946635Y-76992836D02*
G01*
X196960329Y-77037847D01*
X196998327Y-77351238D01*
X196969980Y-77753710D01*
X196962915Y-77799847D01*
X196926050Y-78022811D01*
X196903035Y-78126374D01*
X196890435Y-78098623D01*
X196884814Y-77927640D01*
X196882737Y-77601511D01*
X196882458Y-77520800D01*
X196884124Y-77173796D01*
X196893705Y-76980495D01*
X196913706Y-76925356D01*
X196946635Y-76992836D01*
G37*
G36*
X200053324Y-85707754D02*
G01*
X200075249Y-85801964D01*
X200054819Y-85852321D01*
X200025860Y-85796967D01*
X199931909Y-85698812D01*
X199896486Y-85691134D01*
X199845906Y-85753007D01*
X199858551Y-85818134D01*
X199878873Y-85934668D01*
X199820478Y-85908541D01*
X199781040Y-85853090D01*
X199779516Y-85719891D01*
X199811000Y-85674200D01*
X199942719Y-85631631D01*
X200053324Y-85707754D01*
G37*
G36*
X199359052Y-73961507D02*
G01*
X199545019Y-74051398D01*
X199790746Y-74186073D01*
X200055262Y-74341570D01*
X200297596Y-74493930D01*
X200476778Y-74619193D01*
X200548393Y-74685751D01*
X200568997Y-74751293D01*
X200497033Y-74742005D01*
X200318897Y-74651687D01*
X200020984Y-74474138D01*
X199848116Y-74366574D01*
X199576170Y-74188895D01*
X199375836Y-74044315D01*
X199277563Y-73955432D01*
X199273817Y-73940361D01*
X199359052Y-73961507D01*
G37*
G36*
X195922118Y-87915402D02*
G01*
X195933267Y-87958879D01*
X195864629Y-88048494D01*
X195701618Y-88160411D01*
X195508582Y-88257937D01*
X195349873Y-88304378D01*
X195327536Y-88304270D01*
X195154145Y-88279364D01*
X195023100Y-88256048D01*
X194874368Y-88194154D01*
X194832600Y-88131156D01*
X194907294Y-88081798D01*
X195113831Y-88095800D01*
X195130019Y-88098751D01*
X195436848Y-88102921D01*
X195614525Y-88023507D01*
X195818925Y-87907881D01*
X195922118Y-87915402D01*
G37*
G36*
X200492824Y-76920444D02*
G01*
X200558718Y-77023973D01*
X200651737Y-77245161D01*
X200756876Y-77537658D01*
X200859126Y-77855114D01*
X200943480Y-78151182D01*
X200994931Y-78379510D01*
X201000666Y-78488889D01*
X200964061Y-78453894D01*
X200890200Y-78287411D01*
X200791666Y-78019786D01*
X200730467Y-77837253D01*
X200619021Y-77496789D01*
X200523859Y-77210436D01*
X200459517Y-77021743D01*
X200444316Y-76979848D01*
X200445643Y-76904545D01*
X200492824Y-76920444D01*
G37*
G36*
X198023281Y-82590550D02*
G01*
X198134600Y-82603084D01*
X198453545Y-82652440D01*
X198809874Y-82724372D01*
X199158222Y-82807604D01*
X199453221Y-82890861D01*
X199649508Y-82962865D01*
X199696700Y-82991350D01*
X199747548Y-83055557D01*
X199739033Y-83059487D01*
X199645922Y-83038706D01*
X199423431Y-82987867D01*
X199107145Y-82915128D01*
X198811933Y-82846981D01*
X198330547Y-82732910D01*
X198013124Y-82651000D01*
X197857530Y-82600483D01*
X197861628Y-82580589D01*
X198023281Y-82590550D01*
G37*
G36*
X202712956Y-76629435D02*
G01*
X202765980Y-76685476D01*
X202862734Y-76820914D01*
X203024311Y-77060520D01*
X203122597Y-77207153D01*
X203290116Y-77475930D01*
X203405409Y-77698138D01*
X203447064Y-77831655D01*
X203445403Y-77842153D01*
X203392024Y-77836356D01*
X203294758Y-77707878D01*
X203232012Y-77595606D01*
X203063245Y-77307240D01*
X202869694Y-77030927D01*
X202827112Y-76978197D01*
X202698691Y-76800686D01*
X202647694Y-76677671D01*
X202653731Y-76656447D01*
X202682570Y-76628016D01*
X202712956Y-76629435D01*
G37*
G36*
X142642655Y-73329735D02*
G01*
X142888757Y-73356048D01*
X142975918Y-73436041D01*
X142920842Y-73554831D01*
X142873291Y-73709577D01*
X142854044Y-74015064D01*
X142862985Y-74430455D01*
X142878542Y-74791009D01*
X142878572Y-75014967D01*
X142856177Y-75134846D01*
X142804460Y-75183162D01*
X142716523Y-75192434D01*
X142701351Y-75192467D01*
X142533518Y-75152647D01*
X142467923Y-75086634D01*
X142450214Y-74960288D01*
X142431579Y-74707402D01*
X142414810Y-74370730D01*
X142407080Y-74155235D01*
X142381600Y-73329669D01*
X142642655Y-73329735D01*
G37*
G36*
X199561619Y-84721146D02*
G01*
X199602392Y-84796509D01*
X199581705Y-84902625D01*
X199505618Y-84924418D01*
X199219111Y-84945519D01*
X199071980Y-84981885D01*
X199034357Y-85043176D01*
X199042278Y-85074276D01*
X199032694Y-85171667D01*
X198999383Y-85183134D01*
X198900886Y-85114974D01*
X198860457Y-85041736D01*
X198865917Y-84888706D01*
X198914899Y-84831366D01*
X199079665Y-84764621D01*
X199149156Y-84827975D01*
X199150600Y-84850514D01*
X199198113Y-84872348D01*
X199283647Y-84808181D01*
X199449607Y-84687571D01*
X199561619Y-84721146D01*
G37*
G36*
X127509486Y-94230378D02*
G01*
X127618794Y-94298690D01*
X127673434Y-94425025D01*
X127657061Y-94474894D01*
X127568682Y-94467687D01*
X127512217Y-94409348D01*
X127465682Y-94387898D01*
X127449387Y-94511584D01*
X127460287Y-94771634D01*
X127469947Y-95062541D01*
X127444390Y-95215332D01*
X127381399Y-95258467D01*
X127311547Y-95199803D01*
X127275326Y-95009941D01*
X127267303Y-94771634D01*
X127257798Y-94500223D01*
X127229452Y-94386252D01*
X127183933Y-94411800D01*
X127118048Y-94492623D01*
X127100866Y-94420162D01*
X127100563Y-94400504D01*
X127169081Y-94281603D01*
X127329363Y-94220184D01*
X127509486Y-94230378D01*
G37*
G36*
X156049536Y-69434624D02*
G01*
X156185421Y-69667967D01*
X156332664Y-69936917D01*
X156533976Y-70210661D01*
X156588724Y-70271889D01*
X156859600Y-70558311D01*
X156543291Y-70510238D01*
X156226982Y-70462166D01*
X156246958Y-70849675D01*
X156234676Y-71118119D01*
X156172370Y-71267461D01*
X156071502Y-71277023D01*
X156028808Y-71243120D01*
X155998780Y-71134099D01*
X155977760Y-70906893D01*
X155970600Y-70637516D01*
X155948892Y-70247984D01*
X155875199Y-69962246D01*
X155795315Y-69806504D01*
X155680119Y-69558635D01*
X155702354Y-69407736D01*
X155862587Y-69351066D01*
X155889794Y-69350467D01*
X156049536Y-69434624D01*
G37*
G36*
X203310412Y-89117168D02*
G01*
X203323717Y-89176998D01*
X203317226Y-89322172D01*
X203288801Y-89568691D01*
X203236306Y-89932555D01*
X203157601Y-90429763D01*
X203050550Y-91076316D01*
X203041370Y-91130967D01*
X202982194Y-91416110D01*
X202918240Y-91620926D01*
X202863047Y-91702379D01*
X202861556Y-91702467D01*
X202817624Y-91629532D01*
X202836997Y-91435504D01*
X202838787Y-91427300D01*
X202876921Y-91237151D01*
X202935456Y-90923840D01*
X203006366Y-90531133D01*
X203080385Y-90109948D01*
X203152235Y-89720250D01*
X203218671Y-89404878D01*
X203272805Y-89193552D01*
X203307752Y-89115993D01*
X203310412Y-89117168D01*
G37*
G36*
X123875769Y-94244173D02*
G01*
X123949261Y-94369467D01*
X123955975Y-94480989D01*
X123903691Y-94439944D01*
X123882533Y-94411800D01*
X123831336Y-94378005D01*
X123808848Y-94471105D01*
X123811508Y-94709926D01*
X123814481Y-94771749D01*
X123820723Y-95053010D01*
X123797022Y-95202370D01*
X123735327Y-95255841D01*
X123705634Y-95258582D01*
X123630510Y-95229948D01*
X123597162Y-95119929D01*
X123598106Y-94892100D01*
X123605580Y-94771634D01*
X123616337Y-94500583D01*
X123598386Y-94385359D01*
X123553649Y-94409348D01*
X123453874Y-94491752D01*
X123400886Y-94437598D01*
X123425089Y-94292338D01*
X123540055Y-94184484D01*
X123714472Y-94171989D01*
X123875769Y-94244173D01*
G37*
G36*
X125092799Y-92441139D02*
G01*
X125107315Y-92460769D01*
X125219398Y-92513101D01*
X125260478Y-92505486D01*
X125382086Y-92515902D01*
X125516399Y-92589323D01*
X125612861Y-92685229D01*
X125620919Y-92763098D01*
X125598907Y-92776747D01*
X125535882Y-92877728D01*
X125537998Y-93118106D01*
X125546915Y-93190364D01*
X125564483Y-93448054D01*
X125524165Y-93558706D01*
X125499451Y-93565134D01*
X125386589Y-93497662D01*
X125368014Y-93459300D01*
X125326295Y-93301104D01*
X125283685Y-93117819D01*
X125185001Y-92887420D01*
X125064947Y-92739169D01*
X124938884Y-92588135D01*
X124898921Y-92451771D01*
X124957553Y-92381482D01*
X124977603Y-92379800D01*
X125092799Y-92441139D01*
G37*
G36*
X120876210Y-94279816D02*
G01*
X120966216Y-94487057D01*
X120999739Y-94754502D01*
X120974590Y-95006768D01*
X120901667Y-95156867D01*
X120722354Y-95252974D01*
X120561028Y-95183687D01*
X120498245Y-95094700D01*
X120414736Y-94773672D01*
X120447911Y-94627987D01*
X120594786Y-94627987D01*
X120596793Y-94891508D01*
X120669355Y-95054468D01*
X120751477Y-95089134D01*
X120807218Y-95011790D01*
X120821458Y-94801530D01*
X120817635Y-94729300D01*
X120776328Y-94495898D01*
X120710272Y-94397044D01*
X120641729Y-94442859D01*
X120594786Y-94627987D01*
X120447911Y-94627987D01*
X120487038Y-94456167D01*
X120579877Y-94315347D01*
X120703006Y-94182978D01*
X120781187Y-94173956D01*
X120876210Y-94279816D01*
G37*
G36*
X138648626Y-69316917D02*
G01*
X138716890Y-69423722D01*
X138764514Y-69654329D01*
X138791480Y-69964487D01*
X138797773Y-70309941D01*
X138783373Y-70646442D01*
X138748265Y-70929735D01*
X138692432Y-71115569D01*
X138649342Y-71161742D01*
X138382432Y-71205321D01*
X138041854Y-71183464D01*
X137707842Y-71101350D01*
X137706493Y-71100859D01*
X137468183Y-70983598D01*
X137283160Y-70844496D01*
X137216216Y-70772624D01*
X137197348Y-70729630D01*
X137250503Y-70715419D01*
X137399627Y-70729894D01*
X137668670Y-70772962D01*
X138063600Y-70841397D01*
X138359933Y-70892993D01*
X138359933Y-70126727D01*
X138367239Y-69722346D01*
X138394671Y-69463677D01*
X138450504Y-69327513D01*
X138543009Y-69290646D01*
X138648626Y-69316917D01*
G37*
G36*
X123291371Y-92536630D02*
G01*
X123468158Y-92714420D01*
X123594502Y-92939784D01*
X123627933Y-93103960D01*
X123581175Y-93392542D01*
X123455817Y-93545623D01*
X123274236Y-93552220D01*
X123058805Y-93401350D01*
X123047143Y-93389043D01*
X122900754Y-93158255D01*
X122840457Y-92905124D01*
X122843866Y-92870509D01*
X123119933Y-92870509D01*
X123142467Y-93142900D01*
X123202047Y-93314772D01*
X123286641Y-93353887D01*
X123298138Y-93347984D01*
X123353571Y-93237419D01*
X123373933Y-93062504D01*
X123331298Y-92849125D01*
X123246933Y-92718467D01*
X123158772Y-92669382D01*
X123124327Y-92743886D01*
X123119933Y-92870509D01*
X122843866Y-92870509D01*
X122863107Y-92675128D01*
X122965561Y-92513741D01*
X123111060Y-92464467D01*
X123291371Y-92536630D01*
G37*
G36*
X126070383Y-94336993D02*
G01*
X126155144Y-94573550D01*
X126167933Y-94739581D01*
X126125369Y-95025598D01*
X126014628Y-95204780D01*
X125861134Y-95257678D01*
X125690312Y-95164849D01*
X125658235Y-95129421D01*
X125598792Y-94997928D01*
X125617126Y-94938921D01*
X125697943Y-94943510D01*
X125720913Y-94983300D01*
X125827488Y-95080241D01*
X125878655Y-95089134D01*
X125964718Y-95022087D01*
X125997831Y-94810569D01*
X125998600Y-94755464D01*
X125972832Y-94539912D01*
X125910699Y-94382959D01*
X125834960Y-94319352D01*
X125768372Y-94383841D01*
X125763708Y-94396810D01*
X125685767Y-94485928D01*
X125598025Y-94476647D01*
X125575267Y-94414779D01*
X125641202Y-94314043D01*
X125738720Y-94245614D01*
X125924434Y-94219463D01*
X126070383Y-94336993D01*
G37*
G36*
X127019958Y-92234491D02*
G01*
X127173980Y-92361162D01*
X127249623Y-92439334D01*
X127365227Y-92592678D01*
X127387469Y-92687684D01*
X127375012Y-92697107D01*
X127329801Y-92799457D01*
X127360451Y-93046787D01*
X127364759Y-93066330D01*
X127396846Y-93364026D01*
X127342886Y-93537023D01*
X127217485Y-93573091D01*
X127035255Y-93460002D01*
X126971797Y-93395281D01*
X126877666Y-93246261D01*
X126887186Y-93159343D01*
X126984808Y-93173715D01*
X127043288Y-93215142D01*
X127121912Y-93256951D01*
X127134018Y-93172432D01*
X127120188Y-93079041D01*
X127041722Y-92864700D01*
X126941700Y-92736290D01*
X126854621Y-92635423D01*
X126912047Y-92560188D01*
X126978405Y-92436257D01*
X126966076Y-92351864D01*
X126946059Y-92229973D01*
X127019958Y-92234491D01*
G37*
G36*
X121700413Y-94235053D02*
G01*
X121732012Y-94437174D01*
X121750759Y-94708134D01*
X121752845Y-95023541D01*
X121726964Y-95197863D01*
X121668639Y-95257707D01*
X121658173Y-95258467D01*
X121581721Y-95193632D01*
X121567385Y-94988249D01*
X121570578Y-94940967D01*
X121595886Y-94623467D01*
X121432856Y-94962134D01*
X121333315Y-95155353D01*
X121268632Y-95255401D01*
X121257205Y-95258467D01*
X121244419Y-95158291D01*
X121223543Y-94938830D01*
X121201546Y-94677563D01*
X121184857Y-94379699D01*
X121197663Y-94220756D01*
X121243937Y-94172257D01*
X121271387Y-94176950D01*
X121350386Y-94283396D01*
X121365351Y-94461521D01*
X121346436Y-94708134D01*
X121471427Y-94432967D01*
X121570965Y-94250954D01*
X121653670Y-94160127D01*
X121663429Y-94157800D01*
X121700413Y-94235053D01*
G37*
G36*
X125408708Y-94313057D02*
G01*
X125442548Y-94532303D01*
X125448267Y-94750467D01*
X125433560Y-95068584D01*
X125387884Y-95231020D01*
X125342433Y-95258467D01*
X125265465Y-95183766D01*
X125236600Y-95004467D01*
X125212076Y-94826125D01*
X125152987Y-94750486D01*
X125151933Y-94750467D01*
X125092486Y-94824039D01*
X125067273Y-95001307D01*
X125067267Y-95004467D01*
X125036141Y-95189190D01*
X124961433Y-95258467D01*
X124895159Y-95187877D01*
X124861318Y-94968631D01*
X124855600Y-94750467D01*
X124870306Y-94432349D01*
X124915982Y-94269914D01*
X124961433Y-94242467D01*
X125040926Y-94314777D01*
X125067267Y-94454134D01*
X125096249Y-94613248D01*
X125151933Y-94665800D01*
X125215579Y-94593344D01*
X125236600Y-94454134D01*
X125272755Y-94295147D01*
X125342433Y-94242467D01*
X125408708Y-94313057D01*
G37*
G36*
X134873817Y-73277322D02*
G01*
X134948118Y-73390388D01*
X134985438Y-73609086D01*
X134991709Y-73958167D01*
X134984762Y-74197040D01*
X134975582Y-74563706D01*
X134985261Y-74794897D01*
X135018292Y-74923861D01*
X135079167Y-74983846D01*
X135091796Y-74989265D01*
X135220799Y-75068163D01*
X135195522Y-75135483D01*
X135031016Y-75180254D01*
X134812992Y-75192467D01*
X134521417Y-75170841D01*
X134372486Y-75102018D01*
X134349982Y-75065467D01*
X134363748Y-74961052D01*
X134467924Y-74938467D01*
X134543824Y-74926249D01*
X134592418Y-74869196D01*
X134619728Y-74736709D01*
X134631778Y-74498189D01*
X134634593Y-74123040D01*
X134634600Y-74091800D01*
X134639172Y-73694002D01*
X134655466Y-73438529D01*
X134687347Y-73298557D01*
X134738681Y-73247260D01*
X134756603Y-73245134D01*
X134873817Y-73277322D01*
G37*
G36*
X172296484Y-69297988D02*
G01*
X172370785Y-69411055D01*
X172408104Y-69629753D01*
X172414376Y-69978834D01*
X172407429Y-70217707D01*
X172398248Y-70584373D01*
X172407928Y-70815563D01*
X172440959Y-70944527D01*
X172501834Y-71004512D01*
X172514463Y-71009932D01*
X172643466Y-71088830D01*
X172618188Y-71156149D01*
X172453683Y-71200921D01*
X172235658Y-71213134D01*
X171944084Y-71191508D01*
X171795153Y-71122685D01*
X171772649Y-71086134D01*
X171786415Y-70981719D01*
X171890590Y-70959134D01*
X171966491Y-70946915D01*
X172015084Y-70889862D01*
X172042395Y-70757375D01*
X172054445Y-70518856D01*
X172057260Y-70143706D01*
X172057267Y-70112467D01*
X172061839Y-69714668D01*
X172078133Y-69459195D01*
X172110014Y-69319223D01*
X172161348Y-69267927D01*
X172179270Y-69265800D01*
X172296484Y-69297988D01*
G37*
G36*
X177965358Y-100508331D02*
G01*
X178178048Y-100606112D01*
X178345483Y-100720367D01*
X178407267Y-100816992D01*
X178339219Y-100918006D01*
X178280267Y-100931134D01*
X178202660Y-100933060D01*
X178166351Y-100964170D01*
X178169092Y-101062457D01*
X178208635Y-101265915D01*
X178249263Y-101455084D01*
X178328038Y-101727727D01*
X178425070Y-101937819D01*
X178482097Y-102007976D01*
X178573002Y-102101954D01*
X178521445Y-102177699D01*
X178491933Y-102198228D01*
X178289538Y-102267704D01*
X178029148Y-102280268D01*
X177786609Y-102239453D01*
X177645267Y-102158800D01*
X177590732Y-102061486D01*
X177678490Y-102032497D01*
X177719566Y-102031800D01*
X177830168Y-102011206D01*
X177884825Y-101931904D01*
X177883991Y-101767616D01*
X177828122Y-101492061D01*
X177734990Y-101140968D01*
X177656295Y-100809970D01*
X177627543Y-100574509D01*
X177647515Y-100472508D01*
X177768237Y-100454603D01*
X177965358Y-100508331D01*
G37*
G36*
X126254737Y-92539466D02*
G01*
X126414710Y-92728730D01*
X126531920Y-92978662D01*
X126573855Y-93235663D01*
X126571965Y-93268107D01*
X126503236Y-93479759D01*
X126357019Y-93544477D01*
X126145813Y-93458771D01*
X126075871Y-93406644D01*
X125951891Y-93275071D01*
X125930427Y-93182389D01*
X125933054Y-93179357D01*
X126038146Y-93174896D01*
X126125600Y-93226467D01*
X126258028Y-93289219D01*
X126317991Y-93273965D01*
X126299350Y-93189834D01*
X126173543Y-93063522D01*
X126146612Y-93043171D01*
X125983281Y-92870741D01*
X125911954Y-92687422D01*
X126083267Y-92687422D01*
X126125010Y-92811568D01*
X126208660Y-92859923D01*
X126239900Y-92844056D01*
X126228215Y-92757072D01*
X126183455Y-92700122D01*
X126098214Y-92652392D01*
X126083267Y-92687422D01*
X125911954Y-92687422D01*
X125911537Y-92686349D01*
X125936309Y-92535920D01*
X126062524Y-92465382D01*
X126084511Y-92464467D01*
X126254737Y-92539466D01*
G37*
G36*
X122374956Y-94214230D02*
G01*
X122433702Y-94282284D01*
X122461454Y-94442945D01*
X122472870Y-94729352D01*
X122472131Y-95025565D01*
X122447343Y-95188234D01*
X122390267Y-95252408D01*
X122348507Y-95258518D01*
X122251263Y-95209042D01*
X122241277Y-95039711D01*
X122243063Y-95025634D01*
X122274045Y-94792800D01*
X122181934Y-95025634D01*
X122086815Y-95195268D01*
X122000818Y-95255206D01*
X121959524Y-95197953D01*
X121980980Y-95067967D01*
X122031125Y-94887108D01*
X122031409Y-94776050D01*
X121980968Y-94642506D01*
X121976900Y-94633125D01*
X121960462Y-94421056D01*
X121960932Y-94420400D01*
X122121672Y-94420400D01*
X122148910Y-94556315D01*
X122204339Y-94662374D01*
X122237436Y-94610147D01*
X122251520Y-94553340D01*
X122259315Y-94399449D01*
X122238417Y-94348729D01*
X122157759Y-94328549D01*
X122121672Y-94420400D01*
X121960932Y-94420400D01*
X122076662Y-94258853D01*
X122270430Y-94200134D01*
X122374956Y-94214230D01*
G37*
G36*
X135710756Y-100470197D02*
G01*
X135735531Y-100528967D01*
X135770983Y-100655122D01*
X135863405Y-100881518D01*
X135984955Y-101142800D01*
X136234116Y-101650800D01*
X136217525Y-101058134D01*
X136212823Y-100746899D01*
X136227586Y-100566357D01*
X136272413Y-100478096D01*
X136357905Y-100443708D01*
X136388441Y-100438804D01*
X136479499Y-100432528D01*
X136545254Y-100462081D01*
X136595322Y-100554426D01*
X136639322Y-100736522D01*
X136686873Y-101035332D01*
X136740607Y-101425997D01*
X136775754Y-101745560D01*
X136790152Y-102007515D01*
X136781106Y-102159651D01*
X136778803Y-102166830D01*
X136659107Y-102274962D01*
X136455621Y-102292067D01*
X136221666Y-102226485D01*
X136010566Y-102086553D01*
X135966673Y-102039819D01*
X135829231Y-101835809D01*
X135680420Y-101552438D01*
X135539044Y-101235291D01*
X135423911Y-100929952D01*
X135353825Y-100682005D01*
X135347159Y-100538126D01*
X135444595Y-100449637D01*
X135592009Y-100426376D01*
X135710756Y-100470197D01*
G37*
G36*
X155946090Y-100554864D02*
G01*
X155970864Y-100613634D01*
X156006316Y-100739788D01*
X156098739Y-100966185D01*
X156220289Y-101227467D01*
X156469450Y-101735467D01*
X156452858Y-101142800D01*
X156448156Y-100831566D01*
X156462919Y-100651023D01*
X156507747Y-100562763D01*
X156593238Y-100528375D01*
X156623774Y-100523470D01*
X156714833Y-100517195D01*
X156780587Y-100546748D01*
X156830656Y-100639092D01*
X156874656Y-100821189D01*
X156922206Y-101119998D01*
X156975940Y-101510664D01*
X157011088Y-101830227D01*
X157025485Y-102092182D01*
X157016440Y-102244317D01*
X157014136Y-102251497D01*
X156894440Y-102359629D01*
X156690954Y-102376734D01*
X156456999Y-102311151D01*
X156245900Y-102171220D01*
X156202007Y-102124486D01*
X156064564Y-101920476D01*
X155915753Y-101637105D01*
X155774378Y-101319958D01*
X155659244Y-101014619D01*
X155589158Y-100766671D01*
X155582492Y-100622792D01*
X155679929Y-100534304D01*
X155827342Y-100511043D01*
X155946090Y-100554864D01*
G37*
G36*
X175752713Y-69222175D02*
G01*
X175808056Y-69257390D01*
X175941112Y-69310598D01*
X176178859Y-69344287D01*
X176342942Y-69350467D01*
X176622673Y-69359955D01*
X176845336Y-69384150D01*
X176918675Y-69401859D01*
X177044385Y-69486159D01*
X177021225Y-69562164D01*
X176868570Y-69602373D01*
X176777433Y-69602376D01*
X176518207Y-69594134D01*
X176312494Y-69595889D01*
X176122722Y-69604467D01*
X176337264Y-70174454D01*
X176464144Y-70500199D01*
X176586945Y-70796779D01*
X176675203Y-70991795D01*
X176768852Y-71187234D01*
X176783101Y-71274407D01*
X176713219Y-71297032D01*
X176642087Y-71297800D01*
X176545623Y-71251252D01*
X176426791Y-71099172D01*
X176273516Y-70822908D01*
X176099132Y-70459181D01*
X175880042Y-70013353D01*
X175704186Y-69722417D01*
X175566838Y-69578865D01*
X175535978Y-69564475D01*
X175394874Y-69473480D01*
X175359267Y-69392800D01*
X175429554Y-69276735D01*
X175587275Y-69211843D01*
X175752713Y-69222175D01*
G37*
G36*
X176012090Y-100470197D02*
G01*
X176036864Y-100528967D01*
X176072316Y-100655122D01*
X176164739Y-100881518D01*
X176286289Y-101142800D01*
X176535450Y-101650800D01*
X176518858Y-101058134D01*
X176514156Y-100746899D01*
X176528919Y-100566357D01*
X176573747Y-100478096D01*
X176659238Y-100443708D01*
X176689774Y-100438804D01*
X176780833Y-100432528D01*
X176846587Y-100462081D01*
X176896656Y-100554426D01*
X176940656Y-100736522D01*
X176988206Y-101035332D01*
X177041940Y-101425997D01*
X177077088Y-101745560D01*
X177091485Y-102007515D01*
X177082440Y-102159651D01*
X177080136Y-102166830D01*
X176960440Y-102274962D01*
X176756954Y-102292067D01*
X176522999Y-102226485D01*
X176311900Y-102086553D01*
X176268007Y-102039819D01*
X176130564Y-101835809D01*
X175981753Y-101552438D01*
X175840378Y-101235291D01*
X175725244Y-100929952D01*
X175655158Y-100682005D01*
X175648492Y-100538126D01*
X175745929Y-100449637D01*
X175893342Y-100426376D01*
X176012090Y-100470197D01*
G37*
G36*
X182187380Y-69222175D02*
G01*
X182242723Y-69257390D01*
X182375779Y-69310598D01*
X182613525Y-69344287D01*
X182777608Y-69350467D01*
X183057340Y-69359955D01*
X183280003Y-69384150D01*
X183353342Y-69401859D01*
X183479051Y-69486159D01*
X183455892Y-69562164D01*
X183303236Y-69602373D01*
X183212100Y-69602376D01*
X182952873Y-69594134D01*
X182747161Y-69595889D01*
X182557388Y-69604467D01*
X182771931Y-70174454D01*
X182898811Y-70500199D01*
X183021611Y-70796779D01*
X183109870Y-70991795D01*
X183203519Y-71187234D01*
X183217768Y-71274407D01*
X183147886Y-71297032D01*
X183076754Y-71297800D01*
X182980290Y-71251252D01*
X182861458Y-71099172D01*
X182708182Y-70822908D01*
X182533799Y-70459181D01*
X182314709Y-70013353D01*
X182138853Y-69722417D01*
X182001504Y-69578865D01*
X181970645Y-69564475D01*
X181829541Y-69473480D01*
X181793933Y-69392800D01*
X181864221Y-69276735D01*
X182021942Y-69211843D01*
X182187380Y-69222175D01*
G37*
G36*
X123109063Y-94168086D02*
G01*
X123170967Y-94224423D01*
X123197995Y-94365029D01*
X123204498Y-94628123D01*
X123204600Y-94708134D01*
X123204600Y-95258467D01*
X122959658Y-95258467D01*
X122764606Y-95219247D01*
X122667023Y-95134178D01*
X122667925Y-94997940D01*
X122700298Y-94959848D01*
X122775624Y-94970155D01*
X122781267Y-94999470D01*
X122849763Y-95078988D01*
X122908267Y-95089134D01*
X123011475Y-95017706D01*
X123035267Y-94910742D01*
X122995322Y-94779629D01*
X122917602Y-94777502D01*
X122813484Y-94744202D01*
X122748646Y-94566198D01*
X122741877Y-94491742D01*
X122818561Y-94491742D01*
X122840013Y-94526991D01*
X122962916Y-94578496D01*
X123032809Y-94487874D01*
X123035267Y-94454134D01*
X122992200Y-94341423D01*
X122955597Y-94327134D01*
X122845037Y-94383154D01*
X122818561Y-94491742D01*
X122741877Y-94491742D01*
X122726299Y-94320385D01*
X122798590Y-94194749D01*
X122984691Y-94157877D01*
X122997930Y-94157800D01*
X123109063Y-94168086D01*
G37*
G36*
X124530772Y-94221086D02*
G01*
X124538006Y-94223994D01*
X124626365Y-94298377D01*
X124672084Y-94455668D01*
X124686173Y-94736547D01*
X124686267Y-94771788D01*
X124686267Y-95258776D01*
X124411100Y-95258621D01*
X124199014Y-95224966D01*
X124135933Y-95139393D01*
X124198166Y-95056197D01*
X124305267Y-95064601D01*
X124436522Y-95062745D01*
X124474442Y-94935325D01*
X124474600Y-94919308D01*
X124457234Y-94790414D01*
X124383079Y-94807259D01*
X124347600Y-94835134D01*
X124247863Y-94891618D01*
X124219839Y-94803752D01*
X124219444Y-94782000D01*
X124196094Y-94564762D01*
X124180407Y-94491742D01*
X124257894Y-94491742D01*
X124279346Y-94526991D01*
X124402250Y-94578496D01*
X124472142Y-94487874D01*
X124474600Y-94454134D01*
X124431533Y-94341423D01*
X124394930Y-94327134D01*
X124284371Y-94383154D01*
X124257894Y-94491742D01*
X124180407Y-94491742D01*
X124170289Y-94444643D01*
X124188014Y-94276299D01*
X124322118Y-94193413D01*
X124530772Y-94221086D01*
G37*
G36*
X151146606Y-73274945D02*
G01*
X151223277Y-73395052D01*
X151259858Y-73562634D01*
X151321842Y-73795781D01*
X151422368Y-74038776D01*
X151539923Y-74255084D01*
X151652993Y-74408170D01*
X151740068Y-74461501D01*
X151770868Y-74430467D01*
X151931032Y-73987619D01*
X152049905Y-73681050D01*
X152139866Y-73486435D01*
X152213294Y-73379449D01*
X152282568Y-73335768D01*
X152331020Y-73329800D01*
X152487925Y-73365882D01*
X152545169Y-73488197D01*
X152505990Y-73717848D01*
X152425713Y-73946634D01*
X152294377Y-74291011D01*
X152160808Y-74651978D01*
X152111026Y-74790300D01*
X152003246Y-75043581D01*
X151895464Y-75165534D01*
X151783353Y-75192467D01*
X151675456Y-75161898D01*
X151568203Y-75051732D01*
X151441134Y-74834279D01*
X151298558Y-74536300D01*
X151083932Y-74063827D01*
X150935597Y-73723388D01*
X150848667Y-73493366D01*
X150818258Y-73352146D01*
X150839484Y-73278113D01*
X150907462Y-73249652D01*
X151006779Y-73245134D01*
X151146606Y-73274945D01*
G37*
G36*
X120837867Y-92539411D02*
G01*
X121041455Y-92730506D01*
X121194551Y-92987142D01*
X121257202Y-93258711D01*
X121257267Y-93266916D01*
X121244292Y-93453627D01*
X121171227Y-93529512D01*
X120986859Y-93540631D01*
X120953895Y-93539774D01*
X120708008Y-93504393D01*
X120519400Y-93429959D01*
X120509395Y-93422763D01*
X120417513Y-93325481D01*
X120468167Y-93249105D01*
X120486550Y-93236551D01*
X120555673Y-93149124D01*
X120555681Y-92990889D01*
X120516719Y-92811609D01*
X120505914Y-92763341D01*
X120759185Y-92763341D01*
X120771524Y-92913630D01*
X120831838Y-93093955D01*
X120931624Y-93278025D01*
X121007150Y-93303801D01*
X121027028Y-93182174D01*
X120997356Y-93036526D01*
X120944148Y-92845255D01*
X120918919Y-92743264D01*
X120918600Y-92740192D01*
X120852917Y-92719021D01*
X120833933Y-92718467D01*
X120759185Y-92763341D01*
X120505914Y-92763341D01*
X120467981Y-92593880D01*
X120479162Y-92493710D01*
X120564269Y-92465666D01*
X120623743Y-92464467D01*
X120837867Y-92539411D01*
G37*
G36*
X126728519Y-94219991D02*
G01*
X126822279Y-94290734D01*
X126871537Y-94433809D01*
X126888920Y-94692419D01*
X126889732Y-94771634D01*
X126886321Y-95045628D01*
X126860826Y-95190992D01*
X126794981Y-95248385D01*
X126671010Y-95258467D01*
X126484241Y-95238822D01*
X126393711Y-95202022D01*
X126335786Y-95084171D01*
X126414938Y-95032001D01*
X126506600Y-95046800D01*
X126635453Y-95055809D01*
X126674149Y-94941217D01*
X126674637Y-94904339D01*
X126658303Y-94780573D01*
X126606177Y-94814349D01*
X126600553Y-94823006D01*
X126528531Y-94886850D01*
X126464884Y-94814172D01*
X126396910Y-94589529D01*
X126392124Y-94569655D01*
X126394402Y-94445575D01*
X126454218Y-94445575D01*
X126518727Y-94504337D01*
X126632784Y-94513189D01*
X126683031Y-94430317D01*
X126648052Y-94355697D01*
X126546957Y-94350766D01*
X126503194Y-94371572D01*
X126454218Y-94445575D01*
X126394402Y-94445575D01*
X126396223Y-94346351D01*
X126509556Y-94214852D01*
X126699218Y-94209360D01*
X126728519Y-94219991D01*
G37*
G36*
X124229735Y-92517246D02*
G01*
X124268520Y-92558173D01*
X124342642Y-92602278D01*
X124389170Y-92550369D01*
X124474714Y-92494247D01*
X124624456Y-92556657D01*
X124632586Y-92561696D01*
X124778444Y-92682862D01*
X124806909Y-92774134D01*
X124730220Y-92803134D01*
X124687922Y-92879803D01*
X124688682Y-93087695D01*
X124700959Y-93195547D01*
X124724338Y-93435407D01*
X124703789Y-93542132D01*
X124638015Y-93549050D01*
X124539105Y-93445508D01*
X124470039Y-93259569D01*
X124398025Y-93015965D01*
X124319071Y-92842566D01*
X124265102Y-92774187D01*
X124246929Y-92825922D01*
X124261258Y-93017746D01*
X124273216Y-93120634D01*
X124296646Y-93385071D01*
X124280142Y-93520588D01*
X124217572Y-93564187D01*
X124199541Y-93565134D01*
X124045160Y-93504756D01*
X123955800Y-93424365D01*
X123886583Y-93304326D01*
X123942959Y-93248801D01*
X124005812Y-93152629D01*
X124004588Y-92918063D01*
X123994951Y-92839236D01*
X123973318Y-92602827D01*
X123999805Y-92491222D01*
X124077095Y-92464467D01*
X124229735Y-92517246D01*
G37*
G36*
X137860147Y-100524927D02*
G01*
X138376362Y-100550134D01*
X138493873Y-100888800D01*
X138586929Y-101187074D01*
X138605782Y-101356003D01*
X138546368Y-101420367D01*
X138408994Y-101406054D01*
X138139823Y-101388560D01*
X137981623Y-101497302D01*
X137936600Y-101696486D01*
X137996705Y-101908936D01*
X138163159Y-102000402D01*
X138415170Y-101961747D01*
X138479501Y-101935114D01*
X138687284Y-101885527D01*
X138820764Y-101932716D01*
X138845098Y-102051678D01*
X138786245Y-102155212D01*
X138608527Y-102254962D01*
X138337051Y-102290147D01*
X138033566Y-102263210D01*
X137759826Y-102176594D01*
X137651685Y-102110322D01*
X137476808Y-101887023D01*
X137428492Y-101629165D01*
X137493199Y-101382150D01*
X137657393Y-101191381D01*
X137907535Y-101102262D01*
X137952781Y-101100467D01*
X138067305Y-101067147D01*
X138053371Y-100985570D01*
X137933926Y-100883311D01*
X137731918Y-100787945D01*
X137678175Y-100770478D01*
X137433050Y-100677136D01*
X137351326Y-100599276D01*
X137427249Y-100544665D01*
X137655062Y-100521070D01*
X137860147Y-100524927D01*
G37*
G36*
X188927235Y-69258859D02*
G01*
X189155217Y-69309948D01*
X189485174Y-69355185D01*
X189849777Y-69385551D01*
X189887530Y-69387520D01*
X190210453Y-69403794D01*
X190465875Y-69417634D01*
X190608303Y-69426548D01*
X190620433Y-69427655D01*
X190677050Y-69503988D01*
X190683933Y-69562134D01*
X190642751Y-69638106D01*
X190497911Y-69677587D01*
X190217471Y-69689129D01*
X190209569Y-69689134D01*
X189735205Y-69689134D01*
X189784263Y-70451134D01*
X189804877Y-70812783D01*
X189806937Y-71037728D01*
X189785882Y-71158022D01*
X189737151Y-71205714D01*
X189675835Y-71213134D01*
X189528092Y-71138749D01*
X189467297Y-71022634D01*
X189438928Y-70834719D01*
X189419345Y-70549984D01*
X189413793Y-70324134D01*
X189401166Y-70032430D01*
X189371021Y-69801849D01*
X189340172Y-69703880D01*
X189216970Y-69622936D01*
X188996035Y-69557571D01*
X188916071Y-69544289D01*
X188629625Y-69479307D01*
X188501684Y-69384451D01*
X188536690Y-69263301D01*
X188549916Y-69249284D01*
X188699126Y-69208059D01*
X188927235Y-69258859D01*
G37*
G36*
X125935781Y-89109213D02*
G01*
X126473293Y-89478692D01*
X126999827Y-89839514D01*
X127488736Y-90173501D01*
X127913377Y-90462479D01*
X128247104Y-90688272D01*
X128433781Y-90813226D01*
X128704615Y-90998683D01*
X128906279Y-91148321D01*
X129008667Y-91239257D01*
X129014601Y-91254688D01*
X128931679Y-91230333D01*
X128743636Y-91134818D01*
X128488354Y-90987668D01*
X128442086Y-90959590D01*
X128219428Y-90825745D01*
X127877154Y-90622856D01*
X127442182Y-90366743D01*
X126941429Y-90073226D01*
X126401814Y-89758123D01*
X125974509Y-89509428D01*
X124045419Y-88388392D01*
X121910509Y-89636879D01*
X121113438Y-90101911D01*
X120457533Y-90482130D01*
X119938734Y-90779800D01*
X119552977Y-90997186D01*
X119296203Y-91136554D01*
X119164348Y-91200167D01*
X119153353Y-91190290D01*
X119222301Y-91135779D01*
X119341159Y-91051879D01*
X119581445Y-90884892D01*
X119924883Y-90647426D01*
X120353198Y-90352088D01*
X120848116Y-90011484D01*
X121391362Y-89638220D01*
X121741816Y-89397718D01*
X124052629Y-87812635D01*
X125935781Y-89109213D01*
G37*
G36*
X132283864Y-73370789D02*
G01*
X132439779Y-73492621D01*
X132576898Y-73647901D01*
X132651487Y-73804275D01*
X132682059Y-74021204D01*
X132687267Y-74287574D01*
X132641495Y-74734255D01*
X132506304Y-75043210D01*
X132284883Y-75210750D01*
X131980417Y-75233185D01*
X131886462Y-75214403D01*
X131582867Y-75065152D01*
X131341369Y-74808133D01*
X131173968Y-74483291D01*
X131103691Y-74178419D01*
X131501933Y-74178419D01*
X131528942Y-74498670D01*
X131620107Y-74709872D01*
X131671267Y-74769134D01*
X131834645Y-74906622D01*
X131961895Y-74924437D01*
X132068136Y-74871947D01*
X132205671Y-74699267D01*
X132282648Y-74432176D01*
X132298664Y-74127239D01*
X132253319Y-73841019D01*
X132146212Y-73630079D01*
X132077343Y-73574564D01*
X131899800Y-73536735D01*
X131707922Y-73622068D01*
X131579722Y-73735477D01*
X131518427Y-73893955D01*
X131501976Y-74157089D01*
X131501933Y-74178419D01*
X131103691Y-74178419D01*
X131092661Y-74130569D01*
X131109450Y-73789914D01*
X131236333Y-73501270D01*
X131339404Y-73393300D01*
X131628482Y-73257639D01*
X131962403Y-73251860D01*
X132283864Y-73370789D01*
G37*
G36*
X174447864Y-69391455D02*
G01*
X174603779Y-69513287D01*
X174740898Y-69668568D01*
X174815487Y-69824941D01*
X174846059Y-70041871D01*
X174851267Y-70308241D01*
X174805495Y-70754922D01*
X174670304Y-71063877D01*
X174448883Y-71231416D01*
X174144417Y-71253852D01*
X174050462Y-71235069D01*
X173746867Y-71085819D01*
X173505369Y-70828800D01*
X173337968Y-70503957D01*
X173267691Y-70199085D01*
X173665933Y-70199085D01*
X173692942Y-70519337D01*
X173784107Y-70730539D01*
X173835267Y-70789800D01*
X173998645Y-70927289D01*
X174125895Y-70945103D01*
X174232136Y-70892614D01*
X174369671Y-70719934D01*
X174446648Y-70452843D01*
X174462664Y-70147906D01*
X174417319Y-69861685D01*
X174310212Y-69650745D01*
X174241343Y-69595231D01*
X174063800Y-69557402D01*
X173871922Y-69642735D01*
X173743722Y-69756144D01*
X173682427Y-69914622D01*
X173665976Y-70177756D01*
X173665933Y-70199085D01*
X173267691Y-70199085D01*
X173256661Y-70151236D01*
X173273450Y-69810581D01*
X173400333Y-69521936D01*
X173503404Y-69413967D01*
X173792482Y-69278306D01*
X174126403Y-69272526D01*
X174447864Y-69391455D01*
G37*
G36*
X133197270Y-69248819D02*
G01*
X133507850Y-69364885D01*
X133556146Y-69396950D01*
X133803042Y-69657195D01*
X133968801Y-69991220D01*
X134045209Y-70352764D01*
X134024050Y-70695566D01*
X133897110Y-70973368D01*
X133845976Y-71029042D01*
X133565768Y-71184209D01*
X133210623Y-71225219D01*
X132828528Y-71154375D01*
X132467472Y-70973979D01*
X132450761Y-70962073D01*
X132157896Y-70667102D01*
X131994435Y-70321810D01*
X131979212Y-70133634D01*
X132351293Y-70133634D01*
X132395650Y-70409901D01*
X132544139Y-70632698D01*
X132769605Y-70814852D01*
X133026549Y-70941539D01*
X133257898Y-70922583D01*
X133440088Y-70820566D01*
X133559371Y-70713062D01*
X133608557Y-70574530D01*
X133605004Y-70344490D01*
X133598273Y-70269375D01*
X133512492Y-69881178D01*
X133340516Y-69635619D01*
X133077361Y-69526747D01*
X132970478Y-69519800D01*
X132659019Y-69591510D01*
X132443765Y-69788243D01*
X132352552Y-70082404D01*
X132351293Y-70133634D01*
X131979212Y-70133634D01*
X131965340Y-69962161D01*
X132075573Y-69624122D01*
X132237990Y-69419897D01*
X132497336Y-69277457D01*
X132838764Y-69220054D01*
X133197270Y-69248819D01*
G37*
G36*
X140817270Y-73228153D02*
G01*
X141127850Y-73344218D01*
X141176146Y-73376283D01*
X141423042Y-73636528D01*
X141588801Y-73970553D01*
X141665209Y-74332097D01*
X141644050Y-74674900D01*
X141517110Y-74952701D01*
X141465976Y-75008375D01*
X141185768Y-75163543D01*
X140830623Y-75204552D01*
X140448528Y-75133708D01*
X140087472Y-74953312D01*
X140070761Y-74941407D01*
X139777896Y-74646435D01*
X139614435Y-74301143D01*
X139599212Y-74112967D01*
X139971293Y-74112967D01*
X140015650Y-74389235D01*
X140164139Y-74612031D01*
X140389605Y-74794186D01*
X140646549Y-74920872D01*
X140877898Y-74901917D01*
X141060088Y-74799899D01*
X141179371Y-74692395D01*
X141228557Y-74553863D01*
X141225004Y-74323823D01*
X141218273Y-74248708D01*
X141132492Y-73860511D01*
X140960516Y-73614952D01*
X140697361Y-73506080D01*
X140590478Y-73499134D01*
X140279019Y-73570843D01*
X140063765Y-73767576D01*
X139972552Y-74061737D01*
X139971293Y-74112967D01*
X139599212Y-74112967D01*
X139585340Y-73941494D01*
X139695573Y-73603455D01*
X139857990Y-73399230D01*
X140117336Y-73256790D01*
X140458764Y-73199387D01*
X140817270Y-73228153D01*
G37*
G36*
X154150267Y-100547876D02*
G01*
X154349067Y-100576789D01*
X154608748Y-100591049D01*
X154637100Y-100591311D01*
X154850236Y-100608522D01*
X154940529Y-100674064D01*
X154954600Y-100761800D01*
X154897302Y-100901005D01*
X154772144Y-100931134D01*
X154647379Y-100942480D01*
X154660415Y-101005277D01*
X154729811Y-101085967D01*
X154853114Y-101267872D01*
X154824108Y-101384136D01*
X154637469Y-101445890D01*
X154553137Y-101455189D01*
X154304191Y-101516773D01*
X154210256Y-101646358D01*
X154271960Y-101842380D01*
X154352863Y-101954529D01*
X154487349Y-102089246D01*
X154603177Y-102099293D01*
X154693937Y-102052967D01*
X154919010Y-101960651D01*
X155098118Y-101960706D01*
X155197769Y-102035626D01*
X155184470Y-102167904D01*
X155107000Y-102268867D01*
X154930184Y-102346554D01*
X154663800Y-102361576D01*
X154374706Y-102316108D01*
X154173562Y-102238488D01*
X153922714Y-102033956D01*
X153787678Y-101780350D01*
X153776029Y-101519100D01*
X153895342Y-101291638D01*
X153986612Y-101215960D01*
X154203957Y-101073550D01*
X153965445Y-100877343D01*
X153817173Y-100739389D01*
X153793645Y-100653247D01*
X153853933Y-100593367D01*
X154038256Y-100539056D01*
X154150267Y-100547876D01*
G37*
G36*
X158044933Y-100547876D02*
G01*
X158243734Y-100576789D01*
X158503414Y-100591049D01*
X158531767Y-100591311D01*
X158744902Y-100608522D01*
X158835196Y-100674064D01*
X158849267Y-100761800D01*
X158791968Y-100901005D01*
X158666811Y-100931134D01*
X158542045Y-100942480D01*
X158555082Y-101005277D01*
X158624478Y-101085967D01*
X158747780Y-101267872D01*
X158718775Y-101384136D01*
X158532136Y-101445890D01*
X158447804Y-101455189D01*
X158198858Y-101516773D01*
X158104923Y-101646358D01*
X158166627Y-101842380D01*
X158247530Y-101954529D01*
X158382015Y-102089246D01*
X158497844Y-102099293D01*
X158588603Y-102052967D01*
X158813676Y-101960651D01*
X158992785Y-101960706D01*
X159092436Y-102035626D01*
X159079137Y-102167904D01*
X159001667Y-102268867D01*
X158824851Y-102346554D01*
X158558467Y-102361576D01*
X158269372Y-102316108D01*
X158068228Y-102238488D01*
X157817381Y-102033956D01*
X157682345Y-101780350D01*
X157670696Y-101519100D01*
X157790009Y-101291638D01*
X157881278Y-101215960D01*
X158098624Y-101073550D01*
X157860112Y-100877343D01*
X157711840Y-100739389D01*
X157688312Y-100653247D01*
X157748600Y-100593367D01*
X157932922Y-100539056D01*
X158044933Y-100547876D01*
G37*
G36*
X192602672Y-83357528D02*
G01*
X192606419Y-83445211D01*
X192666986Y-83438289D01*
X192787168Y-83444437D01*
X192828886Y-83545830D01*
X192787313Y-83685228D01*
X192695994Y-83782103D01*
X192545663Y-83863512D01*
X192428796Y-83827934D01*
X192357230Y-83768001D01*
X192249316Y-83684865D01*
X192236760Y-83725416D01*
X192244347Y-83748547D01*
X192213606Y-83881617D01*
X192078657Y-84022919D01*
X191935118Y-84102953D01*
X191869663Y-84091593D01*
X191869267Y-84086419D01*
X191934893Y-84002168D01*
X191964300Y-83997800D01*
X192002542Y-83949629D01*
X191943133Y-83854948D01*
X191871949Y-83752913D01*
X191923815Y-83749364D01*
X191970788Y-83765969D01*
X192075288Y-83774323D01*
X192071755Y-83708081D01*
X192085313Y-83590124D01*
X192195793Y-83537949D01*
X192339229Y-83564531D01*
X192424657Y-83636496D01*
X192526397Y-83735818D01*
X192621494Y-83693476D01*
X192646733Y-83667879D01*
X192715207Y-83586094D01*
X192660178Y-83605556D01*
X192642967Y-83615226D01*
X192503935Y-83614844D01*
X192453764Y-83564147D01*
X192384482Y-83407128D01*
X192447225Y-83316417D01*
X192513693Y-83286232D01*
X192611102Y-83280008D01*
X192602672Y-83357528D01*
G37*
G36*
X199947364Y-73194001D02*
G01*
X200257983Y-73273185D01*
X200636539Y-73389958D01*
X201039166Y-73529802D01*
X201421994Y-73678196D01*
X201741156Y-73820621D01*
X201775267Y-73837728D01*
X202341484Y-74148235D01*
X202903439Y-74495624D01*
X203425994Y-74855322D01*
X203874009Y-75202759D01*
X204212345Y-75513363D01*
X204284122Y-75592102D01*
X204617093Y-75999634D01*
X204946318Y-76440866D01*
X205256223Y-76890622D01*
X205531233Y-77323723D01*
X205755771Y-77714991D01*
X205914264Y-78039246D01*
X205991136Y-78271312D01*
X205992263Y-78353455D01*
X205945562Y-78331922D01*
X205844707Y-78186944D01*
X205709153Y-77947572D01*
X205669933Y-77872104D01*
X205334982Y-77280821D01*
X204928638Y-76663337D01*
X204492994Y-76079352D01*
X204070144Y-75588563D01*
X204031120Y-75547874D01*
X203749232Y-75295321D01*
X203356257Y-74994760D01*
X202892697Y-74673648D01*
X202399051Y-74359444D01*
X201915821Y-74079606D01*
X201690600Y-73961071D01*
X201489699Y-73872722D01*
X201174538Y-73749044D01*
X200791651Y-73607801D01*
X200462933Y-73492413D01*
X200120417Y-73368878D01*
X199871834Y-73266775D01*
X199739261Y-73196161D01*
X199744772Y-73167093D01*
X199748551Y-73166925D01*
X199947364Y-73194001D01*
G37*
G36*
X119386694Y-92432983D02*
G01*
X119498935Y-92524600D01*
X119626978Y-92618185D01*
X119705399Y-92589079D01*
X119735648Y-92545767D01*
X119807937Y-92480677D01*
X119908532Y-92529903D01*
X120005646Y-92624409D01*
X120115919Y-92755039D01*
X120100025Y-92789158D01*
X120057773Y-92777921D01*
X119912621Y-92795652D01*
X119867291Y-92857692D01*
X119876713Y-93017345D01*
X119969612Y-93199522D01*
X120100485Y-93330270D01*
X120172341Y-93353467D01*
X120285204Y-93420745D01*
X120304767Y-93459300D01*
X120276430Y-93542448D01*
X120159786Y-93563914D01*
X120022663Y-93527562D01*
X119933218Y-93438134D01*
X119851693Y-93320332D01*
X119770744Y-93363766D01*
X119704554Y-93560529D01*
X119599714Y-93798914D01*
X119425953Y-93921285D01*
X119221609Y-93902495D01*
X119200133Y-93891417D01*
X119100726Y-93784099D01*
X119137376Y-93696862D01*
X119280300Y-93684013D01*
X119309497Y-93691995D01*
X119409745Y-93694117D01*
X119480391Y-93600026D01*
X119544586Y-93375926D01*
X119553637Y-93335606D01*
X119600743Y-93086115D01*
X119591751Y-92937518D01*
X119513670Y-92826953D01*
X119434199Y-92757620D01*
X119288017Y-92607435D01*
X119225307Y-92484526D01*
X119225267Y-92482453D01*
X119264560Y-92387726D01*
X119386694Y-92432983D01*
G37*
G36*
X180509253Y-69257893D02*
G01*
X180710685Y-69491374D01*
X180914318Y-69886377D01*
X181036891Y-70197134D01*
X181190646Y-70619802D01*
X181291625Y-70907679D01*
X181343663Y-71085560D01*
X181350595Y-71178245D01*
X181316257Y-71210530D01*
X181244485Y-71207212D01*
X181191920Y-71199404D01*
X181016555Y-71111992D01*
X180908755Y-70896216D01*
X180812756Y-70691553D01*
X180642956Y-70591592D01*
X180539650Y-70567554D01*
X180293823Y-70561061D01*
X180155329Y-70669424D01*
X180103637Y-70912003D01*
X180101896Y-70980300D01*
X180056090Y-71165560D01*
X179925065Y-71205165D01*
X179774050Y-71137747D01*
X179717600Y-71071115D01*
X179701031Y-70950223D01*
X179728305Y-70750882D01*
X179803384Y-70448899D01*
X179867228Y-70233069D01*
X180298971Y-70233069D01*
X180396226Y-70279363D01*
X180467969Y-70281800D01*
X180601655Y-70270239D01*
X180639927Y-70203755D01*
X180601397Y-70034642D01*
X180585196Y-69981318D01*
X180514838Y-69805381D01*
X180449059Y-69782322D01*
X180375043Y-69917390D01*
X180316803Y-70091300D01*
X180298971Y-70233069D01*
X179867228Y-70233069D01*
X179930231Y-70020083D01*
X179987045Y-69837300D01*
X180105371Y-69502813D01*
X180214076Y-69275145D01*
X180299675Y-69181986D01*
X180306570Y-69181134D01*
X180509253Y-69257893D01*
G37*
G36*
X187420553Y-69286794D02*
G01*
X187719511Y-69341958D01*
X187945427Y-69419567D01*
X188055049Y-69507896D01*
X188059267Y-69528083D01*
X187994594Y-69602301D01*
X187974600Y-69604467D01*
X187934664Y-69684693D01*
X187905979Y-69908035D01*
X187891282Y-70248490D01*
X187889933Y-70408800D01*
X187887376Y-70782637D01*
X187875297Y-71018576D01*
X187847082Y-71148028D01*
X187796119Y-71202405D01*
X187720600Y-71213134D01*
X187613287Y-71187207D01*
X187563529Y-71080401D01*
X187551268Y-70849180D01*
X187551267Y-70845606D01*
X187551267Y-70478079D01*
X187098034Y-70376651D01*
X186695388Y-70238684D01*
X186425289Y-70051550D01*
X186287879Y-69840606D01*
X186287106Y-69805260D01*
X186649443Y-69805260D01*
X186752836Y-69931073D01*
X186939074Y-70040754D01*
X187167481Y-70105551D01*
X187264313Y-70112467D01*
X187461802Y-70094251D01*
X187540128Y-70018170D01*
X187549970Y-69921967D01*
X187508115Y-69669739D01*
X187372143Y-69548568D01*
X187119839Y-69540702D01*
X187080214Y-69546606D01*
X186847510Y-69603989D01*
X186685355Y-69678606D01*
X186669574Y-69692069D01*
X186649443Y-69805260D01*
X186287106Y-69805260D01*
X186283299Y-69631213D01*
X186411692Y-69448731D01*
X186673201Y-69318519D01*
X187067968Y-69265937D01*
X187091804Y-69265800D01*
X187420553Y-69286794D01*
G37*
G36*
X129044978Y-96043058D02*
G01*
X128968330Y-96100339D01*
X128772230Y-96238853D01*
X128475763Y-96445509D01*
X128098013Y-96707218D01*
X127658067Y-97010889D01*
X127175009Y-97343434D01*
X126667923Y-97691764D01*
X126155896Y-98042787D01*
X125658013Y-98383415D01*
X125193357Y-98700558D01*
X124781015Y-98981127D01*
X124440071Y-99212031D01*
X124189611Y-99380182D01*
X124048720Y-99472489D01*
X124024799Y-99486176D01*
X123953959Y-99438516D01*
X123760244Y-99305859D01*
X123460066Y-99099503D01*
X123069836Y-98830749D01*
X122605965Y-98510896D01*
X122084865Y-98151244D01*
X121719175Y-97898676D01*
X121158473Y-97511016D01*
X120634775Y-97148368D01*
X120166387Y-96823453D01*
X119771616Y-96548992D01*
X119468771Y-96337708D01*
X119276157Y-96202320D01*
X119221508Y-96163101D01*
X119153421Y-96109940D01*
X119144165Y-96093375D01*
X119204213Y-96119280D01*
X119344039Y-96193531D01*
X119574114Y-96322003D01*
X119904914Y-96510572D01*
X120346911Y-96765114D01*
X120910578Y-97091504D01*
X121606389Y-97495618D01*
X121870707Y-97649311D01*
X124050481Y-98917065D01*
X126188707Y-97665985D01*
X126942539Y-97225351D01*
X127561434Y-96864657D01*
X128056260Y-96577729D01*
X128437881Y-96358394D01*
X128717164Y-96200478D01*
X128904974Y-96097806D01*
X129012177Y-96044205D01*
X129049639Y-96033501D01*
X129044978Y-96043058D01*
G37*
G36*
X144731596Y-73290779D02*
G01*
X144999828Y-73428450D01*
X145138967Y-73673840D01*
X145157319Y-73792546D01*
X145156680Y-73933952D01*
X145104343Y-74024163D01*
X144963292Y-74092501D01*
X144696508Y-74168286D01*
X144676327Y-74173546D01*
X144301609Y-74300218D01*
X144095238Y-74441667D01*
X144056829Y-74598374D01*
X144186001Y-74770826D01*
X144196580Y-74779647D01*
X144452180Y-74896328D01*
X144715414Y-74868128D01*
X144929890Y-74701144D01*
X145016505Y-74610690D01*
X145107793Y-74633770D01*
X145210286Y-74719880D01*
X145363370Y-74905326D01*
X145358519Y-75043546D01*
X145194061Y-75135854D01*
X144868322Y-75183567D01*
X144610596Y-75191311D01*
X144292179Y-75159873D01*
X144045435Y-75043742D01*
X143954429Y-74973274D01*
X143761021Y-74758192D01*
X143695049Y-74520210D01*
X143693933Y-74475641D01*
X143718684Y-74258769D01*
X143815675Y-74112153D01*
X144019018Y-74003939D01*
X144286600Y-73922166D01*
X144573645Y-73840356D01*
X144721839Y-73776340D01*
X144757429Y-73710278D01*
X144706664Y-73622334D01*
X144697730Y-73611429D01*
X144573186Y-73532675D01*
X144359991Y-73523592D01*
X144220530Y-73540601D01*
X143991869Y-73567177D01*
X143889285Y-73547828D01*
X143873071Y-73471125D01*
X143877805Y-73441934D01*
X143935177Y-73343589D01*
X144086064Y-73288269D01*
X144336659Y-73262369D01*
X144731596Y-73290779D01*
G37*
G36*
X167530043Y-69312033D02*
G01*
X167826852Y-69403695D01*
X168086346Y-69536377D01*
X168270845Y-69702990D01*
X168323805Y-69798428D01*
X168428129Y-70178640D01*
X168466741Y-70551227D01*
X168437178Y-70861629D01*
X168378350Y-71007117D01*
X168272368Y-71130119D01*
X168126815Y-71192035D01*
X167885736Y-71212282D01*
X167784645Y-71213134D01*
X167519582Y-71198067D01*
X167329131Y-71159347D01*
X167271471Y-71125023D01*
X167157564Y-71075532D01*
X167050745Y-71089685D01*
X166852122Y-71095911D01*
X166723261Y-70960622D01*
X166659411Y-70676704D01*
X166650513Y-70490336D01*
X166644988Y-70027800D01*
X166975464Y-70027800D01*
X167207124Y-70052277D01*
X167346830Y-70111714D01*
X167370166Y-70185122D01*
X167252716Y-70251509D01*
X167239785Y-70255040D01*
X167088321Y-70348541D01*
X167089812Y-70500915D01*
X167244036Y-70698848D01*
X167247231Y-70701835D01*
X167425152Y-70841953D01*
X167597406Y-70886227D01*
X167781600Y-70875491D01*
X167969399Y-70801377D01*
X168060864Y-70614594D01*
X168076637Y-70425762D01*
X168007201Y-70046896D01*
X167810026Y-69763752D01*
X167508707Y-69596077D01*
X167126838Y-69563617D01*
X167057359Y-69572686D01*
X166836816Y-69594637D01*
X166739362Y-69560147D01*
X166723267Y-69497346D01*
X166792530Y-69354047D01*
X166975201Y-69280121D01*
X167233599Y-69268479D01*
X167530043Y-69312033D01*
G37*
G36*
X185032929Y-69311446D02*
G01*
X185301161Y-69449117D01*
X185440300Y-69694507D01*
X185458652Y-69813213D01*
X185458013Y-69954619D01*
X185405677Y-70044830D01*
X185264625Y-70113167D01*
X184997841Y-70188953D01*
X184977660Y-70194213D01*
X184602942Y-70320885D01*
X184396571Y-70462333D01*
X184358162Y-70619041D01*
X184487334Y-70791492D01*
X184497913Y-70800314D01*
X184753513Y-70916995D01*
X185016747Y-70888795D01*
X185231223Y-70721811D01*
X185317838Y-70631357D01*
X185409127Y-70654437D01*
X185511620Y-70740546D01*
X185664703Y-70925993D01*
X185659852Y-71064213D01*
X185495394Y-71156521D01*
X185169656Y-71204234D01*
X184911929Y-71211977D01*
X184593512Y-71180539D01*
X184346769Y-71064408D01*
X184255763Y-70993941D01*
X184062355Y-70778859D01*
X183996383Y-70540877D01*
X183995267Y-70496307D01*
X184020017Y-70279436D01*
X184117008Y-70132820D01*
X184320351Y-70024606D01*
X184587933Y-69942832D01*
X184874978Y-69861023D01*
X185023172Y-69797006D01*
X185058763Y-69730945D01*
X185007997Y-69643001D01*
X184999063Y-69632096D01*
X184874519Y-69553342D01*
X184661325Y-69544258D01*
X184521863Y-69561267D01*
X184293202Y-69587843D01*
X184190618Y-69568495D01*
X184174404Y-69491791D01*
X184179138Y-69462601D01*
X184236511Y-69364255D01*
X184387397Y-69308936D01*
X184637992Y-69283036D01*
X185032929Y-69311446D01*
G37*
G36*
X136134673Y-69286788D02*
G01*
X136455032Y-69344019D01*
X136671365Y-69428895D01*
X136751264Y-69532816D01*
X136751267Y-69533390D01*
X136682496Y-69596505D01*
X136624267Y-69604467D01*
X136556858Y-69638054D01*
X136517495Y-69759308D01*
X136499939Y-69998968D01*
X136497267Y-70230288D01*
X136500761Y-70552151D01*
X136519373Y-70743816D01*
X136565296Y-70844392D01*
X136650722Y-70892989D01*
X136708933Y-70909235D01*
X136867865Y-70991922D01*
X136920600Y-71087747D01*
X136846340Y-71174857D01*
X136647703Y-71209651D01*
X136360906Y-71193514D01*
X136022163Y-71127833D01*
X135744110Y-71042715D01*
X135257835Y-70807767D01*
X134927354Y-70508091D01*
X134751389Y-70142225D01*
X134726841Y-69933283D01*
X135097821Y-69933283D01*
X135115378Y-70180397D01*
X135267182Y-70435602D01*
X135556882Y-70670967D01*
X135656618Y-70726169D01*
X135884684Y-70835560D01*
X136008311Y-70857682D01*
X136072388Y-70785109D01*
X136111692Y-70650885D01*
X136133635Y-70437324D01*
X136127082Y-70141971D01*
X136111115Y-69973552D01*
X136071919Y-69711550D01*
X136020924Y-69576439D01*
X135930821Y-69526488D01*
X135814161Y-69519800D01*
X135450861Y-69575053D01*
X135210865Y-69722191D01*
X135097821Y-69933283D01*
X134726841Y-69933283D01*
X134719267Y-69868816D01*
X134786511Y-69592199D01*
X134991211Y-69401404D01*
X135337821Y-69293806D01*
X135742701Y-69265800D01*
X136134673Y-69286788D01*
G37*
G36*
X137489176Y-73260394D02*
G01*
X137660813Y-73310238D01*
X137702855Y-73425608D01*
X137699383Y-73456800D01*
X137676021Y-73639999D01*
X137646021Y-73910719D01*
X137631825Y-74049467D01*
X137611024Y-74293021D01*
X137619052Y-74393305D01*
X137665259Y-74375260D01*
X137727038Y-74303467D01*
X137848551Y-74138371D01*
X138015537Y-73893331D01*
X138134464Y-73710800D01*
X138319967Y-73451976D01*
X138474330Y-73320683D01*
X138615135Y-73287467D01*
X138706297Y-73292395D01*
X138767227Y-73326603D01*
X138805096Y-73419224D01*
X138827074Y-73599393D01*
X138840330Y-73896244D01*
X138849539Y-74239967D01*
X138858146Y-74652732D01*
X138856304Y-74925232D01*
X138839661Y-75086424D01*
X138803865Y-75165265D01*
X138744562Y-75190714D01*
X138706370Y-75192467D01*
X138550193Y-75164176D01*
X138500431Y-75128967D01*
X138483614Y-75016728D01*
X138478734Y-74788216D01*
X138485232Y-74536300D01*
X138489718Y-74262929D01*
X138478061Y-74072850D01*
X138455564Y-74010074D01*
X138386936Y-74077306D01*
X138254733Y-74252157D01*
X138085653Y-74498977D01*
X138059258Y-74539240D01*
X137856302Y-74829342D01*
X137700241Y-74994215D01*
X137563169Y-75060546D01*
X137508925Y-75065467D01*
X137417656Y-75059855D01*
X137357160Y-75023214D01*
X137319932Y-74925840D01*
X137298470Y-74738027D01*
X137285268Y-74430069D01*
X137277509Y-74149394D01*
X137253418Y-73233322D01*
X137489176Y-73260394D01*
G37*
G36*
X178266669Y-69321474D02*
G01*
X178477025Y-69498709D01*
X178701675Y-69752634D01*
X178912729Y-69999740D01*
X179095513Y-70196269D01*
X179213396Y-70303034D01*
X179220045Y-70307174D01*
X179326116Y-70441330D01*
X179338600Y-70507537D01*
X179311676Y-70578538D01*
X179207746Y-70612593D01*
X178992073Y-70615838D01*
X178786730Y-70605053D01*
X178234860Y-70569913D01*
X178257563Y-70867361D01*
X178248034Y-71091340D01*
X178167391Y-71186931D01*
X178149138Y-71191899D01*
X177998916Y-71183215D01*
X177958638Y-71159616D01*
X177919864Y-71042961D01*
X177899964Y-70830848D01*
X177899267Y-70781395D01*
X177875005Y-70549722D01*
X177787491Y-70433689D01*
X177729933Y-70408800D01*
X177593102Y-70332787D01*
X177560600Y-70276095D01*
X177631563Y-70211923D01*
X177729933Y-70197134D01*
X177827791Y-70176921D01*
X177878769Y-70089532D01*
X177890432Y-69968044D01*
X178237933Y-69968044D01*
X178267518Y-70200306D01*
X178381990Y-70318193D01*
X178619930Y-70358755D01*
X178645865Y-70359783D01*
X178842130Y-70366467D01*
X178670984Y-70126114D01*
X178514150Y-69927338D01*
X178372223Y-69779881D01*
X178368885Y-69777080D01*
X178282214Y-69726599D01*
X178245174Y-69790368D01*
X178237933Y-69968044D01*
X177890432Y-69968044D01*
X177897460Y-69894836D01*
X177899267Y-69731467D01*
X177905133Y-69464460D01*
X177934629Y-69325409D01*
X178005598Y-69273035D01*
X178100563Y-69265800D01*
X178266669Y-69321474D01*
G37*
G36*
X174745052Y-100530844D02*
G01*
X174838089Y-100637279D01*
X174984456Y-100903513D01*
X175012770Y-101153436D01*
X174931586Y-101324948D01*
X174914114Y-101424619D01*
X175051277Y-101550675D01*
X175058586Y-101555499D01*
X175241773Y-101738455D01*
X175274292Y-101925916D01*
X175172525Y-102094674D01*
X174952855Y-102221522D01*
X174631663Y-102283252D01*
X174543065Y-102285800D01*
X174214692Y-102256842D01*
X173991925Y-102159478D01*
X173935898Y-102113169D01*
X173782138Y-101882029D01*
X173780104Y-101842112D01*
X174272364Y-101842112D01*
X174369814Y-101999273D01*
X174406767Y-102025018D01*
X174575929Y-102104031D01*
X174684950Y-102076200D01*
X174757508Y-102000422D01*
X174786370Y-101855432D01*
X174708314Y-101693195D01*
X174568635Y-101570664D01*
X174412626Y-101544791D01*
X174398787Y-101549357D01*
X174281611Y-101667688D01*
X174272364Y-101842112D01*
X173780104Y-101842112D01*
X173769756Y-101639004D01*
X173898793Y-101432409D01*
X173935273Y-101404052D01*
X174060401Y-101298995D01*
X174052224Y-101207878D01*
X173977607Y-101117417D01*
X173845819Y-100890927D01*
X173850686Y-100857756D01*
X174343267Y-100857756D01*
X174374719Y-101001790D01*
X174441010Y-101066929D01*
X174499194Y-101013684D01*
X174476025Y-100874394D01*
X174437458Y-100822125D01*
X174359472Y-100781164D01*
X174343267Y-100857756D01*
X173850686Y-100857756D01*
X173874560Y-100695051D01*
X174055876Y-100543445D01*
X174364868Y-100452430D01*
X174588504Y-100442888D01*
X174745052Y-100530844D01*
G37*
G36*
X147237666Y-73274756D02*
G01*
X147620497Y-73338461D01*
X147871516Y-73441500D01*
X147977646Y-73576036D01*
X147949323Y-73701275D01*
X147925072Y-73825585D01*
X147912899Y-74070370D01*
X147914899Y-74387067D01*
X147917033Y-74450802D01*
X147927558Y-74780398D01*
X147921284Y-74975841D01*
X147887851Y-75072189D01*
X147816904Y-75104500D01*
X147722930Y-75107800D01*
X147503933Y-75107800D01*
X147503933Y-74354693D01*
X147503933Y-73601586D01*
X147144100Y-73563019D01*
X146848707Y-73556620D01*
X146707408Y-73606198D01*
X146721245Y-73695272D01*
X146891265Y-73807360D01*
X147122933Y-73896948D01*
X147308204Y-73990037D01*
X147400470Y-74100159D01*
X147400780Y-74101664D01*
X147356880Y-74231586D01*
X147216661Y-74430753D01*
X147015672Y-74662179D01*
X146789462Y-74888879D01*
X146573578Y-75073868D01*
X146403570Y-75180160D01*
X146352362Y-75192467D01*
X146184149Y-75134075D01*
X145988937Y-74990088D01*
X145953440Y-74955001D01*
X145784161Y-74743789D01*
X145718764Y-74592626D01*
X145750349Y-74525300D01*
X145872013Y-74565603D01*
X146029848Y-74691590D01*
X146217677Y-74868046D01*
X146564472Y-74554738D01*
X146803444Y-74319174D01*
X146902266Y-74168980D01*
X146863739Y-74098756D01*
X146804568Y-74091800D01*
X146647226Y-74026987D01*
X146463348Y-73870504D01*
X146307583Y-73679282D01*
X146234579Y-73510253D01*
X146233933Y-73497320D01*
X146297019Y-73356113D01*
X146492803Y-73274775D01*
X146831078Y-73251135D01*
X147237666Y-73274756D01*
G37*
G36*
X162223666Y-69295423D02*
G01*
X162606497Y-69359128D01*
X162857516Y-69462167D01*
X162963646Y-69596703D01*
X162935323Y-69721942D01*
X162911072Y-69846251D01*
X162898899Y-70091036D01*
X162900899Y-70407734D01*
X162903033Y-70471468D01*
X162913558Y-70801065D01*
X162907284Y-70996508D01*
X162873851Y-71092856D01*
X162802904Y-71125167D01*
X162708930Y-71128467D01*
X162489933Y-71128467D01*
X162489933Y-70375360D01*
X162489933Y-69622253D01*
X162130100Y-69583686D01*
X161834707Y-69577287D01*
X161693408Y-69626865D01*
X161707245Y-69715938D01*
X161877265Y-69828026D01*
X162108933Y-69917614D01*
X162294204Y-70010703D01*
X162386470Y-70120826D01*
X162386780Y-70122331D01*
X162342880Y-70252253D01*
X162202661Y-70451419D01*
X162001672Y-70682846D01*
X161775462Y-70909546D01*
X161559578Y-71094535D01*
X161389570Y-71200826D01*
X161338362Y-71213134D01*
X161170149Y-71154742D01*
X160974937Y-71010755D01*
X160939440Y-70975667D01*
X160770161Y-70764456D01*
X160704764Y-70613293D01*
X160736349Y-70545967D01*
X160858013Y-70586269D01*
X161015848Y-70712256D01*
X161203677Y-70888712D01*
X161550472Y-70575404D01*
X161789444Y-70339840D01*
X161888266Y-70189646D01*
X161849739Y-70119422D01*
X161790568Y-70112467D01*
X161633226Y-70047654D01*
X161449348Y-69891170D01*
X161293583Y-69699948D01*
X161220579Y-69530920D01*
X161219933Y-69517987D01*
X161283019Y-69376780D01*
X161478803Y-69295442D01*
X161817078Y-69271801D01*
X162223666Y-69295423D01*
G37*
G36*
X170436333Y-69295423D02*
G01*
X170819164Y-69359128D01*
X171070183Y-69462167D01*
X171176313Y-69596703D01*
X171147990Y-69721942D01*
X171123738Y-69846251D01*
X171111566Y-70091036D01*
X171113566Y-70407734D01*
X171115699Y-70471468D01*
X171126225Y-70801065D01*
X171119950Y-70996508D01*
X171086518Y-71092856D01*
X171015571Y-71125167D01*
X170921597Y-71128467D01*
X170702600Y-71128467D01*
X170702600Y-70375360D01*
X170702600Y-69622253D01*
X170342767Y-69583686D01*
X170047374Y-69577287D01*
X169906074Y-69626865D01*
X169919912Y-69715938D01*
X170089932Y-69828026D01*
X170321600Y-69917614D01*
X170506871Y-70010703D01*
X170599137Y-70120826D01*
X170599447Y-70122331D01*
X170555546Y-70252253D01*
X170415327Y-70451419D01*
X170214339Y-70682846D01*
X169988128Y-70909546D01*
X169772245Y-71094535D01*
X169602237Y-71200826D01*
X169551029Y-71213134D01*
X169382815Y-71154742D01*
X169187603Y-71010755D01*
X169152107Y-70975667D01*
X168982828Y-70764456D01*
X168917431Y-70613293D01*
X168949015Y-70545967D01*
X169070680Y-70586269D01*
X169228515Y-70712256D01*
X169416344Y-70888712D01*
X169763139Y-70575404D01*
X170002111Y-70339840D01*
X170100933Y-70189646D01*
X170062406Y-70119422D01*
X170003235Y-70112467D01*
X169845893Y-70047654D01*
X169662015Y-69891170D01*
X169506249Y-69699948D01*
X169433246Y-69530920D01*
X169432600Y-69517987D01*
X169495686Y-69376780D01*
X169691470Y-69295442D01*
X170029745Y-69271801D01*
X170436333Y-69295423D01*
G37*
G36*
X149576085Y-73320866D02*
G01*
X149849020Y-73332605D01*
X150046132Y-73353218D01*
X150115130Y-73374702D01*
X150132693Y-73471990D01*
X150142421Y-73693218D01*
X150144999Y-73993206D01*
X150141110Y-74326777D01*
X150131438Y-74648750D01*
X150116667Y-74913946D01*
X150097481Y-75077187D01*
X150088967Y-75103431D01*
X149966837Y-75161506D01*
X149729875Y-75178948D01*
X149428118Y-75153754D01*
X149316047Y-75134411D01*
X149154692Y-75067199D01*
X148960305Y-74940800D01*
X148776397Y-74791009D01*
X148646478Y-74653617D01*
X148614058Y-74564418D01*
X148617562Y-74559819D01*
X148718911Y-74560966D01*
X148911578Y-74628963D01*
X149016356Y-74678560D01*
X149359657Y-74820651D01*
X149596257Y-74836677D01*
X149736038Y-74723379D01*
X149788884Y-74477499D01*
X149789933Y-74423542D01*
X149741775Y-74299483D01*
X149573203Y-74260821D01*
X149557100Y-74260661D01*
X149309265Y-74238003D01*
X149048477Y-74181499D01*
X148828134Y-74106993D01*
X148701635Y-74030330D01*
X148689267Y-74003154D01*
X148766136Y-73960417D01*
X148965770Y-73931165D01*
X149192270Y-73922467D01*
X149467373Y-73911959D01*
X149666713Y-73884714D01*
X149737017Y-73854924D01*
X149739048Y-73725718D01*
X149640770Y-73621080D01*
X149511387Y-73607592D01*
X149361668Y-73617103D01*
X149148874Y-73580970D01*
X148930303Y-73516257D01*
X148763253Y-73440030D01*
X148705022Y-73369352D01*
X148705525Y-73367589D01*
X148792046Y-73341362D01*
X148998627Y-73324997D01*
X149276297Y-73318247D01*
X149576085Y-73320866D01*
G37*
G36*
X122059865Y-92087108D02*
G01*
X122351093Y-92275717D01*
X122369636Y-92293810D01*
X122540015Y-92501107D01*
X122599393Y-92704942D01*
X122595956Y-92858766D01*
X122551358Y-93072180D01*
X122475110Y-93198735D01*
X122458262Y-93207646D01*
X122388864Y-93191322D01*
X122384845Y-93055106D01*
X122400984Y-92956087D01*
X122409217Y-92696372D01*
X122300905Y-92483318D01*
X122282305Y-92460363D01*
X122163373Y-92334216D01*
X122113766Y-92339152D01*
X122106750Y-92396799D01*
X122123527Y-92602812D01*
X122171079Y-92858854D01*
X122235657Y-93111727D01*
X122303510Y-93308231D01*
X122360889Y-93395168D01*
X122364949Y-93395800D01*
X122440390Y-93460437D01*
X122442600Y-93480467D01*
X122367488Y-93533485D01*
X122179848Y-93562975D01*
X122103933Y-93565134D01*
X121891859Y-93546355D01*
X121773902Y-93499446D01*
X121765267Y-93480467D01*
X121833843Y-93405352D01*
X121892267Y-93395800D01*
X122007791Y-93346257D01*
X122009090Y-93221903D01*
X121909623Y-93059149D01*
X121722850Y-92894406D01*
X121701767Y-92880434D01*
X121461941Y-92670303D01*
X121353475Y-92450418D01*
X121361927Y-92397706D01*
X121612871Y-92397706D01*
X121639410Y-92517155D01*
X121723895Y-92661554D01*
X121823028Y-92770739D01*
X121892311Y-92785999D01*
X121896040Y-92694249D01*
X121875404Y-92504324D01*
X121872083Y-92481961D01*
X121808282Y-92296279D01*
X121716668Y-92238837D01*
X121634698Y-92321809D01*
X121612871Y-92397706D01*
X121361927Y-92397706D01*
X121385531Y-92250493D01*
X121477075Y-92151711D01*
X121755955Y-92043772D01*
X122059865Y-92087108D01*
G37*
G36*
X198773525Y-84048246D02*
G01*
X198825034Y-84100766D01*
X198889079Y-84256170D01*
X198810155Y-84347077D01*
X198722809Y-84380215D01*
X198605544Y-84444730D01*
X198638053Y-84542300D01*
X198648509Y-84555254D01*
X198702377Y-84654733D01*
X198652967Y-84675134D01*
X198564708Y-84725005D01*
X198599495Y-84852096D01*
X198695013Y-84969451D01*
X198785111Y-85092191D01*
X198788157Y-85150465D01*
X198713332Y-85134076D01*
X198684847Y-85098328D01*
X198570082Y-85032766D01*
X198527757Y-85039753D01*
X198409703Y-85026276D01*
X198306374Y-84941551D01*
X198282817Y-84872689D01*
X198416822Y-84872689D01*
X198428444Y-84923023D01*
X198473267Y-84929134D01*
X198542957Y-84898155D01*
X198529711Y-84872689D01*
X198429231Y-84862556D01*
X198416822Y-84872689D01*
X198282817Y-84872689D01*
X198272495Y-84842516D01*
X198301078Y-84803898D01*
X198348541Y-84693749D01*
X198337703Y-84641014D01*
X198349362Y-84590467D01*
X198430933Y-84590467D01*
X198437646Y-84668486D01*
X198468270Y-84675134D01*
X198554488Y-84613673D01*
X198557933Y-84590467D01*
X198529046Y-84508001D01*
X198520597Y-84505800D01*
X198448311Y-84565129D01*
X198430933Y-84590467D01*
X198349362Y-84590467D01*
X198365578Y-84520166D01*
X198431905Y-84474809D01*
X198529523Y-84364939D01*
X198518915Y-84262244D01*
X198524697Y-84209467D01*
X198642600Y-84209467D01*
X198684933Y-84251800D01*
X198727267Y-84209467D01*
X198684933Y-84167134D01*
X198642600Y-84209467D01*
X198524697Y-84209467D01*
X198534876Y-84116562D01*
X198642329Y-84033317D01*
X198773525Y-84048246D01*
G37*
G36*
X163918006Y-69263403D02*
G01*
X164002347Y-69445564D01*
X164090188Y-69770751D01*
X164111661Y-69865056D01*
X164180110Y-70170856D01*
X164233483Y-70406852D01*
X164261859Y-70529228D01*
X164263543Y-70535800D01*
X164296455Y-70502049D01*
X164361516Y-70354765D01*
X164440981Y-70142231D01*
X164517108Y-69912728D01*
X164572153Y-69714541D01*
X164581474Y-69670690D01*
X164656745Y-69461363D01*
X164746398Y-69339845D01*
X164889603Y-69288633D01*
X164995035Y-69396456D01*
X165057563Y-69656192D01*
X165068673Y-69787139D01*
X165107895Y-70086646D01*
X165178903Y-70361807D01*
X165196984Y-70408800D01*
X165251338Y-70526680D01*
X165292094Y-70559177D01*
X165331391Y-70485526D01*
X165381367Y-70284963D01*
X165443955Y-69986349D01*
X165528897Y-69622225D01*
X165607935Y-69400895D01*
X165691524Y-69296610D01*
X165730127Y-69281592D01*
X165857494Y-69296004D01*
X165921340Y-69412374D01*
X165923745Y-69648068D01*
X165866785Y-70020451D01*
X165836521Y-70170551D01*
X165765288Y-70510734D01*
X165703466Y-70806716D01*
X165662717Y-71002659D01*
X165658595Y-71022634D01*
X165563569Y-71176546D01*
X165399639Y-71204176D01*
X165215348Y-71101223D01*
X165180652Y-71064967D01*
X165046130Y-70878959D01*
X164928926Y-70677468D01*
X164806725Y-70438137D01*
X164671140Y-70783302D01*
X164530727Y-71033898D01*
X164376181Y-71123729D01*
X164214670Y-71060019D01*
X164053360Y-70849990D01*
X163899419Y-70500866D01*
X163760014Y-70019871D01*
X163715703Y-69820354D01*
X163661791Y-69508456D01*
X163659945Y-69326578D01*
X163705994Y-69246010D01*
X163823708Y-69203731D01*
X163918006Y-69263403D01*
G37*
G36*
X192337162Y-69280471D02*
G01*
X192563620Y-69303327D01*
X192869142Y-69348276D01*
X193123427Y-69403957D01*
X193246098Y-69446996D01*
X193372163Y-69555777D01*
X193347896Y-69647405D01*
X193192292Y-69703054D01*
X192981977Y-69708764D01*
X192756702Y-69706135D01*
X192654468Y-69748893D01*
X192631267Y-69847752D01*
X192708598Y-69998004D01*
X192864100Y-70064760D01*
X193238502Y-70175458D01*
X193544209Y-70307106D01*
X193747821Y-70442440D01*
X193816282Y-70556967D01*
X193749604Y-70673713D01*
X193568337Y-70701821D01*
X193301677Y-70642103D01*
X193054600Y-70535800D01*
X192784495Y-70409415D01*
X192630842Y-70383996D01*
X192565079Y-70473076D01*
X192558647Y-70690184D01*
X192563128Y-70768634D01*
X192588933Y-71170800D01*
X192906433Y-71143147D01*
X193139026Y-71150465D01*
X193218036Y-71214119D01*
X193141947Y-71315944D01*
X192930319Y-71429120D01*
X192608604Y-71531271D01*
X192366977Y-71542801D01*
X192264378Y-71495356D01*
X192235984Y-71387907D01*
X192215713Y-71160331D01*
X192207933Y-70861796D01*
X192207933Y-70860356D01*
X192203387Y-70553851D01*
X192182334Y-70379804D01*
X192133652Y-70301427D01*
X192046221Y-70281930D01*
X192033034Y-70281800D01*
X191821081Y-70244428D01*
X191632865Y-70154656D01*
X191533912Y-70045998D01*
X191530600Y-70024821D01*
X191606280Y-69976103D01*
X191797757Y-69946880D01*
X191911600Y-69943134D01*
X192151048Y-69931311D01*
X192264060Y-69884074D01*
X192292599Y-69783771D01*
X192292600Y-69782859D01*
X192233670Y-69625106D01*
X192165600Y-69573849D01*
X192054013Y-69457362D01*
X192038600Y-69384521D01*
X192059472Y-69309343D01*
X192146691Y-69276562D01*
X192337162Y-69280471D01*
G37*
G36*
X128506126Y-92097382D02*
G01*
X128781395Y-92257024D01*
X128928792Y-92506410D01*
X128946026Y-92741044D01*
X128905626Y-92919798D01*
X128842282Y-92991004D01*
X128834933Y-92989871D01*
X128781091Y-92898014D01*
X128774696Y-92730780D01*
X128724418Y-92466721D01*
X128615278Y-92332376D01*
X128486813Y-92222927D01*
X128452506Y-92227904D01*
X128477622Y-92337467D01*
X128522524Y-92515969D01*
X128586107Y-92784537D01*
X128624319Y-92951300D01*
X128692964Y-93197886D01*
X128762622Y-93359292D01*
X128801045Y-93395800D01*
X128875107Y-93460478D01*
X128877267Y-93480467D01*
X128802686Y-93535951D01*
X128614139Y-93563881D01*
X128364420Y-93566114D01*
X128106323Y-93544507D01*
X127892640Y-93500920D01*
X127779678Y-93441842D01*
X127723554Y-93289532D01*
X127780605Y-93168988D01*
X127866263Y-93141800D01*
X127936969Y-93210452D01*
X127945933Y-93268800D01*
X128012259Y-93369251D01*
X128169321Y-93389885D01*
X128351381Y-93323979D01*
X128417348Y-93222542D01*
X128377767Y-93037232D01*
X128374643Y-93028942D01*
X128283359Y-92871084D01*
X128184939Y-92800396D01*
X128121468Y-92839781D01*
X128115267Y-92887800D01*
X128050837Y-92970007D01*
X128030600Y-92972467D01*
X127966070Y-92900260D01*
X127945933Y-92768727D01*
X127974147Y-92621435D01*
X128084077Y-92601998D01*
X128115267Y-92609268D01*
X128252389Y-92595820D01*
X128280048Y-92475857D01*
X128201220Y-92295134D01*
X128111685Y-92213738D01*
X127980685Y-92255341D01*
X127949665Y-92273967D01*
X127780075Y-92364929D01*
X127707195Y-92345101D01*
X127691933Y-92210467D01*
X127714012Y-92109258D01*
X127807897Y-92058563D01*
X128015060Y-92041943D01*
X128119115Y-92041134D01*
X128506126Y-92097382D01*
G37*
G36*
X203258745Y-85670849D02*
G01*
X203268136Y-85869293D01*
X203250785Y-86209749D01*
X203206256Y-86700162D01*
X203134113Y-87348482D01*
X203121600Y-87453844D01*
X203009700Y-88149402D01*
X202840236Y-88900782D01*
X202631614Y-89636928D01*
X202402243Y-90286787D01*
X202362807Y-90382868D01*
X202230769Y-90664034D01*
X202065672Y-90969723D01*
X201888461Y-91266919D01*
X201720085Y-91522603D01*
X201581492Y-91703761D01*
X201493629Y-91777374D01*
X201480406Y-91773667D01*
X201492624Y-91686129D01*
X201548509Y-91474792D01*
X201637888Y-91176402D01*
X201698483Y-90985887D01*
X201836670Y-90540861D01*
X201915443Y-90242480D01*
X201934537Y-90093477D01*
X201893688Y-90096588D01*
X201792632Y-90254545D01*
X201764230Y-90306721D01*
X201587765Y-90608445D01*
X201381072Y-90918664D01*
X201164078Y-91213173D01*
X200956710Y-91467767D01*
X200778896Y-91658243D01*
X200650563Y-91760397D01*
X200591638Y-91750022D01*
X200589933Y-91733066D01*
X200646554Y-91622275D01*
X200785068Y-91464437D01*
X200807036Y-91443360D01*
X200956909Y-91275004D01*
X201157580Y-91013498D01*
X201370538Y-90709556D01*
X201412986Y-90645434D01*
X201616509Y-90339224D01*
X201805509Y-90062912D01*
X201945230Y-89867130D01*
X201965976Y-89839800D01*
X202130120Y-89628134D01*
X202067650Y-90051467D01*
X202005607Y-90379190D01*
X201924222Y-90697925D01*
X201893979Y-90792300D01*
X201823117Y-91019530D01*
X201817900Y-91101406D01*
X201871562Y-91045644D01*
X201977339Y-90859961D01*
X202128463Y-90552072D01*
X202155389Y-90494173D01*
X202361072Y-90004374D01*
X202536844Y-89481157D01*
X202687949Y-88899807D01*
X202819630Y-88235613D01*
X202937133Y-87463860D01*
X203045700Y-86559837D01*
X203098226Y-86050967D01*
X203136632Y-85802715D01*
X203188250Y-85641375D01*
X203223050Y-85606467D01*
X203258745Y-85670849D01*
G37*
G36*
X188477246Y-87088938D02*
G01*
X188479109Y-87130467D01*
X188455348Y-87280510D01*
X188392849Y-87523471D01*
X188345191Y-87680800D01*
X188264105Y-88061897D01*
X188214719Y-88591768D01*
X188199587Y-89077800D01*
X188217303Y-89757084D01*
X188291441Y-90307170D01*
X188430159Y-90761169D01*
X188641616Y-91152191D01*
X188746005Y-91295335D01*
X188927061Y-91548983D01*
X188987098Y-91687312D01*
X188930839Y-91708421D01*
X188763003Y-91610409D01*
X188494454Y-91396638D01*
X188110095Y-90965241D01*
X187796652Y-90397198D01*
X187624391Y-89923049D01*
X187511019Y-89543467D01*
X187484352Y-89941198D01*
X187507597Y-90460974D01*
X187641933Y-90914633D01*
X187875586Y-91264418D01*
X187906256Y-91294382D01*
X188040592Y-91439195D01*
X188079227Y-91523972D01*
X188061572Y-91533134D01*
X187944931Y-91473970D01*
X187759359Y-91321318D01*
X187543530Y-91112433D01*
X187336121Y-90884570D01*
X187185036Y-90688795D01*
X187079780Y-90443843D01*
X187046983Y-90223128D01*
X187052286Y-90068485D01*
X187072936Y-90050163D01*
X187125597Y-90177597D01*
X187166172Y-90290600D01*
X187265273Y-90542135D01*
X187330277Y-90654886D01*
X187353601Y-90621914D01*
X187328177Y-90438854D01*
X187315688Y-90245127D01*
X187328536Y-89963842D01*
X187360773Y-89637715D01*
X187406449Y-89309465D01*
X187459615Y-89021807D01*
X187514321Y-88817459D01*
X187564618Y-88739137D01*
X187564910Y-88739134D01*
X187610245Y-88814049D01*
X187634603Y-89000192D01*
X187635933Y-89062433D01*
X187672904Y-89409819D01*
X187772082Y-89822856D01*
X187915867Y-90254629D01*
X188086661Y-90658225D01*
X188266861Y-90986732D01*
X188433762Y-91189069D01*
X188484829Y-91197579D01*
X188452438Y-91067078D01*
X188343181Y-90810128D01*
X188166333Y-90262554D01*
X188077007Y-89604205D01*
X188077238Y-88870480D01*
X188169066Y-88096776D01*
X188182718Y-88021998D01*
X188261308Y-87640539D01*
X188337026Y-87335538D01*
X188402901Y-87127961D01*
X188451964Y-87038772D01*
X188477246Y-87088938D01*
G37*
G36*
X154866822Y-69319696D02*
G01*
X155073664Y-69421623D01*
X155214272Y-69514176D01*
X155423977Y-69677805D01*
X155532779Y-69820334D01*
X155576274Y-70010380D01*
X155587711Y-70234057D01*
X155615623Y-70518915D01*
X155672131Y-70747448D01*
X155714689Y-70829831D01*
X155777500Y-70985955D01*
X155717513Y-71087562D01*
X155581018Y-71089275D01*
X155500328Y-71039978D01*
X155379982Y-70970886D01*
X155297435Y-71040582D01*
X155280866Y-71068966D01*
X155133571Y-71180823D01*
X154950393Y-71213134D01*
X154766363Y-71185518D01*
X154702710Y-71083372D01*
X154700600Y-71043800D01*
X154747549Y-70913314D01*
X154913266Y-70874514D01*
X154922633Y-70874467D01*
X155071642Y-70860178D01*
X155077653Y-70799006D01*
X155039267Y-70747467D01*
X154947130Y-70655110D01*
X154855780Y-70639367D01*
X154728543Y-70713565D01*
X154528747Y-70891033D01*
X154456816Y-70959134D01*
X154187630Y-71191289D01*
X154005333Y-71286163D01*
X153898555Y-71244386D01*
X153855924Y-71066584D01*
X153853933Y-70992408D01*
X153867692Y-70793004D01*
X153921982Y-70726770D01*
X153994719Y-70741041D01*
X154165175Y-70719427D01*
X154375719Y-70564926D01*
X154558405Y-70361583D01*
X154576652Y-70300589D01*
X154985923Y-70300589D01*
X155036523Y-70378768D01*
X155075419Y-70410618D01*
X155216534Y-70488509D01*
X155284634Y-70487988D01*
X155265448Y-70412338D01*
X155206148Y-70363160D01*
X155053559Y-70291358D01*
X154985923Y-70300589D01*
X154576652Y-70300589D01*
X154602201Y-70215190D01*
X154511449Y-70092374D01*
X154443315Y-70045397D01*
X154326142Y-69922214D01*
X154335538Y-69889882D01*
X155064296Y-69889882D01*
X155068937Y-69978465D01*
X155123933Y-70027800D01*
X155257911Y-70072552D01*
X155287045Y-70013041D01*
X155225533Y-69926200D01*
X155109276Y-69871957D01*
X155064296Y-69889882D01*
X154335538Y-69889882D01*
X154354063Y-69826136D01*
X154503326Y-69797085D01*
X154582836Y-69810886D01*
X154742475Y-69819387D01*
X154785267Y-69738077D01*
X154734303Y-69593239D01*
X154700600Y-69562134D01*
X154619320Y-69442937D01*
X154685163Y-69325386D01*
X154735238Y-69299371D01*
X154866822Y-69319696D01*
G37*
G36*
X203194071Y-99557758D02*
G01*
X203258023Y-99650770D01*
X203343826Y-99789127D01*
X203501450Y-100022580D01*
X203702628Y-100309642D01*
X203790589Y-100432441D01*
X203990757Y-100732720D01*
X204107500Y-100955194D01*
X204138146Y-101084998D01*
X204080023Y-101107267D01*
X203930461Y-101007139D01*
X203887034Y-100969033D01*
X203789098Y-100889915D01*
X203739237Y-100902976D01*
X203719165Y-101036146D01*
X203712568Y-101235511D01*
X203708674Y-101497069D01*
X203710146Y-101690954D01*
X203712948Y-101742123D01*
X203651904Y-101853525D01*
X203488024Y-101954140D01*
X203286649Y-102013414D01*
X203140236Y-102009962D01*
X203009359Y-102011967D01*
X202951598Y-102136626D01*
X202944172Y-102189133D01*
X202858725Y-102374537D01*
X202688329Y-102446149D01*
X202478370Y-102398282D01*
X202310890Y-102268484D01*
X202219733Y-102145797D01*
X202167882Y-101994727D01*
X202146805Y-101769441D01*
X202147967Y-101424105D01*
X202148600Y-101396800D01*
X202148468Y-101375938D01*
X202555473Y-101375938D01*
X202625599Y-101422081D01*
X202664267Y-101439134D01*
X202824164Y-101504690D01*
X202866712Y-101502652D01*
X202833600Y-101439134D01*
X202713240Y-101368010D01*
X202638103Y-101360418D01*
X202555473Y-101375938D01*
X202148468Y-101375938D01*
X202146398Y-101049973D01*
X202125851Y-100749004D01*
X202091186Y-100550305D01*
X202083586Y-100529311D01*
X202076911Y-100403810D01*
X202537267Y-100403810D01*
X202608762Y-100483439D01*
X202777750Y-100569326D01*
X202975984Y-100633029D01*
X203122917Y-100647895D01*
X203252030Y-100578723D01*
X203274440Y-100540066D01*
X203233341Y-100478494D01*
X203100443Y-100484623D01*
X202862918Y-100477354D01*
X202716087Y-100428211D01*
X202581258Y-100380645D01*
X202537267Y-100403810D01*
X202076911Y-100403810D01*
X202072334Y-100317740D01*
X202188908Y-100129753D01*
X202194165Y-100126800D01*
X202875933Y-100126800D01*
X202918267Y-100169134D01*
X202960600Y-100126800D01*
X202918267Y-100084467D01*
X202875933Y-100126800D01*
X202194165Y-100126800D01*
X202393769Y-100014674D01*
X202508055Y-99999800D01*
X202661145Y-99958541D01*
X202706600Y-99885922D01*
X202769074Y-99742428D01*
X202910388Y-99589487D01*
X203061377Y-99497216D01*
X203095356Y-99491800D01*
X203194071Y-99557758D01*
G37*
G36*
X199106518Y-99606414D02*
G01*
X199196004Y-99681701D01*
X199154875Y-99822477D01*
X199154251Y-99823645D01*
X199072434Y-100061179D01*
X199136061Y-100223996D01*
X199329659Y-100329170D01*
X199581037Y-100384056D01*
X199714062Y-100327117D01*
X199743267Y-100206470D01*
X199810907Y-100097888D01*
X199867288Y-100084467D01*
X200005908Y-100134666D01*
X200084718Y-100295936D01*
X200106824Y-100584290D01*
X200075335Y-101015738D01*
X200065014Y-101103337D01*
X200008942Y-101486710D01*
X199946256Y-101738425D01*
X199865266Y-101896078D01*
X199796660Y-101966418D01*
X199558920Y-102098404D01*
X199353944Y-102069578D01*
X199212578Y-101947134D01*
X199028995Y-101798934D01*
X198875728Y-101816686D01*
X198768510Y-101967806D01*
X198635826Y-102151239D01*
X198481447Y-102171522D01*
X198320207Y-102030848D01*
X198235635Y-101888984D01*
X198133717Y-101641332D01*
X198021486Y-101301097D01*
X197940381Y-101004744D01*
X198398375Y-101004744D01*
X198450578Y-101167485D01*
X198471171Y-101221955D01*
X198557474Y-101401129D01*
X198614970Y-101413560D01*
X198641195Y-101259778D01*
X198641629Y-101236707D01*
X199160991Y-101236707D01*
X199182010Y-101353802D01*
X199207044Y-101382689D01*
X199330968Y-101436620D01*
X199401760Y-101348498D01*
X199404600Y-101312134D01*
X199336827Y-101199885D01*
X199277600Y-101185134D01*
X199160991Y-101236707D01*
X198641629Y-101236707D01*
X198642600Y-101185134D01*
X198604736Y-100983481D01*
X198515600Y-100931134D01*
X198417648Y-100941678D01*
X198398375Y-101004744D01*
X197940381Y-101004744D01*
X197923069Y-100941488D01*
X197922207Y-100937919D01*
X197870470Y-100723473D01*
X199082633Y-100723473D01*
X199214100Y-100839685D01*
X199392551Y-100919915D01*
X199474030Y-100879215D01*
X199489267Y-100761800D01*
X199439658Y-100629015D01*
X199277600Y-100592467D01*
X199103060Y-100629901D01*
X199082633Y-100723473D01*
X197870470Y-100723473D01*
X197806726Y-100459259D01*
X198303933Y-100459259D01*
X198375153Y-100569176D01*
X198480322Y-100592467D01*
X198609360Y-100552018D01*
X198621473Y-100486634D01*
X198530370Y-100381209D01*
X198402345Y-100355258D01*
X198312483Y-100415255D01*
X198303933Y-100459259D01*
X197806726Y-100459259D01*
X197770644Y-100309704D01*
X197968435Y-100149543D01*
X198214105Y-100033072D01*
X198362080Y-100038537D01*
X198511167Y-100047460D01*
X198557101Y-99946689D01*
X198557933Y-99914931D01*
X198631311Y-99752421D01*
X198806334Y-99630820D01*
X199015341Y-99588181D01*
X199106518Y-99606414D01*
G37*
G36*
X192904901Y-83895658D02*
G01*
X192922679Y-84036705D01*
X192887378Y-84160821D01*
X192866967Y-84180235D01*
X192803470Y-84238328D01*
X192864100Y-84250504D01*
X192963575Y-84291923D01*
X192939366Y-84378759D01*
X192807675Y-84460999D01*
X192794477Y-84465410D01*
X192666428Y-84559166D01*
X192671120Y-84656869D01*
X192695407Y-84744198D01*
X192638845Y-84714619D01*
X192569476Y-84653503D01*
X192426285Y-84582422D01*
X192288474Y-84588104D01*
X192215455Y-84656649D01*
X192233203Y-84732191D01*
X192205539Y-84794620D01*
X192126670Y-84808181D01*
X192015600Y-84762140D01*
X192020274Y-84685435D01*
X192022599Y-84605699D01*
X191964613Y-84626200D01*
X191823794Y-84630727D01*
X191722705Y-84576589D01*
X191624334Y-84510140D01*
X191626354Y-84575454D01*
X191646764Y-84632800D01*
X191677904Y-84744373D01*
X191625527Y-84717648D01*
X191601241Y-84694191D01*
X191552811Y-84601248D01*
X191606715Y-84505800D01*
X191784600Y-84505800D01*
X191849029Y-84588007D01*
X191869267Y-84590467D01*
X191951473Y-84526038D01*
X191953933Y-84505800D01*
X191889504Y-84423594D01*
X191869267Y-84421134D01*
X191787060Y-84485563D01*
X191784600Y-84505800D01*
X191606715Y-84505800D01*
X191616118Y-84489151D01*
X191736393Y-84376691D01*
X191962999Y-84208123D01*
X192091167Y-84176665D01*
X192123267Y-84251800D01*
X192060781Y-84334026D01*
X192041257Y-84336467D01*
X191994672Y-84398528D01*
X192007982Y-84463467D01*
X192089768Y-84577670D01*
X192158177Y-84567126D01*
X192154956Y-84442300D01*
X192133639Y-84348839D01*
X192185893Y-84404789D01*
X192192263Y-84413698D01*
X192277088Y-84487747D01*
X192379739Y-84429866D01*
X192409556Y-84400939D01*
X192496779Y-84285717D01*
X192451904Y-84195537D01*
X192415301Y-84163566D01*
X192325357Y-84104011D01*
X192333444Y-84174422D01*
X192342053Y-84197491D01*
X192348335Y-84313586D01*
X192310717Y-84336467D01*
X192206124Y-84269278D01*
X192164711Y-84127157D01*
X192207894Y-83999278D01*
X192226232Y-83984699D01*
X192364201Y-83922345D01*
X192455532Y-83979573D01*
X192526462Y-84114414D01*
X192574989Y-84305097D01*
X192523119Y-84410747D01*
X192485938Y-84488573D01*
X192558641Y-84498673D01*
X192678802Y-84441004D01*
X192751198Y-84329230D01*
X192765116Y-84183318D01*
X192724837Y-84073375D01*
X192655457Y-84058811D01*
X192558066Y-84049228D01*
X192546600Y-84015917D01*
X192613636Y-83924198D01*
X192755527Y-83845691D01*
X192840799Y-83828467D01*
X192904901Y-83895658D01*
G37*
G36*
X158720927Y-69307789D02*
G01*
X158767417Y-69413967D01*
X158846228Y-69665350D01*
X159046509Y-69830769D01*
X159330266Y-69881228D01*
X159374704Y-69877442D01*
X159574890Y-69844063D01*
X159642679Y-69783155D01*
X159614639Y-69656000D01*
X159605888Y-69632653D01*
X159536373Y-69404285D01*
X159559411Y-69295118D01*
X159683378Y-69277426D01*
X159712095Y-69281078D01*
X159868846Y-69367353D01*
X159969367Y-69589398D01*
X159973309Y-69604467D01*
X160060118Y-69846875D01*
X160168136Y-70033301D01*
X160175456Y-70041807D01*
X160253692Y-70160579D01*
X160229972Y-70283110D01*
X160161222Y-70397495D01*
X160072216Y-70615239D01*
X160073356Y-70778529D01*
X160079099Y-70947429D01*
X159964963Y-71005854D01*
X159745096Y-70946815D01*
X159738548Y-70943856D01*
X159563312Y-70885063D01*
X159466550Y-70924789D01*
X159442323Y-70958503D01*
X159340183Y-71026978D01*
X159230492Y-70954424D01*
X159134694Y-70766648D01*
X159078042Y-70520175D01*
X159072312Y-70497578D01*
X159477136Y-70497578D01*
X159484866Y-70536770D01*
X159575422Y-70606956D01*
X159672467Y-70618734D01*
X159695933Y-70587192D01*
X159629520Y-70532815D01*
X159564536Y-70503495D01*
X159477136Y-70497578D01*
X159072312Y-70497578D01*
X159010521Y-70253890D01*
X158917185Y-70140689D01*
X159470155Y-70140689D01*
X159481778Y-70191023D01*
X159526600Y-70197134D01*
X159596290Y-70166155D01*
X159583044Y-70140689D01*
X159482565Y-70130556D01*
X159470155Y-70140689D01*
X158917185Y-70140689D01*
X158871345Y-70085093D01*
X158624961Y-69984921D01*
X158362433Y-69939242D01*
X158148046Y-69923719D01*
X158032288Y-69963887D01*
X158005626Y-70086994D01*
X158058530Y-70320290D01*
X158140843Y-70572691D01*
X158228028Y-70810999D01*
X158308186Y-70925602D01*
X158428554Y-70953203D01*
X158606510Y-70934497D01*
X158844346Y-70929916D01*
X158932991Y-70986239D01*
X158871725Y-71082940D01*
X158659825Y-71199494D01*
X158616433Y-71216869D01*
X158403179Y-71300199D01*
X158264858Y-71356281D01*
X158248140Y-71363698D01*
X158159188Y-71329422D01*
X158101634Y-71272779D01*
X158013650Y-71119517D01*
X157899198Y-70859929D01*
X157778490Y-70548465D01*
X157671739Y-70239576D01*
X157599157Y-69987712D01*
X157579267Y-69865592D01*
X157637553Y-69712899D01*
X157823779Y-69628596D01*
X158128598Y-69604467D01*
X158317378Y-69589406D01*
X158378130Y-69525162D01*
X158365799Y-69435134D01*
X158364447Y-69309818D01*
X158479197Y-69267643D01*
X158543058Y-69265800D01*
X158720927Y-69307789D01*
G37*
G36*
X196204800Y-69007421D02*
G01*
X196271763Y-69168774D01*
X196271933Y-69178476D01*
X196306898Y-69317493D01*
X196356600Y-69350467D01*
X196438806Y-69286038D01*
X196441267Y-69265800D01*
X196512179Y-69197010D01*
X196610600Y-69181134D01*
X196747871Y-69232245D01*
X196779933Y-69303926D01*
X196846073Y-69445418D01*
X196918820Y-69504444D01*
X197003754Y-69615459D01*
X196957635Y-69727062D01*
X196817270Y-69773800D01*
X196721746Y-69850132D01*
X196695267Y-70029170D01*
X196726464Y-70218531D01*
X196849941Y-70348876D01*
X196993178Y-70426604D01*
X197203367Y-70560231D01*
X197261126Y-70667334D01*
X197183319Y-70725017D01*
X196986812Y-70710382D01*
X196822267Y-70658648D01*
X196722873Y-70628882D01*
X196731761Y-70672669D01*
X196853818Y-70813911D01*
X196854066Y-70814184D01*
X197065041Y-70984374D01*
X197293798Y-71087400D01*
X197297595Y-71088256D01*
X197488376Y-71151282D01*
X197588292Y-71219647D01*
X197561163Y-71275882D01*
X197423320Y-71296564D01*
X197228996Y-71284434D01*
X197032426Y-71242231D01*
X196904605Y-71185113D01*
X196663018Y-71114330D01*
X196525933Y-71132400D01*
X196392055Y-71175741D01*
X196391475Y-71213697D01*
X196535527Y-71275412D01*
X196589433Y-71295704D01*
X196773440Y-71384514D01*
X196862945Y-71466419D01*
X196864600Y-71475416D01*
X196794686Y-71521958D01*
X196579970Y-71535779D01*
X196212989Y-71516874D01*
X195770507Y-71474500D01*
X195469882Y-71421513D01*
X195302985Y-71352403D01*
X195277159Y-71283390D01*
X195399744Y-71230693D01*
X195651044Y-71210559D01*
X195884406Y-71203893D01*
X195970608Y-71181656D01*
X195931710Y-71134553D01*
X195890933Y-71109488D01*
X195706449Y-71049612D01*
X195435650Y-71012011D01*
X195305719Y-71006230D01*
X195038788Y-70980754D01*
X194885545Y-70922756D01*
X194862192Y-70848945D01*
X194887696Y-70833793D01*
X196376578Y-70833793D01*
X196462014Y-70931537D01*
X196541297Y-70959134D01*
X196575426Y-70910758D01*
X196524235Y-70830087D01*
X196420705Y-70741331D01*
X196378390Y-70739788D01*
X196376578Y-70833793D01*
X194887696Y-70833793D01*
X194984931Y-70776025D01*
X195061746Y-70754655D01*
X195234749Y-70705134D01*
X195975600Y-70705134D01*
X195982313Y-70783152D01*
X196012936Y-70789800D01*
X196099154Y-70728340D01*
X196102600Y-70705134D01*
X196073713Y-70622668D01*
X196065263Y-70620467D01*
X195992977Y-70679796D01*
X195975600Y-70705134D01*
X195234749Y-70705134D01*
X195372838Y-70665607D01*
X195615640Y-70565787D01*
X195749743Y-70473252D01*
X195763933Y-70440862D01*
X195695207Y-70374814D01*
X195636933Y-70366467D01*
X195524685Y-70298694D01*
X195509933Y-70239467D01*
X195580743Y-70136086D01*
X195681500Y-70112467D01*
X195776391Y-70096197D01*
X195825061Y-70021374D01*
X195839167Y-69848982D01*
X195833038Y-69605328D01*
X195837507Y-69298452D01*
X195872927Y-69076546D01*
X195909781Y-69001419D01*
X196062056Y-68940840D01*
X196204800Y-69007421D01*
G37*
G36*
X190810143Y-99560419D02*
G01*
X191062309Y-99629090D01*
X191273553Y-99724790D01*
X191395807Y-99831899D01*
X191404459Y-99901091D01*
X191405981Y-100066077D01*
X191432574Y-100116365D01*
X191504098Y-100247428D01*
X191602900Y-100474346D01*
X191657204Y-100613634D01*
X191779300Y-100892347D01*
X191877361Y-101007201D01*
X191954866Y-100961420D01*
X191977108Y-100909967D01*
X192025182Y-100904714D01*
X192101174Y-101019059D01*
X192186749Y-101209706D01*
X192263572Y-101433358D01*
X192313307Y-101646720D01*
X192321761Y-101723809D01*
X192275952Y-101951399D01*
X192137186Y-102089097D01*
X191945814Y-102098606D01*
X191932035Y-102093691D01*
X191842413Y-101993322D01*
X191728650Y-101776092D01*
X191614362Y-101487595D01*
X191607113Y-101466383D01*
X191510155Y-101209054D01*
X191431014Y-101052737D01*
X191384339Y-101025171D01*
X191380322Y-101036909D01*
X191281702Y-101168564D01*
X191138438Y-101237834D01*
X190928003Y-101290650D01*
X191103076Y-101477006D01*
X191208864Y-101624571D01*
X191220369Y-101721096D01*
X191219457Y-101722054D01*
X191248550Y-101786462D01*
X191396073Y-101868862D01*
X191431121Y-101882792D01*
X191604446Y-101973413D01*
X191674411Y-102061566D01*
X191672906Y-102071820D01*
X191564231Y-102162194D01*
X191352754Y-102155984D01*
X191072710Y-102056077D01*
X190991494Y-102014347D01*
X190777421Y-101910711D01*
X190600906Y-101878374D01*
X190381240Y-101909678D01*
X190243409Y-101943357D01*
X189964518Y-102001411D01*
X189799337Y-101996582D01*
X189724182Y-101952245D01*
X189686940Y-101854595D01*
X189782876Y-101734367D01*
X189837267Y-101690445D01*
X189954320Y-101580394D01*
X189960670Y-101526660D01*
X189952158Y-101525683D01*
X189849575Y-101465294D01*
X190297692Y-101465294D01*
X190343653Y-101523800D01*
X190402976Y-101449925D01*
X190429800Y-101270603D01*
X190429933Y-101255689D01*
X190420127Y-101066260D01*
X190390111Y-101044033D01*
X190338986Y-101189281D01*
X190313231Y-101290967D01*
X190297692Y-101465294D01*
X189849575Y-101465294D01*
X189835090Y-101456767D01*
X189798092Y-101302612D01*
X189853503Y-101133174D01*
X189877558Y-101102722D01*
X189982496Y-100926253D01*
X190006600Y-100815976D01*
X190073805Y-100664441D01*
X190137730Y-100621499D01*
X190167469Y-100602658D01*
X190879775Y-100602658D01*
X190925456Y-100749006D01*
X190950050Y-100771080D01*
X191115382Y-100833259D01*
X191276021Y-100837670D01*
X191359783Y-100784121D01*
X191361267Y-100772167D01*
X191303227Y-100662693D01*
X191228380Y-100587582D01*
X191136122Y-100428329D01*
X191135787Y-100323215D01*
X191122570Y-100194002D01*
X191063734Y-100169134D01*
X190962430Y-100241158D01*
X190896605Y-100409520D01*
X190879775Y-100602658D01*
X190167469Y-100602658D01*
X190280047Y-100531334D01*
X190467447Y-100371364D01*
X190511635Y-100328406D01*
X190754410Y-100085631D01*
X190486468Y-100016201D01*
X190269491Y-99913460D01*
X190193614Y-99774959D01*
X190267041Y-99633894D01*
X190375331Y-99566651D01*
X190565127Y-99534399D01*
X190810143Y-99560419D01*
G37*
G36*
X195119376Y-99519418D02*
G01*
X195162681Y-99629842D01*
X195171267Y-99822646D01*
X195185669Y-100049038D01*
X195250348Y-100163555D01*
X195397509Y-100222689D01*
X195399642Y-100223226D01*
X195592688Y-100236416D01*
X195660698Y-100182506D01*
X195760757Y-100097960D01*
X195915359Y-100096902D01*
X196033383Y-100176470D01*
X196042033Y-100194482D01*
X196055195Y-100330476D01*
X196048694Y-100579722D01*
X196024889Y-100878016D01*
X195969622Y-101242304D01*
X195883958Y-101466244D01*
X195750249Y-101578342D01*
X195573433Y-101607170D01*
X195447556Y-101677390D01*
X195425267Y-101764678D01*
X195365818Y-101935783D01*
X195251141Y-102078470D01*
X195035524Y-102187701D01*
X194718069Y-102252712D01*
X194361289Y-102270058D01*
X194027697Y-102236294D01*
X193797562Y-102158577D01*
X193586290Y-102011541D01*
X193479423Y-101844170D01*
X193468743Y-101617206D01*
X193546031Y-101291388D01*
X193588310Y-101158899D01*
X193688287Y-100880402D01*
X193775744Y-100678626D01*
X193832644Y-100594881D01*
X193834738Y-100594510D01*
X193887477Y-100668013D01*
X193966518Y-100862257D01*
X194050587Y-101121634D01*
X194145235Y-101415118D01*
X194234260Y-101588616D01*
X194349890Y-101687189D01*
X194498116Y-101747366D01*
X194780759Y-101794217D01*
X194985921Y-101737113D01*
X195081015Y-101587478D01*
X195083907Y-101541988D01*
X195072017Y-101443890D01*
X195017296Y-101482720D01*
X194968740Y-101544967D01*
X194804726Y-101666362D01*
X194688519Y-101693134D01*
X194593277Y-101661757D01*
X194504421Y-101548600D01*
X194405541Y-101325125D01*
X194312482Y-101058134D01*
X195255933Y-101058134D01*
X195298267Y-101100467D01*
X195340600Y-101058134D01*
X195298267Y-101015800D01*
X195255933Y-101058134D01*
X194312482Y-101058134D01*
X194295686Y-101009944D01*
X194227925Y-100795565D01*
X194704609Y-100795565D01*
X194714955Y-100882649D01*
X194800880Y-100982478D01*
X194912940Y-101014092D01*
X194984103Y-100970604D01*
X194980806Y-100909967D01*
X194876199Y-100802748D01*
X194804714Y-100776816D01*
X194704609Y-100795565D01*
X194227925Y-100795565D01*
X194192311Y-100682891D01*
X194166376Y-100592467D01*
X195255933Y-100592467D01*
X195320362Y-100674673D01*
X195340600Y-100677134D01*
X195422806Y-100612704D01*
X195425267Y-100592467D01*
X195360837Y-100510260D01*
X195340600Y-100507800D01*
X195258393Y-100572229D01*
X195255933Y-100592467D01*
X194166376Y-100592467D01*
X194113962Y-100409720D01*
X194089531Y-100304973D01*
X194520382Y-100304973D01*
X194601124Y-100384808D01*
X194766181Y-100420486D01*
X194774097Y-100420441D01*
X194902809Y-100410543D01*
X194882404Y-100361779D01*
X194798960Y-100296153D01*
X194647275Y-100218740D01*
X194564746Y-100220029D01*
X194520382Y-100304973D01*
X194089531Y-100304973D01*
X194073469Y-100236106D01*
X194070600Y-100208589D01*
X194144535Y-100072789D01*
X194324418Y-99962228D01*
X194547364Y-99915166D01*
X194552957Y-99915134D01*
X194703503Y-99845180D01*
X194791356Y-99725128D01*
X194912693Y-99566082D01*
X195023100Y-99507253D01*
X195119376Y-99519418D01*
G37*
G36*
X148287962Y-69051041D02*
G01*
X148334576Y-69198043D01*
X148385685Y-69363449D01*
X148523338Y-69436029D01*
X148630910Y-69451319D01*
X148839651Y-69513578D01*
X148898920Y-69618866D01*
X148806789Y-69727116D01*
X148646933Y-69784118D01*
X148504048Y-69822887D01*
X148525840Y-69844380D01*
X148573066Y-69848450D01*
X148761083Y-69909007D01*
X148890005Y-70034467D01*
X148912122Y-70174155D01*
X148901097Y-70196869D01*
X148784272Y-70251518D01*
X148660975Y-70242465D01*
X148537034Y-70214119D01*
X148560771Y-70237972D01*
X148668100Y-70294292D01*
X148831651Y-70413215D01*
X148829219Y-70522657D01*
X148728518Y-70600183D01*
X148652061Y-70669826D01*
X148646376Y-70788501D01*
X148707490Y-71006557D01*
X148806604Y-71235470D01*
X148948037Y-71357289D01*
X149133905Y-71418566D01*
X149336518Y-71484805D01*
X149445343Y-71551864D01*
X149451267Y-71566732D01*
X149377677Y-71606945D01*
X149198985Y-71626651D01*
X148978304Y-71624755D01*
X148778749Y-71600161D01*
X148708169Y-71579639D01*
X148605337Y-71482010D01*
X148476716Y-71289130D01*
X148431685Y-71206113D01*
X148293198Y-70984255D01*
X148130671Y-70871454D01*
X147923013Y-70821633D01*
X147624089Y-70735599D01*
X147383858Y-70597733D01*
X147281056Y-70493467D01*
X148181267Y-70493467D01*
X148223600Y-70535800D01*
X148265933Y-70493467D01*
X148223600Y-70451134D01*
X148181267Y-70493467D01*
X147281056Y-70493467D01*
X147222575Y-70434153D01*
X147171721Y-70300481D01*
X147625349Y-70300481D01*
X147649921Y-70379537D01*
X147672493Y-70407868D01*
X147802688Y-70488283D01*
X147905729Y-70443632D01*
X147927267Y-70361470D01*
X147855882Y-70298007D01*
X147747566Y-70281800D01*
X147625349Y-70300481D01*
X147171721Y-70300481D01*
X147160497Y-70270977D01*
X147209282Y-70154800D01*
X148350600Y-70154800D01*
X148392933Y-70197134D01*
X148435267Y-70154800D01*
X148392933Y-70112467D01*
X148350600Y-70154800D01*
X147209282Y-70154800D01*
X147217881Y-70134321D01*
X147336443Y-70070134D01*
X148096600Y-70070134D01*
X148138933Y-70112467D01*
X148181267Y-70070134D01*
X148138933Y-70027800D01*
X148096600Y-70070134D01*
X147336443Y-70070134D01*
X147339057Y-70068719D01*
X147456871Y-70005777D01*
X147445714Y-69971356D01*
X147786155Y-69971356D01*
X147797778Y-70021690D01*
X147842600Y-70027800D01*
X147912290Y-69996822D01*
X147899044Y-69971356D01*
X147798565Y-69961223D01*
X147786155Y-69971356D01*
X147445714Y-69971356D01*
X147425573Y-69909219D01*
X147408002Y-69887227D01*
X147365227Y-69753430D01*
X147457420Y-69660181D01*
X147651096Y-69630781D01*
X147757933Y-69643707D01*
X147892048Y-69665179D01*
X147870011Y-69641572D01*
X147800267Y-69609288D01*
X147588028Y-69523806D01*
X147482767Y-69487196D01*
X147347257Y-69408603D01*
X147360500Y-69328023D01*
X147504684Y-69273969D01*
X147621058Y-69265800D01*
X147836151Y-69237544D01*
X147938404Y-69135201D01*
X147953724Y-69089103D01*
X148043939Y-68953147D01*
X148172685Y-68945418D01*
X148287962Y-69051041D01*
G37*
G36*
X145342346Y-69042695D02*
G01*
X145453252Y-69137586D01*
X145472726Y-69161087D01*
X145564363Y-69336474D01*
X145588222Y-69583193D01*
X145576382Y-69767041D01*
X145562421Y-70035187D01*
X145592407Y-70181030D01*
X145672965Y-70247101D01*
X145789119Y-70366235D01*
X145810600Y-70460192D01*
X145798403Y-70579863D01*
X145735995Y-70608917D01*
X145584652Y-70550339D01*
X145459861Y-70487224D01*
X145251892Y-70394861D01*
X145178606Y-70400892D01*
X145239017Y-70502382D01*
X145432140Y-70696395D01*
X145572288Y-70822047D01*
X145777919Y-71012400D01*
X145905408Y-71151538D01*
X145930306Y-71212380D01*
X145925319Y-71213134D01*
X145764620Y-71177499D01*
X145542375Y-71091368D01*
X145327749Y-70985898D01*
X145189905Y-70892246D01*
X145176393Y-70875750D01*
X145072735Y-70790063D01*
X144990759Y-70852330D01*
X144963933Y-71004195D01*
X145029838Y-71208068D01*
X145151296Y-71287900D01*
X145338660Y-71357210D01*
X145156862Y-71454505D01*
X144937615Y-71533164D01*
X144800166Y-71551800D01*
X144702658Y-71534664D01*
X144649975Y-71457267D01*
X144628697Y-71280631D01*
X144625267Y-71043800D01*
X144618681Y-70775835D01*
X144601564Y-70591757D01*
X144581784Y-70535800D01*
X144483389Y-70575467D01*
X144381333Y-70633829D01*
X144208223Y-70687336D01*
X144048871Y-70660602D01*
X143964947Y-70571441D01*
X143968579Y-70514589D01*
X144068703Y-70434074D01*
X144264005Y-70383287D01*
X144277055Y-70381889D01*
X144477040Y-70320628D01*
X144534223Y-70219487D01*
X144453200Y-70121939D01*
X144244267Y-70071730D01*
X144054715Y-70081975D01*
X143940673Y-70158006D01*
X143883680Y-70331645D01*
X143865278Y-70634713D01*
X143864563Y-70726300D01*
X143868753Y-71000472D01*
X143894887Y-71145947D01*
X143960501Y-71203304D01*
X144074933Y-71213134D01*
X144247949Y-71241932D01*
X144269316Y-71313997D01*
X144143843Y-71407827D01*
X144019966Y-71458851D01*
X143819880Y-71527082D01*
X143722861Y-71541535D01*
X143670770Y-71500260D01*
X143635627Y-71445967D01*
X143606368Y-71316432D01*
X143588705Y-71065161D01*
X143585432Y-70739524D01*
X143587698Y-70633551D01*
X143594171Y-70285339D01*
X143584283Y-70070561D01*
X143550989Y-69953574D01*
X143487246Y-69898734D01*
X143439335Y-69882842D01*
X143292652Y-69795477D01*
X143286149Y-69686251D01*
X143409986Y-69611833D01*
X143487683Y-69604467D01*
X143635007Y-69584670D01*
X143684744Y-69491103D01*
X143678183Y-69329300D01*
X143682989Y-69127655D01*
X143757806Y-69055585D01*
X143778600Y-69054134D01*
X143879955Y-69131024D01*
X143931336Y-69365167D01*
X143931862Y-69371382D01*
X144003048Y-69650469D01*
X144120457Y-69775508D01*
X144236345Y-69820956D01*
X144236778Y-69816134D01*
X144879267Y-69816134D01*
X144921600Y-69858467D01*
X144963933Y-69816134D01*
X144921600Y-69773800D01*
X144879267Y-69816134D01*
X144236778Y-69816134D01*
X144242031Y-69757621D01*
X144233303Y-69733426D01*
X144244596Y-69628694D01*
X144356584Y-69604467D01*
X144496855Y-69550651D01*
X144556143Y-69371634D01*
X144597244Y-69219473D01*
X144707570Y-69129721D01*
X144935258Y-69064879D01*
X144955475Y-69060590D01*
X145197871Y-69021197D01*
X145342346Y-69042695D01*
G37*
G36*
X204876200Y-80394520D02*
G01*
X205007957Y-80674021D01*
X205060233Y-80797249D01*
X205260649Y-81310255D01*
X205407826Y-81771254D01*
X205511356Y-82228451D01*
X205580828Y-82730052D01*
X205625833Y-83324264D01*
X205644687Y-83735047D01*
X205695080Y-85038626D01*
X205848291Y-84751047D01*
X205946550Y-84583084D01*
X205993235Y-84558251D01*
X206005051Y-84642549D01*
X205956656Y-84830565D01*
X205834437Y-85042801D01*
X205824987Y-85055056D01*
X205644779Y-85408977D01*
X205560781Y-85871176D01*
X205577116Y-86407829D01*
X205624855Y-86696655D01*
X205685412Y-87073426D01*
X205730809Y-87533152D01*
X205761291Y-88047298D01*
X205777100Y-88587330D01*
X205778479Y-89124713D01*
X205765671Y-89630915D01*
X205738918Y-90077399D01*
X205698465Y-90435634D01*
X205644554Y-90677083D01*
X205590186Y-90768093D01*
X205547683Y-90887703D01*
X205558971Y-91146871D01*
X205575347Y-91264097D01*
X205601249Y-91538870D01*
X205584217Y-91712536D01*
X205533254Y-91765048D01*
X205457366Y-91676359D01*
X205423843Y-91601408D01*
X205375909Y-91440604D01*
X205306226Y-91156723D01*
X205224965Y-90792989D01*
X205158708Y-90474800D01*
X205068095Y-90040759D01*
X204973881Y-89615403D01*
X204889396Y-89257757D01*
X204844869Y-89085385D01*
X204718687Y-88627303D01*
X204345007Y-89297051D01*
X203971327Y-89966800D01*
X203995130Y-90834729D01*
X203999758Y-91194813D01*
X203993461Y-91481934D01*
X203977628Y-91660738D01*
X203961056Y-91702562D01*
X203934686Y-91624211D01*
X203910580Y-91414685D01*
X203890183Y-91112138D01*
X203874940Y-90754727D01*
X203866296Y-90380608D01*
X203865696Y-90027936D01*
X203874585Y-89734866D01*
X203882493Y-89628134D01*
X203909431Y-89430827D01*
X203941701Y-89387711D01*
X203978923Y-89458800D01*
X204021682Y-89516242D01*
X204084659Y-89476545D01*
X204182260Y-89321129D01*
X204328894Y-89031416D01*
X204359388Y-88968194D01*
X204671858Y-88317540D01*
X204894156Y-88317540D01*
X205155045Y-89359830D01*
X205254917Y-89770510D01*
X205337557Y-90132524D01*
X205394763Y-90408330D01*
X205418329Y-90560389D01*
X205418508Y-90565460D01*
X205432705Y-90671073D01*
X205483115Y-90618202D01*
X205492514Y-90601800D01*
X205527173Y-90467663D01*
X205564111Y-90206256D01*
X205598167Y-89859480D01*
X205617683Y-89585800D01*
X205631689Y-89175844D01*
X205630106Y-88713093D01*
X205615096Y-88230588D01*
X205588816Y-87761370D01*
X205553426Y-87338480D01*
X205511086Y-86994959D01*
X205463955Y-86763848D01*
X205428131Y-86685464D01*
X205365317Y-86704886D01*
X205307129Y-86875785D01*
X205288441Y-86974181D01*
X205224951Y-87267720D01*
X205127805Y-87620935D01*
X205061072Y-87829837D01*
X204894156Y-88317540D01*
X204671858Y-88317540D01*
X204676317Y-88308255D01*
X204368792Y-87348919D01*
X204212877Y-86845099D01*
X204117433Y-86499285D01*
X204080600Y-86312037D01*
X204100521Y-86283916D01*
X204175334Y-86415484D01*
X204303182Y-86707301D01*
X204482205Y-87159927D01*
X204534934Y-87298792D01*
X204805884Y-88017450D01*
X204894115Y-87679792D01*
X205099522Y-86848019D01*
X205247779Y-86126983D01*
X205344542Y-85470166D01*
X205395465Y-84831049D01*
X205406206Y-84163115D01*
X205390516Y-83596688D01*
X205342703Y-82867346D01*
X205257643Y-82222569D01*
X205122176Y-81590545D01*
X204923142Y-80899466D01*
X204860564Y-80704940D01*
X204773303Y-80406386D01*
X204751643Y-80257359D01*
X204788352Y-80254518D01*
X204876200Y-80394520D01*
G37*
G36*
X141639915Y-69212480D02*
G01*
X141661933Y-69350467D01*
X141688544Y-69536387D01*
X141787555Y-69601846D01*
X141831267Y-69604467D01*
X141966094Y-69656501D01*
X142000600Y-69807075D01*
X142047890Y-69982660D01*
X142127600Y-70058418D01*
X142239607Y-70174993D01*
X142254600Y-70245988D01*
X142203229Y-70334587D01*
X142039284Y-70334186D01*
X141748014Y-70244372D01*
X141712132Y-70230770D01*
X141598670Y-70230447D01*
X141577267Y-70272742D01*
X141645338Y-70356710D01*
X141699466Y-70366467D01*
X141828290Y-70431163D01*
X141971985Y-70579785D01*
X142071045Y-70744134D01*
X142085267Y-70808639D01*
X142019616Y-70866357D01*
X141874032Y-70865684D01*
X141725564Y-70811708D01*
X141688423Y-70782423D01*
X141582461Y-70738729D01*
X141542299Y-70777882D01*
X141574441Y-70867539D01*
X141707642Y-71000727D01*
X141893664Y-71141079D01*
X142084267Y-71252225D01*
X142231213Y-71297798D01*
X142231921Y-71297800D01*
X142331350Y-71350640D01*
X142339267Y-71382467D01*
X142274874Y-71461662D01*
X142103579Y-71457310D01*
X141858201Y-71381526D01*
X141571560Y-71246421D01*
X141276479Y-71064111D01*
X141090279Y-70921489D01*
X140924767Y-70789099D01*
X140843373Y-70761388D01*
X140802486Y-70831861D01*
X140790123Y-70876804D01*
X140802261Y-71023184D01*
X140944663Y-71153585D01*
X141013250Y-71193453D01*
X141280933Y-71339714D01*
X140999774Y-71366902D01*
X140741022Y-71348148D01*
X140525081Y-71267281D01*
X140366161Y-71187311D01*
X140255364Y-71218862D01*
X140213573Y-71255898D01*
X140043037Y-71365692D01*
X139836503Y-71430585D01*
X139661851Y-71435161D01*
X139596058Y-71396153D01*
X139605773Y-71276504D01*
X139671488Y-71183674D01*
X139746551Y-71041254D01*
X139787640Y-70783199D01*
X139799012Y-70422911D01*
X140137933Y-70422911D01*
X140145239Y-70679392D01*
X140165740Y-70767932D01*
X140197315Y-70689230D01*
X140237838Y-70443983D01*
X140245228Y-70387634D01*
X140257268Y-70169117D01*
X140233649Y-70041422D01*
X140214543Y-70027800D01*
X140169543Y-70103655D01*
X140141992Y-70296287D01*
X140137933Y-70422911D01*
X139799012Y-70422911D01*
X139799267Y-70414848D01*
X139799267Y-69773800D01*
X140053267Y-69773800D01*
X140251507Y-69744978D01*
X140295509Y-69675395D01*
X140293913Y-69674145D01*
X140652952Y-69674145D01*
X140687820Y-69801627D01*
X140714886Y-69841361D01*
X140828845Y-70035930D01*
X140869933Y-70133634D01*
X140985911Y-70258583D01*
X141079141Y-70281800D01*
X141215437Y-70348691D01*
X141248617Y-70472300D01*
X141262107Y-70570705D01*
X141289646Y-70513898D01*
X141314758Y-70408800D01*
X141334111Y-70221477D01*
X141254857Y-70121040D01*
X141136677Y-70070134D01*
X140963713Y-69972175D01*
X140935815Y-69878487D01*
X141053516Y-69823301D01*
X141132767Y-69819471D01*
X141294485Y-69801760D01*
X141307354Y-69752857D01*
X141184254Y-69691743D01*
X141018282Y-69650763D01*
X140761460Y-69624891D01*
X140652952Y-69674145D01*
X140293913Y-69674145D01*
X140186938Y-69590383D01*
X140037859Y-69539498D01*
X139842431Y-69462950D01*
X139736390Y-69372673D01*
X139734470Y-69367744D01*
X139780106Y-69299735D01*
X139946558Y-69271073D01*
X140190159Y-69280864D01*
X140467243Y-69328214D01*
X140668064Y-69386871D01*
X140901726Y-69446689D01*
X141029457Y-69428236D01*
X141036462Y-69419716D01*
X141147114Y-69371001D01*
X141196488Y-69381169D01*
X141303076Y-69348073D01*
X141349331Y-69259942D01*
X141436798Y-69111868D01*
X141550241Y-69100850D01*
X141639915Y-69212480D01*
G37*
G36*
X151414072Y-69061300D02*
G01*
X151461056Y-69071835D01*
X151663226Y-69131922D01*
X151750149Y-69218871D01*
X151763549Y-69392095D01*
X151757937Y-69494577D01*
X151781683Y-69763035D01*
X151882087Y-69901877D01*
X152041083Y-69896995D01*
X152164846Y-69812290D01*
X152275217Y-69734539D01*
X152401495Y-69723397D01*
X152605751Y-69777794D01*
X152681769Y-69803389D01*
X152907803Y-69892762D01*
X153009738Y-69982913D01*
X153027505Y-70116677D01*
X153022686Y-70169107D01*
X152980951Y-70377738D01*
X152887283Y-70474107D01*
X152696538Y-70487260D01*
X152552092Y-70471891D01*
X152301259Y-70406921D01*
X152186932Y-70285376D01*
X152181185Y-70266706D01*
X152142973Y-70161396D01*
X152094316Y-70196410D01*
X152039729Y-70298382D01*
X151985547Y-70447479D01*
X152046585Y-70517998D01*
X152114303Y-70539617D01*
X152273542Y-70622788D01*
X152289059Y-70720829D01*
X152177994Y-70795727D01*
X151991267Y-70812452D01*
X151694933Y-70792770D01*
X151970100Y-71030285D01*
X152168970Y-71216910D01*
X152231557Y-71325711D01*
X152161323Y-71374493D01*
X152038597Y-71382467D01*
X151859324Y-71413685D01*
X151779600Y-71467134D01*
X151663225Y-71527395D01*
X151467621Y-71550705D01*
X151279704Y-71532822D01*
X151201044Y-71495356D01*
X151156495Y-71374206D01*
X151144600Y-71241356D01*
X151111529Y-71084370D01*
X151000683Y-71057733D01*
X150794610Y-71158656D01*
X150761275Y-71180109D01*
X150558090Y-71262826D01*
X150386384Y-71251801D01*
X150300196Y-71153202D01*
X150297933Y-71127229D01*
X150368696Y-71045056D01*
X150547736Y-70929313D01*
X151412059Y-70929313D01*
X151423706Y-71069916D01*
X151438908Y-71122086D01*
X151533156Y-71262749D01*
X151617924Y-71297800D01*
X151689925Y-71275412D01*
X151661714Y-71181932D01*
X151600750Y-71083491D01*
X151476667Y-70932504D01*
X151412059Y-70929313D01*
X150547736Y-70929313D01*
X150551786Y-70926695D01*
X150742433Y-70829066D01*
X150975231Y-70709340D01*
X151053768Y-70639490D01*
X151001945Y-70621294D01*
X150783997Y-70590141D01*
X150578612Y-70529475D01*
X150421137Y-70459403D01*
X150408946Y-70408800D01*
X151567933Y-70408800D01*
X151610267Y-70451134D01*
X151652600Y-70408800D01*
X151610267Y-70366467D01*
X151567933Y-70408800D01*
X150408946Y-70408800D01*
X150406800Y-70399890D01*
X150495126Y-70324748D01*
X150599674Y-70206302D01*
X150567820Y-70058330D01*
X150554710Y-70032989D01*
X150537628Y-69971356D01*
X150918822Y-69971356D01*
X150930444Y-70021690D01*
X150975267Y-70027800D01*
X151044957Y-69996822D01*
X151031711Y-69971356D01*
X150931231Y-69961223D01*
X150918822Y-69971356D01*
X150537628Y-69971356D01*
X150499331Y-69833183D01*
X150523582Y-69802022D01*
X151172822Y-69802022D01*
X151184444Y-69852357D01*
X151229267Y-69858467D01*
X151298957Y-69827489D01*
X151285711Y-69802022D01*
X151185231Y-69791889D01*
X151172822Y-69802022D01*
X150523582Y-69802022D01*
X150586105Y-69721685D01*
X150807549Y-69707544D01*
X150822241Y-69709587D01*
X150994715Y-69717961D01*
X151039927Y-69659615D01*
X151029416Y-69611892D01*
X150957812Y-69378689D01*
X151342155Y-69378689D01*
X151353778Y-69429023D01*
X151398600Y-69435134D01*
X151468290Y-69404155D01*
X151455044Y-69378689D01*
X151354565Y-69368556D01*
X151342155Y-69378689D01*
X150957812Y-69378689D01*
X150943651Y-69332570D01*
X150911288Y-69172754D01*
X150930713Y-69091806D01*
X151000311Y-69049087D01*
X151006950Y-69046505D01*
X151174767Y-69031480D01*
X151414072Y-69061300D01*
G37*
G36*
X192361281Y-73198453D02*
G01*
X192244385Y-73291746D01*
X192025984Y-73422981D01*
X191996267Y-73439209D01*
X191340757Y-73836750D01*
X190729894Y-74303660D01*
X190116814Y-74877126D01*
X189899887Y-75102610D01*
X189261159Y-75904358D01*
X188735675Y-76830235D01*
X188324602Y-77877433D01*
X188029107Y-79043149D01*
X187890985Y-79933800D01*
X187844931Y-80307480D01*
X187799315Y-80653483D01*
X187762485Y-80909030D01*
X187755902Y-80949800D01*
X187706197Y-81246134D01*
X187936690Y-80907744D01*
X188126269Y-80636444D01*
X188317966Y-80372541D01*
X188367224Y-80307085D01*
X188520493Y-80013785D01*
X188568379Y-79756475D01*
X188598487Y-79401168D01*
X188677598Y-78944487D01*
X188792200Y-78442428D01*
X188928781Y-77950987D01*
X189073830Y-77526162D01*
X189149946Y-77346250D01*
X189321972Y-77019628D01*
X189453476Y-76845027D01*
X189533657Y-76820691D01*
X189551716Y-76944866D01*
X189496854Y-77215798D01*
X189442653Y-77393800D01*
X189402694Y-77561428D01*
X189349118Y-77845069D01*
X189290201Y-78192827D01*
X189234224Y-78552804D01*
X189189467Y-78873104D01*
X189164207Y-79101827D01*
X189161411Y-79156726D01*
X189176524Y-79224762D01*
X189235679Y-79226061D01*
X189357411Y-79148298D01*
X189560252Y-78979151D01*
X189862736Y-78706296D01*
X189925383Y-78648726D01*
X190386108Y-78242315D01*
X190775893Y-77934572D01*
X191085305Y-77731179D01*
X191304910Y-77637823D01*
X191425274Y-77660188D01*
X191445933Y-77732467D01*
X191393534Y-77814785D01*
X191377561Y-77817134D01*
X191287020Y-77876016D01*
X191107874Y-78035984D01*
X190864532Y-78272022D01*
X190581401Y-78559114D01*
X190282889Y-78872242D01*
X189993405Y-79186390D01*
X189737356Y-79476542D01*
X189609291Y-79629492D01*
X189202267Y-80129517D01*
X189202267Y-81767346D01*
X189199532Y-82273047D01*
X189191913Y-82715346D01*
X189180286Y-83068474D01*
X189165529Y-83306658D01*
X189148517Y-83404129D01*
X189146539Y-83405154D01*
X189071397Y-83327178D01*
X188983362Y-83117271D01*
X188891605Y-82811392D01*
X188805298Y-82445499D01*
X188733613Y-82055549D01*
X188685720Y-81677503D01*
X188676836Y-81563634D01*
X188651021Y-81223187D01*
X188622931Y-80957516D01*
X188596911Y-80803815D01*
X188585327Y-80780467D01*
X188488805Y-80854785D01*
X188312640Y-81077890D01*
X188056656Y-81450010D01*
X188054536Y-81453210D01*
X187805267Y-81829619D01*
X187805267Y-83160166D01*
X187809541Y-83721686D01*
X187824485Y-84150451D01*
X187853277Y-84482872D01*
X187899099Y-84755364D01*
X187965129Y-85004338D01*
X187966785Y-85009674D01*
X188128304Y-85528635D01*
X187789879Y-86308384D01*
X187611115Y-86750255D01*
X187433195Y-87239956D01*
X187287238Y-87690484D01*
X187253565Y-87807800D01*
X187155857Y-88141096D01*
X187090425Y-88311595D01*
X187055853Y-88322450D01*
X187049470Y-88261219D01*
X187082725Y-87961266D01*
X187185938Y-87547789D01*
X187348099Y-87055984D01*
X187558201Y-86521047D01*
X187681731Y-86239744D01*
X187980678Y-85583749D01*
X187843949Y-85150608D01*
X187787993Y-84881965D01*
X187740095Y-84475136D01*
X187701025Y-83961109D01*
X187671552Y-83370874D01*
X187652445Y-82735421D01*
X187644473Y-82085737D01*
X187648404Y-81452814D01*
X187665008Y-80867641D01*
X187695054Y-80361206D01*
X187719010Y-80115184D01*
X187899920Y-78984655D01*
X188165576Y-77929164D01*
X188508246Y-76970989D01*
X188920198Y-76132408D01*
X189302761Y-75551633D01*
X189601552Y-75197478D01*
X189971314Y-74820048D01*
X190386851Y-74439086D01*
X190822968Y-74074334D01*
X191254468Y-73745536D01*
X191656157Y-73472435D01*
X192002838Y-73274772D01*
X192269316Y-73172292D01*
X192351895Y-73162390D01*
X192361281Y-73198453D01*
G37*
G36*
X194414837Y-76535409D02*
G01*
X194367934Y-76730587D01*
X194278086Y-77012531D01*
X194225142Y-77160967D01*
X193927672Y-78159004D01*
X193768880Y-79178506D01*
X193734887Y-79944384D01*
X193739265Y-80456864D01*
X193760134Y-80824211D01*
X193802649Y-81070242D01*
X193871964Y-81218779D01*
X193973234Y-81293639D01*
X194030327Y-81309583D01*
X194128105Y-81317797D01*
X194193172Y-81275758D01*
X194239545Y-81151580D01*
X194241519Y-81140300D01*
X194415217Y-81140300D01*
X194431313Y-81344311D01*
X194478685Y-81452537D01*
X194493933Y-81457800D01*
X194562808Y-81388281D01*
X194572649Y-81309634D01*
X194534262Y-81107494D01*
X194493933Y-80992134D01*
X194446647Y-80912645D01*
X194422986Y-80973078D01*
X194415217Y-81140300D01*
X194241519Y-81140300D01*
X194281240Y-80913373D01*
X194315167Y-80661575D01*
X194366605Y-80242510D01*
X194416248Y-79799982D01*
X194453433Y-79429073D01*
X194453728Y-79425800D01*
X194494133Y-79055432D01*
X194545550Y-78694394D01*
X194601403Y-78377877D01*
X194655115Y-78141069D01*
X194700109Y-78019159D01*
X194717803Y-78012781D01*
X194725150Y-78108069D01*
X194714119Y-78334982D01*
X194687095Y-78657089D01*
X194656292Y-78952356D01*
X194609504Y-80012918D01*
X194708107Y-81097219D01*
X194954646Y-82222096D01*
X195314960Y-83309003D01*
X195404085Y-83526733D01*
X195466809Y-83607662D01*
X195531909Y-83575078D01*
X195576512Y-83520669D01*
X195662315Y-83392338D01*
X195759181Y-83210123D01*
X195878899Y-82948146D01*
X196033258Y-82580531D01*
X196234049Y-82081401D01*
X196246337Y-82050467D01*
X196378378Y-81731104D01*
X196458905Y-81568995D01*
X196489929Y-81560739D01*
X196482190Y-81651734D01*
X196415967Y-81932026D01*
X196309157Y-82253298D01*
X196265325Y-82362217D01*
X196158872Y-82633300D01*
X196131540Y-82760207D01*
X196178769Y-82745974D01*
X196295997Y-82593637D01*
X196478665Y-82306229D01*
X196563312Y-82163896D01*
X196848502Y-81633669D01*
X196905638Y-81509349D01*
X197125734Y-81509349D01*
X197157147Y-81540480D01*
X197194208Y-81542467D01*
X197285814Y-81474801D01*
X197321208Y-81408542D01*
X197362806Y-81212215D01*
X197369286Y-81091042D01*
X197354695Y-81000929D01*
X197307781Y-81052177D01*
X197242286Y-81192354D01*
X197152203Y-81407221D01*
X197125734Y-81509349D01*
X196905638Y-81509349D01*
X197106286Y-81072768D01*
X197316708Y-80530169D01*
X197459816Y-80054849D01*
X197497931Y-79869940D01*
X197552071Y-79633030D01*
X197602414Y-79550004D01*
X197637594Y-79605582D01*
X197646249Y-79784486D01*
X197622159Y-80036967D01*
X197578242Y-80384016D01*
X197535763Y-80786116D01*
X197515587Y-81013300D01*
X197496208Y-81301532D01*
X197504125Y-81459940D01*
X197550715Y-81527284D01*
X197647351Y-81542323D01*
X197670879Y-81542467D01*
X197750340Y-81527217D01*
X198049933Y-81527217D01*
X198126206Y-81542410D01*
X198323301Y-81543006D01*
X198593630Y-81532080D01*
X198889606Y-81512706D01*
X199163641Y-81487958D01*
X199368149Y-81460911D01*
X199454117Y-81436505D01*
X199455258Y-81337872D01*
X199414845Y-81119071D01*
X199341088Y-80821792D01*
X199313821Y-80724010D01*
X199199114Y-80317623D01*
X199080171Y-79888135D01*
X198982625Y-79528109D01*
X198982121Y-79526211D01*
X198840001Y-78991622D01*
X198687006Y-79568545D01*
X198578827Y-79944514D01*
X198439481Y-80385986D01*
X198298269Y-80800295D01*
X198291972Y-80817839D01*
X198181697Y-81128268D01*
X198097739Y-81372400D01*
X198053531Y-81510867D01*
X198049933Y-81527217D01*
X197750340Y-81527217D01*
X197762413Y-81524900D01*
X197847208Y-81458684D01*
X197934791Y-81323547D01*
X198034688Y-81099216D01*
X198156428Y-80765418D01*
X198309536Y-80301881D01*
X198425746Y-79936150D01*
X198543907Y-79495827D01*
X198658142Y-78955683D01*
X198759367Y-78371881D01*
X198838495Y-77800589D01*
X198886442Y-77297971D01*
X198896600Y-77025239D01*
X198908142Y-76828240D01*
X198937068Y-76738844D01*
X198950062Y-76741707D01*
X198978848Y-76850505D01*
X198993694Y-77069853D01*
X198993760Y-77228561D01*
X199010173Y-77827312D01*
X199078880Y-78536504D01*
X199193434Y-79307756D01*
X199347392Y-80092688D01*
X199413392Y-80378300D01*
X199520776Y-80817126D01*
X199601257Y-81117334D01*
X199666649Y-81305150D01*
X199728769Y-81406804D01*
X199799433Y-81448522D01*
X199890455Y-81456534D01*
X199899125Y-81456504D01*
X200112396Y-81429840D01*
X200236520Y-81384039D01*
X200299397Y-81288467D01*
X200505267Y-81288467D01*
X200536245Y-81358157D01*
X200561711Y-81344911D01*
X200571844Y-81244432D01*
X200561711Y-81232022D01*
X200511377Y-81243645D01*
X200505267Y-81288467D01*
X200299397Y-81288467D01*
X200338905Y-81228415D01*
X200388254Y-80949674D01*
X200382407Y-80586206D01*
X200319207Y-80176403D01*
X200307352Y-80124611D01*
X200251396Y-79847401D01*
X200228562Y-79642649D01*
X200241875Y-79558604D01*
X200289622Y-79618379D01*
X200366675Y-79820740D01*
X200466860Y-80142699D01*
X200584003Y-80561267D01*
X200711929Y-81053455D01*
X200844464Y-81596275D01*
X200975433Y-82166740D01*
X201098661Y-82741860D01*
X201104469Y-82770134D01*
X201204756Y-83238114D01*
X201305172Y-83669468D01*
X201396325Y-84026330D01*
X201468826Y-84270833D01*
X201491642Y-84331342D01*
X201618493Y-84622550D01*
X201914277Y-83950342D01*
X202103671Y-83523115D01*
X202317920Y-83044595D01*
X202511203Y-82617111D01*
X202514263Y-82610393D01*
X202818465Y-81942653D01*
X202664979Y-81491104D01*
X202571391Y-81251506D01*
X202419253Y-80902075D01*
X202227093Y-80483751D01*
X202013437Y-80037474D01*
X201935661Y-79879537D01*
X201683080Y-79356278D01*
X201515347Y-78973812D01*
X201430987Y-78727257D01*
X201428526Y-78611729D01*
X201506488Y-78622344D01*
X201569961Y-78669079D01*
X201649579Y-78772995D01*
X201792083Y-78994014D01*
X201979053Y-79300701D01*
X202192071Y-79661621D01*
X202412716Y-80045341D01*
X202622571Y-80420425D01*
X202803215Y-80755440D01*
X202881553Y-80907467D01*
X202987378Y-81079903D01*
X203074378Y-81160640D01*
X203080537Y-81161467D01*
X203137176Y-81087504D01*
X203241292Y-80885290D01*
X203378841Y-80584331D01*
X203535776Y-80214136D01*
X203561460Y-80151154D01*
X203786907Y-79618024D01*
X203968775Y-79239899D01*
X204111429Y-79009379D01*
X204219232Y-78919064D01*
X204277716Y-78936694D01*
X204279501Y-79038361D01*
X204237320Y-79267883D01*
X204160065Y-79592247D01*
X204056628Y-79978436D01*
X203935905Y-80393435D01*
X203806787Y-80804229D01*
X203678168Y-81177802D01*
X203662700Y-81219883D01*
X203443520Y-81811200D01*
X203677372Y-82997363D01*
X203820388Y-83818087D01*
X203902178Y-84514565D01*
X203922011Y-85076625D01*
X203879158Y-85494100D01*
X203861646Y-85564134D01*
X203808084Y-85729912D01*
X203768730Y-85745573D01*
X203718285Y-85633248D01*
X203674220Y-85464629D01*
X203620221Y-85181599D01*
X203566260Y-84837904D01*
X203553335Y-84744248D01*
X203485677Y-84308077D01*
X203394138Y-83807354D01*
X203297055Y-83341513D01*
X203284651Y-83287269D01*
X203110176Y-82534404D01*
X202801253Y-83117936D01*
X202578684Y-83519316D01*
X202332845Y-83931677D01*
X202085456Y-84321637D01*
X201858240Y-84655815D01*
X201672914Y-84900831D01*
X201570599Y-85009247D01*
X201461350Y-85085373D01*
X201440821Y-85035903D01*
X201450240Y-84975697D01*
X201426405Y-84828709D01*
X201373100Y-84782695D01*
X201290225Y-84822102D01*
X201267267Y-84963858D01*
X201246786Y-85198205D01*
X201190725Y-85558280D01*
X201107150Y-86006202D01*
X201004131Y-86504089D01*
X200889735Y-87014059D01*
X200772031Y-87498229D01*
X200659088Y-87918718D01*
X200588446Y-88151018D01*
X200261145Y-89015539D01*
X199859203Y-89855305D01*
X199411724Y-90612688D01*
X199175954Y-90947866D01*
X198973360Y-91233402D01*
X198886586Y-91396069D01*
X198914437Y-91435397D01*
X199055717Y-91350914D01*
X199309232Y-91142150D01*
X199419593Y-91043849D01*
X199670911Y-90753634D01*
X199951217Y-90318550D01*
X200251030Y-89758635D01*
X200560869Y-89093927D01*
X200871254Y-88344464D01*
X201172705Y-87530283D01*
X201391303Y-86876467D01*
X201568244Y-86334111D01*
X201701800Y-85949305D01*
X201790404Y-85722483D01*
X201832491Y-85654079D01*
X201826495Y-85744527D01*
X201770849Y-85994260D01*
X201663988Y-86403713D01*
X201544107Y-86834134D01*
X201322000Y-87533852D01*
X201038238Y-88305159D01*
X200719546Y-89081460D01*
X200392652Y-89796160D01*
X200213831Y-90148693D01*
X200027725Y-90517428D01*
X199856157Y-90889457D01*
X199728979Y-91199135D01*
X199704123Y-91269530D01*
X199608275Y-91521609D01*
X199517250Y-91702085D01*
X199473722Y-91754407D01*
X199424333Y-91737652D01*
X199449481Y-91607236D01*
X199514898Y-91396974D01*
X199551100Y-91279134D01*
X199531436Y-91247797D01*
X199433748Y-91332018D01*
X199405134Y-91363800D01*
X199299616Y-91473755D01*
X199273446Y-91476442D01*
X199280677Y-91460851D01*
X199284146Y-91404904D01*
X199172503Y-91457211D01*
X199129079Y-91484949D01*
X198942809Y-91585083D01*
X198724765Y-91673662D01*
X198527972Y-91733126D01*
X198405456Y-91745917D01*
X198388600Y-91730163D01*
X198441000Y-91649166D01*
X198578401Y-91480127D01*
X198771107Y-91259573D01*
X198771945Y-91258641D01*
X198960163Y-91041695D01*
X199088206Y-90879327D01*
X199128948Y-90805987D01*
X199128648Y-90805627D01*
X199038969Y-90807052D01*
X198824107Y-90834365D01*
X198525281Y-90882065D01*
X198427803Y-90899105D01*
X198039854Y-90959610D01*
X197653145Y-91005841D01*
X197347148Y-91028402D01*
X197330267Y-91028864D01*
X197088571Y-91036812D01*
X196999504Y-91052388D01*
X197046374Y-91085292D01*
X197160933Y-91127261D01*
X197429642Y-91260378D01*
X197651593Y-91438865D01*
X197780555Y-91621480D01*
X197795933Y-91693761D01*
X197750488Y-91728959D01*
X197617892Y-91625790D01*
X197537114Y-91541501D01*
X197355828Y-91364818D01*
X197198466Y-91293641D01*
X196988173Y-91297396D01*
X196939156Y-91303618D01*
X196670408Y-91367951D01*
X196342616Y-91484604D01*
X196134324Y-91576949D01*
X195872991Y-91694034D01*
X195654549Y-91751890D01*
X195430725Y-91749085D01*
X195153247Y-91684191D01*
X194773842Y-91555777D01*
X194716151Y-91534936D01*
X194281602Y-91407378D01*
X193976067Y-91387130D01*
X193797457Y-91474325D01*
X193747211Y-91596634D01*
X193690727Y-91749287D01*
X193613647Y-91779177D01*
X193564738Y-91676438D01*
X193562600Y-91633982D01*
X193611239Y-91442324D01*
X193676977Y-91324411D01*
X193780942Y-91229375D01*
X193938198Y-91200007D01*
X194184977Y-91221942D01*
X194424690Y-91247022D01*
X194541091Y-91227842D01*
X194577067Y-91152572D01*
X194578600Y-91113368D01*
X194542875Y-91006151D01*
X194410283Y-90937873D01*
X194176433Y-90892374D01*
X193927900Y-90839140D01*
X193574004Y-90741502D01*
X193167808Y-90614853D01*
X192870949Y-90513703D01*
X191967632Y-90193500D01*
X191733583Y-90865841D01*
X191567495Y-91300618D01*
X191429649Y-91569152D01*
X191319596Y-91672082D01*
X191236884Y-91610050D01*
X191226564Y-91585925D01*
X191224289Y-91490800D01*
X191276600Y-91490800D01*
X191318933Y-91533134D01*
X191361267Y-91490800D01*
X191318933Y-91448467D01*
X191276600Y-91490800D01*
X191224289Y-91490800D01*
X191223444Y-91455466D01*
X191245961Y-91257967D01*
X191363200Y-91257967D01*
X191377993Y-91359665D01*
X191429829Y-91303494D01*
X191520034Y-91087108D01*
X191616268Y-90810459D01*
X191704569Y-90498331D01*
X191747301Y-90245723D01*
X191739357Y-90111959D01*
X191691097Y-90088687D01*
X191624834Y-90216459D01*
X191536880Y-90502858D01*
X191521720Y-90559467D01*
X191444133Y-90866067D01*
X191387506Y-91114431D01*
X191363372Y-91253746D01*
X191363200Y-91257967D01*
X191245961Y-91257967D01*
X191251484Y-91209528D01*
X191301902Y-90897186D01*
X191365919Y-90567515D01*
X191434752Y-90269592D01*
X191499621Y-90052492D01*
X191502124Y-90045885D01*
X191457975Y-89950691D01*
X191305676Y-89809329D01*
X191174547Y-89715959D01*
X190906541Y-89528685D01*
X190658559Y-89334182D01*
X190582605Y-89267349D01*
X190354277Y-89054752D01*
X190299564Y-89299110D01*
X190186849Y-89778374D01*
X190070315Y-90232256D01*
X189956890Y-90638543D01*
X189853505Y-90975021D01*
X189767088Y-91219478D01*
X189704569Y-91349700D01*
X189672877Y-91343476D01*
X189670508Y-91315657D01*
X189689843Y-91204101D01*
X189744614Y-90961926D01*
X189826964Y-90622219D01*
X189929037Y-90218068D01*
X189955468Y-90115651D01*
X190243004Y-89006120D01*
X190040469Y-88815848D01*
X189895582Y-88696385D01*
X189812409Y-88658864D01*
X189809282Y-88661189D01*
X189748190Y-88799988D01*
X189669928Y-89066217D01*
X189582934Y-89419919D01*
X189495649Y-89821137D01*
X189416509Y-90229915D01*
X189353954Y-90606296D01*
X189316422Y-90910324D01*
X189309583Y-91027259D01*
X189293749Y-91318823D01*
X189262402Y-91529843D01*
X189222112Y-91617403D01*
X189219184Y-91617800D01*
X189167244Y-91540608D01*
X189148210Y-91330981D01*
X189158520Y-91021844D01*
X189194608Y-90646121D01*
X189252911Y-90236736D01*
X189329864Y-89826615D01*
X189421904Y-89448680D01*
X189471814Y-89284054D01*
X189724561Y-88516642D01*
X189563417Y-88225721D01*
X189561041Y-88220106D01*
X189728026Y-88220106D01*
X190227146Y-88714218D01*
X190693523Y-89109344D01*
X191278341Y-89502576D01*
X191940515Y-89874234D01*
X192638960Y-90204636D01*
X193332590Y-90474103D01*
X193980321Y-90662955D01*
X194468302Y-90745789D01*
X194737741Y-90782567D01*
X194946651Y-90831256D01*
X195069672Y-90880983D01*
X195081448Y-90920871D01*
X194956618Y-90940047D01*
X194922263Y-90940467D01*
X194786214Y-90987717D01*
X194747933Y-91151891D01*
X194799412Y-91331417D01*
X194977918Y-91465872D01*
X195023100Y-91487234D01*
X195296952Y-91570019D01*
X195596276Y-91567730D01*
X195962687Y-91475926D01*
X196291654Y-91351803D01*
X196606871Y-91203743D01*
X196755764Y-91087357D01*
X196738336Y-91002698D01*
X196554593Y-90949817D01*
X196250767Y-90929515D01*
X196162181Y-90921044D01*
X196227049Y-90903887D01*
X196429813Y-90879848D01*
X196754919Y-90850728D01*
X197186811Y-90818329D01*
X197245600Y-90814270D01*
X197884898Y-90767707D01*
X198379998Y-90719941D01*
X198755814Y-90661097D01*
X199037260Y-90581304D01*
X199249249Y-90470688D01*
X199416694Y-90319375D01*
X199564509Y-90117494D01*
X199717608Y-89855170D01*
X199732166Y-89828861D01*
X200038435Y-89189911D01*
X200328444Y-88423133D01*
X200588695Y-87570009D01*
X200805689Y-86672020D01*
X200877388Y-86309358D01*
X200984860Y-85728840D01*
X201063517Y-85291991D01*
X201113445Y-84975631D01*
X201134728Y-84756580D01*
X201127452Y-84611659D01*
X201091702Y-84517687D01*
X201027564Y-84451485D01*
X200935121Y-84389873D01*
X200884563Y-84357634D01*
X200694043Y-84238748D01*
X200571672Y-84172236D01*
X200555358Y-84167134D01*
X200539936Y-84245187D01*
X200531082Y-84453057D01*
X200530126Y-84751307D01*
X200531823Y-84865634D01*
X200531393Y-85241394D01*
X200504962Y-85510801D01*
X200440733Y-85736236D01*
X200326908Y-85980081D01*
X200317748Y-85997605D01*
X200149713Y-86268475D01*
X199950432Y-86518975D01*
X199751537Y-86716904D01*
X199584663Y-86830059D01*
X199493452Y-86836720D01*
X199457009Y-86734911D01*
X199472640Y-86568299D01*
X199524416Y-86419427D01*
X199583803Y-86368467D01*
X199648732Y-86437849D01*
X199658600Y-86505834D01*
X199696124Y-86581978D01*
X199784185Y-86543458D01*
X199886020Y-86420706D01*
X199961669Y-86254988D01*
X200065714Y-86037256D01*
X200147403Y-85923967D01*
X200229868Y-85799748D01*
X200194449Y-85689556D01*
X200126732Y-85609191D01*
X200015155Y-85521800D01*
X200166600Y-85521800D01*
X200231029Y-85604007D01*
X200251267Y-85606467D01*
X200333473Y-85542038D01*
X200335933Y-85521800D01*
X200271504Y-85439594D01*
X200251267Y-85437134D01*
X200169060Y-85501563D01*
X200166600Y-85521800D01*
X200015155Y-85521800D01*
X199999218Y-85509318D01*
X199860257Y-85511187D01*
X199675184Y-85624991D01*
X199472798Y-85801465D01*
X199308921Y-85934761D01*
X199195564Y-85956261D01*
X199091798Y-85897096D01*
X199008646Y-85806821D01*
X199044767Y-85778493D01*
X199143145Y-85716730D01*
X199150600Y-85682075D01*
X199088212Y-85627601D01*
X199011624Y-85641680D01*
X198920221Y-85663390D01*
X198959198Y-85591151D01*
X198979658Y-85566072D01*
X199037935Y-85461700D01*
X198986132Y-85444062D01*
X198856408Y-85508010D01*
X198727267Y-85606467D01*
X198560356Y-85737684D01*
X198486672Y-85768699D01*
X198522034Y-85697405D01*
X198582861Y-85625700D01*
X198652215Y-85483459D01*
X198644001Y-85346789D01*
X198573229Y-85275716D01*
X198499857Y-85293700D01*
X198384013Y-85302062D01*
X198271661Y-85240455D01*
X198231548Y-85154374D01*
X198247489Y-85126689D01*
X198339018Y-85128870D01*
X198391907Y-85185585D01*
X198457674Y-85253375D01*
X198471970Y-85204300D01*
X198514009Y-85105129D01*
X198601506Y-85129097D01*
X198682629Y-85260751D01*
X198684933Y-85267800D01*
X198764797Y-85404741D01*
X198826697Y-85437134D01*
X198853507Y-85403124D01*
X199101692Y-85403124D01*
X199146068Y-85513333D01*
X199202296Y-85684361D01*
X199191852Y-85777550D01*
X199181935Y-85850763D01*
X199275234Y-85834990D01*
X199427237Y-85741532D01*
X199533980Y-85576009D01*
X199525084Y-85469058D01*
X199504802Y-85373175D01*
X199551549Y-85418834D01*
X199686044Y-85485522D01*
X199771202Y-85473276D01*
X199896193Y-85386547D01*
X199892538Y-85311158D01*
X199769898Y-85302660D01*
X199742849Y-85310266D01*
X199578292Y-85305297D01*
X199522124Y-85231305D01*
X199433781Y-85115552D01*
X199385174Y-85098467D01*
X199352568Y-85146551D01*
X199396394Y-85215579D01*
X199443009Y-85324282D01*
X199356787Y-85385187D01*
X199192578Y-85403749D01*
X199134512Y-85384858D01*
X199101692Y-85403124D01*
X198853507Y-85403124D01*
X198876116Y-85374443D01*
X198861387Y-85298158D01*
X198839677Y-85206754D01*
X198911916Y-85245732D01*
X198936995Y-85266192D01*
X199043796Y-85323657D01*
X199065933Y-85278167D01*
X199127825Y-85187827D01*
X199155597Y-85183134D01*
X199206163Y-85235003D01*
X199192933Y-85267800D01*
X199202851Y-85345676D01*
X199235975Y-85352467D01*
X199293515Y-85287417D01*
X199280782Y-85193160D01*
X199285412Y-85041369D01*
X199339022Y-84992102D01*
X199462392Y-85004367D01*
X199574741Y-85087602D01*
X199613263Y-85187202D01*
X199597066Y-85216445D01*
X199612548Y-85262882D01*
X199653547Y-85267800D01*
X199722232Y-85208236D01*
X199707124Y-85126403D01*
X199712584Y-84973373D01*
X199761566Y-84916032D01*
X199911366Y-84848746D01*
X199962909Y-84880199D01*
X199910991Y-84973405D01*
X199849217Y-85065196D01*
X199916111Y-85058987D01*
X199942958Y-85049013D01*
X200059003Y-85043610D01*
X200081933Y-85082353D01*
X200016800Y-85189604D01*
X199999980Y-85197245D01*
X199963306Y-85278651D01*
X199985582Y-85334168D01*
X200105546Y-85399652D01*
X200257510Y-85353759D01*
X200369206Y-85218533D01*
X200369815Y-85216961D01*
X200375988Y-85137534D01*
X200272140Y-85171975D01*
X200267504Y-85174444D01*
X200152571Y-85205847D01*
X200117600Y-85102652D01*
X200116829Y-85070569D01*
X200145223Y-84971467D01*
X200251267Y-84971467D01*
X200293600Y-85013800D01*
X200335933Y-84971467D01*
X200293600Y-84929134D01*
X200251267Y-84971467D01*
X200145223Y-84971467D01*
X200172531Y-84876157D01*
X200246853Y-84786667D01*
X200331980Y-84684870D01*
X200268914Y-84576510D01*
X200267417Y-84575000D01*
X200190134Y-84512171D01*
X200204727Y-84589562D01*
X200212975Y-84611634D01*
X200222921Y-84733026D01*
X200184717Y-84759800D01*
X200079912Y-84692494D01*
X200038765Y-84548859D01*
X200081820Y-84416318D01*
X200100232Y-84400290D01*
X200157560Y-84346869D01*
X200081933Y-84360300D01*
X199982718Y-84462680D01*
X199970014Y-84556010D01*
X199919040Y-84737220D01*
X199769042Y-84838773D01*
X199731158Y-84843170D01*
X199643256Y-84780867D01*
X199624234Y-84640159D01*
X199627035Y-84632800D01*
X199743267Y-84632800D01*
X199785600Y-84675134D01*
X199827933Y-84632800D01*
X199785600Y-84590467D01*
X199743267Y-84632800D01*
X199627035Y-84632800D01*
X199677967Y-84499001D01*
X199712397Y-84465554D01*
X199796139Y-84340297D01*
X199766693Y-84226333D01*
X199650108Y-84189475D01*
X199607702Y-84201038D01*
X199503852Y-84201860D01*
X199489267Y-84171532D01*
X199551312Y-84074016D01*
X199695010Y-84067429D01*
X199849100Y-84148970D01*
X199970017Y-84239422D01*
X199985583Y-84214883D01*
X199900369Y-84089168D01*
X199782420Y-83947469D01*
X199661364Y-83825670D01*
X199612249Y-83811670D01*
X199617953Y-83838708D01*
X199609304Y-83974343D01*
X199500981Y-84037081D01*
X199352922Y-84010568D01*
X199262172Y-83935771D01*
X199205993Y-83870800D01*
X199404600Y-83870800D01*
X199446933Y-83913134D01*
X199489267Y-83870800D01*
X199446933Y-83828467D01*
X199404600Y-83870800D01*
X199205993Y-83870800D01*
X199183041Y-83844256D01*
X199190726Y-83885224D01*
X199237288Y-83983573D01*
X199287576Y-84152735D01*
X199214078Y-84276661D01*
X199178459Y-84307351D01*
X199102045Y-84380790D01*
X199138899Y-84374232D01*
X199276599Y-84381481D01*
X199328103Y-84431453D01*
X199397385Y-84588472D01*
X199334642Y-84679183D01*
X199268173Y-84709369D01*
X199169355Y-84714153D01*
X199173887Y-84651903D01*
X199145144Y-84559683D01*
X199065933Y-84542086D01*
X198958070Y-84585513D01*
X198953418Y-84640017D01*
X198921878Y-84749894D01*
X198864757Y-84786392D01*
X198773329Y-84767325D01*
X198748477Y-84652606D01*
X198786869Y-84500813D01*
X198885171Y-84370524D01*
X198888565Y-84367898D01*
X198964638Y-84281649D01*
X198940985Y-84169719D01*
X198913830Y-84124800D01*
X199065933Y-84124800D01*
X199108267Y-84167134D01*
X199150600Y-84124800D01*
X199108267Y-84082467D01*
X199065933Y-84124800D01*
X198913830Y-84124800D01*
X198869720Y-84051836D01*
X198806576Y-83955467D01*
X198981267Y-83955467D01*
X199023600Y-83997800D01*
X199065933Y-83955467D01*
X199023600Y-83913134D01*
X198981267Y-83955467D01*
X198806576Y-83955467D01*
X198725247Y-83831343D01*
X198513984Y-84015033D01*
X198381009Y-84158175D01*
X198386315Y-84247018D01*
X198408748Y-84264252D01*
X198456616Y-84340419D01*
X198357166Y-84445019D01*
X198354086Y-84447279D01*
X198252166Y-84573369D01*
X198253662Y-84662289D01*
X198255310Y-84749053D01*
X198218558Y-84759800D01*
X198161435Y-84825251D01*
X198176933Y-84929134D01*
X198190278Y-85063307D01*
X198156035Y-85098467D01*
X198112321Y-85173793D01*
X198090562Y-85363252D01*
X198090239Y-85458300D01*
X198117825Y-85729315D01*
X198176447Y-85942883D01*
X198251147Y-86064069D01*
X198326970Y-86057935D01*
X198339547Y-86040673D01*
X198453875Y-85951044D01*
X198488630Y-85945134D01*
X198526045Y-85991578D01*
X198477456Y-86067085D01*
X198407208Y-86244799D01*
X198403589Y-86384585D01*
X198388922Y-86537349D01*
X198264998Y-86580131D01*
X198263580Y-86580134D01*
X198155847Y-86545008D01*
X198073769Y-86416255D01*
X197996425Y-86158808D01*
X197985723Y-86114467D01*
X197913463Y-85489584D01*
X197968810Y-84802511D01*
X198147756Y-84097599D01*
X198174897Y-84020644D01*
X198254846Y-83779817D01*
X198824157Y-83779817D01*
X198844121Y-83823996D01*
X198891603Y-83828467D01*
X199006413Y-83766975D01*
X199023000Y-83744770D01*
X199009373Y-83696658D01*
X198943331Y-83711495D01*
X198824157Y-83779817D01*
X198254846Y-83779817D01*
X198270324Y-83733192D01*
X198282187Y-83687356D01*
X199263489Y-83687356D01*
X199275111Y-83737690D01*
X199319933Y-83743800D01*
X199389623Y-83712822D01*
X199376378Y-83687356D01*
X199275898Y-83677223D01*
X199263489Y-83687356D01*
X198282187Y-83687356D01*
X198328562Y-83508176D01*
X198337771Y-83391853D01*
X198336498Y-83389328D01*
X198227907Y-83335719D01*
X198092267Y-83320467D01*
X197968666Y-83294052D01*
X200165044Y-83294052D01*
X200178147Y-83340026D01*
X200286433Y-83416004D01*
X200511683Y-83538991D01*
X200716933Y-83644931D01*
X201007411Y-83793506D01*
X201173712Y-83873450D01*
X201243254Y-83891582D01*
X201243452Y-83854726D01*
X201201724Y-83769702D01*
X201199357Y-83764967D01*
X201143376Y-83604254D01*
X201074804Y-83341406D01*
X201024030Y-83108800D01*
X200917466Y-82602592D01*
X200813789Y-82159833D01*
X200719657Y-81805294D01*
X200641727Y-81563748D01*
X200586655Y-81459966D01*
X200580340Y-81457800D01*
X200521295Y-81530422D01*
X200472439Y-81690634D01*
X200375273Y-82211292D01*
X200309032Y-82635219D01*
X200276628Y-82940501D01*
X200280976Y-83105224D01*
X200283407Y-83112767D01*
X200265307Y-83233742D01*
X200225344Y-83261072D01*
X200165044Y-83294052D01*
X197968666Y-83294052D01*
X197905819Y-83280621D01*
X197819335Y-83187114D01*
X197862802Y-83078996D01*
X197890919Y-83058297D01*
X197953639Y-82998963D01*
X197859433Y-82983097D01*
X197733783Y-82939614D01*
X197711267Y-82891946D01*
X197789487Y-82845347D01*
X198015526Y-82850297D01*
X198376452Y-82905121D01*
X198859331Y-83008146D01*
X199142977Y-83077339D01*
X199450827Y-83153163D01*
X199692977Y-83209216D01*
X199824328Y-83235134D01*
X199832680Y-83235800D01*
X199836912Y-83160393D01*
X199812601Y-82963163D01*
X199767896Y-82687598D01*
X199710947Y-82377185D01*
X199649903Y-82075411D01*
X199592914Y-81825764D01*
X199569051Y-81743688D01*
X199778213Y-81743688D01*
X199803624Y-81982079D01*
X199856426Y-82299602D01*
X199885640Y-82446860D01*
X200038314Y-83181424D01*
X200134121Y-82749987D01*
X200205362Y-82402401D01*
X200270191Y-82043236D01*
X200288118Y-81930509D01*
X200318551Y-81694555D01*
X200301094Y-81581142D01*
X200213067Y-81545365D01*
X200092118Y-81542467D01*
X199894604Y-81568131D01*
X199785447Y-81627381D01*
X199778213Y-81743688D01*
X199569051Y-81743688D01*
X199548129Y-81671730D01*
X199534705Y-81645777D01*
X199446341Y-81641264D01*
X199227392Y-81648653D01*
X198916065Y-81666344D01*
X198717688Y-81680003D01*
X197922933Y-81737919D01*
X197548133Y-82529616D01*
X197351470Y-82923041D01*
X197175908Y-83233589D01*
X197032346Y-83446746D01*
X196931683Y-83547995D01*
X196884818Y-83522824D01*
X196893468Y-83401458D01*
X196934764Y-83206915D01*
X196957590Y-83108800D01*
X197033933Y-83108800D01*
X197076267Y-83151134D01*
X197118600Y-83108800D01*
X197076267Y-83066467D01*
X197033933Y-83108800D01*
X196957590Y-83108800D01*
X196996985Y-82939467D01*
X197118600Y-82939467D01*
X197160933Y-82981800D01*
X197203267Y-82939467D01*
X197160933Y-82897134D01*
X197118600Y-82939467D01*
X196996985Y-82939467D01*
X197001494Y-82920086D01*
X197029608Y-82804960D01*
X197207145Y-82804960D01*
X197239619Y-82809772D01*
X197321604Y-82694884D01*
X197440537Y-82476442D01*
X197533210Y-82283300D01*
X197658001Y-81995474D01*
X197708512Y-81826026D01*
X197691254Y-81744517D01*
X197652509Y-81725483D01*
X197541722Y-81717422D01*
X197468506Y-81780658D01*
X197408512Y-81950741D01*
X197361935Y-82149708D01*
X197301843Y-82411422D01*
X197249063Y-82620995D01*
X197236748Y-82664300D01*
X197207145Y-82804960D01*
X197029608Y-82804960D01*
X197058789Y-82685467D01*
X197159509Y-82277993D01*
X197221829Y-82005365D01*
X197248913Y-81838277D01*
X197243921Y-81747421D01*
X197210017Y-81703492D01*
X197166903Y-81683473D01*
X197054670Y-81727319D01*
X196887938Y-81926095D01*
X196708961Y-82206627D01*
X196532489Y-82476865D01*
X196299114Y-82796831D01*
X196031586Y-83139564D01*
X195752657Y-83478108D01*
X195485077Y-83785502D01*
X195251597Y-84034789D01*
X195074968Y-84199010D01*
X194982994Y-84251800D01*
X194973011Y-84199687D01*
X195064012Y-84068871D01*
X195120090Y-84007031D01*
X195354594Y-83762261D01*
X195060325Y-82969864D01*
X194926817Y-82598788D01*
X194811846Y-82258150D01*
X194732048Y-81998231D01*
X194709487Y-81909373D01*
X194635353Y-81709148D01*
X194534434Y-81595903D01*
X194531093Y-81594530D01*
X194464061Y-81642447D01*
X194421664Y-81826814D01*
X194402672Y-82116734D01*
X194405855Y-82481312D01*
X194429981Y-82889650D01*
X194473821Y-83310854D01*
X194536142Y-83714026D01*
X194615716Y-84068271D01*
X194631879Y-84124800D01*
X194647142Y-84234228D01*
X194595803Y-84209467D01*
X194479935Y-84012423D01*
X194379393Y-83682978D01*
X194301287Y-83257862D01*
X194252729Y-82773808D01*
X194239933Y-82371038D01*
X194237513Y-81987716D01*
X194225497Y-81739791D01*
X194196754Y-81593346D01*
X194144155Y-81514462D01*
X194060567Y-81469222D01*
X194049433Y-81464941D01*
X193894285Y-81417445D01*
X193834397Y-81414594D01*
X193831118Y-81454384D01*
X193847206Y-81566988D01*
X193886743Y-81773069D01*
X193953808Y-82093290D01*
X194052485Y-82548317D01*
X194110468Y-82812467D01*
X194119957Y-82903235D01*
X194073197Y-82837631D01*
X194019878Y-82727800D01*
X193923926Y-82471966D01*
X193828677Y-82142037D01*
X193783336Y-81946048D01*
X193711892Y-81635540D01*
X193627972Y-81443848D01*
X193490177Y-81322944D01*
X193257109Y-81224800D01*
X193122479Y-81179351D01*
X192724691Y-81047729D01*
X192608240Y-81570265D01*
X192491788Y-82092800D01*
X193133027Y-82140774D01*
X193447730Y-82165137D01*
X193602787Y-82181262D01*
X193607457Y-82192943D01*
X193470998Y-82203972D01*
X193308600Y-82212714D01*
X192974864Y-82238175D01*
X192736192Y-82271689D01*
X192608115Y-82307023D01*
X192606164Y-82337940D01*
X192745869Y-82358205D01*
X192934968Y-82362716D01*
X193290528Y-82373865D01*
X193507803Y-82416374D01*
X193616731Y-82502239D01*
X193647249Y-82643458D01*
X193647267Y-82648130D01*
X193586490Y-82784622D01*
X193468058Y-82812467D01*
X193339936Y-82842855D01*
X193332125Y-82965043D01*
X193341833Y-83002967D01*
X193406345Y-83296268D01*
X193463990Y-83664773D01*
X193508540Y-84051849D01*
X193533763Y-84400866D01*
X193533429Y-84655190D01*
X193528404Y-84698705D01*
X193469775Y-84958864D01*
X193374601Y-85279519D01*
X193261655Y-85606909D01*
X193149708Y-85887272D01*
X193057531Y-86066846D01*
X193044681Y-86084085D01*
X192892747Y-86173216D01*
X192694201Y-86195578D01*
X192533853Y-86146402D01*
X192504267Y-86114467D01*
X192528175Y-86046013D01*
X192612159Y-86029800D01*
X192782723Y-86002183D01*
X192838021Y-85891810D01*
X192819335Y-85723072D01*
X192698998Y-85511616D01*
X192535123Y-85420446D01*
X192362735Y-85337005D01*
X192295279Y-85261662D01*
X192345749Y-85226265D01*
X192462937Y-85243531D01*
X192630215Y-85336486D01*
X192815388Y-85505376D01*
X192837801Y-85531142D01*
X193042329Y-85774209D01*
X193171493Y-85333589D01*
X193241506Y-85050631D01*
X193257562Y-84878408D01*
X193221180Y-84834101D01*
X193135959Y-84931585D01*
X193070192Y-84999375D01*
X193055896Y-84950300D01*
X193005498Y-84853179D01*
X192878608Y-84884468D01*
X192764314Y-84977514D01*
X192662687Y-85045865D01*
X192631267Y-85017191D01*
X192699262Y-84909487D01*
X192763132Y-84873217D01*
X192855717Y-84776113D01*
X192852832Y-84712731D01*
X192859084Y-84569134D01*
X192964454Y-84500483D01*
X193103639Y-84541242D01*
X193130421Y-84566240D01*
X193197471Y-84654214D01*
X193134507Y-84656550D01*
X193054600Y-84632800D01*
X192924257Y-84600734D01*
X192932856Y-84645997D01*
X192978333Y-84697242D01*
X193119929Y-84793896D01*
X193215566Y-84729959D01*
X193266251Y-84504197D01*
X193274990Y-84333743D01*
X193271819Y-84083740D01*
X193241551Y-83966834D01*
X193171086Y-83947372D01*
X193136367Y-83956387D01*
X192985567Y-83933552D01*
X192935634Y-83861205D01*
X192920092Y-83804482D01*
X193063184Y-83804482D01*
X193148022Y-83786717D01*
X193164085Y-83780690D01*
X193267763Y-83713618D01*
X193268507Y-83675485D01*
X193178942Y-83684982D01*
X193116689Y-83733294D01*
X193063184Y-83804482D01*
X192920092Y-83804482D01*
X192900486Y-83732928D01*
X192904440Y-83701835D01*
X192986499Y-83649758D01*
X193096933Y-83582911D01*
X193213296Y-83509637D01*
X193180241Y-83505897D01*
X193085793Y-83530614D01*
X192925602Y-83514180D01*
X192835035Y-83406847D01*
X192839744Y-83362800D01*
X192969933Y-83362800D01*
X193012267Y-83405134D01*
X193054600Y-83362800D01*
X193012267Y-83320467D01*
X192969933Y-83362800D01*
X192839744Y-83362800D01*
X192849618Y-83270453D01*
X192903566Y-83213416D01*
X192913164Y-83203003D01*
X193083704Y-83203003D01*
X193096933Y-83235800D01*
X193173015Y-83316571D01*
X193186597Y-83320467D01*
X193222962Y-83254961D01*
X193223933Y-83235800D01*
X193158845Y-83154387D01*
X193134270Y-83151134D01*
X193083704Y-83203003D01*
X192913164Y-83203003D01*
X192947496Y-83165758D01*
X192853342Y-83186951D01*
X192667034Y-83167688D01*
X192577968Y-83089104D01*
X192497657Y-82997003D01*
X192497356Y-83041615D01*
X192508925Y-83076708D01*
X192489271Y-83208193D01*
X192374562Y-83281190D01*
X192236893Y-83264309D01*
X192185549Y-83217501D01*
X192138558Y-83175080D01*
X192160481Y-83271364D01*
X192157325Y-83438459D01*
X192104967Y-83502901D01*
X191958039Y-83568883D01*
X191898411Y-83545315D01*
X191938723Y-83465794D01*
X191981377Y-83314611D01*
X191941103Y-83232961D01*
X191882147Y-83164024D01*
X191896939Y-83242532D01*
X191904573Y-83266394D01*
X191915199Y-83379407D01*
X191823496Y-83373197D01*
X191735130Y-83366426D01*
X191748716Y-83415569D01*
X191741173Y-83536113D01*
X191689614Y-83591920D01*
X191624106Y-83649513D01*
X191709402Y-83631858D01*
X191710517Y-83631505D01*
X191816948Y-83643351D01*
X191848098Y-83790929D01*
X191848100Y-83792852D01*
X191821961Y-83948779D01*
X191774017Y-83997800D01*
X191702714Y-83932433D01*
X191699933Y-83908137D01*
X191647401Y-83859057D01*
X191610200Y-83873931D01*
X191590882Y-83958513D01*
X191673700Y-84043087D01*
X191777511Y-84138082D01*
X191754598Y-84225102D01*
X191678767Y-84307102D01*
X191570024Y-84386539D01*
X191530600Y-84361665D01*
X191597658Y-84248656D01*
X191636433Y-84228114D01*
X191693244Y-84153394D01*
X191674163Y-84117677D01*
X191584729Y-84091998D01*
X191519237Y-84213519D01*
X191482886Y-84461143D01*
X191480876Y-84813778D01*
X191484564Y-84886800D01*
X191510480Y-85208633D01*
X191544936Y-85478932D01*
X191579826Y-85636901D01*
X191636625Y-85743564D01*
X191695361Y-85694914D01*
X191716755Y-85658068D01*
X191822216Y-85542142D01*
X191878275Y-85521800D01*
X191901248Y-85578616D01*
X191841093Y-85696611D01*
X191761645Y-85894878D01*
X191761500Y-86035277D01*
X191776902Y-86178371D01*
X191726233Y-86192175D01*
X191631210Y-86092196D01*
X191513549Y-85893943D01*
X191487073Y-85839300D01*
X191377286Y-85479036D01*
X191317768Y-85014598D01*
X191308095Y-84503379D01*
X191347843Y-84002772D01*
X191436587Y-83570171D01*
X191505229Y-83383967D01*
X191604498Y-83159312D01*
X191624045Y-83108800D01*
X192292600Y-83108800D01*
X192334933Y-83151134D01*
X192377267Y-83108800D01*
X192334933Y-83066467D01*
X192292600Y-83108800D01*
X191624045Y-83108800D01*
X191660985Y-83013340D01*
X191666094Y-82981800D01*
X191579691Y-83007059D01*
X191380515Y-83072550D01*
X191169960Y-83144128D01*
X190911829Y-83224722D01*
X190724789Y-83267768D01*
X190658869Y-83267181D01*
X190611995Y-83291493D01*
X190576764Y-83429820D01*
X190557995Y-83626980D01*
X190560507Y-83827794D01*
X190589118Y-83977079D01*
X190595653Y-83991048D01*
X190668297Y-84165813D01*
X190679123Y-84274098D01*
X190632470Y-84280473D01*
X190569178Y-84207139D01*
X190456903Y-83990911D01*
X190328711Y-83665375D01*
X190203275Y-83286986D01*
X190099269Y-82912199D01*
X190035365Y-82597469D01*
X190034350Y-82590181D01*
X189985740Y-82351617D01*
X189923728Y-82191510D01*
X189899000Y-82163293D01*
X189863756Y-82218341D01*
X189849300Y-82436584D01*
X189855780Y-82813148D01*
X189870053Y-83118105D01*
X189913705Y-83927929D01*
X189947466Y-84586515D01*
X189971655Y-85111651D01*
X189986587Y-85521127D01*
X189992579Y-85832729D01*
X189989949Y-86064245D01*
X189979013Y-86233464D01*
X189960087Y-86358173D01*
X189933489Y-86456161D01*
X189929700Y-86467248D01*
X189878576Y-86681619D01*
X189828604Y-87004902D01*
X189788642Y-87376854D01*
X189780361Y-87482810D01*
X189728026Y-88220106D01*
X189561041Y-88220106D01*
X189466566Y-87996829D01*
X189432183Y-87737912D01*
X189445446Y-87426800D01*
X189425300Y-86780554D01*
X189354738Y-86454132D01*
X189284617Y-86054216D01*
X189272600Y-85794340D01*
X189415035Y-85794340D01*
X189424983Y-86161376D01*
X189452912Y-86464550D01*
X189498497Y-86672541D01*
X189561413Y-86754026D01*
X189586723Y-86747331D01*
X189641642Y-86646903D01*
X189708121Y-86435797D01*
X189745747Y-86278871D01*
X189798968Y-85896580D01*
X189825410Y-85412584D01*
X189824414Y-84892483D01*
X189795324Y-84401877D01*
X189766921Y-84167134D01*
X189709127Y-83786134D01*
X189561530Y-84314022D01*
X189496314Y-84623284D01*
X189450376Y-84993972D01*
X189423391Y-85394765D01*
X189415035Y-85794340D01*
X189272600Y-85794340D01*
X189260364Y-85529713D01*
X189280237Y-84918539D01*
X189342498Y-84258609D01*
X189445407Y-83587841D01*
X189498525Y-83320467D01*
X189575824Y-82924317D01*
X189663581Y-82421427D01*
X189751591Y-81873124D01*
X189829650Y-81340735D01*
X189837680Y-81282175D01*
X189960066Y-80505876D01*
X190098052Y-79854012D01*
X190248032Y-79340821D01*
X190406403Y-78980540D01*
X190430635Y-78940605D01*
X190474137Y-78875882D01*
X190495834Y-78862267D01*
X190491544Y-78921424D01*
X190457083Y-79075018D01*
X190388270Y-79344717D01*
X190280923Y-79752185D01*
X190255251Y-79849134D01*
X190136230Y-80497203D01*
X190088230Y-81231538D01*
X190112169Y-81984266D01*
X190208967Y-82687510D01*
X190216344Y-82723029D01*
X190283207Y-83026957D01*
X190338732Y-83258026D01*
X190372589Y-83373715D01*
X190375694Y-83379117D01*
X190399137Y-83312591D01*
X190441951Y-83112530D01*
X190442640Y-83108800D01*
X190599267Y-83108800D01*
X190641600Y-83151134D01*
X190683933Y-83108800D01*
X190641600Y-83066467D01*
X190599267Y-83108800D01*
X190442640Y-83108800D01*
X190497356Y-82812700D01*
X190500409Y-82794710D01*
X190683933Y-82794710D01*
X191199476Y-82634255D01*
X191501125Y-82548910D01*
X191760946Y-82490212D01*
X191897976Y-82472504D01*
X192108708Y-82431238D01*
X192207933Y-82382700D01*
X192260187Y-82327725D01*
X192170171Y-82324589D01*
X192080933Y-82338456D01*
X191665954Y-82404647D01*
X191337971Y-82444838D01*
X191121043Y-82456955D01*
X191039225Y-82438926D01*
X191044168Y-82427803D01*
X191155735Y-82378332D01*
X191382592Y-82316994D01*
X191636835Y-82264482D01*
X191908719Y-82203608D01*
X192097827Y-82138855D01*
X192160783Y-82088494D01*
X192149402Y-81969588D01*
X192123963Y-81732003D01*
X192089783Y-81425285D01*
X192086838Y-81399314D01*
X192047787Y-81083966D01*
X192018786Y-80957556D01*
X192215396Y-80957556D01*
X192220517Y-81115994D01*
X192239457Y-81263050D01*
X192273385Y-81540481D01*
X192294967Y-81772933D01*
X192297967Y-81829451D01*
X192306908Y-81955509D01*
X192338550Y-81919012D01*
X192371833Y-81838800D01*
X192430096Y-81646247D01*
X192487944Y-81383107D01*
X192498996Y-81320954D01*
X192526344Y-81096370D01*
X192496798Y-80983560D01*
X192393479Y-80929761D01*
X192371987Y-80923887D01*
X192260857Y-80906389D01*
X192215396Y-80957556D01*
X192018786Y-80957556D01*
X192003962Y-80892944D01*
X191931763Y-80782293D01*
X191807593Y-80708055D01*
X191689487Y-80659166D01*
X191486447Y-80566666D01*
X191371181Y-80492323D01*
X191361267Y-80475641D01*
X191431996Y-80456027D01*
X191609670Y-80485709D01*
X191842517Y-80554966D01*
X191903734Y-80577497D01*
X191985016Y-80581481D01*
X192025758Y-80489943D01*
X192038362Y-80269313D01*
X192038600Y-80212408D01*
X192059077Y-79847622D01*
X192113225Y-79397642D01*
X192190122Y-78940628D01*
X192260937Y-78621467D01*
X192258985Y-78567127D01*
X192197256Y-78640197D01*
X192089510Y-78815556D01*
X191949506Y-79068083D01*
X191791007Y-79372656D01*
X191627771Y-79704153D01*
X191473559Y-80037454D01*
X191426169Y-80145467D01*
X191263211Y-80552578D01*
X191100199Y-81011131D01*
X190949066Y-81481440D01*
X190821746Y-81923821D01*
X190730172Y-82298589D01*
X190686277Y-82566058D01*
X190684147Y-82613089D01*
X190683933Y-82794710D01*
X190500409Y-82794710D01*
X190540676Y-82557432D01*
X190612513Y-82156866D01*
X190696351Y-81775359D01*
X190799458Y-81395661D01*
X190929105Y-81000518D01*
X191092562Y-80572679D01*
X191297097Y-80094894D01*
X191549982Y-79549910D01*
X191858484Y-78920476D01*
X192229875Y-78189341D01*
X192671424Y-77339252D01*
X193015783Y-76683833D01*
X193114153Y-76529932D01*
X193182919Y-76479354D01*
X193187193Y-76482171D01*
X193173801Y-76573021D01*
X193101428Y-76778877D01*
X192983979Y-77061903D01*
X192928511Y-77186014D01*
X192550265Y-78199387D01*
X192307136Y-79264305D01*
X192231804Y-79916482D01*
X192210785Y-80273837D01*
X192212418Y-80501544D01*
X192241620Y-80638357D01*
X192303310Y-80723030D01*
X192337660Y-80750597D01*
X192496052Y-80845659D01*
X192557584Y-80833166D01*
X192821591Y-80833166D01*
X192859544Y-80930082D01*
X192996137Y-81001602D01*
X193196973Y-81066652D01*
X193429073Y-81139024D01*
X193576846Y-81187128D01*
X193604933Y-81197903D01*
X193604933Y-81120380D01*
X193604933Y-80903168D01*
X193604933Y-80575910D01*
X193604933Y-80168250D01*
X193604933Y-79981700D01*
X193602766Y-79504458D01*
X193595022Y-79177870D01*
X193579838Y-78983299D01*
X193555352Y-78902106D01*
X193519702Y-78915653D01*
X193501275Y-78944533D01*
X193395804Y-79163929D01*
X193260391Y-79487288D01*
X193116027Y-79859281D01*
X192983702Y-80224581D01*
X192884409Y-80527861D01*
X192846480Y-80670382D01*
X192821591Y-80833166D01*
X192557584Y-80833166D01*
X192597135Y-80825136D01*
X192679156Y-80668744D01*
X192720360Y-80547634D01*
X192849432Y-80172147D01*
X193025070Y-79695359D01*
X193226296Y-79171245D01*
X193432129Y-78653779D01*
X193621589Y-78196939D01*
X193732323Y-77944134D01*
X193893518Y-77578134D01*
X194052531Y-77199948D01*
X194168923Y-76906967D01*
X194272391Y-76664357D01*
X194363967Y-76502907D01*
X194409435Y-76462467D01*
X194414837Y-76535409D01*
G37*
D10*
%TO.C,CN4*%
X150263500Y-106186000D02*
X151982500Y-106186000D01*
X150263500Y-106858000D02*
X150263500Y-106186000D01*
X150263500Y-110234000D02*
X150263500Y-110120000D01*
X153044500Y-106186000D02*
X153232500Y-106186000D01*
X154294500Y-106186000D02*
X155976500Y-106186000D01*
X155976500Y-106858000D02*
X155976500Y-106186000D01*
X155976500Y-110120000D02*
X155976500Y-110234000D01*
X155976500Y-110234000D02*
X150263500Y-110234000D01*
X154800500Y-105579000D02*
G75*
G02*
X154546500Y-105579000I-127000J0D01*
G01*
X154546500Y-105579000D02*
G75*
G02*
X154800500Y-105579000I127000J0D01*
G01*
%TO.C,CN8*%
X197513500Y-106136000D02*
X199232500Y-106136000D01*
X197513500Y-106808000D02*
X197513500Y-106136000D01*
X197513500Y-110184000D02*
X197513500Y-110070000D01*
X200294500Y-106136000D02*
X200482500Y-106136000D01*
X201544500Y-106136000D02*
X203226500Y-106136000D01*
X203226500Y-106808000D02*
X203226500Y-106136000D01*
X203226500Y-110070000D02*
X203226500Y-110184000D01*
X203226500Y-110184000D02*
X197513500Y-110184000D01*
X202050500Y-105529000D02*
G75*
G02*
X201796500Y-105529000I-127000J0D01*
G01*
X201796500Y-105529000D02*
G75*
G02*
X202050500Y-105529000I127000J0D01*
G01*
%TO.C,CN3*%
X130875000Y-106197000D02*
X132594000Y-106197000D01*
X130875000Y-106869000D02*
X130875000Y-106197000D01*
X130875000Y-110245000D02*
X130875000Y-110131000D01*
X133656000Y-106197000D02*
X133844000Y-106197000D01*
X134906000Y-106197000D02*
X136588000Y-106197000D01*
X136588000Y-106869000D02*
X136588000Y-106197000D01*
X136588000Y-110131000D02*
X136588000Y-110245000D01*
X136588000Y-110245000D02*
X130875000Y-110245000D01*
X135412000Y-105590000D02*
G75*
G02*
X135158000Y-105590000I-127000J0D01*
G01*
X135158000Y-105590000D02*
G75*
G02*
X135412000Y-105590000I127000J0D01*
G01*
%TO.C,CN7*%
X170225000Y-106197000D02*
X171944000Y-106197000D01*
X170225000Y-106869000D02*
X170225000Y-106197000D01*
X170225000Y-110245000D02*
X170225000Y-110131000D01*
X173006000Y-106197000D02*
X173194000Y-106197000D01*
X174256000Y-106197000D02*
X175938000Y-106197000D01*
X175938000Y-106869000D02*
X175938000Y-106197000D01*
X175938000Y-110131000D02*
X175938000Y-110245000D01*
X175938000Y-110245000D02*
X170225000Y-110245000D01*
X174762000Y-105590000D02*
G75*
G02*
X174508000Y-105590000I-127000J0D01*
G01*
X174508000Y-105590000D02*
G75*
G02*
X174762000Y-105590000I127000J0D01*
G01*
%TO.C,CN15*%
X177125000Y-106197000D02*
X178844000Y-106197000D01*
X177125000Y-106869000D02*
X177125000Y-106197000D01*
X177125000Y-110245000D02*
X177125000Y-110131000D01*
X179906000Y-106197000D02*
X180094000Y-106197000D01*
X181156000Y-106197000D02*
X182838000Y-106197000D01*
X182838000Y-106869000D02*
X182838000Y-106197000D01*
X182838000Y-110131000D02*
X182838000Y-110245000D01*
X182838000Y-110245000D02*
X177125000Y-110245000D01*
X181662000Y-105590000D02*
G75*
G02*
X181408000Y-105590000I-127000J0D01*
G01*
X181408000Y-105590000D02*
G75*
G02*
X181662000Y-105590000I127000J0D01*
G01*
%TO.C,CN16*%
X190713500Y-106136000D02*
X192432500Y-106136000D01*
X190713500Y-106808000D02*
X190713500Y-106136000D01*
X190713500Y-110184000D02*
X190713500Y-110070000D01*
X193494500Y-106136000D02*
X193682500Y-106136000D01*
X194744500Y-106136000D02*
X196426500Y-106136000D01*
X196426500Y-106808000D02*
X196426500Y-106136000D01*
X196426500Y-110070000D02*
X196426500Y-110184000D01*
X196426500Y-110184000D02*
X190713500Y-110184000D01*
X195250500Y-105529000D02*
G75*
G02*
X194996500Y-105529000I-127000J0D01*
G01*
X194996500Y-105529000D02*
G75*
G02*
X195250500Y-105529000I127000J0D01*
G01*
%TO.C,CN10*%
X157013500Y-106186000D02*
X158732500Y-106186000D01*
X157013500Y-106858000D02*
X157013500Y-106186000D01*
X157013500Y-110234000D02*
X157013500Y-110120000D01*
X159794500Y-106186000D02*
X159982500Y-106186000D01*
X161044500Y-106186000D02*
X162726500Y-106186000D01*
X162726500Y-106858000D02*
X162726500Y-106186000D01*
X162726500Y-110120000D02*
X162726500Y-110234000D01*
X162726500Y-110234000D02*
X157013500Y-110234000D01*
X161550500Y-105579000D02*
G75*
G02*
X161296500Y-105579000I-127000J0D01*
G01*
X161296500Y-105579000D02*
G75*
G02*
X161550500Y-105579000I127000J0D01*
G01*
%TO.C,CN13*%
X137625000Y-106197000D02*
X139344000Y-106197000D01*
X137625000Y-106869000D02*
X137625000Y-106197000D01*
X137625000Y-110245000D02*
X137625000Y-110131000D01*
X140406000Y-106197000D02*
X140594000Y-106197000D01*
X141656000Y-106197000D02*
X143338000Y-106197000D01*
X143338000Y-106869000D02*
X143338000Y-106197000D01*
X143338000Y-110131000D02*
X143338000Y-110245000D01*
X143338000Y-110245000D02*
X137625000Y-110245000D01*
X142162000Y-105590000D02*
G75*
G02*
X141908000Y-105590000I-127000J0D01*
G01*
X141908000Y-105590000D02*
G75*
G02*
X142162000Y-105590000I127000J0D01*
G01*
%TD*%
M02*
