%TF.GenerationSoftware,KiCad,Pcbnew,8.0.8*%
%TF.CreationDate,2025-12-07T22:54:41+08:00*%
%TF.ProjectId,QuietLDO,51756965-744c-4444-9f2e-6b696361645f,rev?*%
%TF.SameCoordinates,Original*%
%TF.FileFunction,Drillmap*%
%TF.FilePolarity,Positive*%
%FSLAX45Y45*%
G04 Gerber Fmt 4.5, Leading zero omitted, Abs format (unit mm)*
G04 Created by KiCad (PCBNEW 8.0.8) date 2025-12-07 22:54:41*
%MOMM*%
%LPD*%
G01*
G04 APERTURE LIST*
%ADD10C,0.250000*%
%ADD11C,0.200000*%
G04 APERTURE END LIST*
D10*
X21652500Y-10550000D02*
X21652500Y-6550000D01*
X21152500Y-6050000D02*
X12152500Y-6050000D01*
X12152500Y-11050000D02*
X21152500Y-11050000D01*
X21152500Y-6050000D02*
G75*
G02*
X21652500Y-6550000I0J-500000D01*
G01*
X11652500Y-6550000D02*
X11652500Y-10550000D01*
X11652500Y-6550000D02*
G75*
G02*
X12152500Y-6050000I500000J0D01*
G01*
X12152500Y-11050000D02*
G75*
G02*
X11652500Y-10550000I0J500000D01*
G01*
X21652500Y-10550000D02*
G75*
G02*
X21152500Y-11050000I-500000J0D01*
G01*
D11*
X11900777Y-11373984D02*
X11900777Y-11173984D01*
X11900777Y-11173984D02*
X11948396Y-11173984D01*
X11948396Y-11173984D02*
X11976967Y-11183508D01*
X11976967Y-11183508D02*
X11996015Y-11202555D01*
X11996015Y-11202555D02*
X12005539Y-11221603D01*
X12005539Y-11221603D02*
X12015062Y-11259698D01*
X12015062Y-11259698D02*
X12015062Y-11288269D01*
X12015062Y-11288269D02*
X12005539Y-11326365D01*
X12005539Y-11326365D02*
X11996015Y-11345412D01*
X11996015Y-11345412D02*
X11976967Y-11364460D01*
X11976967Y-11364460D02*
X11948396Y-11373984D01*
X11948396Y-11373984D02*
X11900777Y-11373984D01*
X12100777Y-11373984D02*
X12100777Y-11240650D01*
X12100777Y-11278746D02*
X12110301Y-11259698D01*
X12110301Y-11259698D02*
X12119824Y-11250174D01*
X12119824Y-11250174D02*
X12138872Y-11240650D01*
X12138872Y-11240650D02*
X12157920Y-11240650D01*
X12224586Y-11373984D02*
X12224586Y-11240650D01*
X12224586Y-11173984D02*
X12215062Y-11183508D01*
X12215062Y-11183508D02*
X12224586Y-11193031D01*
X12224586Y-11193031D02*
X12234110Y-11183508D01*
X12234110Y-11183508D02*
X12224586Y-11173984D01*
X12224586Y-11173984D02*
X12224586Y-11193031D01*
X12348396Y-11373984D02*
X12329348Y-11364460D01*
X12329348Y-11364460D02*
X12319824Y-11345412D01*
X12319824Y-11345412D02*
X12319824Y-11173984D01*
X12453158Y-11373984D02*
X12434110Y-11364460D01*
X12434110Y-11364460D02*
X12424586Y-11345412D01*
X12424586Y-11345412D02*
X12424586Y-11173984D01*
X12681729Y-11373984D02*
X12681729Y-11173984D01*
X12681729Y-11173984D02*
X12748396Y-11316841D01*
X12748396Y-11316841D02*
X12815062Y-11173984D01*
X12815062Y-11173984D02*
X12815062Y-11373984D01*
X12996015Y-11373984D02*
X12996015Y-11269222D01*
X12996015Y-11269222D02*
X12986491Y-11250174D01*
X12986491Y-11250174D02*
X12967443Y-11240650D01*
X12967443Y-11240650D02*
X12929348Y-11240650D01*
X12929348Y-11240650D02*
X12910301Y-11250174D01*
X12996015Y-11364460D02*
X12976967Y-11373984D01*
X12976967Y-11373984D02*
X12929348Y-11373984D01*
X12929348Y-11373984D02*
X12910301Y-11364460D01*
X12910301Y-11364460D02*
X12900777Y-11345412D01*
X12900777Y-11345412D02*
X12900777Y-11326365D01*
X12900777Y-11326365D02*
X12910301Y-11307317D01*
X12910301Y-11307317D02*
X12929348Y-11297793D01*
X12929348Y-11297793D02*
X12976967Y-11297793D01*
X12976967Y-11297793D02*
X12996015Y-11288269D01*
X13091253Y-11240650D02*
X13091253Y-11440650D01*
X13091253Y-11250174D02*
X13110301Y-11240650D01*
X13110301Y-11240650D02*
X13148396Y-11240650D01*
X13148396Y-11240650D02*
X13167443Y-11250174D01*
X13167443Y-11250174D02*
X13176967Y-11259698D01*
X13176967Y-11259698D02*
X13186491Y-11278746D01*
X13186491Y-11278746D02*
X13186491Y-11335888D01*
X13186491Y-11335888D02*
X13176967Y-11354936D01*
X13176967Y-11354936D02*
X13167443Y-11364460D01*
X13167443Y-11364460D02*
X13148396Y-11373984D01*
X13148396Y-11373984D02*
X13110301Y-11373984D01*
X13110301Y-11373984D02*
X13091253Y-11364460D01*
X13272205Y-11354936D02*
X13281729Y-11364460D01*
X13281729Y-11364460D02*
X13272205Y-11373984D01*
X13272205Y-11373984D02*
X13262682Y-11364460D01*
X13262682Y-11364460D02*
X13272205Y-11354936D01*
X13272205Y-11354936D02*
X13272205Y-11373984D01*
X13272205Y-11250174D02*
X13281729Y-11259698D01*
X13281729Y-11259698D02*
X13272205Y-11269222D01*
X13272205Y-11269222D02*
X13262682Y-11259698D01*
X13262682Y-11259698D02*
X13272205Y-11250174D01*
X13272205Y-11250174D02*
X13272205Y-11269222D01*
M02*
