M48
; DRILL file {KiCad 8.0.8} date 2025-12-07T22:54:42+0800
; FORMAT={-:-/ absolute / inch / decimal}
; #@! TF.CreationDate,2025-12-07T22:54:42+08:00
; #@! TF.GenerationSoftware,Kicad,Pcbnew,8.0.8
; #@! TF.FileFunction,Plated,1,2,PTH
FMAT,2
INCH
; #@! TA.AperFunction,Plated,PTH,ViaDrill
T1C0.0098
; #@! TA.AperFunction,Plated,PTH,ComponentDrill
T2C0.0315
; #@! TA.AperFunction,Plated,PTH,ComponentDrill
T3C0.0360
; #@! TA.AperFunction,Plated,PTH,ComponentDrill
T4C0.0394
; #@! TA.AperFunction,Plated,PTH,ComponentDrill
T5C0.0433
; #@! TA.AperFunction,Plated,PTH,ComponentDrill
T6C0.0709
; #@! TA.AperFunction,Plated,PTH,ComponentDrill
T7C0.1250
%
G90
G05
T1
X4.72Y-2.98
X4.72Y-3.02
X4.72Y-3.06
X4.72Y-3.1
X4.72Y-3.14
X4.72Y-3.18
X4.72Y-3.22
X4.76Y-2.98
X4.76Y-3.02
X4.76Y-3.06
X4.76Y-3.1
X4.76Y-3.14
X4.76Y-3.18
X4.76Y-3.22
X4.8Y-2.98
X4.8Y-3.02
X4.8Y-3.06
X4.8Y-3.1
X4.8Y-3.14
X4.8Y-3.18
X4.8Y-3.22
X4.88Y-3.12
X4.88Y-3.18
X4.88Y-3.24
X4.92Y-3.1
X4.92Y-3.28
X4.98Y-3.1
X4.98Y-3.28
X5.04Y-3.1
X5.04Y-3.28
X5.1Y-3.1
X5.1Y-3.28
X5.16Y-3.1
X5.16Y-3.28
X5.22Y-3.1
X5.22Y-3.28
X5.2361Y-4.0739
X5.24Y-4.25
X5.24Y-4.29
X5.265Y-4.005
X5.28Y-3.1
X5.28Y-3.28
X5.29Y-4.25
X5.29Y-4.29
X5.34Y-3.1
X5.34Y-3.28
X5.34Y-4.04
X5.3642Y-4.0396
X5.376Y-3.772
X5.376Y-3.7972
X5.376Y-3.825
X5.376Y-3.928
X5.4Y-3.1
X5.4Y-3.28
X5.4Y-4.04
X5.401Y-3.772
X5.401Y-3.7972
X5.401Y-3.825
X5.42Y-2.64
X5.42Y-2.7
X5.42Y-2.76
X5.42Y-2.82
X5.42Y-2.88
X5.42Y-2.94
X5.42Y-3.0
X5.42Y-3.06
X5.426Y-3.772
X5.426Y-3.7972
X5.426Y-3.825
X5.4279Y-4.0396
X5.46Y-3.28
X5.46Y-4.04
X5.5Y-3.26
X5.5Y-4.09
X5.5Y-4.25
X5.5Y-4.29
X5.534Y-3.746
X5.534Y-3.796
X5.54Y-3.22
X5.56Y-4.25
X5.56Y-4.29
X5.58Y-2.74
X5.58Y-2.94
X5.58Y-3.0
X5.58Y-3.06
X5.58Y-3.12
X5.58Y-3.18
X5.62Y-2.9
X5.64Y-2.76
X5.68Y-2.9
X5.7Y-2.76
X5.74Y-2.56
X5.74Y-2.62
X5.74Y-2.66
X5.74Y-2.72
X5.74Y-2.9
X5.8Y-2.9
X5.86Y-2.9
X5.9Y-2.86
X5.94Y-2.82
X5.98Y-2.54
X5.98Y-2.58
X5.98Y-2.62
X6.0Y-2.66
X6.0Y-4.24
X6.0Y-4.3
X6.0045Y-4.09
X6.02Y-2.82
X6.02Y-4.005
X6.02Y-4.04
X6.06Y-2.66
X6.06Y-4.24
X6.06Y-4.3
X6.1Y-2.82
X6.1Y-4.04
X6.12Y-2.66
X6.132Y-3.928
X6.133Y-3.7688
X6.133Y-3.794
X6.133Y-3.8218
X6.158Y-3.7688
X6.158Y-3.794
X6.158Y-3.8218
X6.16Y-4.04
X6.18Y-2.66
X6.18Y-2.82
X6.183Y-3.7688
X6.183Y-3.794
X6.183Y-3.8218
X6.2398Y-4.09
X6.24Y-2.66
X6.24Y-4.04
X6.26Y-2.82
X6.26Y-4.24
X6.26Y-4.3
X6.296Y-3.744
X6.296Y-3.796
X6.3Y-2.66
X6.32Y-4.24
X6.32Y-4.3
X6.34Y-2.82
X6.36Y-2.66
X6.42Y-2.66
X6.42Y-2.82
X6.48Y-2.66
X6.5Y-2.82
X6.54Y-2.66
X6.58Y-2.82
X6.6Y-2.66
X6.66Y-2.66
X6.66Y-2.82
X6.72Y-2.66
X6.74Y-2.82
X6.78Y-2.66
X6.79Y-4.24
X6.79Y-4.29
X6.7904Y-4.1
X6.82Y-2.82
X6.82Y-4.005
X6.82Y-4.04
X6.84Y-2.66
X6.84Y-4.24
X6.84Y-4.29
X6.9Y-2.66
X6.9Y-2.82
X6.9Y-4.04
X6.93Y-3.9275
X6.931Y-3.7708
X6.931Y-3.796
X6.931Y-3.8238
X6.956Y-3.7708
X6.956Y-3.796
X6.956Y-3.8238
X6.96Y-2.66
X6.96Y-4.04
X6.981Y-3.7708
X6.981Y-3.796
X6.981Y-3.8238
X7.0Y-2.82
X7.02Y-4.04
X7.03Y-4.09
X7.04Y-2.66
X7.06Y-4.24
X7.06Y-4.29
X7.08Y-2.82
X7.092Y-3.746
X7.092Y-3.796
X7.11Y-4.24
X7.11Y-4.29
X7.12Y-2.66
X7.16Y-2.82
X7.2Y-2.66
X7.24Y-2.82
X7.28Y-2.66
X7.32Y-2.82
X7.36Y-2.66
X7.38Y-2.84
X7.44Y-2.66
X7.5Y-2.62
X7.6Y-4.24
X7.6Y-4.29
X7.605Y-4.035
X7.6303Y-4.09
X7.642Y-3.656
X7.65Y-4.24
X7.65Y-4.29
X7.656Y-2.62
X7.668Y-3.7608
X7.668Y-3.786
X7.668Y-3.8138
X7.675Y-4.035
X7.68Y-2.86
X7.692Y-3.656
X7.693Y-3.7608
X7.693Y-3.786
X7.693Y-3.8138
X7.718Y-3.7608
X7.718Y-3.786
X7.718Y-3.8138
X7.72Y-2.72
X7.72Y-2.86
X7.745Y-4.035
X7.75Y-3.19
X7.76Y-2.72
X7.76Y-2.86
X7.815Y-4.035
X7.828Y-3.816
X7.83Y-3.19
X7.84Y-2.86
X7.86Y-2.66
X7.86Y-2.7
X7.86Y-4.09
X7.86Y-4.24
X7.86Y-4.3
X7.892Y-2.802
X7.9Y-2.66
X7.9Y-2.7
X7.9Y-2.86
X7.91Y-3.19
X7.92Y-4.24
X7.92Y-4.3
X7.96Y-2.79
X7.97Y-3.14
X7.97Y-3.19
X8.01Y-3.14
X8.01Y-3.19
X8.03Y-2.79
X8.04Y-3.14
X8.04Y-3.19
T3
X5.8278Y-2.4705
X5.9065Y-2.4705
X5.9852Y-2.4705
T4
X4.686Y-2.5787
X4.686Y-4.1535
X4.7148Y-2.5091
X4.7148Y-2.6483
X4.7148Y-4.0839
X4.7148Y-4.2231
X4.7844Y-2.4803
X4.7844Y-2.6772
X4.7844Y-4.0551
X4.7844Y-4.252
X4.8541Y-2.5091
X4.8541Y-2.6483
X4.8541Y-4.0839
X4.8541Y-4.2231
X4.8829Y-2.5787
X4.8829Y-4.1535
X8.2293Y-2.5787
X8.2293Y-4.1535
X8.2581Y-2.5091
X8.2581Y-2.6483
X8.2581Y-4.0839
X8.2581Y-4.2231
X8.3278Y-2.4803
X8.3278Y-2.6772
X8.3278Y-4.0551
X8.3278Y-4.252
X8.3974Y-2.5091
X8.3974Y-2.6483
X8.3974Y-4.0839
X8.3974Y-4.2231
X8.4262Y-2.5787
X8.4262Y-4.1535
T5
X4.6472Y-2.8858
X4.6472Y-3.3189
X5.3986Y-2.5394
X5.497Y-2.5394
T6
X5.0409Y-3.0039
X5.0409Y-3.2008
T2
G00X5.7431Y-2.4862
M15
G01X5.7431Y-2.4547
M16
G05
G00X6.0699Y-2.4862
M15
G01X6.0699Y-2.4547
M16
G05
T7
G00X4.7844Y-2.5787
M15
G01X4.7845Y-2.5787
M16
G05
G00X4.7844Y-4.1535
M15
G01X4.7845Y-4.1535
M16
G05
G00X8.3277Y-2.5787
M15
G01X8.3279Y-2.5787
M16
G05
G00X8.3277Y-4.1535
M15
G01X8.3279Y-4.1535
M16
G05
M30
