%TF.GenerationSoftware,KiCad,Pcbnew,8.0.8*%
%TF.CreationDate,2025-12-07T22:54:29+08:00*%
%TF.ProjectId,QuietLDO,51756965-744c-4444-9f2e-6b696361645f,rev?*%
%TF.SameCoordinates,Original*%
%TF.FileFunction,Soldermask,Top*%
%TF.FilePolarity,Negative*%
%FSLAX46Y46*%
G04 Gerber Fmt 4.6, Leading zero omitted, Abs format (unit mm)*
G04 Created by KiCad (PCBNEW 8.0.8) date 2025-12-07 22:54:29*
%MOMM*%
%LPD*%
G01*
G04 APERTURE LIST*
%ADD10R,1.800000X1.800000*%
%ADD11C,1.800000*%
%ADD12R,0.600000X1.700000*%
%ADD13R,1.000000X2.800000*%
%ADD14R,0.800000X0.900000*%
%ADD15R,1.410000X1.350000*%
%ADD16R,0.900000X0.800000*%
%ADD17R,0.806500X0.864000*%
%ADD18R,1.350000X1.410000*%
%ADD19R,0.864000X0.806500*%
%ADD20O,0.364000X1.087000*%
%ADD21O,1.087000X0.364000*%
%ADD22R,3.150000X3.150000*%
%ADD23C,2.500000*%
%ADD24C,1.000000*%
%ADD25C,6.500000*%
%ADD26R,2.400000X3.200000*%
%ADD27O,1.252000X0.350000*%
%ADD28R,0.800000X0.800000*%
%ADD29R,1.600000X0.760000*%
%ADD30C,1.524000*%
%ADD31O,1.400000X2.200000*%
G04 APERTURE END LIST*
D10*
%TO.C,CN18*%
X137125000Y-64500000D03*
D11*
X139625000Y-64500000D03*
%TD*%
D12*
%TO.C,CN5*%
X133125000Y-105600000D03*
X134375000Y-105600000D03*
D13*
X131275000Y-108500000D03*
X136225000Y-108500000D03*
%TD*%
D14*
%TO.C,C3*%
X141566250Y-94383625D03*
X142966250Y-94383625D03*
%TD*%
%TO.C,C16*%
X151838500Y-102489000D03*
X150438500Y-102489000D03*
%TD*%
%TO.C,C2*%
X141566250Y-92600000D03*
X142966250Y-92600000D03*
%TD*%
D15*
%TO.C,C33*%
X198175000Y-67550000D03*
X196175000Y-67550000D03*
%TD*%
D16*
%TO.C,C25*%
X191138910Y-91685960D03*
X191138910Y-90285960D03*
%TD*%
D17*
%TO.C,R11*%
X161107000Y-100989000D03*
X162614000Y-100989000D03*
%TD*%
D14*
%TO.C,C1*%
X141566250Y-96167250D03*
X142966250Y-96167250D03*
%TD*%
D18*
%TO.C,C39*%
X191000000Y-70100000D03*
X191000000Y-72100000D03*
%TD*%
D19*
%TO.C,R25*%
X203936600Y-103166400D03*
X203936600Y-104673400D03*
%TD*%
D17*
%TO.C,R12*%
X161107000Y-102539000D03*
X162614000Y-102539000D03*
%TD*%
D19*
%TO.C,R13*%
X159090334Y-101039000D03*
X159090334Y-102546000D03*
%TD*%
D14*
%TO.C,C10*%
X161207000Y-92489000D03*
X162607000Y-92489000D03*
%TD*%
D12*
%TO.C,CN12*%
X199763500Y-105539000D03*
X201013500Y-105539000D03*
D13*
X197913500Y-108439000D03*
X202863500Y-108439000D03*
%TD*%
D17*
%TO.C,R2*%
X141568500Y-99433748D03*
X143075500Y-99433748D03*
%TD*%
D16*
%TO.C,C28*%
X192311535Y-101085960D03*
X192311535Y-102485960D03*
%TD*%
D20*
%TO.C,U4*%
X194088500Y-98757500D03*
X194738500Y-98757500D03*
X195388500Y-98757500D03*
X196038500Y-98757500D03*
X196688500Y-98757500D03*
D21*
X197857000Y-97589000D03*
X197857000Y-96939000D03*
X197857000Y-96289000D03*
X197857000Y-95639000D03*
X197857000Y-94989000D03*
D20*
X196688500Y-93820500D03*
X196038500Y-93820500D03*
X195388500Y-93820500D03*
X194738500Y-93820500D03*
X194088500Y-93820500D03*
D21*
X192920000Y-94989000D03*
X192920000Y-95639000D03*
X192920000Y-96289000D03*
X192920000Y-96939000D03*
X192920000Y-97589000D03*
D22*
X195388500Y-96289000D03*
%TD*%
D12*
%TO.C,CN1*%
X172475000Y-105600000D03*
X173725000Y-105600000D03*
D13*
X170625000Y-108500000D03*
X175575000Y-108500000D03*
%TD*%
D16*
%TO.C,C29*%
X199421035Y-101085960D03*
X199421035Y-102485960D03*
%TD*%
D23*
%TO.C,CN17*%
X128038250Y-76300000D03*
X128038250Y-81300000D03*
D11*
X118038250Y-84300000D03*
X118038250Y-73300000D03*
%TD*%
D18*
%TO.C,C41*%
X193075000Y-70100000D03*
X193075000Y-72100000D03*
%TD*%
D12*
%TO.C,CN14*%
X159263500Y-105589000D03*
X160513500Y-105589000D03*
D13*
X157413500Y-108489000D03*
X162363500Y-108489000D03*
%TD*%
D14*
%TO.C,C18*%
X181200000Y-92600000D03*
X182600000Y-92600000D03*
%TD*%
D16*
%TO.C,C31*%
X197643660Y-101085960D03*
X197643660Y-102485960D03*
%TD*%
D19*
%TO.C,R33*%
X193075000Y-66543000D03*
X193075000Y-68050000D03*
%TD*%
D17*
%TO.C,R35*%
X204075000Y-69950000D03*
X205582000Y-69950000D03*
%TD*%
D19*
%TO.C,R16*%
X154090334Y-101039000D03*
X154090334Y-102546000D03*
%TD*%
D17*
%TO.C,R10*%
X161107000Y-99389000D03*
X162614000Y-99389000D03*
%TD*%
D14*
%TO.C,C8*%
X132618500Y-102600000D03*
X131218500Y-102600000D03*
%TD*%
D19*
%TO.C,R27*%
X166547800Y-105511600D03*
X166547800Y-107018600D03*
%TD*%
D14*
%TO.C,C17*%
X181194250Y-94358625D03*
X182594250Y-94358625D03*
%TD*%
%TO.C,C14*%
X161207000Y-96089000D03*
X162607000Y-96089000D03*
%TD*%
%TO.C,C12*%
X151838500Y-100564000D03*
X150438500Y-100564000D03*
%TD*%
%TO.C,C24*%
X172000000Y-100218500D03*
X170600000Y-100218500D03*
%TD*%
D17*
%TO.C,R34*%
X203775000Y-71850000D03*
X202268000Y-71850000D03*
%TD*%
D14*
%TO.C,C37*%
X205575000Y-68200000D03*
X204175000Y-68200000D03*
%TD*%
D18*
%TO.C,C35*%
X192025000Y-76850000D03*
X192025000Y-74850000D03*
%TD*%
D14*
%TO.C,C20*%
X172000000Y-96418500D03*
X170600000Y-96418500D03*
%TD*%
D24*
%TO.C,hole3*%
X119025000Y-65500000D03*
X119757000Y-63732000D03*
X119757000Y-67268000D03*
X121525000Y-63000000D03*
D25*
X121525000Y-65500000D03*
D24*
X121525000Y-68000000D03*
X123293000Y-63732000D03*
X123293000Y-67268000D03*
X124025000Y-65500000D03*
%TD*%
D19*
%TO.C,R21*%
X179150000Y-100965000D03*
X179150000Y-102472000D03*
%TD*%
D18*
%TO.C,C34*%
X189935000Y-76850000D03*
X189935000Y-74850000D03*
%TD*%
D19*
%TO.C,R24*%
X174250000Y-100965000D03*
X174250000Y-102472000D03*
%TD*%
D24*
%TO.C,hole2*%
X209025000Y-65500000D03*
X209757000Y-63732000D03*
X209757000Y-67268000D03*
X211525000Y-63000000D03*
D25*
X211525000Y-65500000D03*
D24*
X211525000Y-68000000D03*
X213293000Y-63732000D03*
X213293000Y-67268000D03*
X214025000Y-65500000D03*
%TD*%
D17*
%TO.C,R17*%
X181196500Y-97775624D03*
X182703500Y-97775624D03*
%TD*%
D18*
%TO.C,C36*%
X187845000Y-76850000D03*
X187845000Y-74850000D03*
%TD*%
D19*
%TO.C,R8*%
X134635168Y-101100000D03*
X134635168Y-102607000D03*
%TD*%
D14*
%TO.C,C13*%
X151838500Y-98639000D03*
X150438500Y-98639000D03*
%TD*%
D18*
%TO.C,C38*%
X203775000Y-75950000D03*
X203775000Y-73950000D03*
%TD*%
D17*
%TO.C,R1*%
X141568500Y-97850624D03*
X143075500Y-97850624D03*
%TD*%
%TO.C,R3*%
X141568500Y-101016872D03*
X143075500Y-101016872D03*
%TD*%
D19*
%TO.C,R7*%
X136251834Y-101100000D03*
X136251834Y-102607000D03*
%TD*%
D17*
%TO.C,R18*%
X181196500Y-99333748D03*
X182703500Y-99333748D03*
%TD*%
D12*
%TO.C,CN2*%
X192963500Y-105539000D03*
X194213500Y-105539000D03*
D13*
X191113500Y-108439000D03*
X196063500Y-108439000D03*
%TD*%
D17*
%TO.C,R19*%
X181196500Y-100891872D03*
X182703500Y-100891872D03*
%TD*%
D12*
%TO.C,CN6*%
X152513500Y-105589000D03*
X153763500Y-105589000D03*
D13*
X150663500Y-108489000D03*
X155613500Y-108489000D03*
%TD*%
D17*
%TO.C,R4*%
X141568500Y-102600000D03*
X143075500Y-102600000D03*
%TD*%
D14*
%TO.C,C22*%
X181194250Y-96117250D03*
X182594250Y-96117250D03*
%TD*%
D26*
%TO.C,L1*%
X201225000Y-76850000D03*
X195225000Y-76850000D03*
%TD*%
D19*
%TO.C,R15*%
X155757000Y-101039000D03*
X155757000Y-102546000D03*
%TD*%
D14*
%TO.C,C9*%
X161207000Y-94289000D03*
X162607000Y-94289000D03*
%TD*%
D24*
%TO.C,hole4*%
X119025000Y-105500000D03*
X119757000Y-103732000D03*
X119757000Y-107268000D03*
X121525000Y-103000000D03*
D25*
X121525000Y-105500000D03*
D24*
X121525000Y-108000000D03*
X123293000Y-103732000D03*
X123293000Y-107268000D03*
X124025000Y-105500000D03*
%TD*%
D18*
%TO.C,C40*%
X188925000Y-70100000D03*
X188925000Y-72100000D03*
%TD*%
D27*
%TO.C,U5*%
X196973000Y-69900000D03*
X196973000Y-70550000D03*
X196973000Y-71200000D03*
X196973000Y-71850000D03*
X199425000Y-71850000D03*
X199425000Y-71200000D03*
X199425000Y-70550000D03*
X199425000Y-69900000D03*
%TD*%
D19*
%TO.C,R6*%
X137868500Y-101100000D03*
X137868500Y-102607000D03*
%TD*%
D14*
%TO.C,C5*%
X132618500Y-98810000D03*
X131218500Y-98810000D03*
%TD*%
D21*
%TO.C,U3*%
X174181500Y-95150000D03*
X174181500Y-95800000D03*
X174181500Y-96450000D03*
X174181500Y-97100000D03*
X174181500Y-97750000D03*
D20*
X175350000Y-98918500D03*
X176000000Y-98918500D03*
X176650000Y-98918500D03*
X177300000Y-98918500D03*
X177950000Y-98918500D03*
D21*
X179118500Y-97750000D03*
X179118500Y-97100000D03*
X179118500Y-96450000D03*
X179118500Y-95800000D03*
X179118500Y-95150000D03*
D20*
X177950000Y-93981500D03*
X177300000Y-93981500D03*
X176650000Y-93981500D03*
X176000000Y-93981500D03*
X175350000Y-93981500D03*
D22*
X176650000Y-96450000D03*
%TD*%
D19*
%TO.C,R23*%
X175883333Y-100965000D03*
X175883333Y-102472000D03*
%TD*%
%TO.C,R14*%
X157423666Y-101039000D03*
X157423666Y-102546000D03*
%TD*%
D14*
%TO.C,C23*%
X172000000Y-102118500D03*
X170600000Y-102118500D03*
%TD*%
D16*
%TO.C,C30*%
X194738910Y-91685960D03*
X194738910Y-90285960D03*
%TD*%
D28*
%TO.C,LED4*%
X148205750Y-105464950D03*
X148205750Y-107063950D03*
%TD*%
%TO.C,LED2*%
X184498950Y-103835550D03*
X186097950Y-103835550D03*
%TD*%
%TO.C,LED3*%
X168334800Y-105470600D03*
X168334800Y-107069600D03*
%TD*%
D29*
%TO.C,SW2*%
X208238910Y-98785960D03*
X208238910Y-97515960D03*
X208238910Y-96245960D03*
X208238910Y-94975960D03*
X208238910Y-93705960D03*
X208238910Y-92435960D03*
X208238910Y-91165960D03*
X208238910Y-89895960D03*
X200608910Y-98785960D03*
X200608910Y-97515960D03*
X200608910Y-96245960D03*
X200608910Y-94975960D03*
X200608910Y-93705960D03*
X200608910Y-92435960D03*
X200608910Y-91165960D03*
X200608910Y-89895960D03*
%TD*%
D14*
%TO.C,C4*%
X132618500Y-100705000D03*
X131218500Y-100705000D03*
%TD*%
D12*
%TO.C,CN9*%
X139875000Y-105600000D03*
X141125000Y-105600000D03*
D13*
X138025000Y-108500000D03*
X142975000Y-108500000D03*
%TD*%
D14*
%TO.C,C6*%
X132618500Y-96915000D03*
X131218500Y-96915000D03*
%TD*%
D17*
%TO.C,R20*%
X181200000Y-102450000D03*
X182707000Y-102450000D03*
%TD*%
D14*
%TO.C,C7*%
X132618500Y-95020000D03*
X131218500Y-95020000D03*
%TD*%
D21*
%TO.C,U2*%
X153920000Y-95089000D03*
X153920000Y-95739000D03*
X153920000Y-96389000D03*
X153920000Y-97039000D03*
X153920000Y-97689000D03*
D20*
X155088500Y-98857500D03*
X155738500Y-98857500D03*
X156388500Y-98857500D03*
X157038500Y-98857500D03*
X157688500Y-98857500D03*
D21*
X158857000Y-97689000D03*
X158857000Y-97039000D03*
X158857000Y-96389000D03*
X158857000Y-95739000D03*
X158857000Y-95089000D03*
D20*
X157688500Y-93920500D03*
X157038500Y-93920500D03*
X156388500Y-93920500D03*
X155738500Y-93920500D03*
X155088500Y-93920500D03*
D22*
X156388500Y-96389000D03*
%TD*%
D12*
%TO.C,CN11*%
X179375000Y-105600000D03*
X180625000Y-105600000D03*
D13*
X177525000Y-108500000D03*
X182475000Y-108500000D03*
%TD*%
D14*
%TO.C,C11*%
X151838500Y-96714000D03*
X150438500Y-96714000D03*
%TD*%
D19*
%TO.C,R5*%
X139485168Y-101100000D03*
X139485168Y-102607000D03*
%TD*%
D30*
%TO.C,SW1*%
X152025000Y-62750000D03*
X150025000Y-62750000D03*
X148025000Y-62750000D03*
D31*
X145875000Y-62750000D03*
X154175000Y-62750000D03*
%TD*%
D14*
%TO.C,C19*%
X172000000Y-98318500D03*
X170600000Y-98318500D03*
%TD*%
D16*
%TO.C,C26*%
X192938910Y-91685960D03*
X192938910Y-90285960D03*
%TD*%
%TO.C,C32*%
X195866285Y-101085960D03*
X195866285Y-102485960D03*
%TD*%
D19*
%TO.C,R28*%
X146532600Y-105511600D03*
X146532600Y-107018600D03*
%TD*%
%TO.C,R22*%
X177516666Y-100965000D03*
X177516666Y-102472000D03*
%TD*%
D16*
%TO.C,C27*%
X194088910Y-101085960D03*
X194088910Y-102485960D03*
%TD*%
D14*
%TO.C,C15*%
X151838500Y-94789000D03*
X150438500Y-94789000D03*
%TD*%
D24*
%TO.C,hole1*%
X209025000Y-105500000D03*
X209757000Y-103732000D03*
X209757000Y-107268000D03*
X211525000Y-103000000D03*
D25*
X211525000Y-105500000D03*
D24*
X211525000Y-108000000D03*
X213293000Y-103732000D03*
X213293000Y-107268000D03*
X214025000Y-105500000D03*
%TD*%
D17*
%TO.C,R9*%
X161107000Y-97789000D03*
X162614000Y-97789000D03*
%TD*%
D19*
%TO.C,R36*%
X202075000Y-68393000D03*
X202075000Y-69900000D03*
%TD*%
D14*
%TO.C,C21*%
X172000000Y-94518500D03*
X170600000Y-94518500D03*
%TD*%
D28*
%TO.C,LED1*%
X205648950Y-103113750D03*
X205648950Y-104712750D03*
%TD*%
D21*
%TO.C,U1*%
X134731500Y-95150000D03*
X134731500Y-95800000D03*
X134731500Y-96450000D03*
X134731500Y-97100000D03*
X134731500Y-97750000D03*
D20*
X135900000Y-98918500D03*
X136550000Y-98918500D03*
X137200000Y-98918500D03*
X137850000Y-98918500D03*
X138500000Y-98918500D03*
D21*
X139668500Y-97750000D03*
X139668500Y-97100000D03*
X139668500Y-96450000D03*
X139668500Y-95800000D03*
X139668500Y-95150000D03*
D20*
X138500000Y-93981500D03*
X137850000Y-93981500D03*
X137200000Y-93981500D03*
X136550000Y-93981500D03*
X135900000Y-93981500D03*
D22*
X137200000Y-96450000D03*
%TD*%
D17*
%TO.C,R26*%
X184556400Y-105537000D03*
X186063400Y-105537000D03*
%TD*%
M02*
