%TF.GenerationSoftware,KiCad,Pcbnew,8.0.8*%
%TF.CreationDate,2025-12-07T22:54:29+08:00*%
%TF.ProjectId,QuietLDO,51756965-744c-4444-9f2e-6b696361645f,rev?*%
%TF.SameCoordinates,Original*%
%TF.FileFunction,Copper,L2,Bot*%
%TF.FilePolarity,Positive*%
%FSLAX46Y46*%
G04 Gerber Fmt 4.6, Leading zero omitted, Abs format (unit mm)*
G04 Created by KiCad (PCBNEW 8.0.8) date 2025-12-07 22:54:29*
%MOMM*%
%LPD*%
G01*
G04 APERTURE LIST*
%TA.AperFunction,ComponentPad*%
%ADD10R,1.800000X1.800000*%
%TD*%
%TA.AperFunction,ComponentPad*%
%ADD11C,1.800000*%
%TD*%
%TA.AperFunction,ComponentPad*%
%ADD12C,2.500000*%
%TD*%
%TA.AperFunction,ComponentPad*%
%ADD13C,1.000000*%
%TD*%
%TA.AperFunction,ComponentPad*%
%ADD14C,6.500000*%
%TD*%
%TA.AperFunction,ComponentPad*%
%ADD15C,1.524000*%
%TD*%
%TA.AperFunction,ComponentPad*%
%ADD16O,1.400000X2.200000*%
%TD*%
%TA.AperFunction,SMDPad,CuDef*%
%ADD17R,0.600000X1.700000*%
%TD*%
%TA.AperFunction,SMDPad,CuDef*%
%ADD18R,1.000000X2.800000*%
%TD*%
%TA.AperFunction,ViaPad*%
%ADD19C,0.400000*%
%TD*%
%TA.AperFunction,Conductor*%
%ADD20C,0.228600*%
%TD*%
%TA.AperFunction,Conductor*%
%ADD21C,0.508000*%
%TD*%
%TA.AperFunction,Conductor*%
%ADD22C,0.254000*%
%TD*%
G04 APERTURE END LIST*
D10*
%TO.P,CN18,1,1*%
%TO.N,GND*%
X137125000Y-64500000D03*
D11*
%TO.P,CN18,2,2*%
%TO.N,VIN*%
X139625000Y-64500000D03*
%TD*%
D12*
%TO.P,CN17,1,-*%
%TO.N,GND*%
X128038250Y-76300000D03*
%TO.P,CN17,2,+*%
%TO.N,VIN*%
X128038250Y-81300000D03*
D11*
%TO.P,CN17,3,3*%
%TO.N,GND*%
X118038250Y-84300000D03*
%TO.P,CN17,4,4*%
X118038250Y-73300000D03*
%TD*%
D13*
%TO.P,hole3,1,GND*%
%TO.N,GND*%
X119025000Y-65500000D03*
X119757000Y-63732000D03*
X119757000Y-67268000D03*
X121525000Y-63000000D03*
D14*
X121525000Y-65500000D03*
D13*
X121525000Y-68000000D03*
X123293000Y-63732000D03*
X123293000Y-67268000D03*
X124025000Y-65500000D03*
%TD*%
%TO.P,hole2,1,GND*%
%TO.N,GND*%
X209025000Y-65500000D03*
X209757000Y-63732000D03*
X209757000Y-67268000D03*
X211525000Y-63000000D03*
D14*
X211525000Y-65500000D03*
D13*
X211525000Y-68000000D03*
X213293000Y-63732000D03*
X213293000Y-67268000D03*
X214025000Y-65500000D03*
%TD*%
%TO.P,hole4,1,GND*%
%TO.N,GND*%
X119025000Y-105500000D03*
X119757000Y-103732000D03*
X119757000Y-107268000D03*
X121525000Y-103000000D03*
D14*
X121525000Y-105500000D03*
D13*
X121525000Y-108000000D03*
X123293000Y-103732000D03*
X123293000Y-107268000D03*
X124025000Y-105500000D03*
%TD*%
D15*
%TO.P,SW1,1,1*%
%TO.N,unconnected-(SW1-Pad1)*%
X152025000Y-62750000D03*
%TO.P,SW1,2,2*%
%TO.N,VDC*%
X150025000Y-62750000D03*
%TO.P,SW1,3,3*%
%TO.N,VIN*%
X148025000Y-62750000D03*
D16*
%TO.P,SW1,4,4*%
%TO.N,unconnected-(SW1-Pad4)*%
X145875000Y-62750000D03*
%TO.P,SW1,5,5*%
%TO.N,unconnected-(SW1-Pad5)*%
X154175000Y-62750000D03*
%TD*%
D13*
%TO.P,hole1,1,GND*%
%TO.N,GND*%
X209025000Y-105500000D03*
X209757000Y-103732000D03*
X209757000Y-107268000D03*
X211525000Y-103000000D03*
D14*
X211525000Y-105500000D03*
D13*
X211525000Y-108000000D03*
X213293000Y-103732000D03*
X213293000Y-107268000D03*
X214025000Y-105500000D03*
%TD*%
D17*
%TO.P,CN4,1,1*%
%TO.N,GND*%
X153763500Y-105589000D03*
%TO.P,CN4,2,2*%
%TO.N,+3V3*%
X152513500Y-105589000D03*
D18*
%TO.P,CN4,3,3*%
%TO.N,GND*%
X155613500Y-108489000D03*
%TO.P,CN4,4,4*%
X150663500Y-108489000D03*
%TD*%
D17*
%TO.P,CN8,1,1*%
%TO.N,GND*%
X201013500Y-105539000D03*
%TO.P,CN8,2,2*%
%TO.N,VDD*%
X199763500Y-105539000D03*
D18*
%TO.P,CN8,3,3*%
%TO.N,GND*%
X202863500Y-108439000D03*
%TO.P,CN8,4,4*%
X197913500Y-108439000D03*
%TD*%
D17*
%TO.P,CN3,1,1*%
%TO.N,GND*%
X134375000Y-105600000D03*
%TO.P,CN3,2,2*%
%TO.N,+5V*%
X133125000Y-105600000D03*
D18*
%TO.P,CN3,3,3*%
%TO.N,GND*%
X136225000Y-108500000D03*
%TO.P,CN3,4,4*%
X131275000Y-108500000D03*
%TD*%
D17*
%TO.P,CN7,1,1*%
%TO.N,GND*%
X173725000Y-105600000D03*
%TO.P,CN7,2,2*%
%TO.N,+1V8*%
X172475000Y-105600000D03*
D18*
%TO.P,CN7,3,3*%
%TO.N,GND*%
X175575000Y-108500000D03*
%TO.P,CN7,4,4*%
X170625000Y-108500000D03*
%TD*%
D17*
%TO.P,CN15,1,1*%
%TO.N,GND*%
X180625000Y-105600000D03*
%TO.P,CN15,2,2*%
%TO.N,+1V8*%
X179375000Y-105600000D03*
D18*
%TO.P,CN15,3,3*%
%TO.N,GND*%
X182475000Y-108500000D03*
%TO.P,CN15,4,4*%
X177525000Y-108500000D03*
%TD*%
D17*
%TO.P,CN16,1,1*%
%TO.N,GND*%
X194213500Y-105539000D03*
%TO.P,CN16,2,2*%
%TO.N,VDD*%
X192963500Y-105539000D03*
D18*
%TO.P,CN16,3,3*%
%TO.N,GND*%
X196063500Y-108439000D03*
%TO.P,CN16,4,4*%
X191113500Y-108439000D03*
%TD*%
D17*
%TO.P,CN10,1,1*%
%TO.N,GND*%
X160513500Y-105589000D03*
%TO.P,CN10,2,2*%
%TO.N,+3V3*%
X159263500Y-105589000D03*
D18*
%TO.P,CN10,3,3*%
%TO.N,GND*%
X162363500Y-108489000D03*
%TO.P,CN10,4,4*%
X157413500Y-108489000D03*
%TD*%
D17*
%TO.P,CN13,1,1*%
%TO.N,GND*%
X141125000Y-105600000D03*
%TO.P,CN13,2,2*%
%TO.N,+5V*%
X139875000Y-105600000D03*
D18*
%TO.P,CN13,3,3*%
%TO.N,GND*%
X142975000Y-108500000D03*
%TO.P,CN13,4,4*%
X138025000Y-108500000D03*
%TD*%
D19*
%TO.N,GND*%
X173736000Y-67564000D03*
X172466000Y-108966000D03*
X133096000Y-107950000D03*
X177317400Y-96418400D03*
X152908000Y-101727000D03*
X195402200Y-95523200D03*
X176047400Y-95777200D03*
X137868500Y-102607000D03*
X145796000Y-65024000D03*
X163068000Y-67564000D03*
X148844000Y-73660000D03*
X141732000Y-80772000D03*
X137820400Y-95808800D03*
X156972000Y-71628000D03*
X120904000Y-81788000D03*
X193167000Y-102489000D03*
X119888000Y-77724000D03*
X173228000Y-101727000D03*
X161036000Y-71628000D03*
X177317400Y-97123400D03*
X199644000Y-107696000D03*
X137160000Y-83312000D03*
X134112000Y-78740000D03*
X141224000Y-108966000D03*
X152400000Y-109220000D03*
X128016000Y-78740000D03*
X175260000Y-71628000D03*
X153924000Y-67564000D03*
X153924000Y-107696000D03*
X156413200Y-95726400D03*
X172466000Y-107696000D03*
X178308000Y-102616000D03*
X137185400Y-95808800D03*
X180848000Y-67564000D03*
X183896000Y-71628000D03*
X152400000Y-107696000D03*
X131064000Y-83312000D03*
X176784000Y-67564000D03*
X141224000Y-107950000D03*
X200660000Y-68580000D03*
X137668000Y-71628000D03*
X167132000Y-71628000D03*
X180594000Y-108966000D03*
X119888000Y-78740000D03*
X200914000Y-81026000D03*
X181864000Y-71628000D03*
X154940000Y-102616000D03*
X173736000Y-108966000D03*
X126492000Y-83312000D03*
X203962000Y-70866000D03*
X177317400Y-95777200D03*
X140716000Y-81788000D03*
X180594000Y-107696000D03*
X128016000Y-83312000D03*
X169164000Y-71628000D03*
X187452000Y-72136000D03*
X160020000Y-67564000D03*
X155778200Y-97072600D03*
X155448000Y-67564000D03*
X137668000Y-70104000D03*
X152908000Y-71628000D03*
X141732000Y-74676000D03*
X137820400Y-96450000D03*
X134366000Y-107950000D03*
X136550400Y-97155000D03*
X199644000Y-109220000D03*
X156413200Y-97072600D03*
X149860000Y-72644000D03*
X198882000Y-81026000D03*
X160528000Y-107696000D03*
X184912000Y-67564000D03*
X165100000Y-71628000D03*
X134112000Y-83312000D03*
X138684000Y-102616000D03*
X204216000Y-81026000D03*
X176047400Y-96418400D03*
X123952000Y-80772000D03*
X120904000Y-75692000D03*
X172212000Y-67564000D03*
X176682400Y-95777200D03*
X160528000Y-109220000D03*
X121920000Y-81788000D03*
X137668000Y-77724000D03*
X175260000Y-102616000D03*
X177800000Y-71628000D03*
X145796000Y-73660000D03*
X163068000Y-71628000D03*
X136550400Y-95808800D03*
X202438000Y-79756000D03*
X202184000Y-70866000D03*
X167640000Y-67564000D03*
X190500000Y-66548000D03*
X200660000Y-67564000D03*
X193040000Y-107696000D03*
X151892000Y-66548000D03*
X203454000Y-79756000D03*
X134366000Y-108966000D03*
X166116000Y-67564000D03*
X179324000Y-108966000D03*
X164592000Y-67564000D03*
X133731000Y-101727000D03*
X157048200Y-96367600D03*
X135636000Y-78740000D03*
X139700000Y-108966000D03*
X119888000Y-79756000D03*
X121920000Y-77724000D03*
X124968000Y-83312000D03*
X120904000Y-80772000D03*
X139700000Y-82804000D03*
X157048200Y-95726400D03*
X201168000Y-109220000D03*
X196088000Y-72644000D03*
X135636000Y-102616000D03*
X119888000Y-81788000D03*
X144272000Y-73660000D03*
X144780000Y-70104000D03*
X173736000Y-107696000D03*
X199644000Y-68580000D03*
X154940000Y-71628000D03*
X204216000Y-79756000D03*
X147320000Y-73660000D03*
X137668000Y-76200000D03*
X142748000Y-73660000D03*
X136251834Y-102607000D03*
X137668000Y-73152000D03*
X136550400Y-96450000D03*
X153924000Y-109220000D03*
X137160000Y-78740000D03*
X145796000Y-69088000D03*
X121920000Y-79756000D03*
X176022000Y-99758550D03*
X141732000Y-76200000D03*
X186944000Y-67564000D03*
X194945000Y-102489000D03*
X158496000Y-102616000D03*
X141732000Y-79248000D03*
X123952000Y-79248000D03*
X156413200Y-96367600D03*
X196037200Y-96164400D03*
X152400000Y-67564000D03*
X201168000Y-107696000D03*
X158496000Y-67564000D03*
X139700000Y-107950000D03*
X176682400Y-96418400D03*
X131064000Y-78740000D03*
X157048200Y-97072600D03*
X129540000Y-78740000D03*
X126492000Y-78740000D03*
X132588000Y-83312000D03*
X179324000Y-107696000D03*
X137820400Y-97155000D03*
X121920000Y-75692000D03*
X176047400Y-97123400D03*
X141732000Y-77724000D03*
X195402200Y-96164400D03*
X124968000Y-78740000D03*
X173228000Y-71628000D03*
X119888000Y-75692000D03*
X194767200Y-96869400D03*
X198831200Y-96926400D03*
X159004000Y-107696000D03*
X194310000Y-108966000D03*
X159004000Y-71628000D03*
X137668000Y-67056000D03*
X176682400Y-97123400D03*
X145796000Y-66548000D03*
X179832000Y-71628000D03*
X171196000Y-71628000D03*
X196850000Y-81026000D03*
X119888000Y-80772000D03*
X155778200Y-95726400D03*
X150876000Y-71628000D03*
X155778200Y-96367600D03*
X141732000Y-69596000D03*
X182880000Y-67564000D03*
X196037200Y-95523200D03*
X199136000Y-72644000D03*
X151892000Y-64516000D03*
X143256000Y-70104000D03*
X193040000Y-108966000D03*
X136550400Y-99771200D03*
X194767200Y-95523200D03*
X175260000Y-67564000D03*
X196088000Y-69088000D03*
X137668000Y-74676000D03*
X196723000Y-102489000D03*
X123952000Y-82296000D03*
X169164000Y-67564000D03*
X121920000Y-80772000D03*
X199644000Y-67564000D03*
X120904000Y-78740000D03*
X203454000Y-81026000D03*
X188976000Y-67564000D03*
X152908000Y-102616000D03*
X137185400Y-96450000D03*
X195402200Y-96869400D03*
X129540000Y-83312000D03*
X137160000Y-102616000D03*
X198501000Y-102489000D03*
X119888000Y-76708000D03*
X120904000Y-79756000D03*
X121920000Y-76708000D03*
X138684000Y-83312000D03*
X133096000Y-108966000D03*
X120904000Y-76708000D03*
X156464000Y-102616000D03*
X170688000Y-67564000D03*
X194767200Y-96164400D03*
X173228000Y-102616000D03*
X132588000Y-78740000D03*
X196037200Y-96869400D03*
X156972000Y-67564000D03*
X121920000Y-78740000D03*
X197104000Y-72644000D03*
X178816000Y-67564000D03*
X197104000Y-69088000D03*
X145796000Y-67564000D03*
X195072000Y-72644000D03*
X137668000Y-68580000D03*
X155752800Y-99771200D03*
X151892000Y-65532000D03*
X161544000Y-67564000D03*
X176784000Y-102616000D03*
X194310000Y-107696000D03*
X202438000Y-81026000D03*
X137185400Y-97155000D03*
X135636000Y-83312000D03*
X159004000Y-109220000D03*
X185928000Y-71628000D03*
X120904000Y-77724000D03*
X200660000Y-72644000D03*
%TO.N,VCC*%
X194106800Y-92862400D03*
X140563600Y-96418400D03*
X195376800Y-92862400D03*
X159918400Y-96418400D03*
X140563600Y-95148400D03*
X159918400Y-95097600D03*
X180136800Y-96418400D03*
X180136800Y-95148400D03*
%TO.N,+5V*%
X139700000Y-103886000D03*
X132998000Y-103476000D03*
%TO.N,+3V3*%
X158490500Y-103886000D03*
X152513500Y-103886000D03*
%TO.N,+1V8*%
X178562000Y-103886000D03*
X172475000Y-104140000D03*
%TO.N,VDD*%
X199644000Y-103886000D03*
X193808500Y-103886000D03*
%TO.N,Net-(U5-EN)*%
X200456800Y-71170800D03*
X194462400Y-66548000D03*
%TD*%
D20*
%TO.N,VCC*%
X140563600Y-96418400D02*
X140563600Y-95148400D01*
X159918400Y-96418400D02*
X159918400Y-95097600D01*
X180136800Y-96418400D02*
X180136800Y-95148400D01*
X195376800Y-92862400D02*
X194106800Y-92862400D01*
D21*
%TO.N,+5V*%
X139700000Y-103886000D02*
X139875000Y-104061000D01*
X139875000Y-104061000D02*
X139875000Y-105600000D01*
X133125000Y-103603000D02*
X133125000Y-105600000D01*
X132998000Y-103476000D02*
X133125000Y-103603000D01*
%TO.N,+3V3*%
X158490500Y-103886000D02*
X159004000Y-103886000D01*
X159263500Y-104145500D02*
X159263500Y-105589000D01*
X152513500Y-103886000D02*
X152513500Y-105589000D01*
X159004000Y-103886000D02*
X159263500Y-104145500D01*
%TO.N,+1V8*%
X172475000Y-104140000D02*
X172475000Y-105600000D01*
X178562000Y-103886000D02*
X179070000Y-103886000D01*
X179375000Y-104191000D02*
X179375000Y-105600000D01*
X179070000Y-103886000D02*
X179375000Y-104191000D01*
%TO.N,VDD*%
X193548000Y-103886000D02*
X192963500Y-104470500D01*
X192963500Y-104470500D02*
X192963500Y-105539000D01*
X199763500Y-104005500D02*
X199763500Y-105539000D01*
X193808500Y-103886000D02*
X193548000Y-103886000D01*
X199644000Y-103886000D02*
X199763500Y-104005500D01*
D22*
%TO.N,Net-(U5-EN)*%
X200456800Y-71170800D02*
X200406000Y-71221600D01*
X194716400Y-71221600D02*
X194462400Y-70967600D01*
X194462400Y-70967600D02*
X194462400Y-66548000D01*
X200406000Y-71221600D02*
X194716400Y-71221600D01*
%TD*%
%TA.AperFunction,Conductor*%
%TO.N,GND*%
G36*
X120594210Y-107746000D02*
G01*
X121094297Y-107746000D01*
X121059075Y-107807007D01*
X121025000Y-107934174D01*
X121025000Y-108065826D01*
X121059075Y-108192993D01*
X121094297Y-108254000D01*
X120435980Y-108254000D01*
X120367859Y-108233998D01*
X120346885Y-108217095D01*
X119881947Y-107752157D01*
X119949993Y-107733925D01*
X120064007Y-107668099D01*
X120157099Y-107575007D01*
X120222925Y-107460993D01*
X120241158Y-107392947D01*
X120594210Y-107746000D01*
G37*
%TD.AperFunction*%
%TA.AperFunction,Conductor*%
G36*
X122827075Y-107460993D02*
G01*
X122892901Y-107575007D01*
X122985993Y-107668099D01*
X123100007Y-107733925D01*
X123168052Y-107752157D01*
X122703115Y-108217095D01*
X122640803Y-108251121D01*
X122614020Y-108254000D01*
X121955703Y-108254000D01*
X121990925Y-108192993D01*
X122025000Y-108065826D01*
X122025000Y-107934174D01*
X121990925Y-107807007D01*
X121955703Y-107746000D01*
X122455789Y-107746000D01*
X122808841Y-107392947D01*
X122827075Y-107460993D01*
G37*
%TD.AperFunction*%
%TA.AperFunction,Conductor*%
G36*
X121779000Y-107569297D02*
G01*
X121717993Y-107534075D01*
X121590826Y-107500000D01*
X121459174Y-107500000D01*
X121332007Y-107534075D01*
X121271000Y-107569297D01*
X121271000Y-107067454D01*
X121397561Y-107087500D01*
X121652439Y-107087500D01*
X121779000Y-107067454D01*
X121779000Y-107569297D01*
G37*
%TD.AperFunction*%
%TA.AperFunction,Conductor*%
G36*
X119279000Y-106430789D02*
G01*
X119632052Y-106783841D01*
X119564007Y-106802075D01*
X119449993Y-106867901D01*
X119356901Y-106960993D01*
X119291075Y-107075007D01*
X119272842Y-107143052D01*
X118807905Y-106678115D01*
X118773879Y-106615803D01*
X118771000Y-106589020D01*
X118771000Y-105930702D01*
X118832007Y-105965925D01*
X118959174Y-106000000D01*
X119090826Y-106000000D01*
X119217993Y-105965925D01*
X119279000Y-105930702D01*
X119279000Y-106430789D01*
G37*
%TD.AperFunction*%
%TA.AperFunction,Conductor*%
G36*
X124279000Y-106589020D02*
G01*
X124258998Y-106657141D01*
X124242095Y-106678115D01*
X123777157Y-107143052D01*
X123758925Y-107075007D01*
X123693099Y-106960993D01*
X123600007Y-106867901D01*
X123485993Y-106802075D01*
X123417947Y-106783841D01*
X123771000Y-106430789D01*
X123771000Y-105930702D01*
X123832007Y-105965925D01*
X123959174Y-106000000D01*
X124090826Y-106000000D01*
X124217993Y-105965925D01*
X124279000Y-105930702D01*
X124279000Y-106589020D01*
G37*
%TD.AperFunction*%
%TA.AperFunction,Conductor*%
G36*
X119935000Y-105375061D02*
G01*
X119935000Y-105624939D01*
X119955441Y-105754000D01*
X119455703Y-105754000D01*
X119490925Y-105692993D01*
X119525000Y-105565826D01*
X119525000Y-105434174D01*
X119490925Y-105307007D01*
X119455703Y-105246000D01*
X119955441Y-105246000D01*
X119935000Y-105375061D01*
G37*
%TD.AperFunction*%
%TA.AperFunction,Conductor*%
G36*
X123559075Y-105307007D02*
G01*
X123525000Y-105434174D01*
X123525000Y-105565826D01*
X123559075Y-105692993D01*
X123594297Y-105754000D01*
X123094559Y-105754000D01*
X123115000Y-105624939D01*
X123115000Y-105375061D01*
X123094559Y-105246000D01*
X123594297Y-105246000D01*
X123559075Y-105307007D01*
G37*
%TD.AperFunction*%
%TA.AperFunction,Conductor*%
G36*
X119291075Y-103924993D02*
G01*
X119356901Y-104039007D01*
X119449993Y-104132099D01*
X119564007Y-104197925D01*
X119632052Y-104216158D01*
X119279000Y-104569210D01*
X119279000Y-105069297D01*
X119217993Y-105034075D01*
X119090826Y-105000000D01*
X118959174Y-105000000D01*
X118832007Y-105034075D01*
X118771000Y-105069297D01*
X118771000Y-104410980D01*
X118791002Y-104342859D01*
X118807905Y-104321885D01*
X119272842Y-103856947D01*
X119291075Y-103924993D01*
G37*
%TD.AperFunction*%
%TA.AperFunction,Conductor*%
G36*
X124242095Y-104321885D02*
G01*
X124276121Y-104384197D01*
X124279000Y-104410980D01*
X124279000Y-105069297D01*
X124217993Y-105034075D01*
X124090826Y-105000000D01*
X123959174Y-105000000D01*
X123832007Y-105034075D01*
X123771000Y-105069297D01*
X123771000Y-104569210D01*
X123417947Y-104216158D01*
X123485993Y-104197925D01*
X123600007Y-104132099D01*
X123693099Y-104039007D01*
X123758925Y-103924993D01*
X123777157Y-103856947D01*
X124242095Y-104321885D01*
G37*
%TD.AperFunction*%
%TA.AperFunction,Conductor*%
G36*
X121779000Y-103932545D02*
G01*
X121652439Y-103912500D01*
X121397561Y-103912500D01*
X121271000Y-103932545D01*
X121271000Y-103430702D01*
X121332007Y-103465925D01*
X121459174Y-103500000D01*
X121590826Y-103500000D01*
X121717993Y-103465925D01*
X121779000Y-103430702D01*
X121779000Y-103932545D01*
G37*
%TD.AperFunction*%
%TA.AperFunction,Conductor*%
G36*
X121059075Y-102807007D02*
G01*
X121025000Y-102934174D01*
X121025000Y-103065826D01*
X121059075Y-103192993D01*
X121094297Y-103254000D01*
X120594210Y-103254000D01*
X120241158Y-103607052D01*
X120222925Y-103539007D01*
X120157099Y-103424993D01*
X120064007Y-103331901D01*
X119949993Y-103266075D01*
X119881947Y-103247842D01*
X120346885Y-102782905D01*
X120409197Y-102748879D01*
X120435980Y-102746000D01*
X121094297Y-102746000D01*
X121059075Y-102807007D01*
G37*
%TD.AperFunction*%
%TA.AperFunction,Conductor*%
G36*
X122682141Y-102766002D02*
G01*
X122703115Y-102782905D01*
X123168052Y-103247842D01*
X123100007Y-103266075D01*
X122985993Y-103331901D01*
X122892901Y-103424993D01*
X122827075Y-103539007D01*
X122808841Y-103607052D01*
X122455790Y-103254000D01*
X121955703Y-103254000D01*
X121990925Y-103192993D01*
X122025000Y-103065826D01*
X122025000Y-102934174D01*
X121990925Y-102807007D01*
X121955703Y-102746000D01*
X122614020Y-102746000D01*
X122682141Y-102766002D01*
G37*
%TD.AperFunction*%
%TA.AperFunction,Conductor*%
G36*
X210594210Y-107746000D02*
G01*
X211094297Y-107746000D01*
X211059075Y-107807007D01*
X211025000Y-107934174D01*
X211025000Y-108065826D01*
X211059075Y-108192993D01*
X211094297Y-108254000D01*
X210435980Y-108254000D01*
X210367859Y-108233998D01*
X210346885Y-108217095D01*
X209881947Y-107752157D01*
X209949993Y-107733925D01*
X210064007Y-107668099D01*
X210157099Y-107575007D01*
X210222925Y-107460993D01*
X210241158Y-107392947D01*
X210594210Y-107746000D01*
G37*
%TD.AperFunction*%
%TA.AperFunction,Conductor*%
G36*
X212827075Y-107460993D02*
G01*
X212892901Y-107575007D01*
X212985993Y-107668099D01*
X213100007Y-107733925D01*
X213168052Y-107752157D01*
X212703115Y-108217095D01*
X212640803Y-108251121D01*
X212614020Y-108254000D01*
X211955703Y-108254000D01*
X211990925Y-108192993D01*
X212025000Y-108065826D01*
X212025000Y-107934174D01*
X211990925Y-107807007D01*
X211955703Y-107746000D01*
X212455789Y-107746000D01*
X212808841Y-107392947D01*
X212827075Y-107460993D01*
G37*
%TD.AperFunction*%
%TA.AperFunction,Conductor*%
G36*
X211779000Y-107569297D02*
G01*
X211717993Y-107534075D01*
X211590826Y-107500000D01*
X211459174Y-107500000D01*
X211332007Y-107534075D01*
X211271000Y-107569297D01*
X211271000Y-107067454D01*
X211397561Y-107087500D01*
X211652439Y-107087500D01*
X211779000Y-107067454D01*
X211779000Y-107569297D01*
G37*
%TD.AperFunction*%
%TA.AperFunction,Conductor*%
G36*
X209279000Y-106430789D02*
G01*
X209632052Y-106783841D01*
X209564007Y-106802075D01*
X209449993Y-106867901D01*
X209356901Y-106960993D01*
X209291075Y-107075007D01*
X209272842Y-107143052D01*
X208807905Y-106678115D01*
X208773879Y-106615803D01*
X208771000Y-106589020D01*
X208771000Y-105930702D01*
X208832007Y-105965925D01*
X208959174Y-106000000D01*
X209090826Y-106000000D01*
X209217993Y-105965925D01*
X209279000Y-105930702D01*
X209279000Y-106430789D01*
G37*
%TD.AperFunction*%
%TA.AperFunction,Conductor*%
G36*
X214279000Y-106589020D02*
G01*
X214258998Y-106657141D01*
X214242095Y-106678115D01*
X213777157Y-107143052D01*
X213758925Y-107075007D01*
X213693099Y-106960993D01*
X213600007Y-106867901D01*
X213485993Y-106802075D01*
X213417947Y-106783841D01*
X213771000Y-106430789D01*
X213771000Y-105930702D01*
X213832007Y-105965925D01*
X213959174Y-106000000D01*
X214090826Y-106000000D01*
X214217993Y-105965925D01*
X214279000Y-105930702D01*
X214279000Y-106589020D01*
G37*
%TD.AperFunction*%
%TA.AperFunction,Conductor*%
G36*
X209935000Y-105375061D02*
G01*
X209935000Y-105624939D01*
X209955441Y-105754000D01*
X209455703Y-105754000D01*
X209490925Y-105692993D01*
X209525000Y-105565826D01*
X209525000Y-105434174D01*
X209490925Y-105307007D01*
X209455703Y-105246000D01*
X209955441Y-105246000D01*
X209935000Y-105375061D01*
G37*
%TD.AperFunction*%
%TA.AperFunction,Conductor*%
G36*
X213559075Y-105307007D02*
G01*
X213525000Y-105434174D01*
X213525000Y-105565826D01*
X213559075Y-105692993D01*
X213594297Y-105754000D01*
X213094559Y-105754000D01*
X213115000Y-105624939D01*
X213115000Y-105375061D01*
X213094559Y-105246000D01*
X213594297Y-105246000D01*
X213559075Y-105307007D01*
G37*
%TD.AperFunction*%
%TA.AperFunction,Conductor*%
G36*
X209291075Y-103924993D02*
G01*
X209356901Y-104039007D01*
X209449993Y-104132099D01*
X209564007Y-104197925D01*
X209632052Y-104216158D01*
X209279000Y-104569210D01*
X209279000Y-105069297D01*
X209217993Y-105034075D01*
X209090826Y-105000000D01*
X208959174Y-105000000D01*
X208832007Y-105034075D01*
X208771000Y-105069297D01*
X208771000Y-104410980D01*
X208791002Y-104342859D01*
X208807905Y-104321885D01*
X209272842Y-103856947D01*
X209291075Y-103924993D01*
G37*
%TD.AperFunction*%
%TA.AperFunction,Conductor*%
G36*
X214242095Y-104321885D02*
G01*
X214276121Y-104384197D01*
X214279000Y-104410980D01*
X214279000Y-105069297D01*
X214217993Y-105034075D01*
X214090826Y-105000000D01*
X213959174Y-105000000D01*
X213832007Y-105034075D01*
X213771000Y-105069297D01*
X213771000Y-104569210D01*
X213417947Y-104216158D01*
X213485993Y-104197925D01*
X213600007Y-104132099D01*
X213693099Y-104039007D01*
X213758925Y-103924993D01*
X213777157Y-103856947D01*
X214242095Y-104321885D01*
G37*
%TD.AperFunction*%
%TA.AperFunction,Conductor*%
G36*
X211779000Y-103932545D02*
G01*
X211652439Y-103912500D01*
X211397561Y-103912500D01*
X211271000Y-103932545D01*
X211271000Y-103430702D01*
X211332007Y-103465925D01*
X211459174Y-103500000D01*
X211590826Y-103500000D01*
X211717993Y-103465925D01*
X211779000Y-103430702D01*
X211779000Y-103932545D01*
G37*
%TD.AperFunction*%
%TA.AperFunction,Conductor*%
G36*
X211059075Y-102807007D02*
G01*
X211025000Y-102934174D01*
X211025000Y-103065826D01*
X211059075Y-103192993D01*
X211094297Y-103254000D01*
X210594210Y-103254000D01*
X210241158Y-103607052D01*
X210222925Y-103539007D01*
X210157099Y-103424993D01*
X210064007Y-103331901D01*
X209949993Y-103266075D01*
X209881947Y-103247842D01*
X210346885Y-102782905D01*
X210409197Y-102748879D01*
X210435980Y-102746000D01*
X211094297Y-102746000D01*
X211059075Y-102807007D01*
G37*
%TD.AperFunction*%
%TA.AperFunction,Conductor*%
G36*
X212682141Y-102766002D02*
G01*
X212703115Y-102782905D01*
X213168052Y-103247842D01*
X213100007Y-103266075D01*
X212985993Y-103331901D01*
X212892901Y-103424993D01*
X212827075Y-103539007D01*
X212808841Y-103607052D01*
X212455790Y-103254000D01*
X211955703Y-103254000D01*
X211990925Y-103192993D01*
X212025000Y-103065826D01*
X212025000Y-102934174D01*
X211990925Y-102807007D01*
X211955703Y-102746000D01*
X212614020Y-102746000D01*
X212682141Y-102766002D01*
G37*
%TD.AperFunction*%
%TA.AperFunction,Conductor*%
G36*
X120594210Y-67746000D02*
G01*
X121094297Y-67746000D01*
X121059075Y-67807007D01*
X121025000Y-67934174D01*
X121025000Y-68065826D01*
X121059075Y-68192993D01*
X121094297Y-68254000D01*
X120435980Y-68254000D01*
X120367859Y-68233998D01*
X120346885Y-68217095D01*
X119881947Y-67752157D01*
X119949993Y-67733925D01*
X120064007Y-67668099D01*
X120157099Y-67575007D01*
X120222925Y-67460993D01*
X120241158Y-67392947D01*
X120594210Y-67746000D01*
G37*
%TD.AperFunction*%
%TA.AperFunction,Conductor*%
G36*
X122827075Y-67460993D02*
G01*
X122892901Y-67575007D01*
X122985993Y-67668099D01*
X123100007Y-67733925D01*
X123168052Y-67752157D01*
X122703115Y-68217095D01*
X122640803Y-68251121D01*
X122614020Y-68254000D01*
X121955703Y-68254000D01*
X121990925Y-68192993D01*
X122025000Y-68065826D01*
X122025000Y-67934174D01*
X121990925Y-67807007D01*
X121955703Y-67746000D01*
X122455789Y-67746000D01*
X122808841Y-67392947D01*
X122827075Y-67460993D01*
G37*
%TD.AperFunction*%
%TA.AperFunction,Conductor*%
G36*
X121779000Y-67569297D02*
G01*
X121717993Y-67534075D01*
X121590826Y-67500000D01*
X121459174Y-67500000D01*
X121332007Y-67534075D01*
X121271000Y-67569297D01*
X121271000Y-67067454D01*
X121397561Y-67087500D01*
X121652439Y-67087500D01*
X121779000Y-67067454D01*
X121779000Y-67569297D01*
G37*
%TD.AperFunction*%
%TA.AperFunction,Conductor*%
G36*
X119279000Y-66430789D02*
G01*
X119632052Y-66783841D01*
X119564007Y-66802075D01*
X119449993Y-66867901D01*
X119356901Y-66960993D01*
X119291075Y-67075007D01*
X119272842Y-67143052D01*
X118807905Y-66678115D01*
X118773879Y-66615803D01*
X118771000Y-66589020D01*
X118771000Y-65930702D01*
X118832007Y-65965925D01*
X118959174Y-66000000D01*
X119090826Y-66000000D01*
X119217993Y-65965925D01*
X119279000Y-65930702D01*
X119279000Y-66430789D01*
G37*
%TD.AperFunction*%
%TA.AperFunction,Conductor*%
G36*
X124279000Y-66589020D02*
G01*
X124258998Y-66657141D01*
X124242095Y-66678115D01*
X123777157Y-67143052D01*
X123758925Y-67075007D01*
X123693099Y-66960993D01*
X123600007Y-66867901D01*
X123485993Y-66802075D01*
X123417947Y-66783841D01*
X123771000Y-66430789D01*
X123771000Y-65930702D01*
X123832007Y-65965925D01*
X123959174Y-66000000D01*
X124090826Y-66000000D01*
X124217993Y-65965925D01*
X124279000Y-65930702D01*
X124279000Y-66589020D01*
G37*
%TD.AperFunction*%
%TA.AperFunction,Conductor*%
G36*
X119935000Y-65375061D02*
G01*
X119935000Y-65624939D01*
X119955441Y-65754000D01*
X119455703Y-65754000D01*
X119490925Y-65692993D01*
X119525000Y-65565826D01*
X119525000Y-65434174D01*
X119490925Y-65307007D01*
X119455703Y-65246000D01*
X119955441Y-65246000D01*
X119935000Y-65375061D01*
G37*
%TD.AperFunction*%
%TA.AperFunction,Conductor*%
G36*
X123559075Y-65307007D02*
G01*
X123525000Y-65434174D01*
X123525000Y-65565826D01*
X123559075Y-65692993D01*
X123594297Y-65754000D01*
X123094559Y-65754000D01*
X123115000Y-65624939D01*
X123115000Y-65375061D01*
X123094559Y-65246000D01*
X123594297Y-65246000D01*
X123559075Y-65307007D01*
G37*
%TD.AperFunction*%
%TA.AperFunction,Conductor*%
G36*
X119291075Y-63924993D02*
G01*
X119356901Y-64039007D01*
X119449993Y-64132099D01*
X119564007Y-64197925D01*
X119632052Y-64216158D01*
X119279000Y-64569210D01*
X119279000Y-65069297D01*
X119217993Y-65034075D01*
X119090826Y-65000000D01*
X118959174Y-65000000D01*
X118832007Y-65034075D01*
X118771000Y-65069297D01*
X118771000Y-64410980D01*
X118791002Y-64342859D01*
X118807905Y-64321885D01*
X119272842Y-63856947D01*
X119291075Y-63924993D01*
G37*
%TD.AperFunction*%
%TA.AperFunction,Conductor*%
G36*
X124242095Y-64321885D02*
G01*
X124276121Y-64384197D01*
X124279000Y-64410980D01*
X124279000Y-65069297D01*
X124217993Y-65034075D01*
X124090826Y-65000000D01*
X123959174Y-65000000D01*
X123832007Y-65034075D01*
X123771000Y-65069297D01*
X123771000Y-64569210D01*
X123417947Y-64216158D01*
X123485993Y-64197925D01*
X123600007Y-64132099D01*
X123693099Y-64039007D01*
X123758925Y-63924993D01*
X123777157Y-63856947D01*
X124242095Y-64321885D01*
G37*
%TD.AperFunction*%
%TA.AperFunction,Conductor*%
G36*
X121779000Y-63932545D02*
G01*
X121652439Y-63912500D01*
X121397561Y-63912500D01*
X121271000Y-63932545D01*
X121271000Y-63430702D01*
X121332007Y-63465925D01*
X121459174Y-63500000D01*
X121590826Y-63500000D01*
X121717993Y-63465925D01*
X121779000Y-63430702D01*
X121779000Y-63932545D01*
G37*
%TD.AperFunction*%
%TA.AperFunction,Conductor*%
G36*
X121059075Y-62807007D02*
G01*
X121025000Y-62934174D01*
X121025000Y-63065826D01*
X121059075Y-63192993D01*
X121094297Y-63254000D01*
X120594210Y-63254000D01*
X120241158Y-63607052D01*
X120222925Y-63539007D01*
X120157099Y-63424993D01*
X120064007Y-63331901D01*
X119949993Y-63266075D01*
X119881947Y-63247842D01*
X120346885Y-62782905D01*
X120409197Y-62748879D01*
X120435980Y-62746000D01*
X121094297Y-62746000D01*
X121059075Y-62807007D01*
G37*
%TD.AperFunction*%
%TA.AperFunction,Conductor*%
G36*
X122682141Y-62766002D02*
G01*
X122703115Y-62782905D01*
X123168052Y-63247842D01*
X123100007Y-63266075D01*
X122985993Y-63331901D01*
X122892901Y-63424993D01*
X122827075Y-63539007D01*
X122808841Y-63607052D01*
X122455790Y-63254000D01*
X121955703Y-63254000D01*
X121990925Y-63192993D01*
X122025000Y-63065826D01*
X122025000Y-62934174D01*
X121990925Y-62807007D01*
X121955703Y-62746000D01*
X122614020Y-62746000D01*
X122682141Y-62766002D01*
G37*
%TD.AperFunction*%
%TA.AperFunction,Conductor*%
G36*
X210594210Y-67746000D02*
G01*
X211094297Y-67746000D01*
X211059075Y-67807007D01*
X211025000Y-67934174D01*
X211025000Y-68065826D01*
X211059075Y-68192993D01*
X211094297Y-68254000D01*
X210435980Y-68254000D01*
X210367859Y-68233998D01*
X210346885Y-68217095D01*
X209881947Y-67752157D01*
X209949993Y-67733925D01*
X210064007Y-67668099D01*
X210157099Y-67575007D01*
X210222925Y-67460993D01*
X210241158Y-67392947D01*
X210594210Y-67746000D01*
G37*
%TD.AperFunction*%
%TA.AperFunction,Conductor*%
G36*
X212827075Y-67460993D02*
G01*
X212892901Y-67575007D01*
X212985993Y-67668099D01*
X213100007Y-67733925D01*
X213168052Y-67752157D01*
X212703115Y-68217095D01*
X212640803Y-68251121D01*
X212614020Y-68254000D01*
X211955703Y-68254000D01*
X211990925Y-68192993D01*
X212025000Y-68065826D01*
X212025000Y-67934174D01*
X211990925Y-67807007D01*
X211955703Y-67746000D01*
X212455789Y-67746000D01*
X212808841Y-67392947D01*
X212827075Y-67460993D01*
G37*
%TD.AperFunction*%
%TA.AperFunction,Conductor*%
G36*
X211779000Y-67569297D02*
G01*
X211717993Y-67534075D01*
X211590826Y-67500000D01*
X211459174Y-67500000D01*
X211332007Y-67534075D01*
X211271000Y-67569297D01*
X211271000Y-67067454D01*
X211397561Y-67087500D01*
X211652439Y-67087500D01*
X211779000Y-67067454D01*
X211779000Y-67569297D01*
G37*
%TD.AperFunction*%
%TA.AperFunction,Conductor*%
G36*
X209279000Y-66430789D02*
G01*
X209632052Y-66783841D01*
X209564007Y-66802075D01*
X209449993Y-66867901D01*
X209356901Y-66960993D01*
X209291075Y-67075007D01*
X209272842Y-67143052D01*
X208807905Y-66678115D01*
X208773879Y-66615803D01*
X208771000Y-66589020D01*
X208771000Y-65930702D01*
X208832007Y-65965925D01*
X208959174Y-66000000D01*
X209090826Y-66000000D01*
X209217993Y-65965925D01*
X209279000Y-65930702D01*
X209279000Y-66430789D01*
G37*
%TD.AperFunction*%
%TA.AperFunction,Conductor*%
G36*
X214279000Y-66589020D02*
G01*
X214258998Y-66657141D01*
X214242095Y-66678115D01*
X213777157Y-67143052D01*
X213758925Y-67075007D01*
X213693099Y-66960993D01*
X213600007Y-66867901D01*
X213485993Y-66802075D01*
X213417947Y-66783841D01*
X213771000Y-66430789D01*
X213771000Y-65930702D01*
X213832007Y-65965925D01*
X213959174Y-66000000D01*
X214090826Y-66000000D01*
X214217993Y-65965925D01*
X214279000Y-65930702D01*
X214279000Y-66589020D01*
G37*
%TD.AperFunction*%
%TA.AperFunction,Conductor*%
G36*
X209935000Y-65375061D02*
G01*
X209935000Y-65624939D01*
X209955441Y-65754000D01*
X209455703Y-65754000D01*
X209490925Y-65692993D01*
X209525000Y-65565826D01*
X209525000Y-65434174D01*
X209490925Y-65307007D01*
X209455703Y-65246000D01*
X209955441Y-65246000D01*
X209935000Y-65375061D01*
G37*
%TD.AperFunction*%
%TA.AperFunction,Conductor*%
G36*
X213559075Y-65307007D02*
G01*
X213525000Y-65434174D01*
X213525000Y-65565826D01*
X213559075Y-65692993D01*
X213594297Y-65754000D01*
X213094559Y-65754000D01*
X213115000Y-65624939D01*
X213115000Y-65375061D01*
X213094559Y-65246000D01*
X213594297Y-65246000D01*
X213559075Y-65307007D01*
G37*
%TD.AperFunction*%
%TA.AperFunction,Conductor*%
G36*
X209291075Y-63924993D02*
G01*
X209356901Y-64039007D01*
X209449993Y-64132099D01*
X209564007Y-64197925D01*
X209632052Y-64216158D01*
X209279000Y-64569210D01*
X209279000Y-65069297D01*
X209217993Y-65034075D01*
X209090826Y-65000000D01*
X208959174Y-65000000D01*
X208832007Y-65034075D01*
X208771000Y-65069297D01*
X208771000Y-64410980D01*
X208791002Y-64342859D01*
X208807905Y-64321885D01*
X209272842Y-63856947D01*
X209291075Y-63924993D01*
G37*
%TD.AperFunction*%
%TA.AperFunction,Conductor*%
G36*
X214242095Y-64321885D02*
G01*
X214276121Y-64384197D01*
X214279000Y-64410980D01*
X214279000Y-65069297D01*
X214217993Y-65034075D01*
X214090826Y-65000000D01*
X213959174Y-65000000D01*
X213832007Y-65034075D01*
X213771000Y-65069297D01*
X213771000Y-64569210D01*
X213417947Y-64216158D01*
X213485993Y-64197925D01*
X213600007Y-64132099D01*
X213693099Y-64039007D01*
X213758925Y-63924993D01*
X213777157Y-63856947D01*
X214242095Y-64321885D01*
G37*
%TD.AperFunction*%
%TA.AperFunction,Conductor*%
G36*
X211779000Y-63932545D02*
G01*
X211652439Y-63912500D01*
X211397561Y-63912500D01*
X211271000Y-63932545D01*
X211271000Y-63430702D01*
X211332007Y-63465925D01*
X211459174Y-63500000D01*
X211590826Y-63500000D01*
X211717993Y-63465925D01*
X211779000Y-63430702D01*
X211779000Y-63932545D01*
G37*
%TD.AperFunction*%
%TA.AperFunction,Conductor*%
G36*
X211059075Y-62807007D02*
G01*
X211025000Y-62934174D01*
X211025000Y-63065826D01*
X211059075Y-63192993D01*
X211094297Y-63254000D01*
X210594210Y-63254000D01*
X210241158Y-63607052D01*
X210222925Y-63539007D01*
X210157099Y-63424993D01*
X210064007Y-63331901D01*
X209949993Y-63266075D01*
X209881947Y-63247842D01*
X210346885Y-62782905D01*
X210409197Y-62748879D01*
X210435980Y-62746000D01*
X211094297Y-62746000D01*
X211059075Y-62807007D01*
G37*
%TD.AperFunction*%
%TA.AperFunction,Conductor*%
G36*
X212682141Y-62766002D02*
G01*
X212703115Y-62782905D01*
X213168052Y-63247842D01*
X213100007Y-63266075D01*
X212985993Y-63331901D01*
X212892901Y-63424993D01*
X212827075Y-63539007D01*
X212808841Y-63607052D01*
X212455790Y-63254000D01*
X211955703Y-63254000D01*
X211990925Y-63192993D01*
X212025000Y-63065826D01*
X212025000Y-62934174D01*
X211990925Y-62807007D01*
X211955703Y-62746000D01*
X212614020Y-62746000D01*
X212682141Y-62766002D01*
G37*
%TD.AperFunction*%
%TA.AperFunction,Conductor*%
G36*
X211527748Y-61000620D02*
G01*
X211911661Y-61017382D01*
X211922610Y-61018339D01*
X212300883Y-61068140D01*
X212311699Y-61070048D01*
X212684184Y-61152626D01*
X212694802Y-61155471D01*
X213058668Y-61270197D01*
X213068997Y-61273956D01*
X213421494Y-61419965D01*
X213431456Y-61424611D01*
X213769875Y-61600781D01*
X213779378Y-61606267D01*
X214101174Y-61811274D01*
X214110166Y-61817570D01*
X214412863Y-62049839D01*
X214421283Y-62056904D01*
X214702570Y-62314656D01*
X214710343Y-62322429D01*
X214968095Y-62603716D01*
X214975160Y-62612136D01*
X215207429Y-62914833D01*
X215213728Y-62923829D01*
X215413300Y-63237095D01*
X215418727Y-63245613D01*
X215424223Y-63255133D01*
X215600388Y-63593543D01*
X215605034Y-63603505D01*
X215751043Y-63956002D01*
X215754802Y-63966331D01*
X215869528Y-64330197D01*
X215872373Y-64340815D01*
X215954950Y-64713296D01*
X215956859Y-64724121D01*
X216006659Y-65102388D01*
X216007617Y-65113338D01*
X216024380Y-65497251D01*
X216024500Y-65502747D01*
X216024500Y-105497252D01*
X216024380Y-105502748D01*
X216007617Y-105886661D01*
X216006659Y-105897611D01*
X215956859Y-106275878D01*
X215954950Y-106286703D01*
X215872373Y-106659184D01*
X215869528Y-106669802D01*
X215754802Y-107033668D01*
X215751043Y-107043997D01*
X215605034Y-107396494D01*
X215600388Y-107406456D01*
X215424223Y-107744866D01*
X215418727Y-107754386D01*
X215213734Y-108076162D01*
X215207429Y-108085166D01*
X214975160Y-108387863D01*
X214968095Y-108396283D01*
X214710343Y-108677570D01*
X214702570Y-108685343D01*
X214421283Y-108943095D01*
X214412863Y-108950160D01*
X214110166Y-109182429D01*
X214101162Y-109188734D01*
X213779386Y-109393727D01*
X213769866Y-109399223D01*
X213431456Y-109575388D01*
X213421494Y-109580034D01*
X213068997Y-109726043D01*
X213058668Y-109729802D01*
X212694802Y-109844528D01*
X212684184Y-109847373D01*
X212311703Y-109929950D01*
X212300878Y-109931859D01*
X211922611Y-109981659D01*
X211911661Y-109982617D01*
X211527748Y-109999380D01*
X211522252Y-109999500D01*
X203997500Y-109999500D01*
X203929379Y-109979498D01*
X203882886Y-109925842D01*
X203871500Y-109873500D01*
X203871500Y-108693000D01*
X201855500Y-108693000D01*
X201855500Y-109873500D01*
X201835498Y-109941621D01*
X201781842Y-109988114D01*
X201729500Y-109999500D01*
X199047500Y-109999500D01*
X198979379Y-109979498D01*
X198932886Y-109925842D01*
X198921500Y-109873500D01*
X198921500Y-108693000D01*
X195055500Y-108693000D01*
X195055500Y-109873500D01*
X195035498Y-109941621D01*
X194981842Y-109988114D01*
X194929500Y-109999500D01*
X192247500Y-109999500D01*
X192179379Y-109979498D01*
X192132886Y-109925842D01*
X192121500Y-109873500D01*
X192121500Y-108693000D01*
X190105500Y-108693000D01*
X190105500Y-109873500D01*
X190085498Y-109941621D01*
X190031842Y-109988114D01*
X189979500Y-109999500D01*
X183609000Y-109999500D01*
X183540879Y-109979498D01*
X183494386Y-109925842D01*
X183483000Y-109873500D01*
X183483000Y-108754000D01*
X181467000Y-108754000D01*
X181467000Y-109873500D01*
X181446998Y-109941621D01*
X181393342Y-109988114D01*
X181341000Y-109999500D01*
X178659000Y-109999500D01*
X178590879Y-109979498D01*
X178544386Y-109925842D01*
X178533000Y-109873500D01*
X178533000Y-108754000D01*
X174567000Y-108754000D01*
X174567000Y-109873500D01*
X174546998Y-109941621D01*
X174493342Y-109988114D01*
X174441000Y-109999500D01*
X171759000Y-109999500D01*
X171690879Y-109979498D01*
X171644386Y-109925842D01*
X171633000Y-109873500D01*
X171633000Y-108754000D01*
X169617000Y-108754000D01*
X169617000Y-109873500D01*
X169596998Y-109941621D01*
X169543342Y-109988114D01*
X169491000Y-109999500D01*
X163497500Y-109999500D01*
X163429379Y-109979498D01*
X163382886Y-109925842D01*
X163371500Y-109873500D01*
X163371500Y-108743000D01*
X161355500Y-108743000D01*
X161355500Y-109873500D01*
X161335498Y-109941621D01*
X161281842Y-109988114D01*
X161229500Y-109999500D01*
X158547500Y-109999500D01*
X158479379Y-109979498D01*
X158432886Y-109925842D01*
X158421500Y-109873500D01*
X158421500Y-108743000D01*
X154605500Y-108743000D01*
X154605500Y-109873500D01*
X154585498Y-109941621D01*
X154531842Y-109988114D01*
X154479500Y-109999500D01*
X151797500Y-109999500D01*
X151729379Y-109979498D01*
X151682886Y-109925842D01*
X151671500Y-109873500D01*
X151671500Y-108743000D01*
X149655500Y-108743000D01*
X149655500Y-109873500D01*
X149635498Y-109941621D01*
X149581842Y-109988114D01*
X149529500Y-109999500D01*
X144109000Y-109999500D01*
X144040879Y-109979498D01*
X143994386Y-109925842D01*
X143983000Y-109873500D01*
X143983000Y-108754000D01*
X141967000Y-108754000D01*
X141967000Y-109873500D01*
X141946998Y-109941621D01*
X141893342Y-109988114D01*
X141841000Y-109999500D01*
X139159000Y-109999500D01*
X139090879Y-109979498D01*
X139044386Y-109925842D01*
X139033000Y-109873500D01*
X139033000Y-108754000D01*
X135217000Y-108754000D01*
X135217000Y-109873500D01*
X135196998Y-109941621D01*
X135143342Y-109988114D01*
X135091000Y-109999500D01*
X132409000Y-109999500D01*
X132340879Y-109979498D01*
X132294386Y-109925842D01*
X132283000Y-109873500D01*
X132283000Y-108754000D01*
X130267000Y-108754000D01*
X130267000Y-109873500D01*
X130246998Y-109941621D01*
X130193342Y-109988114D01*
X130141000Y-109999500D01*
X121527748Y-109999500D01*
X121522252Y-109999380D01*
X121138338Y-109982617D01*
X121127388Y-109981659D01*
X120749121Y-109931859D01*
X120738296Y-109929950D01*
X120365815Y-109847373D01*
X120355197Y-109844528D01*
X119991331Y-109729802D01*
X119981002Y-109726043D01*
X119628505Y-109580034D01*
X119618543Y-109575388D01*
X119280133Y-109399223D01*
X119270613Y-109393727D01*
X119047439Y-109251550D01*
X118948829Y-109188728D01*
X118939833Y-109182429D01*
X118637136Y-108950160D01*
X118628716Y-108943095D01*
X118347429Y-108685343D01*
X118339656Y-108677570D01*
X118081904Y-108396283D01*
X118074839Y-108387863D01*
X117842570Y-108085166D01*
X117836274Y-108076174D01*
X117631267Y-107754378D01*
X117625781Y-107744875D01*
X117449611Y-107406456D01*
X117444965Y-107396494D01*
X117298956Y-107043997D01*
X117295197Y-107033668D01*
X117267870Y-106946999D01*
X117180470Y-106669800D01*
X117177626Y-106659184D01*
X117163784Y-106596745D01*
X117095048Y-106286699D01*
X117093140Y-106275878D01*
X117090712Y-106257439D01*
X117043339Y-105897610D01*
X117042382Y-105886661D01*
X117025620Y-105502748D01*
X117025500Y-105497252D01*
X117025500Y-105245999D01*
X117775051Y-105245999D01*
X117775052Y-105246000D01*
X118594297Y-105246000D01*
X118559075Y-105307007D01*
X118525000Y-105434174D01*
X118525000Y-105565826D01*
X118559075Y-105692993D01*
X118594297Y-105754000D01*
X117775051Y-105754000D01*
X117781474Y-105880668D01*
X117781476Y-105880685D01*
X117839192Y-106257439D01*
X117839194Y-106257449D01*
X117934737Y-106626457D01*
X118067120Y-106983900D01*
X118234982Y-107326108D01*
X118234982Y-107326109D01*
X118436605Y-107649581D01*
X118436609Y-107649588D01*
X118669924Y-107951005D01*
X118669928Y-107951011D01*
X118932537Y-108227274D01*
X119221752Y-108475557D01*
X119534597Y-108693303D01*
X119867878Y-108878288D01*
X120218146Y-109028601D01*
X120581842Y-109142710D01*
X120955201Y-109219437D01*
X121270999Y-109251550D01*
X121271000Y-109251550D01*
X121271000Y-108430702D01*
X121332007Y-108465925D01*
X121459174Y-108500000D01*
X121590826Y-108500000D01*
X121717993Y-108465925D01*
X121779000Y-108430702D01*
X121779000Y-109251550D01*
X122094798Y-109219437D01*
X122468157Y-109142710D01*
X122831853Y-109028601D01*
X123182121Y-108878288D01*
X123515402Y-108693303D01*
X123828247Y-108475557D01*
X124117462Y-108227274D01*
X124380071Y-107951011D01*
X124380075Y-107951005D01*
X124613390Y-107649588D01*
X124613394Y-107649581D01*
X124815017Y-107326109D01*
X124815017Y-107326108D01*
X124949767Y-107051402D01*
X130267000Y-107051402D01*
X130267000Y-108246000D01*
X131021000Y-108246000D01*
X131529000Y-108246000D01*
X132283000Y-108246000D01*
X132283000Y-107051414D01*
X132282999Y-107051402D01*
X132276494Y-106990906D01*
X132225444Y-106854035D01*
X132225444Y-106854034D01*
X132137904Y-106737095D01*
X132020965Y-106649555D01*
X131884093Y-106598505D01*
X131823597Y-106592000D01*
X131529000Y-106592000D01*
X131529000Y-108246000D01*
X131021000Y-108246000D01*
X131021000Y-106592000D01*
X130726402Y-106592000D01*
X130665906Y-106598505D01*
X130529035Y-106649555D01*
X130529034Y-106649555D01*
X130412095Y-106737095D01*
X130324555Y-106854034D01*
X130324555Y-106854035D01*
X130273505Y-106990906D01*
X130267000Y-107051402D01*
X124949767Y-107051402D01*
X124982879Y-106983900D01*
X125115262Y-106626457D01*
X125210805Y-106257449D01*
X125210807Y-106257439D01*
X125268523Y-105880685D01*
X125268525Y-105880668D01*
X125274948Y-105754000D01*
X124455703Y-105754000D01*
X124490925Y-105692993D01*
X124525000Y-105565826D01*
X124525000Y-105434174D01*
X124490925Y-105307007D01*
X124455703Y-105246000D01*
X125274948Y-105246000D01*
X125274948Y-105245999D01*
X125268525Y-105119331D01*
X125268523Y-105119314D01*
X125210807Y-104742560D01*
X125210805Y-104742550D01*
X125115262Y-104373542D01*
X124982879Y-104016099D01*
X124815017Y-103673891D01*
X124815017Y-103673890D01*
X124654372Y-103416160D01*
X132543499Y-103416160D01*
X132543499Y-103535839D01*
X132574471Y-103651427D01*
X132634307Y-103755066D01*
X132639338Y-103761622D01*
X132638085Y-103762582D01*
X132667618Y-103816655D01*
X132670500Y-103843450D01*
X132670500Y-104582113D01*
X132650498Y-104650234D01*
X132649266Y-104652114D01*
X132636132Y-104671769D01*
X132624500Y-104730249D01*
X132624500Y-104730252D01*
X132624500Y-106469748D01*
X132636133Y-106528231D01*
X132680448Y-106594552D01*
X132746769Y-106638867D01*
X132805252Y-106650500D01*
X132805253Y-106650500D01*
X133444747Y-106650500D01*
X133444748Y-106650500D01*
X133493758Y-106640751D01*
X133564470Y-106647079D01*
X133619207Y-106688820D01*
X133712097Y-106812905D01*
X133829034Y-106900444D01*
X133965906Y-106951494D01*
X134026402Y-106957999D01*
X134026415Y-106958000D01*
X134121000Y-106958000D01*
X134629000Y-106958000D01*
X134723585Y-106958000D01*
X134723597Y-106957999D01*
X134784093Y-106951494D01*
X134920963Y-106900445D01*
X135043983Y-106808352D01*
X135110503Y-106783541D01*
X135179878Y-106798632D01*
X135230080Y-106848834D01*
X135245172Y-106918208D01*
X135237549Y-106953251D01*
X135223505Y-106990904D01*
X135217000Y-107051402D01*
X135217000Y-108246000D01*
X135971000Y-108246000D01*
X136479000Y-108246000D01*
X137771000Y-108246000D01*
X138279000Y-108246000D01*
X139033000Y-108246000D01*
X139033000Y-107051414D01*
X139032999Y-107051402D01*
X139026494Y-106990906D01*
X138975444Y-106854035D01*
X138975444Y-106854034D01*
X138887904Y-106737095D01*
X138770965Y-106649555D01*
X138634093Y-106598505D01*
X138573597Y-106592000D01*
X138279000Y-106592000D01*
X138279000Y-108246000D01*
X137771000Y-108246000D01*
X137771000Y-106592000D01*
X137476402Y-106592000D01*
X137415906Y-106598505D01*
X137279035Y-106649555D01*
X137279034Y-106649556D01*
X137200509Y-106708339D01*
X137133988Y-106733150D01*
X137064614Y-106718058D01*
X137049491Y-106708339D01*
X136970965Y-106649556D01*
X136970964Y-106649555D01*
X136834093Y-106598505D01*
X136773597Y-106592000D01*
X136479000Y-106592000D01*
X136479000Y-108246000D01*
X135971000Y-108246000D01*
X135971000Y-106592000D01*
X135676402Y-106592000D01*
X135615906Y-106598505D01*
X135479035Y-106649555D01*
X135479034Y-106649555D01*
X135356015Y-106741647D01*
X135289495Y-106766458D01*
X135220121Y-106751366D01*
X135169918Y-106701164D01*
X135154827Y-106631790D01*
X135162451Y-106596745D01*
X135176494Y-106559094D01*
X135182999Y-106498597D01*
X135183000Y-106498585D01*
X135183000Y-105854000D01*
X134629000Y-105854000D01*
X134629000Y-106958000D01*
X134121000Y-106958000D01*
X134121000Y-105346000D01*
X134629000Y-105346000D01*
X135183000Y-105346000D01*
X135183000Y-104701414D01*
X135182999Y-104701402D01*
X135176494Y-104640906D01*
X135125444Y-104504035D01*
X135125444Y-104504034D01*
X135037904Y-104387095D01*
X134920965Y-104299555D01*
X134784093Y-104248505D01*
X134723597Y-104242000D01*
X134629000Y-104242000D01*
X134629000Y-105346000D01*
X134121000Y-105346000D01*
X134121000Y-104242000D01*
X134026402Y-104242000D01*
X133965906Y-104248505D01*
X133829037Y-104299554D01*
X133781009Y-104335508D01*
X133714488Y-104360318D01*
X133645114Y-104345226D01*
X133594912Y-104295024D01*
X133579500Y-104234639D01*
X133579500Y-103826160D01*
X139245499Y-103826160D01*
X139245499Y-103945839D01*
X139276471Y-104061427D01*
X139336307Y-104165066D01*
X139336309Y-104165069D01*
X139336310Y-104165070D01*
X139383596Y-104212356D01*
X139417620Y-104274666D01*
X139420500Y-104301450D01*
X139420500Y-104582113D01*
X139400498Y-104650234D01*
X139399266Y-104652114D01*
X139386132Y-104671769D01*
X139374500Y-104730249D01*
X139374500Y-104730252D01*
X139374500Y-106469748D01*
X139386133Y-106528231D01*
X139430448Y-106594552D01*
X139496769Y-106638867D01*
X139555252Y-106650500D01*
X139555253Y-106650500D01*
X140194747Y-106650500D01*
X140194748Y-106650500D01*
X140243758Y-106640751D01*
X140314470Y-106647079D01*
X140369207Y-106688820D01*
X140462097Y-106812905D01*
X140579034Y-106900444D01*
X140715906Y-106951494D01*
X140776402Y-106957999D01*
X140776415Y-106958000D01*
X140871000Y-106958000D01*
X141379000Y-106958000D01*
X141473585Y-106958000D01*
X141473597Y-106957999D01*
X141534093Y-106951494D01*
X141670963Y-106900445D01*
X141793983Y-106808352D01*
X141860503Y-106783541D01*
X141929878Y-106798632D01*
X141980080Y-106848834D01*
X141995172Y-106918208D01*
X141987549Y-106953251D01*
X141973505Y-106990904D01*
X141967000Y-107051402D01*
X141967000Y-108246000D01*
X142721000Y-108246000D01*
X143229000Y-108246000D01*
X143983000Y-108246000D01*
X143983000Y-107051414D01*
X143982999Y-107051402D01*
X143981816Y-107040402D01*
X149655500Y-107040402D01*
X149655500Y-108235000D01*
X150409500Y-108235000D01*
X150917500Y-108235000D01*
X151671500Y-108235000D01*
X151671500Y-107040414D01*
X151671499Y-107040402D01*
X151664994Y-106979906D01*
X151613944Y-106843035D01*
X151613944Y-106843034D01*
X151526404Y-106726095D01*
X151409465Y-106638555D01*
X151272593Y-106587505D01*
X151212097Y-106581000D01*
X150917500Y-106581000D01*
X150917500Y-108235000D01*
X150409500Y-108235000D01*
X150409500Y-106581000D01*
X150114902Y-106581000D01*
X150054406Y-106587505D01*
X149917535Y-106638555D01*
X149917534Y-106638555D01*
X149800595Y-106726095D01*
X149713055Y-106843034D01*
X149713055Y-106843035D01*
X149662005Y-106979906D01*
X149655500Y-107040402D01*
X143981816Y-107040402D01*
X143976494Y-106990906D01*
X143925444Y-106854035D01*
X143925444Y-106854034D01*
X143837904Y-106737095D01*
X143720965Y-106649555D01*
X143584093Y-106598505D01*
X143523597Y-106592000D01*
X143229000Y-106592000D01*
X143229000Y-108246000D01*
X142721000Y-108246000D01*
X142721000Y-106592000D01*
X142426402Y-106592000D01*
X142365906Y-106598505D01*
X142229035Y-106649555D01*
X142229034Y-106649555D01*
X142106015Y-106741647D01*
X142039495Y-106766458D01*
X141970121Y-106751366D01*
X141919918Y-106701164D01*
X141904827Y-106631790D01*
X141912451Y-106596745D01*
X141926494Y-106559094D01*
X141932999Y-106498597D01*
X141933000Y-106498585D01*
X141933000Y-105854000D01*
X141379000Y-105854000D01*
X141379000Y-106958000D01*
X140871000Y-106958000D01*
X140871000Y-105346000D01*
X141379000Y-105346000D01*
X141933000Y-105346000D01*
X141933000Y-104719249D01*
X152013000Y-104719249D01*
X152013000Y-106458750D01*
X152014686Y-106467228D01*
X152024633Y-106517231D01*
X152068948Y-106583552D01*
X152135269Y-106627867D01*
X152193752Y-106639500D01*
X152193753Y-106639500D01*
X152833247Y-106639500D01*
X152833248Y-106639500D01*
X152882258Y-106629751D01*
X152952970Y-106636079D01*
X153007707Y-106677820D01*
X153100597Y-106801905D01*
X153217534Y-106889444D01*
X153354406Y-106940494D01*
X153414902Y-106946999D01*
X153414915Y-106947000D01*
X153509500Y-106947000D01*
X154017500Y-106947000D01*
X154112085Y-106947000D01*
X154112097Y-106946999D01*
X154172593Y-106940494D01*
X154309463Y-106889445D01*
X154432483Y-106797352D01*
X154499003Y-106772541D01*
X154568378Y-106787632D01*
X154618580Y-106837834D01*
X154633672Y-106907208D01*
X154626049Y-106942251D01*
X154612005Y-106979904D01*
X154605500Y-107040402D01*
X154605500Y-108235000D01*
X155359500Y-108235000D01*
X155867500Y-108235000D01*
X157159500Y-108235000D01*
X157667500Y-108235000D01*
X158421500Y-108235000D01*
X158421500Y-107040414D01*
X158421499Y-107040402D01*
X158414994Y-106979906D01*
X158363944Y-106843035D01*
X158363944Y-106843034D01*
X158276404Y-106726095D01*
X158159465Y-106638555D01*
X158022593Y-106587505D01*
X157962097Y-106581000D01*
X157667500Y-106581000D01*
X157667500Y-108235000D01*
X157159500Y-108235000D01*
X157159500Y-106581000D01*
X156864902Y-106581000D01*
X156804406Y-106587505D01*
X156667535Y-106638555D01*
X156667534Y-106638556D01*
X156589009Y-106697339D01*
X156522488Y-106722150D01*
X156453114Y-106707058D01*
X156437991Y-106697339D01*
X156359465Y-106638556D01*
X156359464Y-106638555D01*
X156222593Y-106587505D01*
X156162097Y-106581000D01*
X155867500Y-106581000D01*
X155867500Y-108235000D01*
X155359500Y-108235000D01*
X155359500Y-106581000D01*
X155064902Y-106581000D01*
X155004406Y-106587505D01*
X154867535Y-106638555D01*
X154867534Y-106638555D01*
X154744515Y-106730647D01*
X154677995Y-106755458D01*
X154608621Y-106740366D01*
X154558418Y-106690164D01*
X154543327Y-106620790D01*
X154550951Y-106585745D01*
X154564994Y-106548094D01*
X154571499Y-106487597D01*
X154571500Y-106487585D01*
X154571500Y-105843000D01*
X154017500Y-105843000D01*
X154017500Y-106947000D01*
X153509500Y-106947000D01*
X153509500Y-105335000D01*
X154017500Y-105335000D01*
X154571500Y-105335000D01*
X154571500Y-104690414D01*
X154571499Y-104690402D01*
X154564994Y-104629906D01*
X154513944Y-104493035D01*
X154513944Y-104493034D01*
X154426404Y-104376095D01*
X154309465Y-104288555D01*
X154172593Y-104237505D01*
X154112097Y-104231000D01*
X154017500Y-104231000D01*
X154017500Y-105335000D01*
X153509500Y-105335000D01*
X153509500Y-104231000D01*
X153414902Y-104231000D01*
X153354406Y-104237505D01*
X153217537Y-104288554D01*
X153169509Y-104324508D01*
X153102988Y-104349318D01*
X153033614Y-104334226D01*
X152983412Y-104284024D01*
X152968000Y-104223639D01*
X152968000Y-103826165D01*
X152968000Y-103826164D01*
X158036000Y-103826164D01*
X158036000Y-103945836D01*
X158042492Y-103970064D01*
X158066974Y-104061435D01*
X158126806Y-104165066D01*
X158126814Y-104165076D01*
X158211423Y-104249685D01*
X158211428Y-104249689D01*
X158211430Y-104249691D01*
X158211431Y-104249692D01*
X158211433Y-104249693D01*
X158315064Y-104309525D01*
X158315066Y-104309525D01*
X158315069Y-104309527D01*
X158430664Y-104340500D01*
X158683000Y-104340500D01*
X158751121Y-104360502D01*
X158797614Y-104414158D01*
X158809000Y-104466500D01*
X158809000Y-104571113D01*
X158788998Y-104639234D01*
X158787766Y-104641114D01*
X158774632Y-104660769D01*
X158763000Y-104719249D01*
X158763000Y-106458750D01*
X158764686Y-106467228D01*
X158774633Y-106517231D01*
X158818948Y-106583552D01*
X158885269Y-106627867D01*
X158943752Y-106639500D01*
X158943753Y-106639500D01*
X159583247Y-106639500D01*
X159583248Y-106639500D01*
X159632258Y-106629751D01*
X159702970Y-106636079D01*
X159757707Y-106677820D01*
X159850597Y-106801905D01*
X159967534Y-106889444D01*
X160104406Y-106940494D01*
X160164902Y-106946999D01*
X160164915Y-106947000D01*
X160259500Y-106947000D01*
X160767500Y-106947000D01*
X160862085Y-106947000D01*
X160862097Y-106946999D01*
X160922593Y-106940494D01*
X161059463Y-106889445D01*
X161182483Y-106797352D01*
X161249003Y-106772541D01*
X161318378Y-106787632D01*
X161368580Y-106837834D01*
X161383672Y-106907208D01*
X161376049Y-106942251D01*
X161362005Y-106979904D01*
X161355500Y-107040402D01*
X161355500Y-108235000D01*
X162109500Y-108235000D01*
X162617500Y-108235000D01*
X163371500Y-108235000D01*
X163371500Y-107051402D01*
X169617000Y-107051402D01*
X169617000Y-108246000D01*
X170371000Y-108246000D01*
X170879000Y-108246000D01*
X171633000Y-108246000D01*
X171633000Y-107051414D01*
X171632999Y-107051402D01*
X171626494Y-106990906D01*
X171575444Y-106854035D01*
X171575444Y-106854034D01*
X171487904Y-106737095D01*
X171370965Y-106649555D01*
X171234093Y-106598505D01*
X171173597Y-106592000D01*
X170879000Y-106592000D01*
X170879000Y-108246000D01*
X170371000Y-108246000D01*
X170371000Y-106592000D01*
X170076402Y-106592000D01*
X170015906Y-106598505D01*
X169879035Y-106649555D01*
X169879034Y-106649555D01*
X169762095Y-106737095D01*
X169674555Y-106854034D01*
X169674555Y-106854035D01*
X169623505Y-106990906D01*
X169617000Y-107051402D01*
X163371500Y-107051402D01*
X163371500Y-107040414D01*
X163371499Y-107040402D01*
X163364994Y-106979906D01*
X163313944Y-106843035D01*
X163313944Y-106843034D01*
X163226404Y-106726095D01*
X163109465Y-106638555D01*
X162972593Y-106587505D01*
X162912097Y-106581000D01*
X162617500Y-106581000D01*
X162617500Y-108235000D01*
X162109500Y-108235000D01*
X162109500Y-106581000D01*
X161814902Y-106581000D01*
X161754406Y-106587505D01*
X161617535Y-106638555D01*
X161617534Y-106638555D01*
X161494515Y-106730647D01*
X161427995Y-106755458D01*
X161358621Y-106740366D01*
X161308418Y-106690164D01*
X161293327Y-106620790D01*
X161300951Y-106585745D01*
X161314994Y-106548094D01*
X161321499Y-106487597D01*
X161321500Y-106487585D01*
X161321500Y-105843000D01*
X160767500Y-105843000D01*
X160767500Y-106947000D01*
X160259500Y-106947000D01*
X160259500Y-105335000D01*
X160767500Y-105335000D01*
X161321500Y-105335000D01*
X161321500Y-104730249D01*
X171974500Y-104730249D01*
X171974500Y-104730252D01*
X171974500Y-106469748D01*
X171986133Y-106528231D01*
X172030448Y-106594552D01*
X172096769Y-106638867D01*
X172155252Y-106650500D01*
X172155253Y-106650500D01*
X172794747Y-106650500D01*
X172794748Y-106650500D01*
X172843758Y-106640751D01*
X172914470Y-106647079D01*
X172969207Y-106688820D01*
X173062097Y-106812905D01*
X173179034Y-106900444D01*
X173315906Y-106951494D01*
X173376402Y-106957999D01*
X173376415Y-106958000D01*
X173471000Y-106958000D01*
X173979000Y-106958000D01*
X174073585Y-106958000D01*
X174073597Y-106957999D01*
X174134093Y-106951494D01*
X174270963Y-106900445D01*
X174393983Y-106808352D01*
X174460503Y-106783541D01*
X174529878Y-106798632D01*
X174580080Y-106848834D01*
X174595172Y-106918208D01*
X174587549Y-106953251D01*
X174573505Y-106990904D01*
X174567000Y-107051402D01*
X174567000Y-108246000D01*
X175321000Y-108246000D01*
X175829000Y-108246000D01*
X177271000Y-108246000D01*
X177779000Y-108246000D01*
X178533000Y-108246000D01*
X178533000Y-107051414D01*
X178532999Y-107051402D01*
X178526494Y-106990906D01*
X178475444Y-106854035D01*
X178475444Y-106854034D01*
X178387904Y-106737095D01*
X178270965Y-106649555D01*
X178134093Y-106598505D01*
X178073597Y-106592000D01*
X177779000Y-106592000D01*
X177779000Y-108246000D01*
X177271000Y-108246000D01*
X177271000Y-106592000D01*
X176976402Y-106592000D01*
X176915906Y-106598505D01*
X176779035Y-106649555D01*
X176779034Y-106649555D01*
X176662097Y-106737094D01*
X176650868Y-106752095D01*
X176594031Y-106794641D01*
X176523216Y-106799705D01*
X176460904Y-106765680D01*
X176449132Y-106752095D01*
X176437902Y-106737094D01*
X176320965Y-106649555D01*
X176184093Y-106598505D01*
X176123597Y-106592000D01*
X175829000Y-106592000D01*
X175829000Y-108246000D01*
X175321000Y-108246000D01*
X175321000Y-106592000D01*
X175026402Y-106592000D01*
X174965906Y-106598505D01*
X174829035Y-106649555D01*
X174829034Y-106649555D01*
X174706015Y-106741647D01*
X174639495Y-106766458D01*
X174570121Y-106751366D01*
X174519918Y-106701164D01*
X174504827Y-106631790D01*
X174512451Y-106596745D01*
X174526494Y-106559094D01*
X174532999Y-106498597D01*
X174533000Y-106498585D01*
X174533000Y-105854000D01*
X173979000Y-105854000D01*
X173979000Y-106958000D01*
X173471000Y-106958000D01*
X173471000Y-105346000D01*
X173979000Y-105346000D01*
X174533000Y-105346000D01*
X174533000Y-104701414D01*
X174532999Y-104701402D01*
X174526494Y-104640906D01*
X174475444Y-104504035D01*
X174475444Y-104504034D01*
X174387904Y-104387095D01*
X174270965Y-104299555D01*
X174134093Y-104248505D01*
X174073597Y-104242000D01*
X173979000Y-104242000D01*
X173979000Y-105346000D01*
X173471000Y-105346000D01*
X173471000Y-104242000D01*
X173376402Y-104242000D01*
X173315906Y-104248505D01*
X173179037Y-104299554D01*
X173131009Y-104335508D01*
X173064488Y-104360318D01*
X172995114Y-104345226D01*
X172944912Y-104295024D01*
X172929500Y-104234639D01*
X172929500Y-104080165D01*
X172928250Y-104075499D01*
X172898527Y-103964569D01*
X172898525Y-103964566D01*
X172898525Y-103964564D01*
X172838693Y-103860933D01*
X172838685Y-103860923D01*
X172803926Y-103826164D01*
X178107500Y-103826164D01*
X178107500Y-103945836D01*
X178113992Y-103970064D01*
X178138474Y-104061435D01*
X178198306Y-104165066D01*
X178198314Y-104165076D01*
X178282923Y-104249685D01*
X178282928Y-104249689D01*
X178282930Y-104249691D01*
X178282931Y-104249692D01*
X178282933Y-104249693D01*
X178386564Y-104309525D01*
X178386566Y-104309525D01*
X178386569Y-104309527D01*
X178502164Y-104340500D01*
X178794500Y-104340500D01*
X178862621Y-104360502D01*
X178909114Y-104414158D01*
X178920500Y-104466500D01*
X178920500Y-104582113D01*
X178900498Y-104650234D01*
X178899266Y-104652114D01*
X178886132Y-104671769D01*
X178874500Y-104730249D01*
X178874500Y-104730252D01*
X178874500Y-106469748D01*
X178886133Y-106528231D01*
X178930448Y-106594552D01*
X178996769Y-106638867D01*
X179055252Y-106650500D01*
X179055253Y-106650500D01*
X179694747Y-106650500D01*
X179694748Y-106650500D01*
X179743758Y-106640751D01*
X179814470Y-106647079D01*
X179869207Y-106688820D01*
X179962097Y-106812905D01*
X180079034Y-106900444D01*
X180215906Y-106951494D01*
X180276402Y-106957999D01*
X180276415Y-106958000D01*
X180371000Y-106958000D01*
X180879000Y-106958000D01*
X180973585Y-106958000D01*
X180973597Y-106957999D01*
X181034093Y-106951494D01*
X181170963Y-106900445D01*
X181293983Y-106808352D01*
X181360503Y-106783541D01*
X181429878Y-106798632D01*
X181480080Y-106848834D01*
X181495172Y-106918208D01*
X181487549Y-106953251D01*
X181473505Y-106990904D01*
X181467000Y-107051402D01*
X181467000Y-108246000D01*
X182221000Y-108246000D01*
X182729000Y-108246000D01*
X183483000Y-108246000D01*
X183483000Y-107051414D01*
X183482999Y-107051402D01*
X183476494Y-106990906D01*
X183476306Y-106990402D01*
X190105500Y-106990402D01*
X190105500Y-108185000D01*
X190859500Y-108185000D01*
X191367500Y-108185000D01*
X192121500Y-108185000D01*
X192121500Y-106990414D01*
X192121499Y-106990402D01*
X192114994Y-106929906D01*
X192063944Y-106793035D01*
X192063944Y-106793034D01*
X191976404Y-106676095D01*
X191859465Y-106588555D01*
X191722593Y-106537505D01*
X191662097Y-106531000D01*
X191367500Y-106531000D01*
X191367500Y-108185000D01*
X190859500Y-108185000D01*
X190859500Y-106531000D01*
X190564902Y-106531000D01*
X190504406Y-106537505D01*
X190367535Y-106588555D01*
X190367534Y-106588555D01*
X190250595Y-106676095D01*
X190163055Y-106793034D01*
X190163055Y-106793035D01*
X190112005Y-106929906D01*
X190105500Y-106990402D01*
X183476306Y-106990402D01*
X183425444Y-106854035D01*
X183425444Y-106854034D01*
X183337904Y-106737095D01*
X183220965Y-106649555D01*
X183084093Y-106598505D01*
X183023597Y-106592000D01*
X182729000Y-106592000D01*
X182729000Y-108246000D01*
X182221000Y-108246000D01*
X182221000Y-106592000D01*
X181926402Y-106592000D01*
X181865906Y-106598505D01*
X181729035Y-106649555D01*
X181729034Y-106649555D01*
X181606015Y-106741647D01*
X181539495Y-106766458D01*
X181470121Y-106751366D01*
X181419918Y-106701164D01*
X181404827Y-106631790D01*
X181412451Y-106596745D01*
X181426494Y-106559094D01*
X181432999Y-106498597D01*
X181433000Y-106498585D01*
X181433000Y-105854000D01*
X180879000Y-105854000D01*
X180879000Y-106958000D01*
X180371000Y-106958000D01*
X180371000Y-105346000D01*
X180879000Y-105346000D01*
X181433000Y-105346000D01*
X181433000Y-104701414D01*
X181432999Y-104701402D01*
X181429542Y-104669249D01*
X192463000Y-104669249D01*
X192463000Y-106408750D01*
X192472945Y-106458748D01*
X192474633Y-106467231D01*
X192518948Y-106533552D01*
X192585269Y-106577867D01*
X192643752Y-106589500D01*
X192643753Y-106589500D01*
X193283247Y-106589500D01*
X193283248Y-106589500D01*
X193332258Y-106579751D01*
X193402970Y-106586079D01*
X193457707Y-106627820D01*
X193550597Y-106751905D01*
X193667534Y-106839444D01*
X193804406Y-106890494D01*
X193864902Y-106896999D01*
X193864915Y-106897000D01*
X193959500Y-106897000D01*
X194467500Y-106897000D01*
X194562085Y-106897000D01*
X194562097Y-106896999D01*
X194622593Y-106890494D01*
X194759463Y-106839445D01*
X194882483Y-106747352D01*
X194949003Y-106722541D01*
X195018378Y-106737632D01*
X195068580Y-106787834D01*
X195083672Y-106857208D01*
X195076049Y-106892251D01*
X195062005Y-106929904D01*
X195055500Y-106990402D01*
X195055500Y-108185000D01*
X195809500Y-108185000D01*
X196317500Y-108185000D01*
X197659500Y-108185000D01*
X198167500Y-108185000D01*
X198921500Y-108185000D01*
X198921500Y-106990414D01*
X198921499Y-106990402D01*
X198914994Y-106929906D01*
X198863944Y-106793035D01*
X198863944Y-106793034D01*
X198776404Y-106676095D01*
X198659465Y-106588555D01*
X198522593Y-106537505D01*
X198462097Y-106531000D01*
X198167500Y-106531000D01*
X198167500Y-108185000D01*
X197659500Y-108185000D01*
X197659500Y-106531000D01*
X197364902Y-106531000D01*
X197304406Y-106537505D01*
X197167535Y-106588555D01*
X197167534Y-106588555D01*
X197064009Y-106666054D01*
X196997489Y-106690865D01*
X196928115Y-106675773D01*
X196912991Y-106666054D01*
X196809465Y-106588555D01*
X196672593Y-106537505D01*
X196612097Y-106531000D01*
X196317500Y-106531000D01*
X196317500Y-108185000D01*
X195809500Y-108185000D01*
X195809500Y-106531000D01*
X195514902Y-106531000D01*
X195454406Y-106537505D01*
X195317535Y-106588555D01*
X195317534Y-106588555D01*
X195194515Y-106680647D01*
X195127995Y-106705458D01*
X195058621Y-106690366D01*
X195008418Y-106640164D01*
X194993327Y-106570790D01*
X195000951Y-106535745D01*
X195014994Y-106498094D01*
X195021499Y-106437597D01*
X195021500Y-106437585D01*
X195021500Y-105793000D01*
X194467500Y-105793000D01*
X194467500Y-106897000D01*
X193959500Y-106897000D01*
X193959500Y-105665000D01*
X193979502Y-105596879D01*
X194033158Y-105550386D01*
X194085500Y-105539000D01*
X194213500Y-105539000D01*
X194213500Y-105411000D01*
X194233502Y-105342879D01*
X194287158Y-105296386D01*
X194339500Y-105285000D01*
X195021500Y-105285000D01*
X195021500Y-104640414D01*
X195021499Y-104640402D01*
X195014994Y-104579906D01*
X194963944Y-104443035D01*
X194963944Y-104443034D01*
X194876404Y-104326095D01*
X194759465Y-104238555D01*
X194622593Y-104187505D01*
X194562097Y-104181000D01*
X194364195Y-104181000D01*
X194296074Y-104160998D01*
X194249581Y-104107342D01*
X194239477Y-104037068D01*
X194242488Y-104022390D01*
X194248175Y-104001164D01*
X194263000Y-103945836D01*
X194263000Y-103826164D01*
X194262999Y-103826160D01*
X199189499Y-103826160D01*
X199189499Y-103945839D01*
X199220471Y-104061427D01*
X199246673Y-104106809D01*
X199280310Y-104165070D01*
X199280315Y-104165075D01*
X199282960Y-104168522D01*
X199284292Y-104171967D01*
X199284439Y-104172222D01*
X199284399Y-104172244D01*
X199308563Y-104234742D01*
X199309000Y-104245230D01*
X199309000Y-104521113D01*
X199288998Y-104589234D01*
X199287766Y-104591114D01*
X199274632Y-104610769D01*
X199263000Y-104669249D01*
X199263000Y-106408750D01*
X199272945Y-106458748D01*
X199274633Y-106467231D01*
X199318948Y-106533552D01*
X199385269Y-106577867D01*
X199443752Y-106589500D01*
X199443753Y-106589500D01*
X200083247Y-106589500D01*
X200083248Y-106589500D01*
X200132258Y-106579751D01*
X200202970Y-106586079D01*
X200257707Y-106627820D01*
X200350597Y-106751905D01*
X200467534Y-106839444D01*
X200604406Y-106890494D01*
X200664902Y-106896999D01*
X200664915Y-106897000D01*
X200759500Y-106897000D01*
X201267500Y-106897000D01*
X201362085Y-106897000D01*
X201362097Y-106896999D01*
X201422593Y-106890494D01*
X201559463Y-106839445D01*
X201682483Y-106747352D01*
X201749003Y-106722541D01*
X201818378Y-106737632D01*
X201868580Y-106787834D01*
X201883672Y-106857208D01*
X201876049Y-106892251D01*
X201862005Y-106929904D01*
X201855500Y-106990402D01*
X201855500Y-108185000D01*
X202609500Y-108185000D01*
X203117500Y-108185000D01*
X203871500Y-108185000D01*
X203871500Y-106990414D01*
X203871499Y-106990402D01*
X203864994Y-106929906D01*
X203813944Y-106793035D01*
X203813944Y-106793034D01*
X203726404Y-106676095D01*
X203609465Y-106588555D01*
X203472593Y-106537505D01*
X203412097Y-106531000D01*
X203117500Y-106531000D01*
X203117500Y-108185000D01*
X202609500Y-108185000D01*
X202609500Y-106531000D01*
X202314902Y-106531000D01*
X202254406Y-106537505D01*
X202117535Y-106588555D01*
X202117534Y-106588555D01*
X201994515Y-106680647D01*
X201927995Y-106705458D01*
X201858621Y-106690366D01*
X201808418Y-106640164D01*
X201793327Y-106570790D01*
X201800951Y-106535745D01*
X201814994Y-106498094D01*
X201821499Y-106437597D01*
X201821500Y-106437585D01*
X201821500Y-105793000D01*
X201267500Y-105793000D01*
X201267500Y-106897000D01*
X200759500Y-106897000D01*
X200759500Y-105285000D01*
X201267500Y-105285000D01*
X201821500Y-105285000D01*
X201821500Y-105245999D01*
X207775051Y-105245999D01*
X207775052Y-105246000D01*
X208594297Y-105246000D01*
X208559075Y-105307007D01*
X208525000Y-105434174D01*
X208525000Y-105565826D01*
X208559075Y-105692993D01*
X208594297Y-105754000D01*
X207775051Y-105754000D01*
X207781474Y-105880668D01*
X207781476Y-105880685D01*
X207839192Y-106257439D01*
X207839194Y-106257449D01*
X207934737Y-106626457D01*
X208067120Y-106983900D01*
X208234982Y-107326108D01*
X208234982Y-107326109D01*
X208436605Y-107649581D01*
X208436609Y-107649588D01*
X208669924Y-107951005D01*
X208669928Y-107951011D01*
X208932537Y-108227274D01*
X209221752Y-108475557D01*
X209534597Y-108693303D01*
X209867878Y-108878288D01*
X210218146Y-109028601D01*
X210581842Y-109142710D01*
X210955201Y-109219437D01*
X211270999Y-109251550D01*
X211271000Y-109251550D01*
X211271000Y-108430702D01*
X211332007Y-108465925D01*
X211459174Y-108500000D01*
X211590826Y-108500000D01*
X211717993Y-108465925D01*
X211779000Y-108430702D01*
X211779000Y-109251550D01*
X212094798Y-109219437D01*
X212468157Y-109142710D01*
X212831853Y-109028601D01*
X213182121Y-108878288D01*
X213515402Y-108693303D01*
X213828247Y-108475557D01*
X214117462Y-108227274D01*
X214380071Y-107951011D01*
X214380075Y-107951005D01*
X214613390Y-107649588D01*
X214613394Y-107649581D01*
X214815017Y-107326109D01*
X214815017Y-107326108D01*
X214982879Y-106983900D01*
X215115262Y-106626457D01*
X215210805Y-106257449D01*
X215210807Y-106257439D01*
X215268523Y-105880685D01*
X215268525Y-105880668D01*
X215274948Y-105754000D01*
X214455703Y-105754000D01*
X214490925Y-105692993D01*
X214525000Y-105565826D01*
X214525000Y-105434174D01*
X214490925Y-105307007D01*
X214455703Y-105246000D01*
X215274948Y-105246000D01*
X215274948Y-105245999D01*
X215268525Y-105119331D01*
X215268523Y-105119314D01*
X215210807Y-104742560D01*
X215210805Y-104742550D01*
X215115262Y-104373542D01*
X214982879Y-104016099D01*
X214815017Y-103673891D01*
X214815017Y-103673890D01*
X214613394Y-103350418D01*
X214613390Y-103350411D01*
X214380075Y-103048994D01*
X214380071Y-103048988D01*
X214117462Y-102772725D01*
X213828247Y-102524442D01*
X213515402Y-102306696D01*
X213182121Y-102121711D01*
X212831853Y-101971398D01*
X212468157Y-101857289D01*
X212094808Y-101780564D01*
X211779000Y-101748448D01*
X211779000Y-102569297D01*
X211717993Y-102534075D01*
X211590826Y-102500000D01*
X211459174Y-102500000D01*
X211332007Y-102534075D01*
X211271000Y-102569297D01*
X211271000Y-101748448D01*
X211270999Y-101748448D01*
X210955191Y-101780564D01*
X210581842Y-101857289D01*
X210218146Y-101971398D01*
X209867878Y-102121711D01*
X209534597Y-102306696D01*
X209221752Y-102524442D01*
X208932537Y-102772725D01*
X208669928Y-103048988D01*
X208669924Y-103048994D01*
X208436609Y-103350411D01*
X208436605Y-103350418D01*
X208234982Y-103673890D01*
X208234982Y-103673891D01*
X208067120Y-104016099D01*
X207934737Y-104373542D01*
X207839194Y-104742550D01*
X207839192Y-104742560D01*
X207781476Y-105119314D01*
X207781474Y-105119331D01*
X207775051Y-105245999D01*
X201821500Y-105245999D01*
X201821500Y-104640414D01*
X201821499Y-104640402D01*
X201814994Y-104579906D01*
X201763944Y-104443035D01*
X201763944Y-104443034D01*
X201676404Y-104326095D01*
X201559465Y-104238555D01*
X201422593Y-104187505D01*
X201362097Y-104181000D01*
X201267500Y-104181000D01*
X201267500Y-105285000D01*
X200759500Y-105285000D01*
X200759500Y-104181000D01*
X200664902Y-104181000D01*
X200604406Y-104187505D01*
X200467537Y-104238554D01*
X200419509Y-104274508D01*
X200352988Y-104299318D01*
X200283614Y-104284226D01*
X200233412Y-104234024D01*
X200218000Y-104173639D01*
X200218000Y-104075499D01*
X200218001Y-104075486D01*
X200218001Y-103945665D01*
X200208875Y-103911605D01*
X200187028Y-103830070D01*
X200184773Y-103826165D01*
X200161738Y-103786268D01*
X200161735Y-103786263D01*
X200127194Y-103726434D01*
X200127187Y-103726425D01*
X200038189Y-103637427D01*
X200038168Y-103637408D01*
X199923070Y-103522310D01*
X199923069Y-103522309D01*
X199923066Y-103522307D01*
X199819427Y-103462471D01*
X199703839Y-103431499D01*
X199703836Y-103431499D01*
X199584164Y-103431499D01*
X199584160Y-103431499D01*
X199468572Y-103462471D01*
X199364933Y-103522307D01*
X199364923Y-103522315D01*
X199280315Y-103606923D01*
X199280307Y-103606933D01*
X199220471Y-103710572D01*
X199189499Y-103826160D01*
X194262999Y-103826160D01*
X194232027Y-103710569D01*
X194232025Y-103710566D01*
X194232025Y-103710564D01*
X194172193Y-103606933D01*
X194172185Y-103606923D01*
X194087576Y-103522314D01*
X194087566Y-103522306D01*
X193983935Y-103462474D01*
X193959504Y-103455928D01*
X193868336Y-103431500D01*
X193868334Y-103431500D01*
X193615570Y-103431500D01*
X193615554Y-103431499D01*
X193607836Y-103431499D01*
X193488164Y-103431499D01*
X193396997Y-103455927D01*
X193382892Y-103459706D01*
X193372567Y-103462473D01*
X193268933Y-103522306D01*
X193268928Y-103522310D01*
X193226619Y-103564620D01*
X193184309Y-103606930D01*
X193184307Y-103606932D01*
X192684432Y-104106807D01*
X192684430Y-104106809D01*
X192660079Y-104131160D01*
X192599810Y-104191428D01*
X192599806Y-104191433D01*
X192539972Y-104295070D01*
X192535679Y-104311093D01*
X192508999Y-104410660D01*
X192508999Y-104521114D01*
X192488997Y-104589235D01*
X192487765Y-104591114D01*
X192474634Y-104610766D01*
X192474632Y-104610769D01*
X192463000Y-104669249D01*
X181429542Y-104669249D01*
X181426494Y-104640906D01*
X181375444Y-104504035D01*
X181375444Y-104504034D01*
X181287904Y-104387095D01*
X181170965Y-104299555D01*
X181034093Y-104248505D01*
X180973597Y-104242000D01*
X180879000Y-104242000D01*
X180879000Y-105346000D01*
X180371000Y-105346000D01*
X180371000Y-104242000D01*
X180276402Y-104242000D01*
X180215906Y-104248505D01*
X180079035Y-104299555D01*
X180031009Y-104335507D01*
X179964489Y-104360317D01*
X179895115Y-104345225D01*
X179844913Y-104295023D01*
X179829501Y-104234638D01*
X179829501Y-104131164D01*
X179829500Y-104131160D01*
X179798527Y-104015570D01*
X179798526Y-104015567D01*
X179738693Y-103911933D01*
X179738685Y-103911923D01*
X179649681Y-103822919D01*
X179649658Y-103822898D01*
X179440879Y-103614119D01*
X179440867Y-103614105D01*
X179349076Y-103522314D01*
X179349066Y-103522306D01*
X179245431Y-103462473D01*
X179245424Y-103462471D01*
X179221002Y-103455927D01*
X179129836Y-103431499D01*
X179010164Y-103431499D01*
X179002446Y-103431499D01*
X179002430Y-103431500D01*
X178502164Y-103431500D01*
X178431415Y-103450456D01*
X178386564Y-103462474D01*
X178282933Y-103522306D01*
X178282923Y-103522314D01*
X178198314Y-103606923D01*
X178198306Y-103606933D01*
X178138474Y-103710564D01*
X178134224Y-103726425D01*
X178107500Y-103826164D01*
X172803926Y-103826164D01*
X172754076Y-103776314D01*
X172754066Y-103776306D01*
X172650435Y-103716474D01*
X172628400Y-103710570D01*
X172534836Y-103685500D01*
X172415164Y-103685500D01*
X172344415Y-103704456D01*
X172299564Y-103716474D01*
X172195933Y-103776306D01*
X172195923Y-103776314D01*
X172111314Y-103860923D01*
X172111306Y-103860933D01*
X172051474Y-103964564D01*
X172041667Y-104001165D01*
X172021754Y-104075486D01*
X172020500Y-104080165D01*
X172020500Y-104582113D01*
X172000498Y-104650234D01*
X171999266Y-104652114D01*
X171986132Y-104671769D01*
X171974500Y-104730249D01*
X161321500Y-104730249D01*
X161321500Y-104690414D01*
X161321499Y-104690402D01*
X161314994Y-104629906D01*
X161263944Y-104493035D01*
X161263944Y-104493034D01*
X161176404Y-104376095D01*
X161059465Y-104288555D01*
X160922593Y-104237505D01*
X160862097Y-104231000D01*
X160767500Y-104231000D01*
X160767500Y-105335000D01*
X160259500Y-105335000D01*
X160259500Y-104231000D01*
X160164902Y-104231000D01*
X160104406Y-104237505D01*
X159967537Y-104288554D01*
X159919509Y-104324508D01*
X159852988Y-104349318D01*
X159783614Y-104334226D01*
X159733412Y-104284024D01*
X159718000Y-104223639D01*
X159718000Y-104085665D01*
X159718000Y-104085664D01*
X159687027Y-103970069D01*
X159687025Y-103970066D01*
X159687025Y-103970064D01*
X159627193Y-103866433D01*
X159627185Y-103866423D01*
X159538181Y-103777419D01*
X159538158Y-103777398D01*
X159374879Y-103614119D01*
X159374867Y-103614105D01*
X159283076Y-103522314D01*
X159283066Y-103522306D01*
X159179431Y-103462473D01*
X159179424Y-103462471D01*
X159155002Y-103455927D01*
X159063836Y-103431499D01*
X158944164Y-103431499D01*
X158936446Y-103431499D01*
X158936430Y-103431500D01*
X158430664Y-103431500D01*
X158359915Y-103450456D01*
X158315064Y-103462474D01*
X158211433Y-103522306D01*
X158211423Y-103522314D01*
X158126814Y-103606923D01*
X158126806Y-103606933D01*
X158066974Y-103710564D01*
X158062724Y-103726425D01*
X158036000Y-103826164D01*
X152968000Y-103826164D01*
X152967999Y-103826160D01*
X152937027Y-103710569D01*
X152937025Y-103710566D01*
X152937025Y-103710564D01*
X152877193Y-103606933D01*
X152877185Y-103606923D01*
X152792576Y-103522314D01*
X152792566Y-103522306D01*
X152688935Y-103462474D01*
X152664504Y-103455928D01*
X152573336Y-103431500D01*
X152453664Y-103431500D01*
X152382915Y-103450456D01*
X152338064Y-103462474D01*
X152234433Y-103522306D01*
X152234423Y-103522314D01*
X152149814Y-103606923D01*
X152149806Y-103606933D01*
X152089974Y-103710564D01*
X152085724Y-103726425D01*
X152059870Y-103822919D01*
X152059000Y-103826165D01*
X152059000Y-104571113D01*
X152038998Y-104639234D01*
X152037766Y-104641114D01*
X152024632Y-104660769D01*
X152013000Y-104719249D01*
X141933000Y-104719249D01*
X141933000Y-104701414D01*
X141932999Y-104701402D01*
X141926494Y-104640906D01*
X141875444Y-104504035D01*
X141875444Y-104504034D01*
X141787904Y-104387095D01*
X141670965Y-104299555D01*
X141534093Y-104248505D01*
X141473597Y-104242000D01*
X141379000Y-104242000D01*
X141379000Y-105346000D01*
X140871000Y-105346000D01*
X140871000Y-104242000D01*
X140776402Y-104242000D01*
X140715906Y-104248505D01*
X140579037Y-104299554D01*
X140531009Y-104335508D01*
X140464488Y-104360318D01*
X140395114Y-104345226D01*
X140344912Y-104295024D01*
X140329500Y-104234639D01*
X140329500Y-104001165D01*
X140321167Y-103970064D01*
X140298527Y-103885569D01*
X140298525Y-103885566D01*
X140298525Y-103885564D01*
X140238693Y-103781933D01*
X140238685Y-103781923D01*
X140149689Y-103692927D01*
X140149668Y-103692908D01*
X139979070Y-103522310D01*
X139979068Y-103522309D01*
X139979066Y-103522307D01*
X139875427Y-103462471D01*
X139759839Y-103431499D01*
X139759836Y-103431499D01*
X139640164Y-103431499D01*
X139640160Y-103431499D01*
X139524572Y-103462471D01*
X139420933Y-103522307D01*
X139420923Y-103522315D01*
X139336315Y-103606923D01*
X139336307Y-103606933D01*
X139276471Y-103710572D01*
X139245499Y-103826160D01*
X133579500Y-103826160D01*
X133579500Y-103672999D01*
X133579501Y-103672986D01*
X133579501Y-103543164D01*
X133579500Y-103543160D01*
X133552821Y-103443593D01*
X133548527Y-103427570D01*
X133548527Y-103427569D01*
X133488691Y-103323930D01*
X133488689Y-103323928D01*
X133488685Y-103323923D01*
X133399689Y-103234927D01*
X133399668Y-103234908D01*
X133277070Y-103112310D01*
X133277069Y-103112309D01*
X133277066Y-103112307D01*
X133173427Y-103052471D01*
X133057839Y-103021499D01*
X133057836Y-103021499D01*
X132938164Y-103021499D01*
X132938160Y-103021499D01*
X132822572Y-103052471D01*
X132718933Y-103112307D01*
X132718923Y-103112315D01*
X132634315Y-103196923D01*
X132634307Y-103196933D01*
X132574471Y-103300572D01*
X132543499Y-103416160D01*
X124654372Y-103416160D01*
X124613394Y-103350418D01*
X124613390Y-103350411D01*
X124380075Y-103048994D01*
X124380071Y-103048988D01*
X124117462Y-102772725D01*
X123828247Y-102524442D01*
X123515402Y-102306696D01*
X123182121Y-102121711D01*
X122831853Y-101971398D01*
X122468157Y-101857289D01*
X122094808Y-101780564D01*
X121779000Y-101748448D01*
X121779000Y-102569297D01*
X121717993Y-102534075D01*
X121590826Y-102500000D01*
X121459174Y-102500000D01*
X121332007Y-102534075D01*
X121271000Y-102569297D01*
X121271000Y-101748448D01*
X121270999Y-101748448D01*
X120955191Y-101780564D01*
X120581842Y-101857289D01*
X120218146Y-101971398D01*
X119867878Y-102121711D01*
X119534597Y-102306696D01*
X119221752Y-102524442D01*
X118932537Y-102772725D01*
X118669928Y-103048988D01*
X118669924Y-103048994D01*
X118436609Y-103350411D01*
X118436605Y-103350418D01*
X118234982Y-103673890D01*
X118234982Y-103673891D01*
X118067120Y-104016099D01*
X117934737Y-104373542D01*
X117839194Y-104742550D01*
X117839192Y-104742560D01*
X117781476Y-105119314D01*
X117781474Y-105119331D01*
X117775051Y-105245999D01*
X117025500Y-105245999D01*
X117025500Y-95148400D01*
X140158108Y-95148400D01*
X140177954Y-95273704D01*
X140177955Y-95273705D01*
X140235067Y-95385794D01*
X140248800Y-95442997D01*
X140248800Y-96123802D01*
X140235067Y-96181005D01*
X140177954Y-96293096D01*
X140158108Y-96418400D01*
X140177954Y-96543704D01*
X140177955Y-96543705D01*
X140235549Y-96656742D01*
X140325257Y-96746450D01*
X140363899Y-96766138D01*
X140438296Y-96804046D01*
X140563600Y-96823892D01*
X140688904Y-96804046D01*
X140801942Y-96746450D01*
X140891650Y-96656742D01*
X140949246Y-96543704D01*
X140969092Y-96418400D01*
X140949246Y-96293096D01*
X140892133Y-96181005D01*
X140878400Y-96123802D01*
X140878400Y-95442997D01*
X140892133Y-95385794D01*
X140949246Y-95273704D01*
X140969092Y-95148400D01*
X140961046Y-95097600D01*
X159512908Y-95097600D01*
X159532754Y-95222904D01*
X159532755Y-95222905D01*
X159589867Y-95334994D01*
X159603600Y-95392197D01*
X159603600Y-96123802D01*
X159589867Y-96181005D01*
X159532754Y-96293096D01*
X159512908Y-96418400D01*
X159532754Y-96543704D01*
X159532755Y-96543705D01*
X159590349Y-96656742D01*
X159680057Y-96746450D01*
X159718699Y-96766138D01*
X159793096Y-96804046D01*
X159918400Y-96823892D01*
X160043704Y-96804046D01*
X160156742Y-96746450D01*
X160246450Y-96656742D01*
X160304046Y-96543704D01*
X160323892Y-96418400D01*
X160304046Y-96293096D01*
X160246933Y-96181005D01*
X160233200Y-96123802D01*
X160233200Y-95392197D01*
X160246933Y-95334994D01*
X160278161Y-95273705D01*
X160304046Y-95222904D01*
X160315846Y-95148400D01*
X179731308Y-95148400D01*
X179751154Y-95273704D01*
X179751155Y-95273705D01*
X179808267Y-95385794D01*
X179822000Y-95442997D01*
X179822000Y-96123802D01*
X179808267Y-96181005D01*
X179751154Y-96293096D01*
X179731308Y-96418400D01*
X179751154Y-96543704D01*
X179751155Y-96543705D01*
X179808749Y-96656742D01*
X179898457Y-96746450D01*
X179937099Y-96766138D01*
X180011496Y-96804046D01*
X180136800Y-96823892D01*
X180262104Y-96804046D01*
X180375142Y-96746450D01*
X180464850Y-96656742D01*
X180522446Y-96543704D01*
X180542292Y-96418400D01*
X180522446Y-96293096D01*
X180465333Y-96181005D01*
X180451600Y-96123802D01*
X180451600Y-95442997D01*
X180465333Y-95385794D01*
X180522446Y-95273704D01*
X180542292Y-95148400D01*
X180522446Y-95023096D01*
X180484538Y-94948699D01*
X180464850Y-94910057D01*
X180375142Y-94820349D01*
X180299302Y-94781707D01*
X180262104Y-94762754D01*
X180136800Y-94742908D01*
X180011496Y-94762754D01*
X180011494Y-94762754D01*
X180011494Y-94762755D01*
X179898457Y-94820349D01*
X179808749Y-94910057D01*
X179751155Y-95023094D01*
X179751154Y-95023096D01*
X179731308Y-95148400D01*
X160315846Y-95148400D01*
X160323892Y-95097600D01*
X160304046Y-94972296D01*
X160266138Y-94897899D01*
X160246450Y-94859257D01*
X160156742Y-94769549D01*
X160080902Y-94730907D01*
X160043704Y-94711954D01*
X159918400Y-94692108D01*
X159793096Y-94711954D01*
X159793094Y-94711954D01*
X159793094Y-94711955D01*
X159680057Y-94769549D01*
X159590349Y-94859257D01*
X159532755Y-94972294D01*
X159532754Y-94972296D01*
X159512908Y-95097600D01*
X140961046Y-95097600D01*
X140949246Y-95023096D01*
X140911338Y-94948699D01*
X140891650Y-94910057D01*
X140801942Y-94820349D01*
X140726102Y-94781707D01*
X140688904Y-94762754D01*
X140563600Y-94742908D01*
X140438296Y-94762754D01*
X140438294Y-94762754D01*
X140438294Y-94762755D01*
X140325257Y-94820349D01*
X140235549Y-94910057D01*
X140177955Y-95023094D01*
X140177954Y-95023096D01*
X140158108Y-95148400D01*
X117025500Y-95148400D01*
X117025500Y-92862400D01*
X193701308Y-92862400D01*
X193721154Y-92987704D01*
X193721155Y-92987705D01*
X193778749Y-93100742D01*
X193868457Y-93190450D01*
X193907099Y-93210138D01*
X193981496Y-93248046D01*
X194106800Y-93267892D01*
X194232104Y-93248046D01*
X194344194Y-93190932D01*
X194401397Y-93177200D01*
X195082203Y-93177200D01*
X195139405Y-93190932D01*
X195251496Y-93248046D01*
X195376800Y-93267892D01*
X195502104Y-93248046D01*
X195615142Y-93190450D01*
X195704850Y-93100742D01*
X195762446Y-92987704D01*
X195782292Y-92862400D01*
X195762446Y-92737096D01*
X195724538Y-92662699D01*
X195704850Y-92624057D01*
X195615142Y-92534349D01*
X195539302Y-92495707D01*
X195502104Y-92476754D01*
X195376800Y-92456908D01*
X195251496Y-92476754D01*
X195251494Y-92476754D01*
X195251494Y-92476755D01*
X195139406Y-92533867D01*
X195082203Y-92547600D01*
X194401397Y-92547600D01*
X194344194Y-92533867D01*
X194232104Y-92476754D01*
X194106800Y-92456908D01*
X193981496Y-92476754D01*
X193981494Y-92476754D01*
X193981494Y-92476755D01*
X193868457Y-92534349D01*
X193778749Y-92624057D01*
X193721155Y-92737094D01*
X193721154Y-92737096D01*
X193701308Y-92862400D01*
X117025500Y-92862400D01*
X117025500Y-85553703D01*
X117045502Y-85485582D01*
X117099158Y-85439089D01*
X117169432Y-85428985D01*
X117228891Y-85454272D01*
X117265500Y-85482766D01*
X117470724Y-85593827D01*
X117470727Y-85593829D01*
X117691417Y-85669592D01*
X117691426Y-85669594D01*
X117784249Y-85685083D01*
X117784250Y-85685083D01*
X117784250Y-84788438D01*
X117825958Y-84812518D01*
X117965841Y-84850000D01*
X118110659Y-84850000D01*
X118250542Y-84812518D01*
X118292250Y-84788438D01*
X118292250Y-85685083D01*
X118385073Y-85669594D01*
X118385082Y-85669592D01*
X118605772Y-85593829D01*
X118605775Y-85593827D01*
X118810999Y-85482766D01*
X118995131Y-85339450D01*
X118995136Y-85339445D01*
X119153168Y-85167776D01*
X119280793Y-84972430D01*
X119374523Y-84758747D01*
X119374525Y-84758743D01*
X119426374Y-84554000D01*
X118526688Y-84554000D01*
X118550768Y-84512292D01*
X118588250Y-84372409D01*
X118588250Y-84227591D01*
X118550768Y-84087708D01*
X118526688Y-84046000D01*
X119426374Y-84046000D01*
X119374525Y-83841256D01*
X119374523Y-83841252D01*
X119280793Y-83627569D01*
X119153168Y-83432223D01*
X118995136Y-83260554D01*
X118995131Y-83260549D01*
X118810999Y-83117233D01*
X118605775Y-83006172D01*
X118605772Y-83006170D01*
X118385078Y-82930406D01*
X118385067Y-82930403D01*
X118292250Y-82914914D01*
X118292250Y-83811561D01*
X118250542Y-83787482D01*
X118110659Y-83750000D01*
X117965841Y-83750000D01*
X117825958Y-83787482D01*
X117784250Y-83811561D01*
X117784250Y-82914914D01*
X117784249Y-82914914D01*
X117691432Y-82930403D01*
X117691421Y-82930406D01*
X117470727Y-83006170D01*
X117470724Y-83006172D01*
X117265501Y-83117232D01*
X117228890Y-83145728D01*
X117162847Y-83171784D01*
X117093202Y-83157998D01*
X117042066Y-83108747D01*
X117025500Y-83046296D01*
X117025500Y-81300000D01*
X126582779Y-81300000D01*
X126602631Y-81539570D01*
X126661638Y-81772587D01*
X126661640Y-81772591D01*
X126758201Y-81992728D01*
X126889679Y-82193969D01*
X127052486Y-82370825D01*
X127242182Y-82518471D01*
X127242183Y-82518472D01*
X127453594Y-82632882D01*
X127453596Y-82632883D01*
X127572965Y-82673861D01*
X127680953Y-82710934D01*
X127918058Y-82750500D01*
X127918062Y-82750500D01*
X128158438Y-82750500D01*
X128158442Y-82750500D01*
X128395547Y-82710934D01*
X128622906Y-82632882D01*
X128834317Y-82518472D01*
X129024014Y-82370825D01*
X129186821Y-82193969D01*
X129318299Y-81992728D01*
X129414860Y-81772591D01*
X129473870Y-81539563D01*
X129493721Y-81300000D01*
X129473870Y-81060437D01*
X129414860Y-80827409D01*
X129318299Y-80607272D01*
X129186821Y-80406031D01*
X129024014Y-80229175D01*
X128834317Y-80081528D01*
X128834316Y-80081527D01*
X128622905Y-79967117D01*
X128622903Y-79967116D01*
X128395551Y-79889067D01*
X128395544Y-79889065D01*
X128294069Y-79872132D01*
X128158442Y-79849500D01*
X127918058Y-79849500D01*
X127799399Y-79869300D01*
X127680955Y-79889065D01*
X127680948Y-79889067D01*
X127453596Y-79967116D01*
X127453594Y-79967117D01*
X127242183Y-80081527D01*
X127242182Y-80081528D01*
X127052483Y-80229177D01*
X126889681Y-80406028D01*
X126758199Y-80607275D01*
X126661641Y-80827405D01*
X126661638Y-80827412D01*
X126602631Y-81060429D01*
X126582779Y-81300000D01*
X117025500Y-81300000D01*
X117025500Y-76045998D01*
X126294353Y-76045998D01*
X126294355Y-76046000D01*
X127171141Y-76046000D01*
X127138250Y-76211358D01*
X127138250Y-76388642D01*
X127171141Y-76554000D01*
X126294355Y-76554000D01*
X126294353Y-76554001D01*
X126295009Y-76562744D01*
X126295010Y-76562751D01*
X126353642Y-76819634D01*
X126353643Y-76819636D01*
X126449901Y-77064900D01*
X126449903Y-77064904D01*
X126581646Y-77293090D01*
X126745932Y-77499097D01*
X126939082Y-77678314D01*
X126939087Y-77678318D01*
X127156775Y-77826736D01*
X127156782Y-77826740D01*
X127394173Y-77941062D01*
X127645954Y-78018728D01*
X127645962Y-78018729D01*
X127784250Y-78039572D01*
X127784250Y-77167108D01*
X127949608Y-77200000D01*
X128126892Y-77200000D01*
X128292250Y-77167108D01*
X128292250Y-78039572D01*
X128430537Y-78018729D01*
X128430545Y-78018728D01*
X128682326Y-77941062D01*
X128919717Y-77826740D01*
X128919724Y-77826736D01*
X129137412Y-77678318D01*
X129137417Y-77678314D01*
X129330567Y-77499097D01*
X129494853Y-77293090D01*
X129626596Y-77064904D01*
X129626598Y-77064900D01*
X129722856Y-76819636D01*
X129722857Y-76819634D01*
X129781489Y-76562751D01*
X129781490Y-76562744D01*
X129782146Y-76554001D01*
X129782145Y-76554000D01*
X128905359Y-76554000D01*
X128938250Y-76388642D01*
X128938250Y-76211358D01*
X128905359Y-76046000D01*
X129782145Y-76046000D01*
X129782146Y-76045998D01*
X129781490Y-76037255D01*
X129781489Y-76037248D01*
X129722857Y-75780365D01*
X129722856Y-75780363D01*
X129626598Y-75535099D01*
X129626596Y-75535095D01*
X129494853Y-75306909D01*
X129330567Y-75100902D01*
X129137417Y-74921685D01*
X129137412Y-74921681D01*
X128919724Y-74773263D01*
X128919717Y-74773259D01*
X128682326Y-74658937D01*
X128430541Y-74581270D01*
X128292250Y-74560426D01*
X128292250Y-75432891D01*
X128126892Y-75400000D01*
X127949608Y-75400000D01*
X127784250Y-75432891D01*
X127784250Y-74560426D01*
X127645958Y-74581270D01*
X127394173Y-74658937D01*
X127156782Y-74773259D01*
X127156775Y-74773263D01*
X126939087Y-74921681D01*
X126939082Y-74921685D01*
X126745932Y-75100902D01*
X126581646Y-75306909D01*
X126449903Y-75535095D01*
X126449901Y-75535099D01*
X126353643Y-75780363D01*
X126353642Y-75780365D01*
X126295010Y-76037248D01*
X126295009Y-76037255D01*
X126294353Y-76045998D01*
X117025500Y-76045998D01*
X117025500Y-74553703D01*
X117045502Y-74485582D01*
X117099158Y-74439089D01*
X117169432Y-74428985D01*
X117228891Y-74454272D01*
X117265500Y-74482766D01*
X117470724Y-74593827D01*
X117470727Y-74593829D01*
X117691417Y-74669592D01*
X117691426Y-74669594D01*
X117784249Y-74685083D01*
X117784250Y-74685083D01*
X117784250Y-73788438D01*
X117825958Y-73812518D01*
X117965841Y-73850000D01*
X118110659Y-73850000D01*
X118250542Y-73812518D01*
X118292250Y-73788438D01*
X118292250Y-74685083D01*
X118385073Y-74669594D01*
X118385082Y-74669592D01*
X118605772Y-74593829D01*
X118605775Y-74593827D01*
X118810999Y-74482766D01*
X118995131Y-74339450D01*
X118995136Y-74339445D01*
X119153168Y-74167776D01*
X119280793Y-73972430D01*
X119374523Y-73758747D01*
X119374525Y-73758743D01*
X119426374Y-73554000D01*
X118526688Y-73554000D01*
X118550768Y-73512292D01*
X118588250Y-73372409D01*
X118588250Y-73227591D01*
X118550768Y-73087708D01*
X118526688Y-73046000D01*
X119426374Y-73046000D01*
X119374525Y-72841256D01*
X119374523Y-72841252D01*
X119280793Y-72627569D01*
X119153168Y-72432223D01*
X118995136Y-72260554D01*
X118995131Y-72260549D01*
X118810999Y-72117233D01*
X118605775Y-72006172D01*
X118605772Y-72006170D01*
X118385078Y-71930406D01*
X118385067Y-71930403D01*
X118292250Y-71914914D01*
X118292250Y-72811561D01*
X118250542Y-72787482D01*
X118110659Y-72750000D01*
X117965841Y-72750000D01*
X117825958Y-72787482D01*
X117784250Y-72811561D01*
X117784250Y-71914914D01*
X117784249Y-71914914D01*
X117691432Y-71930403D01*
X117691421Y-71930406D01*
X117470727Y-72006170D01*
X117470724Y-72006172D01*
X117265501Y-72117232D01*
X117228890Y-72145728D01*
X117162847Y-72171784D01*
X117093202Y-72157998D01*
X117042066Y-72108747D01*
X117025500Y-72046296D01*
X117025500Y-65502747D01*
X117025620Y-65497251D01*
X117035433Y-65272498D01*
X117036590Y-65245999D01*
X117775051Y-65245999D01*
X117775052Y-65246000D01*
X118594297Y-65246000D01*
X118559075Y-65307007D01*
X118525000Y-65434174D01*
X118525000Y-65565826D01*
X118559075Y-65692993D01*
X118594297Y-65754000D01*
X117775051Y-65754000D01*
X117781474Y-65880668D01*
X117781476Y-65880685D01*
X117839192Y-66257439D01*
X117839194Y-66257449D01*
X117934737Y-66626457D01*
X118067120Y-66983900D01*
X118234982Y-67326108D01*
X118234982Y-67326109D01*
X118436605Y-67649581D01*
X118436609Y-67649588D01*
X118669924Y-67951005D01*
X118669928Y-67951011D01*
X118932537Y-68227274D01*
X119221752Y-68475557D01*
X119534597Y-68693303D01*
X119867878Y-68878288D01*
X120218146Y-69028601D01*
X120581842Y-69142710D01*
X120955201Y-69219437D01*
X121270999Y-69251550D01*
X121271000Y-69251550D01*
X121271000Y-68430702D01*
X121332007Y-68465925D01*
X121459174Y-68500000D01*
X121590826Y-68500000D01*
X121717993Y-68465925D01*
X121779000Y-68430702D01*
X121779000Y-69251550D01*
X122094798Y-69219437D01*
X122468157Y-69142710D01*
X122831853Y-69028601D01*
X123182121Y-68878288D01*
X123515402Y-68693303D01*
X123828247Y-68475557D01*
X124117462Y-68227274D01*
X124380071Y-67951011D01*
X124380075Y-67951005D01*
X124613390Y-67649588D01*
X124613394Y-67649581D01*
X124815017Y-67326109D01*
X124815017Y-67326108D01*
X124982879Y-66983900D01*
X125115262Y-66626457D01*
X125135576Y-66548000D01*
X194056908Y-66548000D01*
X194076754Y-66673304D01*
X194121167Y-66760469D01*
X194134900Y-66817672D01*
X194134900Y-71010719D01*
X194157218Y-71094009D01*
X194157219Y-71094012D01*
X194200332Y-71168686D01*
X194200334Y-71168688D01*
X194200335Y-71168690D01*
X194454335Y-71422690D01*
X194515310Y-71483665D01*
X194515311Y-71483666D01*
X194515313Y-71483667D01*
X194589987Y-71526780D01*
X194589990Y-71526781D01*
X194673284Y-71549100D01*
X200288932Y-71549100D01*
X200327867Y-71555267D01*
X200331490Y-71556444D01*
X200331493Y-71556444D01*
X200331496Y-71556446D01*
X200456800Y-71576292D01*
X200582104Y-71556446D01*
X200695142Y-71498850D01*
X200784850Y-71409142D01*
X200842446Y-71296104D01*
X200862292Y-71170800D01*
X200842446Y-71045496D01*
X200804538Y-70971099D01*
X200784850Y-70932457D01*
X200695142Y-70842749D01*
X200619302Y-70804107D01*
X200582104Y-70785154D01*
X200456800Y-70765308D01*
X200331496Y-70785154D01*
X200331494Y-70785154D01*
X200331494Y-70785155D01*
X200218457Y-70842749D01*
X200218455Y-70842751D01*
X200204012Y-70857195D01*
X200141700Y-70891221D01*
X200114917Y-70894100D01*
X194915900Y-70894100D01*
X194847779Y-70874098D01*
X194801286Y-70820442D01*
X194789900Y-70768100D01*
X194789900Y-66817672D01*
X194803633Y-66760469D01*
X194848046Y-66673304D01*
X194867892Y-66548000D01*
X194848046Y-66422696D01*
X194801850Y-66332031D01*
X194790450Y-66309657D01*
X194700742Y-66219949D01*
X194624902Y-66181307D01*
X194587704Y-66162354D01*
X194462400Y-66142508D01*
X194337096Y-66162354D01*
X194337094Y-66162354D01*
X194337094Y-66162355D01*
X194224057Y-66219949D01*
X194134349Y-66309657D01*
X194076755Y-66422694D01*
X194076754Y-66422696D01*
X194056908Y-66548000D01*
X125135576Y-66548000D01*
X125210805Y-66257449D01*
X125210807Y-66257439D01*
X125268523Y-65880685D01*
X125268525Y-65880668D01*
X125274948Y-65754000D01*
X124455703Y-65754000D01*
X124490925Y-65692993D01*
X124525000Y-65565826D01*
X124525000Y-65434174D01*
X124490925Y-65307007D01*
X124455703Y-65246000D01*
X125274948Y-65246000D01*
X125274948Y-65245999D01*
X125268525Y-65119331D01*
X125268523Y-65119314D01*
X125210807Y-64742560D01*
X125210805Y-64742550D01*
X125115262Y-64373542D01*
X124982879Y-64016099D01*
X124815017Y-63673891D01*
X124815017Y-63673890D01*
X124738669Y-63551402D01*
X135717000Y-63551402D01*
X135717000Y-64246000D01*
X136636562Y-64246000D01*
X136612482Y-64287708D01*
X136575000Y-64427591D01*
X136575000Y-64572409D01*
X136612482Y-64712292D01*
X136636562Y-64754000D01*
X135717000Y-64754000D01*
X135717000Y-65448597D01*
X135723505Y-65509093D01*
X135774555Y-65645964D01*
X135774555Y-65645965D01*
X135862095Y-65762904D01*
X135979034Y-65850444D01*
X136115906Y-65901494D01*
X136176402Y-65907999D01*
X136176415Y-65908000D01*
X136871000Y-65908000D01*
X136871000Y-64988438D01*
X136912708Y-65012518D01*
X137052591Y-65050000D01*
X137197409Y-65050000D01*
X137337292Y-65012518D01*
X137379000Y-64988438D01*
X137379000Y-65908000D01*
X138073585Y-65908000D01*
X138073597Y-65907999D01*
X138134093Y-65901494D01*
X138270964Y-65850444D01*
X138270965Y-65850444D01*
X138387904Y-65762904D01*
X138475444Y-65645965D01*
X138475444Y-65645964D01*
X138526494Y-65509093D01*
X138532999Y-65448597D01*
X138533000Y-65448585D01*
X138533000Y-65256040D01*
X138553002Y-65187919D01*
X138606658Y-65141426D01*
X138676932Y-65131322D01*
X138741512Y-65160816D01*
X138759548Y-65180106D01*
X138769280Y-65192993D01*
X138808235Y-65244579D01*
X138958959Y-65381981D01*
X138958960Y-65381982D01*
X139132351Y-65489341D01*
X139132354Y-65489342D01*
X139132363Y-65489348D01*
X139322544Y-65563024D01*
X139523024Y-65600500D01*
X139523026Y-65600500D01*
X139726974Y-65600500D01*
X139726976Y-65600500D01*
X139927456Y-65563024D01*
X140117637Y-65489348D01*
X140291041Y-65381981D01*
X140440206Y-65245999D01*
X207775051Y-65245999D01*
X207775052Y-65246000D01*
X208594297Y-65246000D01*
X208559075Y-65307007D01*
X208525000Y-65434174D01*
X208525000Y-65565826D01*
X208559075Y-65692993D01*
X208594297Y-65754000D01*
X207775051Y-65754000D01*
X207781474Y-65880668D01*
X207781476Y-65880685D01*
X207839192Y-66257439D01*
X207839194Y-66257449D01*
X207934737Y-66626457D01*
X208067120Y-66983900D01*
X208234982Y-67326108D01*
X208234982Y-67326109D01*
X208436605Y-67649581D01*
X208436609Y-67649588D01*
X208669924Y-67951005D01*
X208669928Y-67951011D01*
X208932537Y-68227274D01*
X209221752Y-68475557D01*
X209534597Y-68693303D01*
X209867878Y-68878288D01*
X210218146Y-69028601D01*
X210581842Y-69142710D01*
X210955201Y-69219437D01*
X211270999Y-69251550D01*
X211271000Y-69251550D01*
X211271000Y-68430702D01*
X211332007Y-68465925D01*
X211459174Y-68500000D01*
X211590826Y-68500000D01*
X211717993Y-68465925D01*
X211779000Y-68430702D01*
X211779000Y-69251550D01*
X212094798Y-69219437D01*
X212468157Y-69142710D01*
X212831853Y-69028601D01*
X213182121Y-68878288D01*
X213515402Y-68693303D01*
X213828247Y-68475557D01*
X214117462Y-68227274D01*
X214380071Y-67951011D01*
X214380075Y-67951005D01*
X214613390Y-67649588D01*
X214613394Y-67649581D01*
X214815017Y-67326109D01*
X214815017Y-67326108D01*
X214982879Y-66983900D01*
X215115262Y-66626457D01*
X215210805Y-66257449D01*
X215210807Y-66257439D01*
X215268523Y-65880685D01*
X215268525Y-65880668D01*
X215274948Y-65754000D01*
X214455703Y-65754000D01*
X214490925Y-65692993D01*
X214525000Y-65565826D01*
X214525000Y-65434174D01*
X214490925Y-65307007D01*
X214455703Y-65246000D01*
X215274948Y-65246000D01*
X215274948Y-65245999D01*
X215268525Y-65119331D01*
X215268523Y-65119314D01*
X215210807Y-64742560D01*
X215210805Y-64742550D01*
X215115262Y-64373542D01*
X214982879Y-64016099D01*
X214815017Y-63673891D01*
X214815017Y-63673890D01*
X214613394Y-63350418D01*
X214613390Y-63350411D01*
X214380075Y-63048994D01*
X214380071Y-63048988D01*
X214117462Y-62772725D01*
X213828247Y-62524442D01*
X213515402Y-62306696D01*
X213182121Y-62121711D01*
X212831853Y-61971398D01*
X212468157Y-61857289D01*
X212094808Y-61780564D01*
X211779000Y-61748448D01*
X211779000Y-62569297D01*
X211717993Y-62534075D01*
X211590826Y-62500000D01*
X211459174Y-62500000D01*
X211332007Y-62534075D01*
X211271000Y-62569297D01*
X211271000Y-61748448D01*
X211270999Y-61748448D01*
X210955191Y-61780564D01*
X210581842Y-61857289D01*
X210218146Y-61971398D01*
X209867878Y-62121711D01*
X209534597Y-62306696D01*
X209221752Y-62524442D01*
X208932537Y-62772725D01*
X208669928Y-63048988D01*
X208669924Y-63048994D01*
X208436609Y-63350411D01*
X208436605Y-63350418D01*
X208234982Y-63673890D01*
X208234982Y-63673891D01*
X208067120Y-64016099D01*
X207934737Y-64373542D01*
X207839194Y-64742550D01*
X207839192Y-64742560D01*
X207781476Y-65119314D01*
X207781474Y-65119331D01*
X207775051Y-65245999D01*
X140440206Y-65245999D01*
X140441764Y-65244579D01*
X140564673Y-65081821D01*
X140655582Y-64899250D01*
X140711397Y-64703083D01*
X140730215Y-64500000D01*
X140711397Y-64296917D01*
X140655582Y-64100750D01*
X140564673Y-63918179D01*
X140525999Y-63866966D01*
X140441765Y-63755421D01*
X140291040Y-63618018D01*
X140291039Y-63618017D01*
X140117648Y-63510658D01*
X140117641Y-63510654D01*
X140117637Y-63510652D01*
X140001133Y-63465518D01*
X139927457Y-63436976D01*
X139860629Y-63424484D01*
X139726976Y-63399500D01*
X139523024Y-63399500D01*
X139422784Y-63418238D01*
X139322542Y-63436976D01*
X139247817Y-63465925D01*
X139132363Y-63510652D01*
X139132362Y-63510652D01*
X139132361Y-63510653D01*
X139132351Y-63510658D01*
X138958960Y-63618017D01*
X138958959Y-63618018D01*
X138808234Y-63755421D01*
X138759550Y-63819891D01*
X138702537Y-63862198D01*
X138631700Y-63866966D01*
X138569531Y-63832680D01*
X138535768Y-63770225D01*
X138533000Y-63743959D01*
X138533000Y-63551414D01*
X138532999Y-63551402D01*
X138526494Y-63490906D01*
X138475444Y-63354035D01*
X138475444Y-63354034D01*
X138387904Y-63237095D01*
X138270965Y-63149555D01*
X138134093Y-63098505D01*
X138073597Y-63092000D01*
X137379000Y-63092000D01*
X137379000Y-64011561D01*
X137337292Y-63987482D01*
X137197409Y-63950000D01*
X137052591Y-63950000D01*
X136912708Y-63987482D01*
X136871000Y-64011561D01*
X136871000Y-63092000D01*
X136176402Y-63092000D01*
X136115906Y-63098505D01*
X135979035Y-63149555D01*
X135979034Y-63149555D01*
X135862095Y-63237095D01*
X135774555Y-63354034D01*
X135774555Y-63354035D01*
X135723505Y-63490906D01*
X135717000Y-63551402D01*
X124738669Y-63551402D01*
X124613394Y-63350418D01*
X124613390Y-63350411D01*
X124380075Y-63048994D01*
X124380071Y-63048988D01*
X124117462Y-62772725D01*
X123828247Y-62524442D01*
X123515402Y-62306696D01*
X123433624Y-62261306D01*
X144974500Y-62261306D01*
X144974500Y-63238693D01*
X144996724Y-63350418D01*
X145009106Y-63412666D01*
X145076987Y-63576547D01*
X145104698Y-63618019D01*
X145175535Y-63724034D01*
X145175540Y-63724040D01*
X145300959Y-63849459D01*
X145300965Y-63849464D01*
X145448453Y-63948013D01*
X145612334Y-64015894D01*
X145786309Y-64050500D01*
X145786310Y-64050500D01*
X145963690Y-64050500D01*
X145963691Y-64050500D01*
X146137666Y-64015894D01*
X146301547Y-63948013D01*
X146449035Y-63849464D01*
X146574464Y-63724035D01*
X146673013Y-63576547D01*
X146740894Y-63412666D01*
X146775500Y-63238691D01*
X146775500Y-62749997D01*
X147057843Y-62749997D01*
X147057843Y-62750002D01*
X147076425Y-62938676D01*
X147076426Y-62938682D01*
X147076427Y-62938683D01*
X147131463Y-63120115D01*
X147220838Y-63287324D01*
X147341117Y-63433883D01*
X147487676Y-63554162D01*
X147654885Y-63643537D01*
X147836317Y-63698573D01*
X147836321Y-63698573D01*
X147836323Y-63698574D01*
X148024997Y-63717157D01*
X148025000Y-63717157D01*
X148025003Y-63717157D01*
X148213676Y-63698574D01*
X148213677Y-63698573D01*
X148213683Y-63698573D01*
X148395115Y-63643537D01*
X148562324Y-63554162D01*
X148708883Y-63433883D01*
X148829162Y-63287324D01*
X148913878Y-63128830D01*
X148963630Y-63078183D01*
X149032867Y-63062473D01*
X149099606Y-63086689D01*
X149136121Y-63128830D01*
X149220838Y-63287324D01*
X149341117Y-63433883D01*
X149487676Y-63554162D01*
X149654885Y-63643537D01*
X149836317Y-63698573D01*
X149836321Y-63698573D01*
X149836323Y-63698574D01*
X150024997Y-63717157D01*
X150025000Y-63717157D01*
X150025003Y-63717157D01*
X150213676Y-63698574D01*
X150213677Y-63698573D01*
X150213683Y-63698573D01*
X150395115Y-63643537D01*
X150562324Y-63554162D01*
X150708883Y-63433883D01*
X150829162Y-63287324D01*
X150913878Y-63128830D01*
X150963630Y-63078183D01*
X151032867Y-63062473D01*
X151099606Y-63086689D01*
X151136121Y-63128830D01*
X151220838Y-63287324D01*
X151341117Y-63433883D01*
X151487676Y-63554162D01*
X151654885Y-63643537D01*
X151836317Y-63698573D01*
X151836321Y-63698573D01*
X151836323Y-63698574D01*
X152024997Y-63717157D01*
X152025000Y-63717157D01*
X152025003Y-63717157D01*
X152213676Y-63698574D01*
X152213677Y-63698573D01*
X152213683Y-63698573D01*
X152395115Y-63643537D01*
X152562324Y-63554162D01*
X152708883Y-63433883D01*
X152829162Y-63287324D01*
X152918537Y-63120115D01*
X152973573Y-62938683D01*
X152975036Y-62923837D01*
X152992157Y-62750002D01*
X152992157Y-62749997D01*
X152973574Y-62561323D01*
X152973573Y-62561321D01*
X152973573Y-62561317D01*
X152918537Y-62379885D01*
X152855155Y-62261306D01*
X153274500Y-62261306D01*
X153274500Y-63238693D01*
X153296724Y-63350418D01*
X153309106Y-63412666D01*
X153376987Y-63576547D01*
X153404698Y-63618019D01*
X153475535Y-63724034D01*
X153475540Y-63724040D01*
X153600959Y-63849459D01*
X153600965Y-63849464D01*
X153748453Y-63948013D01*
X153912334Y-64015894D01*
X154086309Y-64050500D01*
X154086310Y-64050500D01*
X154263690Y-64050500D01*
X154263691Y-64050500D01*
X154437666Y-64015894D01*
X154601547Y-63948013D01*
X154749035Y-63849464D01*
X154874464Y-63724035D01*
X154973013Y-63576547D01*
X155040894Y-63412666D01*
X155075500Y-63238691D01*
X155075500Y-62261309D01*
X155040894Y-62087334D01*
X154973013Y-61923453D01*
X154874464Y-61775965D01*
X154874459Y-61775959D01*
X154749040Y-61650540D01*
X154749034Y-61650535D01*
X154674564Y-61600776D01*
X154601547Y-61551987D01*
X154437666Y-61484106D01*
X154263693Y-61449500D01*
X154263691Y-61449500D01*
X154086309Y-61449500D01*
X154086306Y-61449500D01*
X153912333Y-61484106D01*
X153912328Y-61484108D01*
X153748453Y-61551987D01*
X153600965Y-61650535D01*
X153600959Y-61650540D01*
X153475540Y-61775959D01*
X153475535Y-61775965D01*
X153376987Y-61923453D01*
X153309108Y-62087328D01*
X153309106Y-62087333D01*
X153274500Y-62261306D01*
X152855155Y-62261306D01*
X152829162Y-62212676D01*
X152708883Y-62066117D01*
X152562324Y-61945838D01*
X152395115Y-61856463D01*
X152213683Y-61801427D01*
X152213682Y-61801426D01*
X152213676Y-61801425D01*
X152025003Y-61782843D01*
X152024997Y-61782843D01*
X151836323Y-61801425D01*
X151654884Y-61856463D01*
X151487675Y-61945838D01*
X151341117Y-62066117D01*
X151220838Y-62212675D01*
X151136122Y-62371168D01*
X151086370Y-62421816D01*
X151017133Y-62437526D01*
X150950394Y-62413310D01*
X150913878Y-62371168D01*
X150829161Y-62212675D01*
X150754508Y-62121711D01*
X150708883Y-62066117D01*
X150562324Y-61945838D01*
X150395115Y-61856463D01*
X150213683Y-61801427D01*
X150213682Y-61801426D01*
X150213676Y-61801425D01*
X150025003Y-61782843D01*
X150024997Y-61782843D01*
X149836323Y-61801425D01*
X149654884Y-61856463D01*
X149487675Y-61945838D01*
X149341117Y-62066117D01*
X149220838Y-62212675D01*
X149136122Y-62371168D01*
X149086370Y-62421816D01*
X149017133Y-62437526D01*
X148950394Y-62413310D01*
X148913878Y-62371168D01*
X148829161Y-62212675D01*
X148754508Y-62121711D01*
X148708883Y-62066117D01*
X148562324Y-61945838D01*
X148395115Y-61856463D01*
X148213683Y-61801427D01*
X148213682Y-61801426D01*
X148213676Y-61801425D01*
X148025003Y-61782843D01*
X148024997Y-61782843D01*
X147836323Y-61801425D01*
X147654884Y-61856463D01*
X147487675Y-61945838D01*
X147341117Y-62066117D01*
X147220838Y-62212675D01*
X147131463Y-62379884D01*
X147076425Y-62561323D01*
X147057843Y-62749997D01*
X146775500Y-62749997D01*
X146775500Y-62261309D01*
X146740894Y-62087334D01*
X146673013Y-61923453D01*
X146574464Y-61775965D01*
X146574459Y-61775959D01*
X146449040Y-61650540D01*
X146449034Y-61650535D01*
X146374564Y-61600776D01*
X146301547Y-61551987D01*
X146137666Y-61484106D01*
X145963693Y-61449500D01*
X145963691Y-61449500D01*
X145786309Y-61449500D01*
X145786306Y-61449500D01*
X145612333Y-61484106D01*
X145612328Y-61484108D01*
X145448453Y-61551987D01*
X145300965Y-61650535D01*
X145300959Y-61650540D01*
X145175540Y-61775959D01*
X145175535Y-61775965D01*
X145076987Y-61923453D01*
X145009108Y-62087328D01*
X145009106Y-62087333D01*
X144974500Y-62261306D01*
X123433624Y-62261306D01*
X123182121Y-62121711D01*
X122831853Y-61971398D01*
X122468157Y-61857289D01*
X122094808Y-61780564D01*
X121779000Y-61748448D01*
X121779000Y-62569297D01*
X121717993Y-62534075D01*
X121590826Y-62500000D01*
X121459174Y-62500000D01*
X121332007Y-62534075D01*
X121271000Y-62569297D01*
X121271000Y-61748448D01*
X121270999Y-61748448D01*
X120955191Y-61780564D01*
X120581842Y-61857289D01*
X120218146Y-61971398D01*
X119867878Y-62121711D01*
X119534597Y-62306696D01*
X119221752Y-62524442D01*
X118932537Y-62772725D01*
X118669928Y-63048988D01*
X118669924Y-63048994D01*
X118436609Y-63350411D01*
X118436605Y-63350418D01*
X118234982Y-63673890D01*
X118234982Y-63673891D01*
X118067120Y-64016099D01*
X117934737Y-64373542D01*
X117839194Y-64742550D01*
X117839192Y-64742560D01*
X117781476Y-65119314D01*
X117781474Y-65119331D01*
X117775051Y-65245999D01*
X117036590Y-65245999D01*
X117042382Y-65113336D01*
X117043340Y-65102388D01*
X117093141Y-64724113D01*
X117095049Y-64713296D01*
X117097314Y-64703083D01*
X117177627Y-64340808D01*
X117180471Y-64330197D01*
X117207018Y-64246000D01*
X117295199Y-63966323D01*
X117298956Y-63956002D01*
X117301442Y-63950000D01*
X117444969Y-63603496D01*
X117449611Y-63593543D01*
X117458459Y-63576547D01*
X117625786Y-63255114D01*
X117631261Y-63245631D01*
X117836281Y-62923813D01*
X117842564Y-62914841D01*
X117969050Y-62750002D01*
X118074839Y-62612136D01*
X118081904Y-62603716D01*
X118256379Y-62413310D01*
X118339660Y-62322424D01*
X118347429Y-62314656D01*
X118405651Y-62261306D01*
X118628718Y-62056901D01*
X118637136Y-62049839D01*
X118889147Y-61856463D01*
X118939841Y-61817564D01*
X118948813Y-61811281D01*
X119270631Y-61606261D01*
X119280114Y-61600786D01*
X119618552Y-61424606D01*
X119628496Y-61419969D01*
X119981009Y-61273953D01*
X119991323Y-61270199D01*
X120355204Y-61155468D01*
X120365808Y-61152627D01*
X120738304Y-61070047D01*
X120749113Y-61068141D01*
X121127391Y-61018339D01*
X121138336Y-61017382D01*
X121522252Y-61000620D01*
X121527748Y-61000500D01*
X121590892Y-61000500D01*
X211459108Y-61000500D01*
X211522252Y-61000500D01*
X211527748Y-61000620D01*
G37*
%TD.AperFunction*%
%TD*%
M02*
