%TF.GenerationSoftware,KiCad,Pcbnew,8.0.8*%
%TF.CreationDate,2025-12-07T22:54:29+08:00*%
%TF.ProjectId,QuietLDO,51756965-744c-4444-9f2e-6b696361645f,rev?*%
%TF.SameCoordinates,Original*%
%TF.FileFunction,Soldermask,Bot*%
%TF.FilePolarity,Negative*%
%FSLAX46Y46*%
G04 Gerber Fmt 4.6, Leading zero omitted, Abs format (unit mm)*
G04 Created by KiCad (PCBNEW 8.0.8) date 2025-12-07 22:54:29*
%MOMM*%
%LPD*%
G01*
G04 APERTURE LIST*
%ADD10R,1.800000X1.800000*%
%ADD11C,1.800000*%
%ADD12C,2.500000*%
%ADD13C,1.000000*%
%ADD14C,6.500000*%
%ADD15C,1.524000*%
%ADD16O,1.400000X2.200000*%
%ADD17R,0.600000X1.700000*%
%ADD18R,1.000000X2.800000*%
G04 APERTURE END LIST*
D10*
%TO.C,CN18*%
X137125000Y-64500000D03*
D11*
X139625000Y-64500000D03*
%TD*%
D12*
%TO.C,CN17*%
X128038250Y-76300000D03*
X128038250Y-81300000D03*
D11*
X118038250Y-84300000D03*
X118038250Y-73300000D03*
%TD*%
D13*
%TO.C,hole3*%
X119025000Y-65500000D03*
X119757000Y-63732000D03*
X119757000Y-67268000D03*
X121525000Y-63000000D03*
D14*
X121525000Y-65500000D03*
D13*
X121525000Y-68000000D03*
X123293000Y-63732000D03*
X123293000Y-67268000D03*
X124025000Y-65500000D03*
%TD*%
%TO.C,hole2*%
X209025000Y-65500000D03*
X209757000Y-63732000D03*
X209757000Y-67268000D03*
X211525000Y-63000000D03*
D14*
X211525000Y-65500000D03*
D13*
X211525000Y-68000000D03*
X213293000Y-63732000D03*
X213293000Y-67268000D03*
X214025000Y-65500000D03*
%TD*%
%TO.C,hole4*%
X119025000Y-105500000D03*
X119757000Y-103732000D03*
X119757000Y-107268000D03*
X121525000Y-103000000D03*
D14*
X121525000Y-105500000D03*
D13*
X121525000Y-108000000D03*
X123293000Y-103732000D03*
X123293000Y-107268000D03*
X124025000Y-105500000D03*
%TD*%
D15*
%TO.C,SW1*%
X152025000Y-62750000D03*
X150025000Y-62750000D03*
X148025000Y-62750000D03*
D16*
X145875000Y-62750000D03*
X154175000Y-62750000D03*
%TD*%
D13*
%TO.C,hole1*%
X209025000Y-105500000D03*
X209757000Y-103732000D03*
X209757000Y-107268000D03*
X211525000Y-103000000D03*
D14*
X211525000Y-105500000D03*
D13*
X211525000Y-108000000D03*
X213293000Y-103732000D03*
X213293000Y-107268000D03*
X214025000Y-105500000D03*
%TD*%
D17*
%TO.C,CN4*%
X153763500Y-105589000D03*
X152513500Y-105589000D03*
D18*
X155613500Y-108489000D03*
X150663500Y-108489000D03*
%TD*%
D17*
%TO.C,CN8*%
X201013500Y-105539000D03*
X199763500Y-105539000D03*
D18*
X202863500Y-108439000D03*
X197913500Y-108439000D03*
%TD*%
D17*
%TO.C,CN3*%
X134375000Y-105600000D03*
X133125000Y-105600000D03*
D18*
X136225000Y-108500000D03*
X131275000Y-108500000D03*
%TD*%
D17*
%TO.C,CN7*%
X173725000Y-105600000D03*
X172475000Y-105600000D03*
D18*
X175575000Y-108500000D03*
X170625000Y-108500000D03*
%TD*%
D17*
%TO.C,CN15*%
X180625000Y-105600000D03*
X179375000Y-105600000D03*
D18*
X182475000Y-108500000D03*
X177525000Y-108500000D03*
%TD*%
D17*
%TO.C,CN16*%
X194213500Y-105539000D03*
X192963500Y-105539000D03*
D18*
X196063500Y-108439000D03*
X191113500Y-108439000D03*
%TD*%
D17*
%TO.C,CN10*%
X160513500Y-105589000D03*
X159263500Y-105589000D03*
D18*
X162363500Y-108489000D03*
X157413500Y-108489000D03*
%TD*%
D17*
%TO.C,CN13*%
X141125000Y-105600000D03*
X139875000Y-105600000D03*
D18*
X142975000Y-108500000D03*
X138025000Y-108500000D03*
%TD*%
M02*
