  0
SECTION
  2
HEADER
  9
$ANGBASE
  50
0.0
  9
$ANGDIR
  70
1
  9
$MEASUREMENT
  70
0
  0
ENDSEC
  0
SECTION
  2
TABLES
  0
TABLE
  2
LTYPE
  70
4
  0
LTYPE
  5
40F
  2
CONTINUOUS
  70
0
  3
Solid line
  72
65
  73
0
  40
0.0
  0
LTYPE
  5
410
  2
DASHDOT
 70
0
  3
Dash Dot ____ _ ____ _
 72
65
 73
4
 40
2.0
 49
1.25
 49
-0.25
 49
0.25
 49
-0.25
  0
LTYPE
  5
411
  2
DASHED
 70
0
  3
Dashed __ __ __ __ __
 72
65
 73
2
 40
0.75
 49
0.5
 49
-0.25
  0
LTYPE
  5
43B
  2
DOTTED
 70
0
  3
Dotted .  .  .  .
 72
65
 73
2
 40
0.2
 49
0.0
 49
-0.2
  0
ENDTAB
  0
TABLE
  2
STYLE
  70
4
  0
STYLE
  2
KICAD
  70
0
  40
0
  41
1
  42
1
  50
0
  71
0
  3
isocp.shx
  0
STYLE
  2
KICADB
  70
0
  40
0
  41
1
  42
1
  50
0
  71
0
  3
isocp.shx
  0
STYLE
  2
KICADI
  70
0
  40
0
  41
1
  42
1
  50
15
  71
0
  3
isocp.shx
  0
STYLE
  2
KICADBI
  70
0
  40
0
  41
1
  42
1
  50
15
  71
0
  3
isocp.shx
  0
ENDTAB
  0
TABLE
  2
LAYER
  70
1
  0
LAYER
  2
BLACK
  70
0
  62
7
  6
CONTINUOUS
  0
ENDTAB
  0
ENDSEC
  0
SECTION
  2
ENTITIES
0
LINE
8
BLACK
6
CONTINUOUS
10
8.3277559055118111
20
-2.3769685039370079
11
8.3444180708661424
21
-2.3776576377952754
0
LINE
8
BLACK
6
CONTINUOUS
10
8.3444180708661424
20
-2.3776576377952754
11
8.3609664173228353
21
-2.3797203937007874
0
LINE
8
BLACK
6
CONTINUOUS
10
8.3609664173228353
20
-2.3797203937007874
11
8.3772879133858265
21
-2.3831426771653543
0
LINE
8
BLACK
6
CONTINUOUS
10
8.3772879133858265
20
-2.3831426771653543
11
8.3932710629921257
21
-2.387901062992126
0
LINE
8
BLACK
6
CONTINUOUS
10
8.3932710629921257
20
-2.387901062992126
11
8.4088066535433068
21
-2.3939630708661417
0
LINE
8
BLACK
6
CONTINUOUS
10
8.4088066535433068
20
-2.3939630708661417
11
8.4237885826771652
21
-2.4012872834645669
0
LINE
8
BLACK
6
CONTINUOUS
10
8.4237885826771652
20
-2.4012872834645669
11
8.4381145275590548
21
-2.4098237007874017
0
LINE
8
BLACK
6
CONTINUOUS
10
8.4381145275590548
20
-2.4098237007874017
11
8.4516866141732283
21
-2.4195139763779525
0
LINE
8
BLACK
6
CONTINUOUS
10
8.4516866141732283
20
-2.4195139763779525
11
8.4644121259842517
21
-2.4302919291338583
0
LINE
8
BLACK
6
CONTINUOUS
10
8.4644121259842517
20
-2.4302919291338583
11
8.4762041338582677
21
-2.4420839370078737
0
LINE
8
BLACK
6
CONTINUOUS
10
8.4762041338582677
20
-2.4420839370078737
11
8.486982086614173
21
-2.4548094488188976
0
LINE
8
BLACK
6
CONTINUOUS
10
8.486982086614173
20
-2.4548094488188976
11
8.4966723622047251
21
-2.4683815354330707
0
LINE
8
BLACK
6
CONTINUOUS
10
8.4966723622047251
20
-2.4683815354330707
11
8.5052087795275586
21
-2.4827074803149607
0
LINE
8
BLACK
6
CONTINUOUS
10
8.5052087795275586
20
-2.4827074803149607
11
8.5125329921259834
21
-2.4976894094488187
0
LINE
8
BLACK
6
CONTINUOUS
10
8.5125329921259834
20
-2.4976894094488187
11
8.5185949999999995
21
-2.5132249999999998
0
LINE
8
BLACK
6
CONTINUOUS
10
8.5185949999999995
20
-2.5132249999999998
11
8.5233533858267716
21
-2.529208149606299
0
LINE
8
BLACK
6
CONTINUOUS
10
8.5233533858267716
20
-2.529208149606299
11
8.5267756692913377
21
-2.5455296456692911
0
LINE
8
BLACK
6
CONTINUOUS
10
8.5267756692913377
20
-2.5455296456692911
11
8.5288384251968505
21
-2.562077992125984
0
LINE
8
BLACK
6
CONTINUOUS
10
8.5288384251968505
20
-2.562077992125984
11
8.5295275590551185
21
-2.5787401574803148
0
LINE
8
BLACK
6
CONTINUOUS
10
8.5295275590551185
20
-2.5787401574803148
11
8.5295275590551185
21
-4.1535433070866139
0
LINE
8
BLACK
6
CONTINUOUS
10
8.5295275590551185
20
-4.1535433070866139
11
8.5288384251968505
21
-4.1702054724409452
0
LINE
8
BLACK
6
CONTINUOUS
10
8.5288384251968505
20
-4.1702054724409452
11
8.5267756692913377
21
-4.1867538188976381
0
LINE
8
BLACK
6
CONTINUOUS
10
8.5267756692913377
20
-4.1867538188976381
11
8.5233533858267716
21
-4.2030753149606301
0
LINE
8
BLACK
6
CONTINUOUS
10
8.5233533858267716
20
-4.2030753149606301
11
8.5185949999999995
21
-4.2190584645669293
0
LINE
8
BLACK
6
CONTINUOUS
10
8.5185949999999995
20
-4.2190584645669293
11
8.5125329921259834
21
-4.2345940551181105
0
LINE
8
BLACK
6
CONTINUOUS
10
8.5125329921259834
20
-4.2345940551181105
11
8.5052087795275586
21
-4.249575984251968
0
LINE
8
BLACK
6
CONTINUOUS
10
8.5052087795275586
20
-4.249575984251968
11
8.4966723622047251
21
-4.2639019291338585
0
LINE
8
BLACK
6
CONTINUOUS
10
8.4966723622047251
20
-4.2639019291338585
11
8.486982086614173
21
-4.2774740157480311
0
LINE
8
BLACK
6
CONTINUOUS
10
8.486982086614173
20
-4.2774740157480311
11
8.4762041338582677
21
-4.2901995275590554
0
LINE
8
BLACK
6
CONTINUOUS
10
8.4762041338582677
20
-4.2901995275590554
11
8.4644121259842517
21
-4.3019915354330704
0
LINE
8
BLACK
6
CONTINUOUS
10
8.4644121259842517
20
-4.3019915354330704
11
8.4516866141732283
21
-4.3127694881889767
0
LINE
8
BLACK
6
CONTINUOUS
10
8.4516866141732283
20
-4.3127694881889767
11
8.4381145275590548
21
-4.3224597637795279
0
LINE
8
BLACK
6
CONTINUOUS
10
8.4381145275590548
20
-4.3224597637795279
11
8.4237885826771652
21
-4.3309961811023623
0
LINE
8
BLACK
6
CONTINUOUS
10
8.4237885826771652
20
-4.3309961811023623
11
8.4088066535433068
21
-4.338320393700787
0
LINE
8
BLACK
6
CONTINUOUS
10
8.4088066535433068
20
-4.338320393700787
11
8.3932710629921257
21
-4.3443824015748032
0
LINE
8
BLACK
6
CONTINUOUS
10
8.3932710629921257
20
-4.3443824015748032
11
8.3772879133858265
21
-4.3491407874015744
0
LINE
8
BLACK
6
CONTINUOUS
10
8.3772879133858265
20
-4.3491407874015744
11
8.3609664173228353
21
-4.3525630708661414
0
LINE
8
BLACK
6
CONTINUOUS
10
8.3609664173228353
20
-4.3525630708661414
11
8.3444180708661424
21
-4.3546258267716533
0
LINE
8
BLACK
6
CONTINUOUS
10
8.3444180708661424
20
-4.3546258267716533
11
8.3277559055118111
21
-4.3553149606299213
0
LINE
8
BLACK
6
CONTINUOUS
10
8.3277559055118111
20
-4.3553149606299213
11
4.784448818897638
21
-4.3553149606299213
0
LINE
8
BLACK
6
CONTINUOUS
10
4.784448818897638
20
-4.3553149606299213
11
4.7677866535433067
21
-4.3546258267716533
0
LINE
8
BLACK
6
CONTINUOUS
10
4.7677866535433067
20
-4.3546258267716533
11
4.7512383070866138
21
-4.3525630708661414
0
LINE
8
BLACK
6
CONTINUOUS
10
4.7512383070866138
20
-4.3525630708661414
11
4.7349168110236217
21
-4.3491407874015744
0
LINE
8
BLACK
6
CONTINUOUS
10
4.7349168110236217
20
-4.3491407874015744
11
4.7189336614173225
21
-4.3443824015748032
0
LINE
8
BLACK
6
CONTINUOUS
10
4.7189336614173225
20
-4.3443824015748032
11
4.7033980708661414
21
-4.338320393700787
0
LINE
8
BLACK
6
CONTINUOUS
10
4.7033980708661414
20
-4.338320393700787
11
4.6884161417322829
21
-4.3309961811023623
0
LINE
8
BLACK
6
CONTINUOUS
10
4.6884161417322829
20
-4.3309961811023623
11
4.6740901968503934
21
-4.3224597637795279
0
LINE
8
BLACK
6
CONTINUOUS
10
4.6740901968503934
20
-4.3224597637795279
11
4.6605181102362208
21
-4.3127694881889767
0
LINE
8
BLACK
6
CONTINUOUS
10
4.6605181102362208
20
-4.3127694881889767
11
4.6477925984251964
21
-4.3019915354330704
0
LINE
8
BLACK
6
CONTINUOUS
10
4.6477925984251964
20
-4.3019915354330704
11
4.6360005905511814
21
-4.2901995275590554
0
LINE
8
BLACK
6
CONTINUOUS
10
4.6360005905511814
20
-4.2901995275590554
11
4.6252226377952752
21
-4.2774740157480311
0
LINE
8
BLACK
6
CONTINUOUS
10
4.6252226377952752
20
-4.2774740157480311
11
4.615532362204724
21
-4.2639019291338585
0
LINE
8
BLACK
6
CONTINUOUS
10
4.615532362204724
20
-4.2639019291338585
11
4.6069959448818896
21
-4.249575984251968
0
LINE
8
BLACK
6
CONTINUOUS
10
4.6069959448818896
20
-4.249575984251968
11
4.5996717322834648
21
-4.2345940551181105
0
LINE
8
BLACK
6
CONTINUOUS
10
4.5996717322834648
20
-4.2345940551181105
11
4.5936097244094487
21
-4.2190584645669293
0
LINE
8
BLACK
6
CONTINUOUS
10
4.5936097244094487
20
-4.2190584645669293
11
4.5888513385826775
21
-4.2030753149606301
0
LINE
8
BLACK
6
CONTINUOUS
10
4.5888513385826775
20
-4.2030753149606301
11
4.5854290551181105
21
-4.1867538188976381
0
LINE
8
BLACK
6
CONTINUOUS
10
4.5854290551181105
20
-4.1867538188976381
11
4.5833662992125985
21
-4.1702054724409452
0
LINE
8
BLACK
6
CONTINUOUS
10
4.5833662992125985
20
-4.1702054724409452
11
4.5826771653543306
21
-4.1535433070866139
0
LINE
8
BLACK
6
CONTINUOUS
10
4.5826771653543306
20
-4.1535433070866139
11
4.5826771653543306
21
-2.5787401574803148
0
LINE
8
BLACK
6
CONTINUOUS
10
4.5826771653543306
20
-2.5787401574803148
11
4.5833662992125985
21
-2.562077992125984
0
LINE
8
BLACK
6
CONTINUOUS
10
4.5833662992125985
20
-2.562077992125984
11
4.5854290551181105
21
-2.5455296456692911
0
LINE
8
BLACK
6
CONTINUOUS
10
4.5854290551181105
20
-2.5455296456692911
11
4.5888513385826775
21
-2.529208149606299
0
LINE
8
BLACK
6
CONTINUOUS
10
4.5888513385826775
20
-2.529208149606299
11
4.5936097244094487
21
-2.5132249999999998
0
LINE
8
BLACK
6
CONTINUOUS
10
4.5936097244094487
20
-2.5132249999999998
11
4.5996717322834648
21
-2.4976894094488187
0
LINE
8
BLACK
6
CONTINUOUS
10
4.5996717322834648
20
-2.4976894094488187
11
4.6069959448818896
21
-2.4827074803149607
0
LINE
8
BLACK
6
CONTINUOUS
10
4.6069959448818896
20
-2.4827074803149607
11
4.615532362204724
21
-2.4683815354330707
0
LINE
8
BLACK
6
CONTINUOUS
10
4.615532362204724
20
-2.4683815354330707
11
4.6252226377952752
21
-2.4548094488188976
0
LINE
8
BLACK
6
CONTINUOUS
10
4.6252226377952752
20
-2.4548094488188976
11
4.6360005905511814
21
-2.4420839370078737
0
LINE
8
BLACK
6
CONTINUOUS
10
4.6360005905511814
20
-2.4420839370078737
11
4.6477925984251964
21
-2.4302919291338583
0
LINE
8
BLACK
6
CONTINUOUS
10
4.6477925984251964
20
-2.4302919291338583
11
4.6605181102362208
21
-2.4195139763779525
0
LINE
8
BLACK
6
CONTINUOUS
10
4.6605181102362208
20
-2.4195139763779525
11
4.6740901968503934
21
-2.4098237007874017
0
LINE
8
BLACK
6
CONTINUOUS
10
4.6740901968503934
20
-2.4098237007874017
11
4.6884161417322829
21
-2.4012872834645669
0
LINE
8
BLACK
6
CONTINUOUS
10
4.6884161417322829
20
-2.4012872834645669
11
4.7033980708661414
21
-2.3939630708661417
0
LINE
8
BLACK
6
CONTINUOUS
10
4.7033980708661414
20
-2.3939630708661417
11
4.7189336614173225
21
-2.387901062992126
0
LINE
8
BLACK
6
CONTINUOUS
10
4.7189336614173225
20
-2.387901062992126
11
4.7349168110236217
21
-2.3831426771653543
0
LINE
8
BLACK
6
CONTINUOUS
10
4.7349168110236217
20
-2.3831426771653543
11
4.7512383070866138
21
-2.3797203937007874
0
LINE
8
BLACK
6
CONTINUOUS
10
4.7512383070866138
20
-2.3797203937007874
11
4.7677866535433067
21
-2.3776576377952754
0
LINE
8
BLACK
6
CONTINUOUS
10
4.7677866535433067
20
-2.3776576377952754
11
4.784448818897638
21
-2.3769685039370079
0
LINE
8
BLACK
6
CONTINUOUS
10
4.784448818897638
20
-2.3769685039370079
11
8.3277559055118111
21
-2.3769685039370079
0
LINE
8
BLACK
6
CONTINUOUS
10
4.784448818897638
20
-2.3868110236220472
11
4.776069015748031
21
-2.3868110236220472
0
LINE
8
BLACK
6
CONTINUOUS
10
4.776069015748031
20
-2.3868110236220472
11
4.7593731889763777
21
-2.3882717322834646
0
LINE
8
BLACK
6
CONTINUOUS
10
4.7593731889763777
20
-2.3882717322834646
11
4.7428681889763782
21
-2.3911820078740158
0
LINE
8
BLACK
6
CONTINUOUS
10
4.7428681889763782
20
-2.3911820078740158
11
4.7266796456692912
21
-2.3955197244094486
0
LINE
8
BLACK
6
CONTINUOUS
10
4.7266796456692912
20
-2.3955197244094486
11
4.7109307480314957
21
-2.4012518503937006
0
LINE
8
BLACK
6
CONTINUOUS
10
4.7109307480314957
20
-2.4012518503937006
11
4.6957413779527561
21
-2.4083347637795276
0
LINE
8
BLACK
6
CONTINUOUS
10
4.6957413779527561
20
-2.4083347637795276
11
4.6812271259842522
21
-2.4167145669291337
0
LINE
8
BLACK
6
CONTINUOUS
10
4.6812271259842522
20
-2.4167145669291337
11
4.6674984645669291
21
-2.4263274803149604
0
LINE
8
BLACK
6
CONTINUOUS
10
4.6674984645669291
20
-2.4263274803149604
11
4.6546598425196848
21
-2.4371003543307088
0
LINE
8
BLACK
6
CONTINUOUS
10
4.6546598425196848
20
-2.4371003543307088
11
4.6428090157480311
21
-2.4489511811023621
0
LINE
8
BLACK
6
CONTINUOUS
10
4.6428090157480311
20
-2.4489511811023621
11
4.6320361417322831
21
-2.4617898031496064
0
LINE
8
BLACK
6
CONTINUOUS
10
4.6320361417322831
20
-2.4617898031496064
11
4.6224232283464568
21
-2.475518464566929
0
LINE
8
BLACK
6
CONTINUOUS
10
4.6224232283464568
20
-2.475518464566929
11
4.6140434251968498
21
-2.490032716535433
0
LINE
8
BLACK
6
CONTINUOUS
10
4.6140434251968498
20
-2.490032716535433
11
4.6069605118110237
21
-2.505222086614173
0
LINE
8
BLACK
6
CONTINUOUS
10
4.6069605118110237
20
-2.505222086614173
11
4.6012283858267713
21
-2.5209709842519685
0
LINE
8
BLACK
6
CONTINUOUS
10
4.6012283858267713
20
-2.5209709842519685
11
4.596890669291338
21
-2.5371595275590551
0
LINE
8
BLACK
6
CONTINUOUS
10
4.596890669291338
20
-2.5371595275590551
11
4.5939803937007877
21
-2.553664527559055
0
LINE
8
BLACK
6
CONTINUOUS
10
4.5939803937007877
20
-2.553664527559055
11
4.5925196850393704
21
-2.5703603543307088
0
LINE
8
BLACK
6
CONTINUOUS
10
4.5925196850393704
20
-2.5703603543307088
11
4.5925196850393704
21
-2.5787401574803148
0
LINE
8
BLACK
6
CONTINUOUS
10
4.5925196850393704
20
-2.5787401574803148
11
4.5925196850393704
21
-4.1535433070866139
0
LINE
8
BLACK
6
CONTINUOUS
10
4.5925196850393704
20
-4.1535433070866139
11
4.5925196850393704
21
-4.16192311023622
0
LINE
8
BLACK
6
CONTINUOUS
10
4.5925196850393704
20
-4.16192311023622
11
4.5939803937007877
21
-4.1786189370078741
0
LINE
8
BLACK
6
CONTINUOUS
10
4.5939803937007877
20
-4.1786189370078741
11
4.596890669291338
21
-4.1951239370078737
0
LINE
8
BLACK
6
CONTINUOUS
10
4.596890669291338
20
-4.1951239370078737
11
4.6012283858267713
21
-4.2113124803149606
0
LINE
8
BLACK
6
CONTINUOUS
10
4.6012283858267713
20
-4.2113124803149606
11
4.6069605118110237
21
-4.2270613779527562
0
LINE
8
BLACK
6
CONTINUOUS
10
4.6069605118110237
20
-4.2270613779527562
11
4.6140434251968498
21
-4.2422507480314957
0
LINE
8
BLACK
6
CONTINUOUS
10
4.6140434251968498
20
-4.2422507480314957
11
4.6224232283464568
21
-4.2567649999999997
0
LINE
8
BLACK
6
CONTINUOUS
10
4.6224232283464568
20
-4.2567649999999997
11
4.6320361417322831
21
-4.2704936614173228
0
LINE
8
BLACK
6
CONTINUOUS
10
4.6320361417322831
20
-4.2704936614173228
11
4.6428090157480311
21
-4.2833322834645671
0
LINE
8
BLACK
6
CONTINUOUS
10
4.6428090157480311
20
-4.2833322834645671
11
4.6546598425196848
21
-4.2951831102362208
0
LINE
8
BLACK
6
CONTINUOUS
10
4.6546598425196848
20
-4.2951831102362208
11
4.6674984645669291
21
-4.3059559842519688
0
LINE
8
BLACK
6
CONTINUOUS
10
4.6674984645669291
20
-4.3059559842519688
11
4.6812271259842522
21
-4.3155688976377951
0
LINE
8
BLACK
6
CONTINUOUS
10
4.6812271259842522
20
-4.3155688976377951
11
4.6957413779527561
21
-4.3239487007874011
0
LINE
8
BLACK
6
CONTINUOUS
10
4.6957413779527561
20
-4.3239487007874011
11
4.7109307480314957
21
-4.3310316141732281
0
LINE
8
BLACK
6
CONTINUOUS
10
4.7109307480314957
20
-4.3310316141732281
11
4.7266796456692912
21
-4.3367637401574806
0
LINE
8
BLACK
6
CONTINUOUS
10
4.7266796456692912
20
-4.3367637401574806
11
4.7428681889763782
21
-4.3411014566929129
0
LINE
8
BLACK
6
CONTINUOUS
10
4.7428681889763782
20
-4.3411014566929129
11
4.7593731889763777
21
-4.3440117322834642
0
LINE
8
BLACK
6
CONTINUOUS
10
4.7593731889763777
20
-4.3440117322834642
11
4.776069015748031
21
-4.3454724409448815
0
LINE
8
BLACK
6
CONTINUOUS
10
4.776069015748031
20
-4.3454724409448815
11
4.784448818897638
21
-4.3454724409448815
0
LINE
8
BLACK
6
CONTINUOUS
10
4.784448818897638
20
-4.3454724409448815
11
8.3277559055118111
21
-4.3454724409448815
0
LINE
8
BLACK
6
CONTINUOUS
10
8.3277559055118111
20
-4.3454724409448815
11
8.3361357086614163
21
-4.3454724409448815
0
LINE
8
BLACK
6
CONTINUOUS
10
8.3361357086614163
20
-4.3454724409448815
11
8.3528315354330704
21
-4.3440117322834642
0
LINE
8
BLACK
6
CONTINUOUS
10
8.3528315354330704
20
-4.3440117322834642
11
8.3693365354330709
21
-4.3411014566929129
0
LINE
8
BLACK
6
CONTINUOUS
10
8.3693365354330709
20
-4.3411014566929129
11
8.385525078740157
21
-4.3367637401574806
0
LINE
8
BLACK
6
CONTINUOUS
10
8.385525078740157
20
-4.3367637401574806
11
8.4012739763779525
21
-4.3310316141732281
0
LINE
8
BLACK
6
CONTINUOUS
10
8.4012739763779525
20
-4.3310316141732281
11
8.4164633464566929
21
-4.3239487007874011
0
LINE
8
BLACK
6
CONTINUOUS
10
8.4164633464566929
20
-4.3239487007874011
11
8.430977598425196
21
-4.3155688976377951
0
LINE
8
BLACK
6
CONTINUOUS
10
8.430977598425196
20
-4.3155688976377951
11
8.4447062598425191
21
-4.3059559842519688
0
LINE
8
BLACK
6
CONTINUOUS
10
8.4447062598425191
20
-4.3059559842519688
11
8.4575448818897634
21
-4.2951831102362208
0
LINE
8
BLACK
6
CONTINUOUS
10
8.4575448818897634
20
-4.2951831102362208
11
8.469395708661418
21
-4.2833322834645671
0
LINE
8
BLACK
6
CONTINUOUS
10
8.469395708661418
20
-4.2833322834645671
11
8.480168582677166
21
-4.2704936614173228
0
LINE
8
BLACK
6
CONTINUOUS
10
8.480168582677166
20
-4.2704936614173228
11
8.4897814960629923
21
-4.2567649999999997
0
LINE
8
BLACK
6
CONTINUOUS
10
8.4897814960629923
20
-4.2567649999999997
11
8.4981612992125974
21
-4.2422507480314957
0
LINE
8
BLACK
6
CONTINUOUS
10
8.4981612992125974
20
-4.2422507480314957
11
8.5052442125984253
21
-4.2270613779527562
0
LINE
8
BLACK
6
CONTINUOUS
10
8.5052442125984253
20
-4.2270613779527562
11
8.5109763385826778
21
-4.2113124803149606
0
LINE
8
BLACK
6
CONTINUOUS
10
8.5109763385826778
20
-4.2113124803149606
11
8.5153140551181092
21
-4.1951239370078737
0
LINE
8
BLACK
6
CONTINUOUS
10
8.5153140551181092
20
-4.1951239370078737
11
8.5182243307086605
21
-4.1786189370078741
0
LINE
8
BLACK
6
CONTINUOUS
10
8.5182243307086605
20
-4.1786189370078741
11
8.5196850393700778
21
-4.16192311023622
0
LINE
8
BLACK
6
CONTINUOUS
10
8.5196850393700778
20
-4.16192311023622
11
8.5196850393700778
21
-4.1535433070866139
0
LINE
8
BLACK
6
CONTINUOUS
10
8.5196850393700778
20
-4.1535433070866139
11
8.5196850393700778
21
-2.5787401574803148
0
LINE
8
BLACK
6
CONTINUOUS
10
8.5196850393700778
20
-2.5787401574803148
11
8.5196850393700778
21
-2.5703603543307088
0
LINE
8
BLACK
6
CONTINUOUS
10
8.5196850393700778
20
-2.5703603543307088
11
8.5182243307086605
21
-2.553664527559055
0
LINE
8
BLACK
6
CONTINUOUS
10
8.5182243307086605
20
-2.553664527559055
11
8.5153140551181092
21
-2.5371595275590551
0
LINE
8
BLACK
6
CONTINUOUS
10
8.5153140551181092
20
-2.5371595275590551
11
8.5109763385826778
21
-2.5209709842519685
0
LINE
8
BLACK
6
CONTINUOUS
10
8.5109763385826778
20
-2.5209709842519685
11
8.5052442125984253
21
-2.505222086614173
0
LINE
8
BLACK
6
CONTINUOUS
10
8.5052442125984253
20
-2.505222086614173
11
8.4981612992125974
21
-2.490032716535433
0
LINE
8
BLACK
6
CONTINUOUS
10
8.4981612992125974
20
-2.490032716535433
11
8.4897814960629923
21
-2.475518464566929
0
LINE
8
BLACK
6
CONTINUOUS
10
8.4897814960629923
20
-2.475518464566929
11
8.480168582677166
21
-2.4617898031496064
0
LINE
8
BLACK
6
CONTINUOUS
10
8.480168582677166
20
-2.4617898031496064
11
8.469395708661418
21
-2.4489511811023621
0
LINE
8
BLACK
6
CONTINUOUS
10
8.469395708661418
20
-2.4489511811023621
11
8.4575448818897634
21
-2.4371003543307088
0
LINE
8
BLACK
6
CONTINUOUS
10
8.4575448818897634
20
-2.4371003543307088
11
8.4447062598425191
21
-2.4263274803149604
0
LINE
8
BLACK
6
CONTINUOUS
10
8.4447062598425191
20
-2.4263274803149604
11
8.430977598425196
21
-2.4167145669291337
0
LINE
8
BLACK
6
CONTINUOUS
10
8.430977598425196
20
-2.4167145669291337
11
8.4164633464566929
21
-2.4083347637795276
0
LINE
8
BLACK
6
CONTINUOUS
10
8.4164633464566929
20
-2.4083347637795276
11
8.4012739763779525
21
-2.4012518503937006
0
LINE
8
BLACK
6
CONTINUOUS
10
8.4012739763779525
20
-2.4012518503937006
11
8.385525078740157
21
-2.3955197244094486
0
LINE
8
BLACK
6
CONTINUOUS
10
8.385525078740157
20
-2.3955197244094486
11
8.3693365354330709
21
-2.3911820078740158
0
LINE
8
BLACK
6
CONTINUOUS
10
8.3693365354330709
20
-2.3911820078740158
11
8.3528315354330704
21
-2.3882717322834646
0
LINE
8
BLACK
6
CONTINUOUS
10
8.3528315354330704
20
-2.3882717322834646
11
8.3361357086614163
21
-2.3868110236220472
0
LINE
8
BLACK
6
CONTINUOUS
10
8.3361357086614163
20
-2.3868110236220472
11
8.3277559055118111
21
-2.3868110236220472
0
LINE
8
BLACK
6
CONTINUOUS
10
8.3277559055118111
20
-2.3868110236220472
11
4.784448818897638
21
-2.3868110236220472
  0
ENDSEC
  0
EOF
