%TF.GenerationSoftware,KiCad,Pcbnew,8.0.8*%
%TF.CreationDate,2025-12-22T17:17:20+08:00*%
%TF.ProjectId,Dual-OutputLDO,4475616c-2d4f-4757-9470-75744c444f2e,rev?*%
%TF.SameCoordinates,Original*%
%TF.FileFunction,Soldermask,Top*%
%TF.FilePolarity,Negative*%
%FSLAX46Y46*%
G04 Gerber Fmt 4.6, Leading zero omitted, Abs format (unit mm)*
G04 Created by KiCad (PCBNEW 8.0.8) date 2025-12-22 17:17:20*
%MOMM*%
%LPD*%
G01*
G04 APERTURE LIST*
G04 Aperture macros list*
%AMFreePoly0*
4,1,21,1.050000,0.300000,1.700000,0.300000,1.700000,0.100000,1.050000,0.100000,1.050000,-0.100000,1.700000,-0.100000,1.700000,-0.300000,1.050000,-0.300000,1.050000,-0.450000,-1.050000,-0.450000,-1.050000,-0.300000,-1.700000,-0.300000,-1.700000,-0.100000,-1.050000,-0.100000,-1.050000,0.100000,-1.700000,0.100000,-1.700000,0.300000,-1.050000,0.300000,-1.050000,0.450000,1.050000,0.450000,
1.050000,0.300000,1.050000,0.300000,$1*%
G04 Aperture macros list end*
%ADD10R,0.800000X0.900000*%
%ADD11R,0.864000X0.806500*%
%ADD12R,0.900000X0.800000*%
%ADD13R,0.806500X0.864000*%
%ADD14R,0.600000X1.700000*%
%ADD15R,1.000000X2.800000*%
%ADD16R,2.400000X3.200000*%
%ADD17O,1.252000X0.350000*%
%ADD18R,0.500500X0.279500*%
%ADD19FreePoly0,90.000000*%
%ADD20R,0.800000X0.800000*%
G04 APERTURE END LIST*
D10*
%TO.C,C16*%
X111215500Y-114997000D03*
X109815500Y-114997000D03*
%TD*%
%TO.C,C15*%
X116376600Y-103045600D03*
X117776600Y-103045600D03*
%TD*%
D11*
%TO.C,R4*%
X96607800Y-113696800D03*
X96607800Y-112189800D03*
%TD*%
D10*
%TO.C,C18*%
X115186000Y-113223199D03*
X116586000Y-113223199D03*
%TD*%
D12*
%TO.C,C1*%
X96607800Y-110411800D03*
X96607800Y-109011800D03*
%TD*%
D13*
%TO.C,R7*%
X114480000Y-101293000D03*
X112973000Y-101293000D03*
%TD*%
D10*
%TO.C,C17*%
X111209100Y-113123800D03*
X109809100Y-113123800D03*
%TD*%
D12*
%TO.C,C2*%
X98375750Y-110415750D03*
X98375750Y-109015750D03*
%TD*%
%TO.C,C6*%
X100646400Y-105266800D03*
X100646400Y-106666800D03*
%TD*%
D10*
%TO.C,C9*%
X86230400Y-112494600D03*
X87630400Y-112494600D03*
%TD*%
%TO.C,C8*%
X93432800Y-112926400D03*
X94832800Y-112926400D03*
%TD*%
D12*
%TO.C,C5*%
X102449800Y-105266800D03*
X102449800Y-106666800D03*
%TD*%
D14*
%TO.C,CN3*%
X116556400Y-116914000D03*
X117806400Y-116914000D03*
D15*
X114706400Y-119814000D03*
X119656400Y-119814000D03*
%TD*%
D13*
%TO.C,R2*%
X87616200Y-110818200D03*
X86109200Y-110818200D03*
%TD*%
D14*
%TO.C,CN2*%
X109889700Y-116914000D03*
X111139700Y-116914000D03*
D15*
X108039700Y-119814000D03*
X112989700Y-119814000D03*
%TD*%
D12*
%TO.C,C4*%
X87870200Y-105230200D03*
X87870200Y-106630200D03*
%TD*%
D16*
%TO.C,L1*%
X90407400Y-104087200D03*
X96407400Y-104087200D03*
%TD*%
D12*
%TO.C,C10*%
X111245800Y-101391600D03*
X111245800Y-102791600D03*
%TD*%
D17*
%TO.C,U1*%
X94629600Y-110840400D03*
X94629600Y-110190400D03*
X94629600Y-109540400D03*
X94629600Y-108890400D03*
X92177600Y-108890400D03*
X92177600Y-109540400D03*
X92177600Y-110190400D03*
X92177600Y-110840400D03*
%TD*%
D12*
%TO.C,C3*%
X100179150Y-110415750D03*
X100179150Y-109015750D03*
%TD*%
D18*
%TO.C,U2*%
X114847400Y-105337200D03*
X114847400Y-104837200D03*
X114847400Y-104337200D03*
X114847400Y-103837200D03*
X114847400Y-103337200D03*
X114847400Y-102837200D03*
X112967400Y-102837200D03*
X112967400Y-103337200D03*
X112967400Y-103837200D03*
X112967400Y-104337200D03*
X112967400Y-104837200D03*
X112967400Y-105337200D03*
D19*
X113907400Y-104087200D03*
%TD*%
D13*
%TO.C,R1*%
X87895600Y-108913200D03*
X89402600Y-108913200D03*
%TD*%
D10*
%TO.C,C19*%
X115160600Y-115033600D03*
X116560600Y-115033600D03*
%TD*%
D13*
%TO.C,R9*%
X111203400Y-106906400D03*
X109696400Y-106906400D03*
%TD*%
D14*
%TO.C,CN1*%
X92770800Y-116914000D03*
X94020800Y-116914000D03*
D15*
X90920800Y-119814000D03*
X95870800Y-119814000D03*
%TD*%
D13*
%TO.C,R8*%
X112964600Y-99743600D03*
X114471600Y-99743600D03*
%TD*%
D10*
%TO.C,C12*%
X111271200Y-104823600D03*
X109871200Y-104823600D03*
%TD*%
D20*
%TO.C,LED1*%
X111236100Y-108625100D03*
X109637100Y-108625100D03*
%TD*%
D12*
%TO.C,C11*%
X109453600Y-101391600D03*
X109453600Y-102791600D03*
%TD*%
D13*
%TO.C,R5*%
X114480000Y-106906400D03*
X112973000Y-106906400D03*
%TD*%
D12*
%TO.C,C7*%
X98853050Y-105260450D03*
X98853050Y-106660450D03*
%TD*%
D13*
%TO.C,R6*%
X117655000Y-106931800D03*
X116148000Y-106931800D03*
%TD*%
D10*
%TO.C,C14*%
X112973000Y-108608200D03*
X114373000Y-108608200D03*
%TD*%
D11*
%TO.C,R3*%
X89470400Y-112325200D03*
X89470400Y-110818200D03*
%TD*%
D10*
%TO.C,C13*%
X117725800Y-101293000D03*
X116325800Y-101293000D03*
%TD*%
M02*
