M48
; DRILL file {KiCad 8.0.8} date 2025-12-22T17:17:23+0800
; FORMAT={-:-/ absolute / inch / decimal}
; #@! TF.CreationDate,2025-12-22T17:17:23+08:00
; #@! TF.GenerationSoftware,Kicad,Pcbnew,8.0.8
; #@! TF.FileFunction,Plated,1,2,PTH
FMAT,2
INCH
; #@! TA.AperFunction,Plated,PTH,ViaDrill
T1C0.0098
%
G90
G05
T1
X3.395Y-4.481
X3.517Y-4.205
X3.65Y-4.7
X3.65Y-4.75
X3.675Y-4.725
X3.681Y-4.313
X3.7Y-4.7
X3.7Y-4.75
X3.7655Y-4.3035
X3.804Y-4.4485
X4.128Y-4.145
X4.325Y-4.7
X4.325Y-4.75
X4.345Y-4.0469
X4.35Y-4.24
X4.35Y-4.725
X4.375Y-4.7
X4.375Y-4.75
X4.379Y-4.171
X4.408Y-4.276
X4.41Y-4.24
X4.42Y-4.43
X4.42Y-4.45
X4.42Y-4.47
X4.42Y-4.51
X4.42Y-4.53
X4.42Y-4.55
X4.448Y-4.17
X4.48Y-4.07
X4.48Y-4.13
X4.49Y-4.44
X4.49Y-4.46
X4.49Y-4.48
X4.49Y-4.51
X4.49Y-4.53
X4.49Y-4.55
X4.552Y-4.149
X4.575Y-4.7
X4.575Y-4.75
X4.599Y-4.108
X4.6Y-4.725
X4.625Y-4.7
X4.625Y-4.75
M30
